<?xml version='1.0' encoding='UTF-8'?>
<svg xmlns="http://www.w3.org/2000/svg" id="Layer_2" data-name="Layer 2" viewBox="0 0 120.82 105.14">
  <defs>
    <style>
      .cls-1 {
        fill: #db1f26;
      }
    </style>
  </defs>
  <g id="Layer_1-2" data-name="Layer 1">
    <g>
      <g>
        <path class="cls-1" d="M21.76,85.73c3.4-1.78,3.27-3.49,3.2-4.41-.05-.65-.93-.42-1.46-.27-.3.11-.84.25-1.6.52-1.97.68-3.87,1.37-5.64,2.06l2.72-4.49c4.61-1.81,21.13-7.65,25.89-9.57,1.25-.5,1.42-1.26,1.39-1.67-.05-.65-.85-1.36-1.59-1.84-.57-.33-.92-.31-1.27-.26-1.58.23-16.39,5.06-19.42,6.11-11.87,4.11-20.41,8.96-20.41,8.96-.41.28-.47.48-.46.58,0,.1.15,1.39.41,2.18.21.67.63.59,1.28.47.54-.12,1.8-.45,3.43-1.01,1.82-.63,3.53-1.22,5.15-1.82l-2.82,4.67c-3.39,1.42-5.57,2.42-5.57,2.42-.97.51-2.25,2.15-2.15,3.31.14.73.72.67,1.63.35.8-.28,1.82-.6,3.04-1.02L.29,102.86c-.25.33-.3.63-.28.87.07.82.79,1.13,2.06,1.36.32.07.59.04.78-.02.38-.13.59-.45.91-.81.21-.25,4.97-8.12,9.2-15.17l2.28-.79c3.26-1.13,6.16-2.38,6.54-2.58Z" />
        <path class="cls-1" d="M42.74,83.57c-.11.04-.98.87-1.13.99-.99.83-5.79,5.1-6.77,5.54-.19.07-.23.08-.23.04,0-.03.03-.12.1-.21.13-.29.4-.88.82-1.41.42-.57,1.94-2.5,2.85-3.38.36-.37.48-.77.46-1.11-.04-.48-.35-.93-.72-1.16-.29-.22-.79-.11-1.28.06-.49.17-.9.38-1.02.42-.15.05-.2,0-.2-.07,0-.07.03-.15.03-.15,0,0,.53-.74,1.09-1.5.14-.22.21-.35.2-.49-.03-.34-.5-.42-.58-.47-.12-.06-.35-.48-.96-.27-.11.04-.22.11-.37.2-.93.6-4.06,3.34-4.99,4.4-.68.8-.79,1.4-.76,1.74.02.24.15.41.17.61.02.23-2.15,2.18-4.26,4.04,1.19-2.11,1.92-4.1,1.81-5.41-.09-1.16-2.02-1.38-2.02-1.38-.23.08-.41.18-.63.36-.66.54-1.37,1.46-1.51,1.65-.12-.06-.9-.04-1.24.08-3.75,1.3-8.74,9.14-8.38,13.66.06.75,2.33.42,2.83.25,2.11-.73,4.48-2.84,6.47-5.31.09.44.18.82.18.82.12.1.24.13.43.06.15-.05.3-.17.48-.31,1.9-2.1,7.54-7.18,8.61-8.39.14-.15.56-.37.9-.49.15-.05.27-.06.34-.08.15-.02.28.05.24.09-1.57,2.3-4.38,5.24-4.23,7.05.03.38.21.73.47,1,.38.39,1.04.38,1.57.19,1.28-.51,4.12-2.55,5.37-3.54,1.21-.98,5.37-5.06,5.83-5.53.22-.18,1.12-1.06,1.11-1.26-.01-.14-.1-.32-.28-.54-.31-.42-.27-.99-.8-.81ZM17.76,96.68c-.3.11-.38.1-.39.03-.15-1.88,5.54-9.2,5.93-9.29.15-.05.16.05.17.19.13,1.64-3.83,8.18-5.71,9.08Z" />
        <path class="cls-1" d="M66.62,73.62s1.5-.76,6.81-4.54c5.24-3.74,7.96-7.75,7.78-10-.15-1.95-3.32-3.49-4.92-4.06-1.08-.36-3.16-.03-5.93.93-6.3,2.18-15.89,8.98-18.46,12.33-.21.28-.42,1.06-.37,1.78.07.82.78,1.98,1.77,1.64.34-.12.71-.35,1.26-.82.91-.81,4.06-3.34,8.37-5.95-4.2,5.95-12.2,19.09-12.75,20.55-.13.33-.19.59-.17.83.06.72,1.75,1.96,2.74,1.62.53-.18.95-.75,1.16-1.14.3-.6,6.51-10.27,6.98-11.17,1.76,2.03,5.84,10.25,8.72,9.25.34-.12.79-.34,1.28-.62,1.76-.92,1.98-1.6,1.93-2.21-.13-1.61-5.54-7.93-6.2-8.4ZM62.97,71.79c.64-.78,4.31-7.11,5.28-8.61.21-.32.3-.6.29-.8-.01-.17-.1-.32-.27-.43,1.76-.86,3.57-1.62,5.43-2.27,3.91-1.35,3.99-.26,3.99-.26.09,3.06-10.83,11.27-14.21,12.44-.42.14-.51-.07-.51-.07Z" />
        <path class="cls-1" d="M115.15,60.24c-.01-.14-.1-.32-.28-.54-.31-.42-.27-.99-.8-.81-.11.04-.98.87-1.13.99l-6.02,5.21s-2.88,2.51-3.49,2.72c-.15.05-.19.03-.2-.04-.04-.48.1-1.16.43-1.98,3.85-3.02,17.52-16.92,17.14-21.64-.26-.79-1.15-1.19-1.92-1.16-1.14.39-3.4,1.81-6.22,4.58-4.32,4.21-9.5,10.99-12.06,16.59l-3.42,2.97c-.25.23-2.51,2.27-2.62,2.31.09-.38,2.3-4.45,2.43-4.71.03-.12.06-.2.05-.3-.01-.17-.1-.32-.22-.31-.16-.02-.36-.12-.37-.22-.02-.24,2.02-1.54,1.96-2.26-.04-.51-.57-1.31-1.54-1.29-.15.02-.35.05-.57.13-2.21.77-7.08,4.44-9.92,8.41-.16.14-.29.26-.33.3l-5.29,4.57s-2.99,2.58-4.73,3.19c-.46.16-.5.14-.5.03-.04-.44,5.83-5.14,6.21-5.28.49-.17.52-.35.49-.7-.04-.51-.34-1.36-.91-1.2-.6.28-1.58.65-2.42.94-.76.26-.87.3-.88.23,0-.1.24-.4.5-.59.29-.28,3.51-2.41,3.62-2.45.35-.05.23.45.65.3,0,0,4.19-2.19,4.07-3.76-.09-1.1-1.8-1.1-2.86-.73-1.06.37-3.47,1.48-6.31,3.94-3.21,2.76-3.71,3.78-3.64,4.7.12,1.47.66,1.42,1.96,1.18.23-.08.31-.04.31.03-.07.16-.47.48-.69.66-.47.44-3.66,3.02-3.52,4.73.15,1.88,2.18,1.99,4.53,1.17,1.29-.45,3.86-2.92,5.75-4.63,0,0,.86-.86,1.86-1.84-.03.31-.04.62-.02.93.05.68,1.17,1.46,1.85,1.22.8-.28,2.81-1.85,3.9-2.9.08-.03.12.03.12.1,0,.07-.02.18-.05.3-.03.12-.05.37-.03.61.04.48.59,1.03,1.54.7,1.37-.47,4.82-3.6,5.36-4.14,0,0,1.12-1.11,2.29-2.26-.15.75-.21,1.46-.16,2.08.04.55.58,1.94,2.18,1.39,2.69-.93,7.22-4.75,8.09-5.61l4.74-4.63c.22-.18,1.12-1.06,1.11-1.26ZM116.85,47.28c.11-.11.22-.15.26-.16.08-.03.12,0,.12.06,0,.1-.06.23-.16.41-2.05,3.63-6.08,8.78-9.29,11.61l-.82.53c3.19-4.94,7.59-10.46,9.88-12.45ZM88.8,71.4c-.08.03-.12,0-.12-.06-.1-1.27,3.84-5.62,5.19-6.26.11-.04.23-.01.24.09.03.41-3.99,5.67-5.31,6.23Z" />
        <path class="cls-1" d="M115.84,62.08c-.87.3-3.25,2.71-3.14,4.14.02.31,1.32.46,1.7.33,1.44-.5,3.3-3.04,3.22-4.14-.02-.31-1.48-.44-1.78-.33Z" />
      </g>
    </g>
  </g>
</svg>