<svg preserveAspectRatio="none" width="100%" height="100%" overflow="visible" style="display: block;" viewBox="0 0 262.441 315.521" fill="none" xmlns="http://www.w3.org/2000/svg">
<g id="Group 39">
<path id="Rectangle 357" d="M0 64.084L262.441 85.5414V315.521H30.5355L0 64.084Z" fill="var(--fill-0, #DB1F26)"/>
<path id="Vector 3 (Stroke)" d="M194.53 79.4728L187.301 86.382L120.486 16.4787L79.9626 85.4601L71.3396 80.3947L118.57 0.000178008L194.53 79.4728Z" fill="var(--fill-0, #F9F06C)"/>
<g id="open for Business&#194;&#160;">
<path id="Vector" d="M218.756 246.651H220.042C220.452 249.412 221.365 251.675 222.782 253.442C224.235 255.172 226.024 256.037 228.149 256.037C229.304 256.037 230.18 255.724 230.776 255.099C231.373 254.436 231.671 253.516 231.671 252.338C231.671 251.307 231.429 250.369 230.944 249.522C230.459 248.676 229.826 247.866 229.043 247.093C228.26 246.32 227.049 245.216 225.409 243.78C223.695 242.271 222.428 241.111 221.608 240.302C220.788 239.455 220.098 238.498 219.539 237.431C218.98 236.363 218.7 235.167 218.7 233.842C218.7 231.78 219.371 230.124 220.713 228.873C222.092 227.584 223.863 226.94 226.024 226.94C227.217 226.94 228.186 227.087 228.931 227.382C229.714 227.676 230.478 228.081 231.224 228.597C231.783 228.965 232.174 229.149 232.398 229.149C232.696 229.149 232.882 229.038 232.957 228.817C233.031 228.56 233.068 228.118 233.068 227.492H234.354V236.602H233.068C232.658 234.467 231.838 232.719 230.609 231.357C229.416 229.958 227.962 229.259 226.248 229.259C225.167 229.259 224.366 229.554 223.844 230.142C223.322 230.731 223.061 231.412 223.061 232.185C223.061 233.326 223.471 234.394 224.291 235.388C225.111 236.345 226.527 237.688 228.54 239.418C230.478 241.075 231.95 242.437 232.957 243.504C233.963 244.535 234.727 245.62 235.249 246.762C235.771 247.903 236.031 249.228 236.031 250.737C236.031 253.203 235.286 255.08 233.795 256.369C232.342 257.657 230.515 258.301 228.316 258.301C227.049 258.301 225.95 258.154 225.018 257.859C224.123 257.565 223.266 257.178 222.446 256.7C221.701 256.295 221.198 256.092 220.937 256.092C220.601 256.092 220.359 256.221 220.21 256.479C220.098 256.737 220.042 257.16 220.042 257.749H218.756V246.651Z" fill="var(--fill-0, white)"/>
<path id="Vector_2" d="M199.773 246.651H201.018C201.415 249.412 202.299 251.675 203.671 253.442C205.078 255.172 206.81 256.037 208.867 256.037C209.986 256.037 210.834 255.724 211.411 255.099C211.989 254.436 212.277 253.516 212.277 252.338C212.277 251.307 212.043 250.369 211.574 249.522C211.105 248.676 210.491 247.866 209.733 247.093C208.975 246.32 207.803 245.216 206.215 243.78C204.555 242.271 203.328 241.111 202.534 240.302C201.74 239.455 201.072 238.498 200.531 237.431C199.99 236.363 199.719 235.167 199.719 233.842C199.719 231.78 200.369 230.124 201.668 228.873C203.003 227.584 204.717 226.94 206.81 226.94C207.965 226.94 208.903 227.087 209.625 227.382C210.383 227.676 211.123 228.081 211.844 228.597C212.386 228.965 212.765 229.149 212.981 229.149C213.27 229.149 213.45 229.038 213.523 228.817C213.595 228.56 213.631 228.118 213.631 227.492H214.876V236.602H213.631C213.234 234.467 212.44 232.719 211.249 231.357C210.094 229.958 208.687 229.259 207.027 229.259C205.98 229.259 205.204 229.554 204.699 230.142C204.194 230.731 203.941 231.412 203.941 232.185C203.941 233.326 204.338 234.394 205.132 235.388C205.926 236.345 207.297 237.688 209.246 239.418C211.123 241.075 212.548 242.437 213.523 243.504C214.497 244.535 215.237 245.62 215.742 246.762C216.247 247.903 216.5 249.228 216.5 250.737C216.5 253.203 215.778 255.08 214.334 256.369C212.927 257.657 211.159 258.301 209.03 258.301C207.803 258.301 206.738 258.154 205.836 257.859C204.97 257.565 204.14 257.178 203.346 256.7C202.624 256.295 202.137 256.092 201.884 256.092C201.559 256.092 201.325 256.221 201.181 256.479C201.072 256.737 201.018 257.16 201.018 257.749H199.773V246.651Z" fill="var(--fill-0, white)"/>
<path id="Vector_3" d="M197.243 245.602C196.69 249.798 195.547 252.964 193.813 255.099C192.08 257.234 189.904 258.301 187.285 258.301C184.15 258.301 181.679 256.921 179.872 254.16C178.065 251.363 177.161 247.59 177.161 242.841C177.161 239.97 177.585 237.32 178.433 234.891C179.282 232.461 180.499 230.529 182.085 229.093C183.708 227.658 185.607 226.94 187.783 226.94C190.844 226.94 193.168 228.247 194.754 230.86C196.376 233.474 197.188 236.878 197.188 241.075H182.527V241.295C182.527 245.16 183.099 248.289 184.242 250.682C185.386 253.037 187.027 254.215 189.166 254.215C192.301 254.215 194.551 251.344 195.915 245.602H197.243ZM187.562 229.259C186.013 229.259 184.832 230.106 184.021 231.799C183.21 233.492 182.73 235.829 182.583 238.811H191.877C191.877 232.443 190.438 229.259 187.562 229.259Z" fill="var(--fill-0, white)"/>
<path id="Vector_4" d="M158.858 232.679C161.452 228.853 164.301 226.94 167.407 226.94C171.316 226.94 173.27 229.615 173.27 234.964V251.736C173.27 252.999 173.362 253.928 173.544 254.522C173.727 255.117 174.092 255.544 174.64 255.804C175.188 256.027 176.029 256.138 177.161 256.138V257.476H164.557V256.138C165.617 256.138 166.384 256.027 166.859 255.804C167.37 255.544 167.699 255.117 167.845 254.522C168.028 253.928 168.119 252.999 168.119 251.736V234.964C168.119 233.478 167.882 232.364 167.407 231.621C166.932 230.878 166.165 230.506 165.105 230.506C164.082 230.506 163.023 230.915 161.927 231.732C160.831 232.549 159.753 233.645 158.694 235.02V251.736C158.694 252.999 158.767 253.928 158.913 254.522C159.095 255.117 159.424 255.544 159.899 255.804C160.411 256.027 161.196 256.138 162.256 256.138V257.476H149.652V256.138C150.784 256.138 151.624 256.027 152.172 255.804C152.72 255.544 153.086 255.117 153.268 254.522C153.451 253.928 153.542 252.999 153.542 251.736V234.964C153.542 233.552 153.488 232.605 153.378 232.122C153.305 231.639 153.067 231.398 152.666 231.398C152.264 231.398 151.551 231.658 150.528 232.178L149.926 231.008L154.036 228.946L157.926 226.94L158.694 227.72V232.679H158.858Z" fill="var(--fill-0, white)"/>
<path id="Vector_5" d="M142.654 218.09C141.736 218.09 140.952 217.772 140.302 217.137C139.652 216.502 139.327 215.737 139.327 214.84C139.327 213.907 139.652 213.122 140.302 212.487C140.952 211.852 141.736 211.535 142.654 211.535C143.61 211.535 144.413 211.852 145.063 212.487C145.713 213.122 146.038 213.907 146.038 214.84C146.038 215.737 145.713 216.502 145.063 217.137C144.413 217.772 143.61 218.09 142.654 218.09ZM145.636 251.705C145.636 252.975 145.732 253.909 145.923 254.506C146.114 255.104 146.478 255.534 147.013 255.795C147.587 256.019 148.466 256.131 149.652 256.131V257.476H136.172V256.131C137.357 256.131 138.237 256.019 138.811 255.795C139.384 255.534 139.767 255.104 139.958 254.506C140.149 253.909 140.245 252.975 140.245 251.705V234.841C140.245 233.422 140.187 232.47 140.072 231.984C139.996 231.499 139.747 231.256 139.327 231.256C138.906 231.256 138.16 231.517 137.09 232.04L136.459 230.864L140.761 228.791L144.833 226.774L145.636 227.558V251.705Z" fill="var(--fill-0, white)"/>
<path id="Vector_6" d="M118.62 246.651H119.865C120.262 249.412 121.146 251.675 122.518 253.442C123.925 255.172 125.657 256.037 127.714 256.037C128.833 256.037 129.681 255.724 130.258 255.099C130.836 254.436 131.124 253.516 131.124 252.338C131.124 251.307 130.89 250.369 130.421 249.522C129.952 248.676 129.338 247.866 128.58 247.093C127.822 246.32 126.65 245.216 125.062 243.78C123.402 242.271 122.175 241.111 121.381 240.302C120.587 239.455 119.919 238.498 119.378 237.431C118.837 236.363 118.566 235.167 118.566 233.842C118.566 231.78 119.216 230.124 120.515 228.873C121.85 227.584 123.564 226.94 125.657 226.94C126.812 226.94 127.75 227.087 128.472 227.382C129.23 227.676 129.97 228.081 130.691 228.597C131.233 228.965 131.612 229.149 131.828 229.149C132.117 229.149 132.297 229.038 132.37 228.817C132.442 228.56 132.478 228.118 132.478 227.492H133.723V236.602H132.478C132.081 234.467 131.287 232.719 130.096 231.357C128.941 229.958 127.534 229.259 125.874 229.259C124.827 229.259 124.051 229.554 123.546 230.142C123.041 230.731 122.788 231.412 122.788 232.185C122.788 233.326 123.185 234.394 123.979 235.388C124.773 236.345 126.144 237.688 128.093 239.418C129.97 241.075 131.395 242.437 132.37 243.504C133.344 244.535 134.084 245.62 134.589 246.762C135.094 247.903 135.347 249.228 135.347 250.737C135.347 253.203 134.625 255.08 133.181 256.369C131.774 257.657 130.006 258.301 127.877 258.301C126.65 258.301 125.585 258.154 124.683 257.859C123.817 257.565 122.987 257.178 122.193 256.7C121.471 256.295 120.984 256.092 120.731 256.092C120.406 256.092 120.172 256.221 120.028 256.479C119.919 256.737 119.865 257.16 119.865 257.749H118.62V246.651Z" fill="var(--fill-0, white)"/>
<path id="Vector_7" d="M107.472 252.594C106.212 254.367 104.897 255.77 103.526 256.805C102.192 257.802 100.673 258.301 98.9685 258.301C95.0038 258.301 93.0214 255.641 93.0214 250.322V234.086C93.0214 232.646 92.9287 231.667 92.7435 231.149C92.5582 230.632 92.1321 230.374 91.4651 230.374C91.0205 230.374 90.3535 230.484 89.4642 230.706L89.1308 229.432L93.5772 228.213L97.4678 227.215L98.2459 227.936V250.322C98.2459 253.314 99.2649 254.81 101.303 254.81C102.34 254.81 103.359 254.422 104.36 253.646C105.397 252.871 106.49 251.762 107.639 250.322V234.086C107.639 232.646 107.546 231.667 107.361 231.149C107.176 230.632 106.75 230.374 106.083 230.374C105.601 230.374 104.916 230.484 104.026 230.706L103.693 229.432L108.195 228.213L112.085 227.215L112.864 227.936V250.377C112.864 251.818 112.901 252.76 112.975 253.203C113.049 253.646 113.29 253.868 113.697 253.868C114.142 253.868 114.827 253.628 115.754 253.148L116.365 254.311L108.417 258.301L107.639 257.525V252.594H107.472Z" fill="var(--fill-0, white)"/>
<path id="Vector_8" d="M55.5692 256.139C57.3018 256.139 58.5735 256.009 59.3845 255.749C60.2324 255.489 60.7854 255.062 61.0434 254.467C61.3383 253.873 61.4858 252.963 61.4858 251.738V218.648C61.4858 217.422 61.3383 216.513 61.0434 215.918C60.7854 215.324 60.2324 214.897 59.3845 214.637C58.5735 214.377 57.3018 214.247 55.5692 214.247V212.91H73.0978C77.3003 212.91 80.5996 213.857 82.9957 215.751C85.4287 217.608 86.6452 220.393 86.6452 224.107C86.6452 227.078 85.7974 229.474 84.1016 231.293C82.4059 233.076 80.0835 234.134 77.1344 234.469V234.636C80.6364 234.859 83.4196 235.991 85.484 238.034C87.5484 240.077 88.5806 242.676 88.5806 245.833C88.5806 249.955 87.106 252.926 84.1569 254.746C81.2447 256.566 77.374 257.476 72.5449 257.476H55.5692V256.139ZM67.6789 233.187C68.8954 233.373 70.2778 233.466 71.826 233.466C74.2222 233.466 76.2312 232.686 77.8532 231.126C79.4752 229.529 80.2862 227.208 80.2862 224.163C80.2862 221.192 79.4752 218.964 77.8532 217.478C76.2312 215.956 74.2222 215.194 71.826 215.194C70.2778 215.194 68.8954 215.38 67.6789 215.751V233.187ZM67.6789 254.635C69.0428 255.006 70.3883 255.192 71.7154 255.192C74.7014 255.192 77.1897 254.467 79.1803 253.019C81.2078 251.571 82.2216 249.101 82.2216 245.61C82.2216 243.196 81.6871 241.265 80.618 239.817C79.549 238.368 78.2219 237.347 76.6367 236.753C75.0516 236.121 73.448 235.806 71.826 235.806C70.2778 235.806 68.8954 235.899 67.6789 236.084V254.635Z" fill="var(--fill-0, white)"/>
<g id="Group 25">
<path id="Vector_9" d="M169.567 204.905V195.992H171.052V197.131C171.779 196.19 172.653 195.843 174.023 195.926V197.626C172.142 197.527 171.052 198.468 171.052 200.217V204.905H169.567Z" fill="var(--fill-0, white)"/>
<path id="Vector_10" d="M163.52 205.103C160.945 205.103 158.964 203.139 158.964 200.482C158.964 197.824 160.945 195.844 163.52 195.844C166.094 195.844 168.075 197.824 168.075 200.482C168.075 203.139 166.094 205.103 163.52 205.103ZM163.52 203.667C165.187 203.667 166.524 202.281 166.524 200.482C166.524 198.682 165.187 197.313 163.52 197.313C161.853 197.313 160.516 198.682 160.516 200.482C160.516 202.281 161.853 203.667 163.52 203.667Z" fill="var(--fill-0, white)"/>
<path id="Vector_11" d="M154.587 204.905V197.577H152.953V196.157H154.587V194.408C154.587 193.038 155.264 192.278 156.799 192.278C157.195 192.278 157.624 192.328 158.053 192.427V193.764C157.723 193.714 157.442 193.698 157.195 193.698C156.27 193.698 156.056 193.978 156.056 194.639V196.157H157.97V197.577H156.056V204.905H154.587Z" fill="var(--fill-0, white)"/>
</g>
<path id="Vector_12" d="M235.543 147.243C246.282 147.959 249.989 153.304 249.102 166.618L247.19 195.305L222.622 193.667L224.284 168.732C224.48 165.789 223.887 164.716 221.974 164.588C221.165 164.534 220.341 164.701 219.65 165.098L217.767 193.344L193.199 191.706L196.239 146.101L219.703 147.665L219.816 153.731L219.963 153.741C223.548 148.734 228.334 146.763 235.543 147.243Z" fill="var(--fill-0, white)"/>
<path id="Vector_13" d="M167.123 134.508C183.979 134.508 191.741 140.189 191.741 152.509C191.741 154.87 191.445 158.116 191.076 159.297H165.422C165.792 162.174 168.453 163.059 175.181 163.059C180.356 163.059 184.126 162.543 189.154 161.289L189.893 181.356C184.422 182.536 178.286 183.2 171.411 183.2C148.788 183.2 139.473 175.97 139.473 158.559C139.473 141.886 147.975 134.508 167.123 134.508ZM168.306 147.493C165.94 147.493 165.274 148.821 165.201 153.542H171.411C171.337 148.821 170.671 147.493 168.306 147.493Z" fill="var(--fill-0, white)"/>
<path id="Vector_14" d="M118.835 147.02C130.434 145.962 136.977 153.583 138.409 169.294C139.908 185.739 134.263 194.47 121.416 195.641C116.644 196.076 112.726 195.323 109.581 193.315L109.435 193.328L110.077 200.376L85.5562 202.611L80.9391 151.954L104.359 149.82L105.421 155.793L105.568 155.779C108.116 150.439 112.521 147.595 118.835 147.02ZM109.181 166.184C108.3 166.264 107.586 166.551 107.039 167.045L108.029 177.911C108.657 178.298 109.411 178.451 110.292 178.371C112.568 178.163 113.228 176.475 112.82 171.996C112.412 167.518 111.457 165.976 109.181 166.184Z" fill="var(--fill-0, white)"/>
<path id="Vector_15" d="M52.8182 146.338C72.5059 146.338 81.4281 153.863 81.4281 170.683C81.4281 187.504 72.5059 195.029 52.8182 195.029C33.1305 195.029 24.2083 187.504 24.2083 170.683C24.2083 153.863 33.1305 146.338 52.8182 146.338ZM52.8182 164.56C50.6061 164.56 49.9424 165.888 49.9424 170.683C49.9424 175.479 50.6061 176.807 52.8182 176.807C55.0303 176.807 55.6939 175.479 55.6939 170.683C55.6939 165.888 55.0303 164.56 52.8182 164.56Z" fill="var(--fill-0, white)"/>
</g>
</g>
</svg>
