<?xml version="1.0" encoding="UTF-8"?>
<svg id="Layer_2" data-name="Layer 2" xmlns="http://www.w3.org/2000/svg" viewBox="0 0 199.29 47.33">
  <defs>
    <style>
      .cls-1 {
        fill: #010101;
      }
    </style>
  </defs>
  <g id="Layer_1-2" data-name="Layer 1">
    <g id="Layer_1-3" data-name="Layer 1">
      <g id="stand">
        <path class="cls-1" d="M36.3,10.69l-.47,11.15c-.03.78-.85,1.27-1.56.94-2.01-.92-4.96-1.5-8.23-1.5h-.11c-1.36,0-1.48,2-.13,2.16,7.93.96,11.84,4.52,11.84,10.86,0,9.71-5.39,13.02-20.78,13.02-4.49,0-9.68-.43-15.67-1.33-.55-.08-.95-.57-.93-1.12l.48-11.77c.03-.77.83-1.26,1.53-.94,2.37,1.07,5.91,1.73,9.61,1.73.4,0,.77,0,1.12-.02,1.36-.04,1.41-2.05.06-2.16C4.32,30.94,0,27.53,0,21.28c0-9.71,5.39-13.02,20.78-13.02,4.73,0,9.63.42,14.63,1.31.54.1.92.57.9,1.12h0Z"/>
        <path class="cls-1" d="M56.66,8.75l5.08-.55c.6-.07,1.13.37,1.2.96l1.32,12.08c.07.6-.37,1.13-.96,1.2l-5.08.55c-.6.07-1.03.6-.96,1.2l.28,2.57c.19,1.71.96,2.28,3.2,2.03.94-.1,1.9-.32,2.89-.7.67-.26,1.4.18,1.47.89l1.6,14.73c.06.5-.25.98-.73,1.15-3.13,1.08-5.2,1.56-8.35,1.9-12.83,1.4-18.05-2.26-19.25-13.32l-3.18-29.03c-.07-.6.37-1.13.96-1.2l17.5-1.9c.6-.07,1.13.36,1.2.96l.61,5.54c.07.6.6,1.03,1.2.96h0Z"/>
        <path class="cls-1" d="M107.42,26.67v11.37c0,2.94.12,4.91.4,6.87.09.65-.42,1.24-1.07,1.24h-16.52c-.51,0-.94-.35-1.06-.84l-.57-2.47h-.12c-2.37,2.96-6.27,4.5-11.42,4.5-7.64,0-11.37-3.37-11.37-10.3s3.97-10.54,12.13-10.54c3.73,0,7.34.71,9.65,1.89h.12v-.12c0-3.02-2.66-4.38-8.58-4.38-3.93,0-7.7.61-10.29,1.67-.69.28-1.46-.22-1.49-.97l-.5-13.9c-.02-.54.36-1.02.9-1.11,4.89-.84,10.55-1.31,16.11-1.31,17.64,0,23.68,4.68,23.68,18.41h0ZM83.63,36.08c0,2.31.59,3.02,2.25,3.02.33,0,.62-.02.88-.09.49-.11.84-.56.84-1.06v-3.74c0-.5-.35-.95-.84-1.06-.26-.06-.55-.09-.88-.09-1.66,0-2.25.71-2.25,3.02Z"/>
        <path class="cls-1" d="M152.73,23.06v22c0,.6-.49,1.09-1.09,1.09h-17.6c-.6,0-1.09-.49-1.09-1.09v-18.98c0-2.37-.53-3.2-2.07-3.2-.38,0-.76.06-1.12.18-.43.15-.72.57-.72,1.03v20.97c0,.6-.49,1.09-1.09,1.09h-17.6c-.6,0-1.09-.49-1.09-1.09V10.53c0-.6.49-1.09,1.09-1.09h16.8c.56,0,1.03.43,1.08.99l.33,3.86h.12c2.6-4.2,6.33-6.04,12.13-6.04,8.64,0,11.9,4.08,11.9,14.8h0Z"/>
        <path class="cls-1" d="M198.88,38.04c0,2.94.12,4.91.4,6.87.09.65-.42,1.24-1.07,1.24h-17.21c-.56,0-1.03-.43-1.08-.99l-.33-3.86h-.12c-2.43,4.08-6.16,6.04-11.25,6.04-9.35,0-14.03-6.57-14.03-19.24s5.15-19.83,15.57-19.83c3.85,0,6.87.89,9.23,2.72h.12V1.09c0-.6.49-1.09,1.09-1.09h17.6c.6,0,1.09.49,1.09,1.09v36.95h0ZM174.85,27.8c0,3.61.65,4.91,2.49,4.91.38,0,.72-.05,1.03-.15.45-.14.75-.57.75-1.03v-7.46c0-.47-.3-.89-.75-1.03-.31-.1-.65-.15-1.03-.15-1.83,0-2.49,1.3-2.49,4.91h0Z"/>
      </g>
    </g>
  </g>
</svg>