<?xml version="1.0" encoding="UTF-8"?>
<svg id="Layer_2" data-name="Layer 2" xmlns="http://www.w3.org/2000/svg" viewBox="0 0 103.64 112.08">
  <defs>
    <style>
      .cls-1 {
        fill: #ee3a94;
      }
    </style>
  </defs>
  <g id="Layer_1-2" data-name="Layer 1">
    <path class="cls-1" d="M30.83,88.32c.27-2.19.62-4.28,1.14-6.39l.4-1.58.91-2.77c.1-.3.17-.69.06-.98-.07-.12-.35.04-.42.14l-1.17,1.58-.57,1c-.8.93-1.68,1.72-2.7,2.41l-2.7,1.93-1.77,1.21-1.35,1.02c-1.57,1.19-3.07,2.37-4.77,3.39l-2.17,1.44c-.27.18-.52.29-.76.5l-1.28,1.15c-1.52,1.37-2.17.66-3.32,1.7l-.7.64c-.6.54-1.1,1.13-1.63,1.74-.72.84-1.7,1.24-2.64.72l-1.41-.78c-.85-.47-1.6-.96-2.28-1.65-.56-.58-1.07-1.12-1.45-1.85-.13-.25-.31-.52-.23-.83.13-.5.52-.83.81-1.22l.7-.96,1.53-2.14c.6-.84-.14-1.43.04-1.78l.41-.78,1.12-1.79c.67-1.07,1.43-2.04,2.25-3l1.65-1.65,2.09-1.46c.52-.37.94-.8,1.46-1.21.39-.31.66-.81.98-1.2l1.58-1.95.66-.6c.44-.4.88-.71,1.44-.92.21-.08.41-.25.48-.46l.88-2.89.84-2.38c.38-1.07,1.04-1.99,1.73-2.89l.82-1.39,2.23-4.21c.57-1.07,1.15-2.03,1.69-3.11l2.16-4.34,1-1.83.97-1.7c.24-.42.5-.79.8-1.17l.72-.94.49-.69c.26-.37.59-.66.69-1.12.07-.3.29-.48.48-.7l1.14-1.3c.38-.43.72-.91,1.2-1.22l1.53-.98c.46-.29.83-.62,1.29-.92l1.37-.9c.67-.44,1.35-.75,2.06-1.09l2.11-1.02,1.53-.6,1.21-.36.75-.98c.21-.27.4-.47.59-.75.16-.23.42-.37.53-.65.2-.53.34-1.11.7-1.58.29-.37.68-.73.7-1.26l-.2-1.04c-.21-1.11.2-2.5.09-3.56-.77-1.26-1.55-2.5-1.92-3.94l-.44-1.69-.03-1.46.06-1.01c.18-.45.27-.92.38-1.35.38-1.43,1.2-2.52,2.12-3.61s1.77-2.18,2.9-3.07l.65-.6.69-.57,1.58-1.23,1.4-1.13c.78-.63,1.68-1.02,2.55-1.53,1.1-.64,2.18-1.14,3.37-1.58.67-.25,1.32-.64,2.07-.52.22.03.39.21.66.01.43-.31,2.09.8,2.87,1.3.72.46,1.4.93,2.05,1.49l.98.83.82.76.72.78c1.22,1.33,2.06,2.91,2.86,4.52l.94,1.89c.52,1.05.79,2.16.9,3.33l.35,2.16c.19,1.19.28,2.3.2,3.49-.1,1.46-.34,2.84-.56,4.29s-.59,2.74-1.14,4.07c-.19.45-.27.91-.58,1.32-.23.3-.15.7.13.95,1.11.96,1.09,1.97,1.54,2.54.28.36.63.6.72,1.1.5.31.96.7,1.52.9.69.24,1.28.55,1.9.94l1.54.97,2.39,1.76,1.75,1.33,1.89,1.4c.26.19.66.28.83.58.35.6.85,1.01,1.29,1.54.96,1.17,1.8,2.4,2.57,3.69l.99,1.86,2.13,3.91.62,1.27,1.99,4.45c1.05,2.6,1.97,5.18,2.7,7.88l.81,3.77.5,3.81c.09.69.08,1.25-.03,1.95-.23,1.44-.44,2.87-1,4.22l-.99,2.39c-.71,1.7-4.32,6.28-5.81,7.99l-1.14,1.31-1,1.04c-.35.37-.69.71-1.07,1.05l-.95.86-1.48,1.28-1.69,1.6c-.44.45-.93.82-1.56.98-.93-.18-1.72.18-2.37.83l-2.91,2.89c-.23.23-.38.6-.7.7-.4.13-.83-.09-1.19-.27-.83-.42-1.57-1.43-1.68-1.03l-.36,1.37c-.15.57-.41,1.1-.9,1.46-.8.59-1.31,1.34-1.68,2.26l-1.15,2.2-.68,1.67c-.11.28-.36.45-.66.37l-1.88-.47-1.94-.59-7.4-1.87c-2.46-.62-4.85-1.08-7.38-1.33l-2.43-.54-3.36-.65c-1.02-.2-2.01-.3-3.05-.4l-1.14-.1-1.5-.07-1.34-.08-1.1-.08-2.43-.17-2.08-.05-2.08-.05-.62-.07c-.57-.06-.89-.41-.91-.92l-.05-1.04-.34-2.94c-.07-.58-.06-1.16-.25-1.72l-.68-1.34c-.22-.88.16-2.03,0-3.01v-.66s.02-1.72.02-1.72l.07-1.02.04-2.04.1-.82ZM82.13,85.81c.64-.43,1.12-.75,1.73-.95.68-.2,1.2-.66,1.53-1.3.79-1.31,1.56-2.57,2.51-3.8-.17-.58-.18-1.11-.18-1.71,0-.55-.18-1.07-.37-1.57l-.86-2.29c-.42-1.12-.57-2.29-.6-3.49-.01-.45-1.24-.43-1.54-.19l-.86.71c-.33.27-.43.75-.6,1.11-.25.51-.32.98-.34,1.56l-.04,1.41-.08,1.26-.05,4.16-.08,1.34-.06,1.41c-.04.78-.25,1.54-.1,2.33Z"/>
  </g>
</svg>