<?xml version="1.0" encoding="UTF-8"?>
<svg id="Layer_2" data-name="Layer 2" xmlns="http://www.w3.org/2000/svg" viewBox="0 0 117.88 78.37">
  <defs>
    <style>
      .cls-1 {
        fill: #ffffff;
      }

      .cls-2 {
        fill: #ffffff;
      }
    </style>
  </defs>
  <g id="Layer_1-2" data-name="Layer 1">
    <g>
      <path class="cls-1" d="M117.79,6.11v2.28c-.11.07-.24.09-.37.08-.03,0-.07,0-.12,0s-.07.08-.06.14c-.27-.02-.53.05-.78.14-.08.03-.16.02-.16.14,0,.07.03.14.08.2l-.02,7.49-.03,1.07-.05,8.7-.02.88v3.42s-.04,6.78-.04,6.78c-.05.05-.08.12-.09.2-.01.09.07.14.08.2.06.18-.03.39-.03.56v3.92s0,7.73,0,7.73l-.03,3.34s-.05.04-.06.07c-.01.04.04.08.06.1v.7s-.08.08-.08.12c0,.05.05.09.07.12.02.11.03.3-.06.4l.02,7.13v.89s-.06,1.63-.06,1.63l-.06,1.82c0,.08.04.14.1.15-.04.17-.13.48-.28.58-.58.4-1.2.3-1.83.19-.35-.06-.58-.11-.68-.53-.12-.51-.04-1.08.01-1.65l.05-9.14.02-6.94-24.22,7.52-3.24,1.01-.05,6.63-.06,5.05v4.22s.02,4.03.02,4.03c0,.7-1.02,1.03-1.75.84-.43-.11-1.24.03-1.24-.74v-8.62s.07-1.03.07-1.03l-.02-2.71-.05-7.69-.82-.17-26.94-3.42c-.19-.04-.26-.14-.26-.32v-12.14s-13.86-1.62-13.86-1.62l-1.07-.06-1.73.42v15.6c.01.38-.1.7-.45.81-.46.14-.87.22-1.36.06-.33.06-.76-.14-.76-.57v-15.27s-29.05,6.82-29.05,6.82l-1.35-.13c-.19.14-.38.16-.64.04l.03,15.7.02,1.13v.71c0,.25-.06.52-.37.61-.28.09-.62.26-.94.21l-1.2-.18c-.18-.03-.21-.29-.22-.4.07-.4-.03-.82-.04-1.2l-.07-3.08-.02-8.22.09-.71-.1-.63-.02-19.61-.1-.58c.09,0,.12-.06.12-.15l-.05-5.11-.07-4.36v-10.79s.03-3,.03-3c0-.17,0-.28-.12-.38-.11-.09-.21-.08-.35-.08h-.54s-.07-.06-.07-.06c-.03-.03-.1,0-.09.06-.09-.01-.21-.03-.3-.08,0-.06,0-.12-.03-.19-.02-.04-.09-.07-.15-.08v-1.9c.33-.16.66-.16,1.1-.22L36.79,0l9.11.72,1.45.09,31.66,2.35,1.24.09,23.2,1.71,1.3.09,11.72.88c.49.04.91,0,1.33.18Z"/>
      <path class="cls-2" d="M117.88,8.39h-.09s0-2.28,0-2.28c.02,0,.06,0,.09,0v2.27Z"/>
      <path class="cls-2" d="M.17,7.37s-.13,0-.17,0v-.26c.06,0,.13.04.15.08.03.07.03.13.03.19Z"/>
      <path class="cls-2" d="M116.11,62.02l-.02-7.13c.09-.01.14.02.14.08v6.97c0,.07-.05.1-.12.08Z"/>
      <path class="cls-2" d="M1.61,31.31l-.05-5.09c0-.09.04-.15.12-.16l.05,5.11c0,.09-.04.15-.12.15Z"/>
      <path class="cls-2" d="M116.19,42.32v-3.92c.06-.01.12.02.12.08v3.76c0,.06-.05.09-.12.09Z"/>
      <path class="cls-2" d="M1.61,10.91c-.07,0-.11-.03-.11-.09v-3.2c-.18.02-.32-.04-.32-.17.14,0,.25,0,.35.08.13.1.12.21.12.38l-.04,3Z"/>
      <path class="cls-2" d="M116.09,66.5c-.06,0-.11-.06-.1-.15l.06-1.82c.07.01.12.08.11.16-.05.63.08,1.23-.07,1.8Z"/>
      <path class="cls-2" d="M1.74,52.84c-.07-.01-.1-.07-.1-.15v-1.03c0-.08.03-.14.09-.16l.1.63-.09.71Z"/>
      <path class="cls-2" d="M1.87,65.35s-.15-.05-.15-.17v-.87c0-.08.03-.14.11-.16,0,.38.11.8.04,1.2Z"/>
      <path class="cls-2" d="M116.27,27.24l.02-.88c.14.26.14.62-.02.88Z"/>
      <path class="cls-2" d="M116.22,37.84c-.02-.05-.09-.11-.08-.2,0-.07.04-.14.09-.2.12.09.12.31,0,.4Z"/>
      <path class="cls-2" d="M116.46,8.76c.03.12.03.28-.08.34-.05-.06-.09-.13-.08-.2,0-.12.08-.12.16-.14Z"/>
      <path class="cls-2" d="M116.15,54.49s-.07-.07-.07-.12c0-.05.05-.09.08-.12.07.01.08.07.08.12s-.01.11-.09.12Z"/>
      <path class="cls-2" d="M.63,7.45s-.01.06-.05.07c-.07.01-.08-.06-.11-.07,0-.06.06-.09.09-.06l.07.06Z"/>
      <path class="cls-2" d="M117.42,8.47s0,.09-.02.11c-.04.04-.11.04-.16.04-.01-.06.02-.12.06-.14s.09-.01.12,0Z"/>
      <path class="cls-2" d="M116.15,53.55s-.07-.06-.06-.1c0-.03.04-.05.06-.07.04,0,.06.02.07.05.03.07-.02.12-.08.12Z"/>
    </g>
  </g>
</svg>