<?xml version="1.0" encoding="UTF-8"?>
<svg id="Layer_2" data-name="Layer 2" xmlns="http://www.w3.org/2000/svg" viewBox="0 0 113.83 105.73">
  <defs>
    <style>
      .cls-1 {
        fill: #164a92;
      }
    </style>
  </defs>
  <g id="Layer_1-2" data-name="Layer 1">
    <path class="cls-1" d="M43.57,100.19l-13.05-3.23h-.69s-2.93-.65-2.93-.65l-21.52-5.54-5.21-1.38-.13-.08s-.06-.18.05-.16.26.03.3-.05c.04-.06.04-.22,0-.34l1.99-2.34,3.47-4.29,1.42-1.82,1.46-1.98,2.86-4.07c2.53-3.77,4.68-7.7,6.79-11.72l1.9-3.62c1.48-2.8,3.02-5.5,4.65-8.21.26-.43.44-.85.76-1.21,1.08-1.18,2.12-3.16,3.14-4.72l.96-1.48,1.74-2.5,1.19-1.7,1.23-1.76.38-.54c.2-.28.3-.52.49-.8l.74-1.14.3-.8.6-.97.99-1.68.67-1.15c1.15-1.97,2.11-3.97,3.04-6.06l2.08-5.07c1.47-3.59,2.61-7.21,3.65-10.95l2.27-8.19,6.75,1.51,21.82,4.94,7.56,1.73,25.22,5.76,3.31.75-.92,3.28-2.54,8.76c-1.22,4.19-2.63,8.27-4.25,12.32s-3.55,8.01-5.63,11.87l-.32.71-1.33,2.28-.54.95-1.61,2.63-.29.42-1.05,1.7-1.42,2.26-1.24,2.06-1.59,2.65c-2.05,3.42-3.89,6.89-5.73,10.43l-1.56,3.01-2.69,5-1.53,2.63-1.49,2.44-2.27,3.53-.72,1c-.32.45-.57.93-1.16,1.08l-7.75,10-2.27-.48-2.26-.55-.86-.31-5.65-1.36-5.35-1.32-6.23-1.52Z"/>
  </g>
</svg>