<?xml version="1.0" standalone="no"?>
<!DOCTYPE svg PUBLIC "-//W3C//DTD SVG 20010904//EN"
 "http://www.w3.org/TR/2001/REC-SVG-20010904/DTD/svg10.dtd">
<svg version="1.0" xmlns="http://www.w3.org/2000/svg"
 width="3000.000000pt" height="3000.000000pt" viewBox="0 0 3000.000000 3000.000000"
 preserveAspectRatio="xMidYMid meet">
<metadata>
Created by potrace 1.16, written by Peter Selinger 2001-2019
</metadata>
<g transform="translate(0.000000,3000.000000) scale(0.100000,-0.100000)"
fill="#164a92" stroke="none">
<path d="M19515 23720 c-69 -4 -137 -13 -161 -22 -61 -24 -155 -92 -194 -142
-19 -24 -58 -58 -87 -75 -48 -29 -60 -32 -205 -41 -84 -6 -202 -15 -263 -20
-60 -5 -182 -14 -270 -19 -318 -20 -725 -60 -850 -85 -38 -8 -97 -17 -130 -20
-33 -3 -91 -13 -130 -21 -38 -8 -135 -26 -215 -40 -144 -26 -211 -39 -345 -71
-38 -9 -90 -20 -115 -25 -25 -4 -70 -15 -100 -23 -30 -8 -75 -19 -100 -24 -25
-6 -88 -22 -140 -36 -52 -15 -113 -31 -135 -36 -22 -5 -58 -16 -80 -24 -22 -8
-49 -15 -60 -16 -18 0 -49 -9 -180 -52 -16 -5 -73 -23 -125 -40 -52 -16 -108
-35 -125 -43 -31 -13 -102 -38 -165 -56 -30 -9 -266 -100 -340 -131 -14 -6
-61 -25 -105 -43 -44 -18 -109 -46 -145 -63 -36 -16 -94 -42 -130 -57 -36 -15
-83 -35 -105 -45 -55 -24 -459 -226 -515 -257 -25 -13 -90 -48 -145 -77 -55
-29 -116 -63 -135 -74 -19 -12 -66 -39 -105 -61 -38 -22 -107 -64 -152 -93
-45 -29 -124 -80 -175 -112 -156 -100 -300 -196 -366 -245 -79 -58 -192 -142
-301 -223 -219 -164 -602 -498 -796 -693 -148 -149 -494 -525 -585 -636 -193
-235 -273 -339 -455 -594 -43 -60 -179 -267 -255 -388 -30 -48 -72 -114 -93
-147 -20 -33 -42 -70 -48 -82 -5 -13 -21 -41 -34 -63 -14 -22 -40 -71 -59
-108 -19 -37 -39 -73 -44 -80 -21 -27 -174 -324 -250 -487 -72 -156 -82 -177
-82 -183 0 -3 -18 -44 -40 -91 -22 -47 -40 -91 -40 -98 0 -7 -7 -22 -15 -32
-8 -11 -15 -27 -15 -35 0 -9 -7 -29 -16 -46 -14 -28 -40 -94 -85 -215 -11 -30
-27 -71 -36 -90 -9 -19 -19 -48 -24 -65 -4 -16 -22 -68 -39 -115 -17 -47 -35
-101 -40 -120 -11 -43 -38 -124 -58 -170 -8 -19 -18 -53 -23 -75 -4 -22 -15
-62 -24 -90 -9 -27 -24 -70 -32 -95 -8 -25 -19 -67 -23 -93 -5 -27 -13 -54
-18 -60 -5 -7 -13 -34 -16 -62 -4 -27 -16 -74 -27 -103 -10 -29 -19 -67 -19
-85 0 -18 -7 -42 -15 -54 -8 -11 -18 -47 -21 -79 -4 -33 -13 -71 -20 -86 -8
-15 -14 -42 -14 -60 0 -19 -7 -58 -16 -88 -8 -30 -21 -94 -29 -141 -7 -48 -17
-95 -23 -105 -5 -11 -12 -53 -15 -95 -4 -42 -12 -89 -18 -105 -6 -16 -15 -67
-20 -114 -4 -47 -15 -102 -23 -122 -9 -21 -16 -56 -16 -78 0 -22 -9 -80 -19
-128 -10 -48 -22 -130 -25 -182 -4 -52 -13 -113 -21 -135 -9 -26 -14 -83 -15
-165 0 -70 -6 -151 -14 -185 -8 -33 -18 -124 -22 -203 -6 -118 -10 -147 -26
-167 -16 -21 -162 -125 -174 -125 -3 0 -51 -26 -107 -58 -95 -54 -246 -130
-447 -224 -47 -22 -92 -44 -100 -49 -8 -5 -26 -14 -40 -19 -14 -6 -32 -15 -40
-20 -8 -6 -26 -15 -40 -20 -14 -6 -32 -15 -40 -20 -8 -6 -26 -15 -40 -21 -49
-20 -199 -91 -230 -108 -8 -4 -35 -17 -60 -28 -25 -11 -84 -39 -132 -62 -48
-22 -91 -41 -95 -41 -8 0 -240 -112 -273 -131 -8 -5 -22 -12 -30 -15 -8 -4
-55 -26 -105 -49 -49 -23 -112 -52 -140 -64 -27 -12 -57 -27 -65 -32 -8 -5
-26 -14 -40 -19 -14 -6 -32 -15 -40 -20 -8 -6 -26 -15 -40 -20 -14 -6 -74 -35
-135 -64 -181 -88 -284 -136 -294 -136 -5 0 -40 -15 -77 -34 -116 -58 -238
-114 -264 -121 -14 -4 -32 -13 -40 -20 -14 -11 -73 -41 -130 -64 -14 -6 -32
-15 -40 -20 -8 -5 -26 -14 -40 -20 -14 -6 -32 -15 -40 -21 -8 -5 -26 -14 -40
-20 -14 -5 -32 -14 -40 -19 -8 -5 -26 -14 -40 -20 -14 -6 -56 -28 -95 -50 -38
-22 -106 -59 -150 -81 -44 -22 -100 -51 -125 -64 -82 -43 -237 -116 -247 -116
-6 0 -16 -7 -23 -15 -7 -8 -19 -15 -27 -15 -13 0 -190 -80 -223 -101 -8 -5
-22 -12 -30 -15 -8 -3 -53 -24 -100 -46 -47 -22 -105 -49 -130 -61 -25 -11
-52 -24 -60 -29 -8 -4 -26 -13 -40 -19 -14 -6 -32 -15 -40 -20 -8 -5 -26 -14
-40 -20 -52 -23 -116 -52 -130 -60 -8 -5 -26 -14 -40 -19 -31 -13 -110 -50
-130 -62 -8 -4 -26 -13 -40 -18 -14 -6 -32 -15 -40 -20 -8 -6 -22 -13 -30 -16
-8 -4 -33 -15 -55 -25 -22 -10 -51 -23 -65 -29 -14 -6 -43 -21 -65 -33 -58
-33 -128 -69 -225 -114 -202 -95 -258 -124 -453 -236 -108 -62 -133 -76 -224
-131 -443 -265 -749 -526 -892 -759 -50 -83 -141 -259 -141 -274 0 -6 -7 -16
-15 -23 -8 -7 -15 -22 -15 -34 0 -12 -9 -39 -20 -61 -11 -22 -20 -48 -20 -58
0 -10 -9 -39 -19 -65 -11 -26 -23 -77 -26 -115 -4 -37 -13 -74 -21 -81 -22
-22 -20 -334 1 -350 10 -7 18 -35 22 -71 3 -33 14 -76 25 -95 10 -19 18 -42
18 -51 0 -21 44 -117 89 -194 88 -150 279 -341 431 -432 82 -49 304 -153 328
-153 9 0 27 -7 39 -15 11 -8 40 -17 64 -21 24 -4 56 -13 70 -20 14 -7 50 -16
80 -19 30 -4 74 -14 99 -23 65 -24 761 -23 836 1 27 9 81 19 119 22 39 4 84
13 102 20 17 7 62 16 100 20 37 4 85 14 107 21 21 8 49 14 62 14 13 0 45 7 71
16 26 9 73 22 103 29 30 7 69 17 85 23 103 35 162 52 178 52 10 0 35 9 57 20
22 11 47 20 57 20 10 1 36 9 58 20 22 11 48 19 57 20 10 0 37 9 60 19 24 11
70 30 103 42 33 12 78 30 101 40 23 11 46 19 53 19 6 0 28 9 48 20 21 11 45
20 53 20 9 0 25 7 36 15 10 8 25 15 33 15 8 0 33 8 55 19 23 10 68 31 101 45
33 15 72 33 87 41 14 8 31 15 38 15 12 0 114 44 140 61 8 5 26 14 40 19 41 17
114 51 148 69 9 6 73 37 142 69 215 102 380 186 575 292 55 29 123 65 150 80
121 64 231 123 240 130 6 4 33 20 60 35 28 15 137 78 243 139 382 219 365 211
404 196 18 -7 60 -18 93 -25 55 -12 112 -29 190 -56 17 -6 50 -17 75 -24 88
-27 145 -46 175 -60 17 -7 48 -18 70 -23 22 -6 72 -22 110 -37 39 -14 90 -32
115 -39 25 -8 79 -28 120 -45 41 -17 79 -31 84 -31 5 0 27 -8 50 -19 23 -10
65 -28 94 -40 28 -11 76 -31 105 -42 28 -12 70 -30 93 -40 23 -11 45 -19 50
-19 5 0 27 -9 49 -19 89 -42 133 -61 144 -61 6 0 28 -9 48 -20 21 -11 43 -20
50 -20 6 0 24 -7 40 -15 15 -8 55 -26 88 -40 33 -14 67 -30 76 -34 8 -5 47
-21 85 -36 68 -26 203 -88 276 -126 20 -10 42 -19 48 -19 6 0 37 -12 68 -26
31 -14 71 -32 87 -39 17 -7 68 -31 115 -53 47 -21 112 -49 145 -62 33 -13 92
-38 130 -56 39 -18 99 -45 135 -59 36 -15 84 -35 108 -46 23 -10 63 -28 90
-40 97 -43 198 -91 234 -109 20 -11 42 -20 49 -20 6 0 30 -9 53 -19 23 -10 86
-38 141 -61 55 -23 127 -55 160 -70 33 -16 90 -42 127 -59 37 -17 71 -31 75
-31 4 0 44 -18 88 -40 44 -22 87 -40 96 -40 8 0 24 -7 35 -15 10 -8 25 -15 32
-15 7 0 39 -11 70 -26 85 -38 112 -49 172 -74 30 -12 73 -30 95 -39 22 -10 65
-28 95 -41 30 -12 73 -30 95 -40 22 -10 63 -27 90 -38 28 -11 73 -30 102 -41
28 -12 58 -21 66 -21 8 0 20 -6 26 -14 7 -8 24 -17 39 -20 28 -7 116 -40 167
-62 77 -34 129 -54 139 -54 7 0 29 -9 50 -19 21 -11 52 -23 69 -27 18 -3 41
-11 52 -17 11 -6 38 -17 60 -23 76 -23 159 -54 169 -64 6 -6 17 -10 26 -10 8
0 32 -9 53 -20 20 -11 47 -20 59 -20 13 0 38 -9 56 -20 18 -11 40 -20 50 -20
9 0 30 -7 46 -15 16 -9 46 -20 65 -25 20 -5 68 -21 106 -35 39 -15 90 -33 115
-41 25 -7 77 -25 115 -39 39 -15 92 -33 118 -40 26 -7 53 -18 60 -23 7 -5 30
-12 52 -16 22 -4 56 -13 75 -20 47 -19 124 -44 185 -60 28 -8 64 -19 80 -25
60 -21 131 -42 185 -55 30 -8 69 -18 85 -24 110 -37 134 -44 170 -52 22 -5 57
-16 77 -24 21 -9 52 -16 71 -16 18 0 58 -9 90 -20 31 -11 63 -20 71 -20 7 0
33 -9 57 -20 24 -11 60 -20 79 -20 19 0 62 -9 95 -19 96 -31 145 -42 230 -53
44 -5 105 -16 135 -24 30 -8 134 -19 230 -25 96 -5 202 -14 235 -19 80 -11
505 -11 575 1 30 5 114 13 185 19 72 5 159 17 195 25 36 8 94 17 130 21 36 3
80 12 99 20 18 8 48 14 65 14 17 0 60 8 96 19 36 11 83 24 105 29 22 5 54 14
70 20 17 5 53 17 80 27 28 9 68 20 90 25 22 5 54 16 70 24 17 9 39 16 50 16
11 0 34 9 50 20 17 11 38 20 47 20 10 0 39 10 65 21 27 12 62 27 78 34 152 65
432 203 563 277 57 32 106 58 108 58 4 0 197 111 339 195 19 11 95 56 170 100
75 44 153 90 173 102 20 12 51 29 67 37 17 9 50 28 75 42 25 14 100 55 168 90
70 36 147 85 181 115 32 28 75 61 94 73 50 29 493 327 539 363 21 15 72 53
114 83 42 30 95 71 117 91 43 37 97 79 227 177 41 30 95 74 120 97 25 23 81
70 124 103 214 168 686 599 930 851 44 46 255 260 468 476 433 437 428 433
595 466 120 23 386 50 688 69 88 5 174 12 190 15 17 3 125 12 240 20 116 8
262 19 325 24 63 6 212 15 330 21 118 6 258 15 310 20 171 17 1099 43 1305 37
357 -11 488 -22 811 -73 135 -21 199 -18 261 10 72 34 108 92 118 190 4 39 11
78 16 88 5 10 14 105 18 210 5 106 16 299 25 428 9 129 19 356 22 503 5 209 9
271 20 282 21 20 21 1220 0 1240 -11 11 -15 72 -20 272 -3 142 -13 314 -22
383 -9 69 -20 193 -26 275 -5 83 -15 170 -23 194 -8 25 -15 79 -15 120 0 42
-5 94 -11 116 -6 22 -17 92 -24 155 -7 63 -20 147 -29 185 -9 39 -16 86 -16
105 0 19 -9 70 -19 115 -25 106 -40 177 -52 250 -6 33 -17 85 -24 115 -7 30
-18 82 -23 115 -11 68 -38 186 -53 230 -6 17 -17 59 -24 95 -17 84 -33 144
-51 200 -9 25 -20 64 -24 87 -5 24 -16 56 -25 72 -8 17 -15 43 -15 59 0 17 -9
49 -20 73 -11 24 -20 54 -20 67 0 12 -9 39 -20 59 -11 21 -20 45 -20 53 0 18
-33 117 -76 230 -41 106 -62 165 -75 210 -6 19 -19 53 -30 76 -10 22 -19 47
-19 55 0 8 -7 23 -15 33 -8 11 -15 27 -15 35 0 8 -8 33 -19 55 -15 35 -35 80
-81 191 -16 39 -168 363 -200 425 -76 151 -264 492 -308 559 -26 40 -40 63
-58 96 -29 52 -165 260 -239 365 -21 30 -59 84 -83 120 -25 36 -60 85 -79 110
-19 25 -72 96 -119 158 -46 63 -112 146 -148 185 -35 40 -94 109 -132 154
-131 156 -342 388 -421 463 -293 277 -519 474 -701 613 -43 32 -90 71 -107 86
-16 15 -55 44 -85 64 -30 21 -89 62 -130 92 -76 55 -445 306 -465 315 -6 3
-35 21 -65 40 -63 41 -73 46 -158 97 -35 21 -80 48 -100 60 -21 12 -50 29 -67
37 -16 9 -48 26 -70 39 -146 85 -580 303 -747 376 -27 12 -69 30 -95 42 -27
11 -64 28 -83 36 -19 9 -53 24 -75 33 -22 10 -65 28 -95 40 -30 12 -74 31 -98
41 -23 10 -48 19 -54 19 -6 0 -29 8 -52 19 -23 10 -54 23 -71 29 -70 24 -102
36 -140 53 -51 22 -98 38 -159 55 -26 7 -53 18 -60 23 -6 5 -27 12 -46 16 -19
4 -47 14 -63 22 -15 7 -46 18 -70 23 -23 5 -73 21 -112 35 -38 15 -92 33 -120
41 -100 27 -185 53 -196 59 -6 4 -34 13 -62 20 -29 7 -65 18 -82 24 -16 5 -61
19 -100 30 -38 11 -95 27 -126 35 -31 9 -89 22 -130 30 -100 19 -186 42 -234
62 -219 90 -281 141 -334 275 -51 130 -93 185 -187 249 -94 63 -192 95 -424
138 -82 15 -191 19 -325 12z"/>
</g>
</svg>
