<?xml version="1.0" standalone="no"?>
<!DOCTYPE svg PUBLIC "-//W3C//DTD SVG 20010904//EN"
 "http://www.w3.org/TR/2001/REC-SVG-20010904/DTD/svg10.dtd">
<svg version="1.0" xmlns="http://www.w3.org/2000/svg"
 width="3000.000000pt" height="3000.000000pt" viewBox="0 0 3000.000000 3000.000000"
 preserveAspectRatio="xMidYMid meet">
<metadata>
Created by potrace 1.16, written by Peter Selinger 2001-2019
</metadata>
<g transform="translate(0.000000,3000.000000) scale(0.100000,-0.100000)"
fill="#ffc50d" stroke="none">
<path d="M12529 29405 c-3 -2 -45 -11 -95 -19 -49 -8 -118 -22 -154 -30 -36
-9 -85 -21 -109 -26 -49 -11 -74 -19 -201 -62 -229 -79 -379 -151 -630 -301
-475 -285 -841 -574 -1270 -1006 -389 -392 -674 -722 -1031 -1196 -214 -283
-483 -678 -631 -925 -379 -633 -545 -937 -767 -1403 -34 -71 -61 -130 -61
-132 0 -2 -25 -59 -56 -127 -64 -141 -64 -141 -137 -308 -30 -69 -76 -179
-102 -245 -26 -66 -71 -183 -101 -260 -31 -77 -61 -156 -69 -175 -32 -81 -143
-392 -155 -435 -5 -16 -23 -75 -40 -130 -18 -55 -38 -122 -47 -150 -8 -27 -21
-72 -29 -100 -17 -59 -73 -265 -84 -315 -5 -19 -14 -55 -20 -80 -20 -78 -58
-242 -75 -325 -38 -186 -44 -215 -60 -310 -9 -55 -21 -127 -26 -160 -14 -87
-27 -194 -39 -325 -5 -63 -15 -153 -20 -200 -17 -135 -23 -675 -11 -865 16
-247 53 -500 96 -655 7 -25 21 -74 30 -110 66 -241 172 -488 281 -651 56 -84
210 -242 311 -318 102 -77 317 -181 503 -244 90 -30 183 -53 360 -86 349 -65
703 -13 1140 169 252 105 572 287 815 464 94 68 229 106 550 155 39 6 113 17
165 25 266 42 660 60 1150 52 206 -4 406 -11 443 -16 37 -6 114 -15 170 -20
111 -11 256 -30 412 -55 55 -9 124 -20 153 -25 29 -5 74 -13 100 -19 26 -5 83
-17 127 -27 382 -79 674 -161 1035 -289 323 -115 805 -328 841 -371 6 -8 15
-52 20 -99 6 -73 13 -96 56 -177 60 -116 148 -207 290 -302 63 -43 113 -85
133 -112 17 -24 96 -125 175 -224 166 -207 166 -207 108 -304 -110 -184 -190
-278 -400 -466 -63 -56 -80 -90 -69 -134 13 -51 77 -125 201 -232 73 -63 131
-121 133 -132 2 -12 -4 -35 -14 -53 -10 -21 -17 -59 -18 -99 -1 -79 8 -94 151
-248 151 -162 183 -210 253 -377 55 -133 51 -307 -14 -518 -26 -84 -115 -315
-158 -407 -11 -25 -38 -88 -59 -142 -21 -53 -51 -125 -67 -160 -16 -34 -55
-124 -87 -198 -32 -74 -91 -209 -132 -300 -41 -91 -81 -178 -88 -195 -8 -16
-25 -55 -38 -85 -13 -30 -57 -131 -97 -225 -72 -170 -81 -190 -139 -318 -17
-38 -31 -70 -31 -72 0 -5 -129 -275 -177 -370 -41 -82 -213 -462 -213 -471 0
-17 -150 -300 -180 -340 -43 -57 -76 -73 -207 -98 -192 -38 -284 -85 -430
-218 -28 -27 -56 -48 -62 -48 -5 0 -22 16 -37 36 -28 36 -151 141 -190 162
-34 18 -207 42 -303 42 -77 0 -97 4 -137 25 -54 29 -76 30 -194 11 -110 -17
-418 -12 -565 9 -124 18 -247 39 -350 60 -172 36 -222 46 -255 55 -19 5 -62
14 -95 19 -67 12 -150 29 -300 61 -193 41 -445 84 -590 101 -44 5 -120 13
-170 19 -275 34 -1005 25 -1330 -15 -71 -9 -173 -20 -225 -25 -52 -5 -122 -14
-155 -19 -66 -11 -192 -30 -270 -42 -100 -14 -341 -67 -440 -97 -141 -42 -361
-120 -450 -160 -263 -117 -650 -321 -760 -401 -51 -38 -187 -128 -398 -265
-425 -276 -702 -581 -883 -972 -36 -79 -88 -212 -104 -269 -5 -16 -18 -59 -30
-95 -11 -36 -25 -83 -29 -105 -5 -22 -18 -76 -29 -120 -11 -44 -27 -114 -35
-155 -9 -41 -23 -107 -31 -146 -9 -40 -16 -87 -16 -105 0 -19 -4 -50 -10 -69
-5 -19 -14 -69 -19 -110 -6 -41 -17 -120 -25 -175 -8 -55 -17 -116 -20 -135
-5 -36 -25 -187 -51 -385 -48 -373 -69 -520 -85 -615 -5 -30 -12 -80 -15 -110
-3 -30 -10 -80 -15 -110 -5 -30 -16 -102 -25 -160 -9 -58 -20 -127 -26 -155
-5 -27 -14 -84 -19 -125 -6 -41 -18 -122 -26 -180 -38 -270 -45 -321 -54 -410
-5 -52 -14 -119 -20 -149 -5 -30 -10 -82 -10 -115 -1 -34 -5 -81 -10 -106 -10
-46 -26 -291 -38 -590 -10 -238 7 -583 38 -745 6 -33 18 -98 26 -145 49 -267
166 -663 250 -848 20 -42 51 -110 70 -150 19 -40 34 -74 34 -76 0 -8 130 -238
179 -316 88 -139 192 -290 256 -370 33 -42 73 -92 88 -113 163 -217 528 -521
772 -645 190 -95 297 -122 508 -124 143 -1 170 1 234 21 40 13 93 36 118 53
44 29 158 142 226 223 69 83 282 309 537 571 145 149 275 289 289 310 14 21
36 50 49 64 49 53 110 219 134 363 17 109 24 469 11 572 -7 50 -16 135 -21
191 -5 56 -13 128 -19 160 -5 32 -15 91 -21 129 -10 68 -31 185 -50 275 -5 25
-16 77 -24 115 -16 82 -61 258 -74 295 -6 14 -18 52 -28 85 -9 33 -33 105 -52
160 -19 55 -37 114 -42 131 -4 18 -11 37 -15 44 -5 7 -30 74 -56 149 -48 138
-95 264 -142 381 -15 36 -51 128 -81 205 -30 77 -78 196 -106 265 -49 118 -63
153 -94 225 -8 17 -21 50 -31 75 -10 25 -42 98 -71 162 -30 64 -54 121 -54
127 0 5 -17 47 -39 93 -36 78 -96 222 -161 383 -15 39 -42 106 -60 150 -45
110 -119 320 -135 380 -7 28 -20 70 -29 95 -15 40 -26 76 -57 185 -4 17 -17
62 -29 100 -21 74 -32 118 -56 230 -27 125 -37 180 -65 338 -6 34 -15 130 -20
212 -5 83 -12 186 -15 230 -6 86 19 426 36 485 5 19 10 48 10 65 0 40 52 199
89 275 53 107 138 189 303 292 72 45 319 174 383 199 11 5 58 24 105 43 251
101 510 170 745 196 50 5 123 14 163 20 40 5 103 10 140 10 70 0 424 22 647
41 72 6 209 15 305 20 96 5 231 13 300 18 170 13 843 12 1065 0 99 -6 326 -13
505 -17 373 -8 371 -8 451 -103 72 -86 227 -175 346 -200 59 -12 70 -11 170
14 127 32 212 44 383 56 189 14 286 41 386 107 28 19 58 34 66 34 8 0 50 -26
94 -58 130 -96 295 -209 554 -382 135 -91 326 -221 425 -291 257 -180 560
-384 705 -474 245 -152 309 -175 479 -174 64 0 152 4 196 10 44 5 157 14 250
19 253 13 337 37 484 134 78 52 84 60 186 236 87 152 320 538 453 752 49 79
108 175 131 213 23 39 60 99 83 135 22 36 75 121 116 190 42 69 139 227 217
352 77 124 190 308 250 407 171 280 397 647 461 746 67 105 319 507 343 548 9
15 43 70 77 122 33 51 103 159 154 239 51 80 100 148 110 151 9 3 49 -1 89
-10 98 -20 400 -21 507 0 166 32 305 68 479 126 228 77 351 170 503 384 34 48
78 100 97 114 47 35 93 91 201 240 l90 126 130 8 c147 10 98 22 464 -113 107
-40 206 -76 220 -80 14 -5 50 -18 80 -30 30 -11 87 -32 125 -44 39 -13 126
-45 195 -71 69 -26 154 -56 190 -67 36 -11 76 -24 90 -30 34 -14 229 -74 315
-98 17 -4 66 -18 110 -30 44 -12 96 -26 115 -31 19 -4 64 -15 100 -24 63 -15
203 -42 265 -51 17 -3 71 -11 120 -19 112 -17 294 -35 362 -35 150 0 427 110
788 313 332 187 786 539 1116 867 215 214 279 300 328 447 21 62 59 225 71
309 4 28 13 75 18 105 55 279 73 489 74 849 1 337 1 347 -48 590 -27 135 -80
313 -122 409 -74 171 -177 363 -265 495 -90 134 -122 172 -286 336 -307 306
-550 497 -1086 855 -181 121 -343 226 -360 232 -16 7 -50 15 -75 18 -57 9
-195 75 -270 131 -108 80 -255 172 -365 229 -60 32 -150 79 -200 105 -49 26
-139 73 -200 105 -60 32 -114 61 -120 65 -5 4 -50 29 -100 55 -49 26 -94 50
-100 55 -5 4 -39 23 -75 42 -135 73 -186 101 -227 124 -23 13 -70 39 -105 58
-122 65 -545 295 -733 398 -192 106 -257 141 -440 238 -55 29 -125 67 -155 85
-30 18 -138 76 -240 130 -204 108 -241 128 -475 255 -88 48 -194 105 -235 127
-41 22 -190 103 -330 180 -296 162 -313 172 -605 328 -121 65 -309 167 -418
227 -109 59 -200 108 -202 108 -3 0 -22 10 -43 23 -20 13 -86 50 -147 82 -142
75 -259 140 -530 293 -90 51 -320 185 -468 274 -54 32 -100 58 -102 58 -2 0
-42 24 -87 53 -46 30 -99 62 -118 72 -121 62 -580 369 -762 509 -400 309 -748
638 -1041 985 -357 423 -585 729 -764 1026 -204 339 -461 847 -531 1051 -30
86 -32 102 -42 330 -15 326 -33 521 -59 629 -5 22 -17 74 -26 115 -42 198 -98
375 -176 561 -177 425 -452 729 -789 871 -144 61 -208 79 -420 118 -80 15
-151 19 -301 20 -108 0 -198 -2 -200 -5z m-4500 -18959 c9 -11 -4 -26 -65 -77
-129 -106 -289 -255 -469 -434 -369 -368 -633 -696 -767 -955 -38 -73 -58
-122 -119 -290 -4 -14 -13 -45 -19 -70 -6 -25 -20 -81 -30 -125 -11 -46 -25
-160 -32 -265 -10 -161 -9 -210 6 -375 19 -212 30 -304 46 -385 27 -138 42
-208 52 -245 6 -22 14 -56 19 -75 12 -58 35 -128 84 -265 26 -71 50 -143 55
-160 5 -16 23 -68 40 -115 17 -47 48 -137 70 -200 21 -63 59 -173 85 -245 26
-71 57 -161 70 -200 13 -38 33 -95 45 -125 25 -67 85 -236 135 -385 21 -60 48
-139 60 -175 13 -36 37 -112 55 -170 18 -58 45 -141 60 -185 15 -44 60 -181
100 -305 39 -124 75 -236 80 -250 5 -14 18 -59 30 -100 12 -41 25 -86 30 -100
5 -14 23 -72 40 -130 17 -58 40 -136 52 -175 11 -38 34 -117 50 -175 16 -58
35 -127 43 -155 8 -27 24 -88 35 -135 19 -78 37 -149 61 -240 8 -34 17 -71 54
-245 9 -44 23 -108 31 -142 8 -34 14 -79 14 -100 0 -21 5 -58 11 -83 22 -95
47 -471 35 -535 -4 -19 -14 -41 -22 -50 -18 -18 -82 -20 -138 -4 -21 6 -59 14
-85 18 -127 22 -299 76 -387 122 -52 27 -102 49 -112 49 -9 0 -48 23 -87 50
-38 27 -97 66 -130 86 -33 20 -78 54 -100 74 -22 21 -59 51 -83 68 -49 35
-400 379 -484 474 -31 35 -71 86 -89 114 -18 27 -45 64 -61 82 -16 18 -44 65
-64 104 -20 40 -46 88 -59 107 -23 38 -103 193 -129 251 -86 194 -160 437
-216 705 -5 22 -16 67 -25 100 -9 33 -21 83 -26 110 -5 28 -13 73 -19 100 -5
28 -16 93 -25 145 -9 52 -23 127 -31 165 -8 39 -14 85 -14 104 0 19 -7 73 -15
120 -57 337 -60 1211 -5 1701 5 52 15 151 20 220 5 69 14 141 20 160 5 19 10
55 10 80 0 25 6 74 14 110 15 66 23 109 52 260 41 223 105 488 150 627 7 23
25 84 39 135 35 124 93 300 151 451 8 20 21 56 30 80 20 54 53 131 98 230 20
44 36 81 36 84 0 8 48 110 145 308 143 292 214 385 375 494 56 38 269 146 318
161 15 5 65 23 112 40 98 36 179 62 265 83 33 9 78 20 100 26 94 24 206 44
290 51 50 4 97 8 106 9 9 0 22 -5 28 -13z"/>
</g>
</svg>
