<?xml version="1.0" encoding="UTF-8"?>
<svg id="Layer_2" data-name="Layer 2" xmlns="http://www.w3.org/2000/svg" viewBox="0 0 99.66 94.45">
  <defs>
    <style>
      .cls-1 {
        fill: #fcf8e7;
      }

      .cls-2 {
        fill: #f9f3d7;
      }
    </style>
  </defs>
  <g id="Layer_1-2" data-name="Layer 1">
    <g>
      <path class="cls-2" d="M35.02.12l.57.06,1.56-.06c.16,0,.39.12.55-.01l.31-.02c.12.18.29.02.4.02.33.01.75.08,1.08-.03.05.05.14.12.2.09l.13-.07h.23s0,.08.01.1c.02.03.08.05.14.05h1.82c.08,0,.14-.03.15-.11l.63.09c-.02.06.05.12.11.09.03-.01.05-.03.05-.07.07,0,.16-.01.23.01.29.1.66.09.95-.04.2.06.48.03.69.01-.01.11.03.17.13.17.07,0,.16,0,.2-.1.2.03.47.11.69.08.98-.14,1.45.2,1.88.07.09.15.32.15.42,0,.22.08.52.02.76.02,0,.03,0,.08.02.11s.09.07.14.06c.48-.07.9.09,1.36.11l1,.04c.08,0,.14-.04.15-.08h.15s0,.12.05.15c.07.03.08-.05.12-.06.12-.03.35,0,.46.07.17.1.39.13.56-.02.18.07.42.02.61.02-.01.04,0,.13.05.15.03.02.1-.04.12-.08l1.24.15s.11.11.2.1c.04,0,.11-.01.12-.08.09.02.21.03.3.02,0,.13.1.16.21.15.07,0,.15,0,.2-.09l.31.08c.07.02.1.09.19.09.04,0,.11-.01.12-.09.05.03.16.01.22,0-.01.07.02.13.07.14.08.03.15,0,.2,0,.57-.01,1.15.11,1.75.22l2.33.43,2.37.53,1.61.36,1.79.49c1.24.34,2.39.87,3.49,1.52,1.03.62,1.91,1.46,2.37,2.57.69,1.63-.05,4.21-.33,5.99l-.39,2.51c-.15.96.5,1.69,1.4,1.83.31.05.55.05.86.01l1.37-.14c1.58-.26,3.15-.34,4.75-.27l2.12.08c.02.07.12.09.2.08.04,0,.1,0,.12-.08.12.06.34.06.47.08.03.02.07.07.12.08s.11-.01.11-.08l.31.08s.05.08.12.08c.05,0,.11-.01.11-.08.05.02.17.02.22,0-.02.08.03.17.12.16.04,0,.1-.05.13-.08l.77.08s0,.12.05.15c.04.02.09-.05.12-.07h.22c-.02.07.02.13.07.14.07.02.15,0,.2,0l.45.02c-.02.07.02.13.06.14.07.02.14,0,.19,0h.37c-.01.08.02.13.06.15.04.02.1.02.13-.02,2.01.51,3.83,1.53,5.49,2.85,3.61,2.98,5.67,7.28,6.43,11.87.29,1.71.46,3.35.35,5.08-.37,5.76-2.11,10.11-5.21,14.88-.64.98-1.33,1.83-2.11,2.7l-1.4,1.58-1.61,1.61-1.18,1.11-3.07,2.57-2.71,2-1.78,1.21-1.82,1.23-1.36.84-3.05,1.83-2.83,1.41c-.63.41-1.19,1.02-1.19,1.79l.02,3.1v2.6s-.1,1.27-.1,1.27c-.07.74-.29,2.15-.5,2.6l-.22.78-.46,1.05-.46,1.02c-.13.29-.41.54-.64.77l-.68.33-.64.63-.95.78c-.74.61-1.52,1.11-2.39,1.54l-1.1.55-.46.32-1.39.5c-2.38.94-4.77,1.68-7.29,2.13l-3.81.67-1.27.16c-3,.39-5.95.74-8.97.74h-5.04s-2.31-.09-2.31-.09l-1.81-.16c-2.66-.24-5.25-.51-7.87-1.02-2.8-.53-5.5-1.16-8.16-2.12l-2.02-.81-1.29-.53-.59-.03c-.81-.38-1.59-.78-2.3-1.32l-1.3-.98c-.86-.91-1.45-2-2.13-3.04-.25-.38-.61-.71-.74-1.15l-.65-2.24-.24-1.32-.16-1.35v-2.8s.07-.94.07-.94v-.66s.07-1.39.07-1.39l.03-.8c.01-.33.08-.69.09-1.03l.05-1.68.17-1.48c.04-.37-.04-.7-.02-1.06l.07-1.5c0-.2.03-.5-.02-.7.19-.3.16-.68.18-1.02l.07-1.33c.04-.72.08-1.3-.15-1.98l.2-1.31c-.07-.46-.09-1.37-.02-1.83.15-1.01-.18-1.89.02-2.82l.02-1.23c.15-.63-.1-1.25-.06-1.65.13-1.17.04-2.44-.09-3.61-.02-.21.02-.42,0-.65l-.07-2,.02-.8-.09-.8c-.03-.24-.18-.47-.19-.74l-.04-1.84-.08-.78c-.03-.31.01-.6.01-.86-.13-.45-.29-.87-.12-1.35.08-.23-.01-.48-.01-.7,0-.76,0-1.45-.07-2.2-.08-.82,0-1.47-.07-2.05-.11-.81,0-1.4-.07-1.97l-.16-1.48-.08-1.49c-.05-.89-.16-1.71-.23-2.6-.04-.49-.09-.93-.16-1.42-.06-.38-.01-.78-.1-1.17s-.06-.73-.1-1.1l-.09-.94c-.06-.68-.07-1.46-.17-1.86-.1-.42-.11-.78-.16-1.2-.04-.38-.19-.72-.13-1.09.04-.27,0-.55-.06-.8l-.27-1.25c.1-.03.1-.12.1-.2,0-.1-.06-.14-.16-.13.01-.04,0-.11,0-.15.07-.01.07-.06.08-.11,0-.07-.02-.12-.09-.12v-.3s.01-.65.01-.65c0-.06-.02-.12-.05-.14-.02-.02-.08-.02-.11-.02,0-.26-.13-.5-.18-.77.16-.22.11-.62-.13-.72-.05-.25.13-.58-.03-1.1.08-.01.09-.07.1-.15l.07-.87v-.16c.12-.6.27-1.2.6-1.76.09-.15.18-.3.18-.46.08,0,.08-.07.09-.14.22-.05.42-.25.46-.49.07-.05.17-.16.22-.23.07.03.14.01.17-.04.02-.03.02-.09.01-.12.04,0,.1-.05.13-.08.28.03.62-.13.73-.39h.09c.15.01.31-.06.33-.22h.05c.15-.02.32-.07.35-.23.04-.03.1-.05.13-.09.24-.02.57-.06.65-.31.01,0,.04,0,.05,0,.16,0,.32-.06.35-.23h.13s.75-.21.75-.21c.1-.03.14-.12.14-.19.04-.01.09-.01.13,0,.09.02.21.02.25-.09l.53-.08,1.19-.38c.15-.05.31-.05.38-.19l.24.03c.05,0,.12.02.19,0,.04-.01.08-.08.06-.14.07,0,.18,0,.24.04l1.48-.35.39-.08c.02.08.07.08.12.08.08,0,.13-.03.12-.1h.15c.05.01.12.01.16-.03.02-.02.03-.07.02-.1.19,0,.42-.02.61-.1.01.06.08.11.16.09l.72-.15c.11-.02.16-.08.16-.16h.15c0,.06.07.1.11.07l.13-.08c.32-.07.72-.2,1.07-.16.08,0,.16,0,.18-.1l.3.02c.07,0,.16,0,.17-.09l.39-.05c.05,0,.1.1.19.06.05-.03.06-.09.05-.15h.15s.08.08.11.07c.05-.02.06-.11.05-.15h.15c.15.11.41.12.54-.02h.23c.07,0,.16,0,.17-.08h.3c.07.01.16.01.18-.08h.61c.12,0,.27.05.32-.09.12.02.28,0,.39-.06.03.08.12.1.19.08.05-.01.1-.05.13-.08l.7-.09c.12.15.28.1.4.02s.33-.06.46-.08c.01.07.07.08.12.08.07,0,.13-.02.12-.1.06.02.16,0,.22,0,.21,0,.47.08.65-.09h.54c.16.02.39.08.41-.13h.23c.15.11.42.12.56-.03l1.64-.05c.02.07.14.11.19.07l.12-.08.38-.09c.32.17.7.12.64-.07.15,0,.33.03.46-.02.47.15,1.02.15.95-.05.53.05,1.06-.01,1.26.01l.45.05c.21.02.39.04.57-.07.09-.05.28-.06.39-.07.05.01.12.1.18.06l.13-.07c.08,0,.23-.03.31,0,.3.14.78.09.72-.09.3.08.61-.01.92.02.67.07,1.28-.07,1.89,0ZM70.46,35.26s-.08.08-.08.13.05.1.06.13l-.05,1.39c-.15.13-.14.65-.05.96.07.23,0,.51,0,.76-.05,0-.11.01-.13.07-.01.04.03.1.07.11l-.11,3.8-.07,1.85-.04.87s-.05.04-.06.07c-.01.03.02.08.04.1l-.06,1.48s-.05.04-.06.07c-.02.04.02.07.04.1v.16c-.2.13,0,.36,0,.49l-.09,2.09-.05,1.12c-.01.27.06.59-.02.86-.13.45-.03.92-.06,1.42,0,.09.03.15.11.15-.02.06-.04.19-.01.24-.19.15-.19.57-.13.63.02.02.09.01.12,0v1.71c0,.22,0,.54.21.64-.05.29.13.45.28.66.7.96,1.58,1.03,2.71.91.88-.09,1.7-.29,2.55-.5,1.46-.36,4.7-2.01,6-2.98l1.44-1.07.68-.58,1.38-1.21.52-.51.9-.97.61-.81,1.58-2.19.8-1.33.76-1.43c.59-1.1.92-2.29,1.28-3.49,1.12-3.71.91-7.61-1.06-11-1.29-2.22-3.53-3.76-6.05-4.21-3.63-.65-6.71.64-9.38,3.02l-.87.87-.73.67-1.56,1.42c-.97.88-1.5,2.1-1.43,3.34Z"/>
      <path class="cls-1" d="M51.6.72s-.07.08-.15.08l-1-.04c-.46-.02-.88-.18-1.36-.11-.05,0-.13-.04-.14-.06s-.02-.07-.02-.11h.87c.51.12.98.21,1.51.14.12-.02.24.03.3.09Z"/>
      <path class="cls-1" d="M1.01,6.51c0,.16-.08.3-.18.46-.33.56-.48,1.16-.6,1.76-.06,0-.11-.03-.14-.06-.08-.09.54-2.11.91-2.16Z"/>
      <path class="cls-1" d="M42.17.15c-.01.07-.07.1-.15.1h-1.82c-.07,0-.12-.02-.14-.05-.02-.02-.02-.08-.01-.11l2.12.06Z"/>
      <path class="cls-1" d="M8.31,2.81c-.06.14-.23.14-.38.19l-1.19.38c.07-.27,1.33-.6,1.57-.57Z"/>
      <path class="cls-1" d="M10.53,2.37l-1.48.35c.27-.25.64-.25,1.01-.35.17-.05.35-.13.48,0Z"/>
      <path class="cls-1" d="M.24,8.89l-.07.87c0,.08-.02.13-.1.15-.13-.43-.07-1.07.17-1.01Z"/>
      <path class="cls-1" d="M13.13,1.83c0,.08-.05.14-.16.16l-.72.15c-.08.02-.15-.03-.16-.09.33-.14.69-.22,1.04-.22Z"/>
      <path class="cls-1" d="M28.2.27c.08.19-.48.2-.95.05.3-.11.63-.08.95-.05Z"/>
      <path class="cls-1" d="M44.15.23c-.3.13-.66.14-.95.04.13-.15.62-.14.95-.04Z"/>
      <path class="cls-1" d="M5.83,3.55c0,.07-.04.16-.14.19l-.75.2c0-.08.05-.14.15-.17l.74-.22Z"/>
      <path class="cls-1" d="M.94,16.36c-.19.05-.22-.4-.06-.8.05.25.1.53.06.8Z"/>
      <path class="cls-1" d="M.54,13.3s-.08,0-.1-.02c-.02-.02-.05-.08-.05-.14v-.65s.1,0,.12.02c.03.02.05.08.05.14l-.02.65Z"/>
      <path class="cls-1" d="M2.82,5.03c-.11.26-.45.42-.73.39.16-.22.5-.28.73-.39Z"/>
      <path class="cls-1" d="M32.21.1c.06.18-.42.22-.72.09,0-.05.02-.09.09-.09h.63Z"/>
      <path class="cls-1" d="M.22,11.72l-.13-.72c.24.1.29.51.13.72Z"/>
      <path class="cls-1" d="M26.79.33c.06.18-.33.23-.64.07.22-.05.42-.07.64-.07Z"/>
      <path class="cls-1" d="M1.56,5.88c-.04.24-.23.44-.46.49.03-.23.28-.41.46-.49Z"/>
      <path class="cls-1" d="M22.08.7c-.17.16-.43.1-.65.09.05-.3.51-.09.65-.09Z"/>
      <path class="cls-1" d="M52.94.86c-.17.15-.39.12-.56.02.18-.16.39-.08.56-.02Z"/>
      <path class="cls-1" d="M35.59.18l-.57-.06c.05-.14.18-.11.28-.11.13-.01.28-.02.29.17Z"/>
      <path class="cls-1" d="M37.7.11c-.16.13-.39,0-.55.01.13-.15.43-.16.55-.01Z"/>
      <path class="cls-1" d="M16.89,1.26c-.13.14-.39.13-.54.02.13-.14.39-.13.54-.02Z"/>
      <path class="cls-1" d="M30.48.26c-.18.11-.37.09-.57.07.06-.24.41-.2.57-.07Z"/>
      <path class="cls-1" d="M23.81.54c-.14.15-.41.14-.56.03.17-.19.38-.03.56-.03Z"/>
      <path class="cls-1" d="M4.41,4.17c-.07.26-.41.29-.65.31.15-.19.42-.25.65-.31Z"/>
      <path class="cls-1" d="M38.42.11c-.11,0-.28.16-.4-.02.02-.09.12-.09.2-.09s.18,0,.21.11Z"/>
      <path class="cls-1" d="M56,1.19c-.05.09-.13.08-.2.09-.11,0-.21-.02-.21-.15.16-.03.27.02.42.06Z"/>
      <path class="cls-1" d="M48.16.47c-.1.14-.33.14-.42,0,.18-.06.25-.05.42,0Z"/>
      <path class="cls-1" d="M23.02.57c-.02.21-.25.15-.41.14.02-.21.25-.14.41-.14Z"/>
      <path class="cls-1" d="M20.51.88c-.12.08-.28.13-.4-.02.12-.02.27-.16.4.02Z"/>
      <path class="cls-1" d="M18.7,1.01c-.06.14-.21.09-.32.09-.02-.09.03-.17.13-.16.06,0,.14.06.2.07Z"/>
      <path class="cls-1" d="M31.18.18l-.13.07c-.07.03-.14-.05-.18-.06.01-.1.1-.12.19-.1.05,0,.12,0,.12.1Z"/>
      <path class="cls-1" d="M82.94,17.53c-.02.08-.08.08-.12.08-.08.02-.18,0-.2-.08.05-.06.12-.1.19-.09.05,0,.09.06.13.08Z"/>
      <path class="cls-1" d="M55.29,1.11c-.02.07-.08.08-.12.08-.09.01-.15-.05-.2-.1.04-.07.12-.08.19-.07.06,0,.09.06.13.08Z"/>
      <path class="cls-1" d="M19.41.95s-.08.07-.13.08c-.07.02-.16,0-.19-.08.05-.02.09-.1.19-.08.04,0,.11,0,.13.08Z"/>
      <path class="cls-1" d="M.62,14.31c-.02-.1-.11-.2-.06-.33.1-.01.16.04.16.13,0,.08,0,.17-.1.2Z"/>
      <path class="cls-1" d="M45.16.31c-.04.11-.12.11-.2.1-.1,0-.15-.06-.13-.17.14-.01.23.05.33.07Z"/>
      <path class="cls-1" d="M56.63,1.27c-.02.07-.08.08-.12.09-.1,0-.13-.07-.19-.09.03-.08.13-.12.19-.08l.13.08Z"/>
      <path class="cls-1" d="M4.81,3.95c-.02.17-.19.23-.35.23.02-.17.19-.22.35-.23Z"/>
      <path class="cls-1" d="M39.82.11l-.13.07c-.06.03-.14-.03-.2-.09.02-.08.11-.09.21-.08.05,0,.12,0,.12.1Z"/>
      <path class="cls-1" d="M3.64,4.58c-.03.16-.19.21-.35.22.02-.17.19-.23.35-.22Z"/>
      <path class="cls-1" d="M3.24,4.81c-.01.16-.17.24-.33.23,0-.17.18-.21.33-.23Z"/>
      <path class="cls-1" d="M25.76.48l-.12.08c-.06.04-.17,0-.19-.07.05-.05.11-.1.2-.09.04,0,.1.01.12.08Z"/>
      <path class="cls-1" d="M86.09,18.07s-.13.02-.2,0c-.04-.01-.08-.07-.07-.14.05,0,.13-.01.19,0,.04.01.08.07.07.14Z"/>
      <path class="cls-1" d="M15.88,1.36c.01.05,0,.12-.05.15-.09.05-.14-.06-.19-.06.03-.11.16-.09.25-.09Z"/>
      <path class="cls-1" d="M57.11,1.41c-.05,0-.12.03-.2,0-.04-.01-.08-.07-.07-.14.05,0,.13-.02.19,0,.04.01.08.07.07.13Z"/>
      <path class="cls-1" d="M21.21.78c.01.08-.04.11-.12.1-.05,0-.11,0-.12-.08.03-.02.07-.07.12-.08.05,0,.09.04.12.06Z"/>
      <path class="cls-1" d="M6.21,3.46c-.04.1-.16.1-.25.09-.03-.08.03-.17.12-.16.04,0,.09.04.13.07Z"/>
      <path class="cls-1" d="M.56,13.83s-.07-.06-.08-.11c0-.05.05-.09.07-.12.07,0,.1.05.09.12,0,.05-.01.1-.08.11Z"/>
      <path class="cls-1" d="M13.52,1.82l-.13.08s-.11-.02-.11-.07c.03-.05.07-.08.12-.09s.11.01.13.08Z"/>
      <path class="cls-1" d="M8.81,2.69c.02.07-.01.13-.06.14-.07.02-.14.01-.19,0-.02-.07.02-.13.06-.14.08-.03.13,0,.19,0Z"/>
      <path class="cls-1" d="M11.16,2.28c0,.07-.04.11-.12.1-.05,0-.1,0-.12-.08.03-.01.05-.08.12-.08.04,0,.08.04.12.06Z"/>
      <path class="cls-1" d="M83.64,17.6c0,.07-.07.09-.11.08s-.09-.06-.12-.08c0-.07.07-.08.12-.08.06,0,.09.07.12.08Z"/>
      <path class="cls-1" d="M84.19,17.68c0,.07-.06.09-.11.08-.07,0-.08-.07-.12-.08.01-.06.07-.07.11-.07.06,0,.09.06.12.07Z"/>
      <path class="cls-1" d="M84.67,17.77s-.09.07-.13.08c-.09.01-.15-.07-.12-.16.09-.01.21-.02.25.08Z"/>
      <path class="cls-1" d="M86.8,18.22c-.05,0-.13.02-.19,0-.04-.01-.08-.07-.06-.14.05,0,.12-.02.19,0,.04.01.08.07.07.14Z"/>
      <path class="cls-1" d="M42.96.26s-.02.06-.05.07c-.06.03-.13-.02-.11-.09.02-.02.07-.05.1-.04.03.01.05.05.06.06Z"/>
      <path class="cls-1" d="M16.19,1.28s0,.12-.05.15c-.03.02-.1-.02-.11-.07,0-.08.1-.08.16-.08Z"/>
      <path class="cls-1" d="M85.61,17.93s-.07.09-.12.07c-.06-.03-.06-.1-.05-.15.07,0,.16,0,.17.08Z"/>
      <path class="cls-1" d="M87.36,18.36s-.09.04-.13.02c-.05-.02-.07-.08-.06-.14.05,0,.12,0,.16.04.02.02.03.07.03.08Z"/>
      <path class="cls-1" d="M15.24,1.49c-.01.09-.1.09-.17.09,0-.04,0-.12.05-.14.07-.03.08.06.12.06Z"/>
      <path class="cls-1" d="M1.97,5.5s0,.09-.01.12c-.03.05-.11.06-.17.04.05-.06.08-.15.18-.16Z"/>
      <path class="cls-1" d="M14.77,1.56c-.03.09-.1.11-.18.1,0-.05,0-.12.06-.15.05-.03.08.05.12.05Z"/>
      <path class="cls-1" d="M51.92.81s-.05.09-.12.06c-.06-.03-.06-.1-.05-.15.07,0,.15,0,.17.09Z"/>
      <path class="cls-1" d="M17.28,1.18c-.01.09-.1.09-.17.09,0-.05,0-.12.05-.14.07-.03.08.06.12.06Z"/>
      <path class="cls-1" d="M53.73.95s-.09.09-.12.08c-.05-.02-.06-.11-.05-.15.07,0,.16,0,.18.07Z"/>
      <path class="cls-1" d="M17.76,1.1c-.02.09-.11.09-.18.08,0-.05,0-.11.06-.15.05-.02.09.05.12.06Z"/>
      <path class="cls-1" d="M11.48,2.14s0,.08-.02.1c-.04.05-.1.04-.16.04-.02-.06.01-.12.06-.14s.09,0,.12,0Z"/>
      <path class="cls-1" d="M69.85,53.41c-.08,0-.12-.06-.11-.15.03-.5-.06-.97.06-1.42.06.02.11.07.1.16-.03.49.06.97-.06,1.41Z"/>
      <path class="cls-1" d="M69.82,50.99l.05-1.12c.08.03.11.08.11.16v.8c0,.06-.02.12-.05.14s-.08.02-.11.02Z"/>
      <path class="cls-1" d="M70.35,37.87c-.1-.31-.1-.84.05-.96l.06.8c0,.09-.03.15-.11.16Z"/>
      <path class="cls-1" d="M69.83,54.29s-.1.01-.12,0c-.06-.05-.06-.48.13-.63.12.2,0,.43,0,.63Z"/>
      <path class="cls-1" d="M70.05,56.64c-.22-.1-.22-.42-.22-.64.14-.07.25.47.22.64Z"/>
      <path class="cls-1" d="M69.96,47.78c0-.13-.2-.35.02-.49.12.1.12.37-.02.49Z"/>
      <path class="cls-1" d="M70.44,35.52s-.07-.09-.06-.13.05-.09.08-.13c.06.02.07.07.07.13,0,.06-.02.12-.1.13Z"/>
      <path class="cls-1" d="M70.35,38.63c0,.06.03.16-.05.18-.04-.01-.09-.07-.07-.11.02-.06.08-.07.13-.07Z"/>
      <path class="cls-1" d="M70.05,45.49s-.06-.07-.04-.1c.01-.03.05-.05.06-.07.04,0,.06.02.07.05.03.07-.02.13-.09.12Z"/>
      <path class="cls-1" d="M69.97,47.13s-.06-.06-.04-.1c.01-.03.04-.05.06-.07.04,0,.06.02.07.05.02.06-.02.13-.09.11Z"/>
    </g>
  </g>
</svg>