<?xml version="1.0" standalone="no"?>
<!DOCTYPE svg PUBLIC "-//W3C//DTD SVG 20010904//EN"
 "http://www.w3.org/TR/2001/REC-SVG-20010904/DTD/svg10.dtd">
<svg version="1.0" xmlns="http://www.w3.org/2000/svg"
 width="3000.000000pt" height="3000.000000pt" viewBox="0 0 3000.000000 3000.000000"
 preserveAspectRatio="xMidYMid meet">
<metadata>
Created by potrace 1.16, written by Peter Selinger 2001-2019
</metadata>
<g transform="translate(0.000000,3000.000000) scale(0.100000,-0.100000)"
fill="#ffc50c" stroke="none">
<path d="M14425 27339 c-115 -5 -229 -13 -252 -19 -23 -5 -119 -15 -214 -20
-94 -6 -179 -15 -188 -19 -9 -5 -83 -14 -166 -20 -82 -6 -166 -15 -185 -21
-19 -6 -77 -15 -127 -20 -51 -5 -121 -16 -155 -24 -64 -15 -191 -37 -353 -60
-49 -8 -102 -18 -117 -24 -14 -6 -55 -14 -90 -18 -34 -3 -77 -12 -95 -19 -17
-8 -58 -17 -90 -20 -32 -4 -80 -16 -106 -26 -26 -11 -60 -19 -75 -19 -15 -1
-52 -9 -82 -20 -30 -11 -68 -19 -83 -20 -15 0 -41 -7 -57 -15 -16 -8 -55 -19
-87 -24 -32 -5 -78 -16 -103 -24 -25 -9 -63 -20 -85 -25 -22 -6 -53 -14 -70
-20 -16 -6 -64 -20 -105 -32 -41 -12 -95 -28 -120 -36 -25 -9 -67 -21 -95 -29
-75 -20 -147 -45 -175 -60 -14 -7 -41 -16 -60 -20 -19 -4 -44 -13 -55 -20 -11
-7 -36 -16 -55 -20 -19 -4 -51 -16 -70 -26 -19 -11 -40 -19 -47 -19 -7 0 -30
-9 -50 -20 -21 -11 -46 -20 -55 -20 -10 0 -32 -9 -50 -20 -18 -11 -42 -20 -53
-20 -11 0 -33 -9 -50 -20 -16 -11 -39 -20 -50 -20 -11 0 -33 -9 -50 -20 -16
-11 -38 -20 -48 -20 -10 0 -35 -9 -55 -19 -20 -11 -62 -29 -92 -41 -63 -25
-112 -47 -191 -84 -31 -14 -61 -26 -66 -26 -6 0 -16 -6 -22 -14 -7 -8 -25 -17
-40 -21 -16 -3 -53 -19 -82 -35 -30 -16 -65 -34 -79 -40 -59 -26 -334 -165
-363 -184 -18 -12 -61 -36 -97 -54 -36 -18 -83 -44 -105 -57 -22 -12 -59 -33
-82 -45 -23 -12 -59 -33 -80 -47 -20 -14 -46 -29 -57 -34 -12 -6 -43 -23 -71
-39 -27 -17 -59 -35 -70 -40 -11 -6 -40 -24 -65 -40 -25 -16 -70 -43 -100 -61
-30 -18 -66 -40 -80 -50 -14 -9 -52 -34 -85 -54 -82 -51 -194 -123 -230 -149
-16 -11 -77 -52 -134 -91 -176 -119 -217 -148 -283 -198 -78 -60 -291 -221
-377 -284 -35 -27 -91 -72 -125 -102 -33 -30 -94 -78 -134 -108 -40 -30 -103
-84 -140 -120 -37 -36 -101 -92 -142 -125 -156 -124 -811 -781 -974 -977 -21
-25 -77 -88 -125 -140 -47 -51 -90 -100 -95 -110 -10 -18 -94 -120 -112 -136
-12 -10 -171 -210 -251 -315 -283 -371 -308 -404 -450 -620 -34 -52 -75 -112
-90 -133 -16 -22 -32 -46 -38 -55 -9 -16 -25 -41 -122 -189 -21 -32 -44 -69
-51 -83 -7 -14 -32 -56 -57 -95 -25 -38 -50 -81 -57 -95 -7 -14 -20 -36 -30
-49 -10 -13 -18 -30 -18 -37 0 -7 -17 -39 -38 -71 -21 -32 -51 -84 -67 -116
-17 -31 -42 -78 -56 -105 -14 -26 -47 -90 -73 -142 -26 -52 -61 -122 -79 -155
-97 -184 -119 -226 -148 -285 -17 -36 -40 -82 -50 -102 -10 -20 -19 -45 -19
-55 0 -10 -9 -31 -20 -48 -11 -16 -20 -37 -20 -47 0 -9 -18 -51 -40 -94 -22
-43 -40 -83 -40 -89 0 -6 -9 -27 -20 -48 -11 -20 -20 -44 -20 -53 0 -14 -34
-96 -65 -157 -8 -16 -15 -34 -15 -40 0 -6 -8 -29 -18 -51 -36 -78 -72 -177
-72 -194 0 -10 -6 -26 -14 -37 -7 -11 -17 -31 -20 -45 -11 -38 -46 -130 -67
-176 -11 -23 -19 -53 -19 -68 0 -14 -9 -43 -20 -63 -11 -21 -20 -46 -20 -55 0
-10 -8 -37 -19 -60 -26 -60 -51 -135 -61 -184 -5 -22 -15 -56 -23 -75 -8 -19
-20 -56 -25 -84 -18 -83 -43 -178 -58 -215 -7 -19 -16 -57 -20 -85 -4 -27 -13
-62 -20 -76 -7 -14 -16 -50 -20 -80 -4 -30 -12 -65 -19 -79 -7 -14 -16 -48
-20 -75 -4 -28 -14 -65 -21 -84 -8 -19 -17 -59 -20 -90 -3 -31 -15 -85 -25
-120 -10 -35 -19 -82 -19 -105 0 -23 -7 -65 -15 -93 -8 -28 -20 -86 -25 -128
-5 -42 -17 -97 -25 -121 -8 -25 -15 -68 -15 -97 0 -29 -9 -87 -19 -128 -10
-41 -22 -114 -25 -163 -4 -49 -13 -115 -20 -145 -8 -31 -17 -108 -21 -171 -3
-63 -13 -139 -21 -169 -8 -30 -14 -89 -15 -131 0 -72 -5 -121 -28 -295 -6 -44
-15 -174 -20 -289 -8 -173 -12 -211 -25 -218 -14 -8 -16 -58 -16 -423 0 -345
2 -415 14 -415 20 0 24 -45 32 -320 5 -169 11 -257 21 -285 8 -23 16 -99 19
-180 3 -78 12 -160 20 -184 7 -24 16 -87 20 -140 3 -53 12 -116 20 -141 7 -25
16 -76 20 -115 3 -38 15 -109 25 -157 10 -48 19 -107 19 -130 0 -24 9 -81 20
-128 11 -47 20 -110 20 -140 0 -32 9 -73 20 -99 11 -24 20 -59 20 -78 0 -19 7
-62 15 -94 9 -32 20 -92 25 -134 5 -41 16 -88 25 -105 8 -16 15 -43 15 -60 0
-17 9 -56 19 -88 11 -31 23 -75 27 -97 3 -22 12 -51 19 -65 7 -14 16 -45 19
-70 7 -40 28 -115 58 -205 6 -16 15 -52 20 -80 6 -27 19 -71 29 -97 11 -26 19
-56 19 -68 0 -11 9 -38 20 -60 11 -22 20 -51 20 -65 0 -14 9 -43 20 -65 11
-22 20 -47 20 -56 0 -9 8 -35 19 -58 27 -61 52 -136 60 -183 4 -23 15 -53 24
-67 9 -14 17 -33 17 -43 0 -10 9 -35 20 -56 11 -20 20 -43 20 -50 0 -7 8 -28
19 -47 10 -19 21 -53 25 -75 4 -22 13 -49 20 -60 8 -11 17 -36 20 -55 4 -19
14 -48 21 -65 47 -101 65 -145 65 -157 0 -8 6 -22 14 -33 7 -11 17 -31 20 -45
8 -26 36 -89 67 -152 11 -20 19 -42 19 -48 0 -6 18 -42 40 -80 22 -38 40 -74
40 -81 0 -6 18 -48 39 -93 22 -44 45 -92 50 -106 6 -14 15 -32 21 -40 5 -8 15
-26 20 -40 6 -14 28 -56 50 -95 38 -67 65 -121 133 -265 17 -36 45 -88 64
-116 18 -28 33 -54 33 -58 0 -10 73 -136 119 -206 19 -30 43 -67 51 -82 51
-92 91 -157 105 -168 8 -7 15 -16 15 -21 0 -5 17 -34 39 -66 76 -114 121 -185
121 -191 0 -4 24 -41 54 -82 83 -114 152 -213 240 -345 44 -66 98 -142 121
-170 44 -53 180 -233 207 -275 9 -14 33 -43 53 -65 21 -22 47 -56 60 -75 13
-19 48 -64 79 -100 30 -36 90 -108 133 -160 79 -96 608 -645 809 -840 193
-186 386 -364 429 -395 24 -16 76 -60 116 -96 41 -37 97 -84 126 -106 28 -21
73 -58 99 -81 26 -24 59 -51 73 -60 14 -9 58 -41 96 -72 102 -80 220 -171 270
-205 24 -16 74 -51 111 -78 38 -26 110 -76 159 -111 50 -35 113 -78 140 -94
28 -16 57 -37 64 -46 7 -9 18 -16 24 -16 9 0 124 -74 327 -210 30 -20 62 -40
70 -44 8 -3 35 -20 60 -36 25 -16 55 -34 67 -39 11 -5 24 -15 28 -21 3 -5 21
-17 38 -26 50 -23 91 -44 107 -54 13 -8 64 -39 174 -105 42 -25 175 -102 199
-115 9 -6 25 -15 35 -20 9 -6 28 -15 42 -21 14 -6 32 -15 40 -20 8 -5 26 -14
40 -20 14 -6 32 -15 40 -20 8 -5 26 -14 40 -20 25 -11 52 -25 80 -41 8 -4 26
-12 40 -18 14 -5 32 -14 40 -19 8 -6 60 -31 115 -57 55 -25 172 -82 260 -125
88 -44 165 -79 170 -79 6 0 21 -9 35 -20 14 -11 33 -20 43 -20 10 0 35 -9 55
-19 71 -37 147 -71 158 -71 7 0 17 -6 23 -14 7 -8 27 -17 45 -20 19 -4 39 -13
46 -21 7 -8 19 -15 27 -15 14 0 37 -9 245 -104 31 -14 63 -26 70 -26 8 0 19
-5 24 -10 6 -6 35 -20 65 -31 30 -12 77 -30 104 -41 28 -11 68 -27 90 -34 22
-8 54 -21 70 -28 74 -34 205 -81 268 -97 21 -5 48 -16 60 -23 12 -8 40 -17 62
-21 22 -4 45 -11 52 -17 7 -5 36 -16 65 -23 53 -14 128 -37 183 -57 17 -6 53
-16 80 -22 28 -6 59 -17 70 -23 11 -6 47 -16 79 -22 32 -6 64 -15 71 -21 7 -6
43 -14 81 -20 38 -5 87 -16 109 -24 22 -8 59 -15 81 -16 23 0 61 -7 85 -15 24
-9 88 -20 143 -26 58 -6 108 -17 117 -25 23 -21 544 -21 565 0 8 8 43 17 81
20 38 3 97 13 133 22 36 9 85 20 110 23 25 4 59 14 75 23 17 8 46 18 66 22 21
4 42 13 49 21 7 8 20 15 30 15 9 0 29 9 43 20 14 11 28 20 32 20 17 0 180 114
233 163 32 29 82 71 112 94 31 22 125 105 209 184 85 79 177 164 205 187 28
24 142 131 252 237 111 107 216 206 235 221 59 48 253 231 530 498 194 189
418 398 471 442 24 20 116 107 204 193 89 86 241 230 339 321 98 91 260 244
359 341 100 97 222 214 271 260 50 46 146 138 215 204 69 67 145 138 170 160
25 21 180 169 344 329 321 311 458 442 546 521 30 27 190 180 355 340 293 284
408 394 590 564 50 46 216 206 370 355 348 336 485 468 600 576 50 47 228 218
395 381 168 163 330 317 360 344 30 26 260 247 510 489 250 243 538 520 640
616 102 95 340 325 530 510 190 185 365 354 390 375 57 49 172 160 575 551
176 170 466 449 645 620 178 170 439 422 578 559 139 138 294 288 344 335 183
169 639 614 684 666 75 89 252 323 278 370 9 16 28 47 41 69 14 22 29 49 34
60 5 11 23 44 40 74 85 143 155 305 166 381 3 25 13 65 20 90 32 106 38 242
26 635 -7 209 -16 407 -21 440 -5 33 -15 116 -21 185 -6 69 -17 155 -25 192
-9 37 -19 105 -24 150 -5 46 -14 97 -20 113 -7 17 -15 62 -20 100 -6 62 -15
104 -52 250 -5 22 -14 63 -19 90 -6 28 -15 68 -20 90 -6 22 -15 63 -20 90 -6
28 -19 80 -30 116 -10 36 -19 77 -19 92 0 15 -8 53 -19 84 -10 32 -23 81 -29
108 -20 94 -51 198 -61 208 -6 6 -11 22 -11 37 -1 14 -8 43 -16 65 -9 22 -22
65 -29 95 -16 66 -41 143 -61 188 -8 18 -18 50 -23 70 -6 20 -21 66 -34 102
-14 36 -31 81 -37 100 -7 19 -21 54 -31 78 -11 23 -19 52 -19 63 0 11 -9 37
-20 59 -11 22 -20 46 -20 55 0 9 -9 33 -19 53 -10 20 -24 53 -31 72 -30 85
-42 117 -55 145 -42 90 -65 145 -65 159 0 8 -4 17 -9 21 -5 3 -15 22 -21 43
-6 20 -18 51 -25 67 -50 109 -65 145 -65 158 0 8 -6 20 -14 26 -8 7 -17 24
-21 39 -7 28 -275 570 -351 707 -24 44 -50 94 -59 112 -8 17 -19 34 -24 37 -5
3 -32 50 -59 104 -27 53 -63 120 -81 147 -17 28 -35 60 -40 72 -6 12 -26 45
-46 72 -19 28 -35 55 -35 60 0 5 -11 22 -23 38 -26 30 -90 134 -143 228 -27
49 -171 262 -290 430 -110 156 -136 191 -294 395 -27 36 -62 81 -77 102 -16
20 -81 101 -146 180 -65 78 -141 172 -170 207 -29 35 -89 105 -134 155 -46 50
-154 170 -240 266 -168 187 -530 553 -647 652 -39 34 -134 118 -211 188 -127
116 -296 260 -412 350 -24 19 -68 55 -96 80 -50 43 -196 157 -296 230 -27 19
-100 74 -162 121 -63 47 -126 92 -140 100 -14 8 -46 27 -70 44 -24 16 -51 34
-61 40 -19 12 -241 159 -280 186 -15 11 -29 19 -32 19 -2 0 -47 29 -100 64
-53 35 -115 74 -138 86 -24 12 -61 35 -83 51 -22 16 -53 36 -70 44 -16 8 -48
26 -70 39 -22 14 -55 32 -73 40 -19 9 -54 29 -78 46 -25 16 -56 33 -69 36 -14
3 -27 10 -30 14 -3 5 -56 34 -118 65 -111 56 -158 80 -187 97 -8 4 -33 17 -55
28 -22 11 -47 24 -55 28 -14 9 -77 38 -130 61 -14 6 -32 15 -40 21 -8 5 -26
14 -40 20 -14 5 -32 14 -40 20 -8 5 -42 21 -75 35 -33 14 -79 35 -102 46 -50
22 -107 48 -178 79 -27 13 -67 31 -87 41 -20 11 -45 19 -55 19 -10 0 -31 9
-48 20 -16 11 -38 20 -48 20 -10 0 -35 9 -55 19 -20 11 -62 29 -92 41 -30 12
-73 30 -95 41 -22 10 -49 19 -60 19 -11 0 -33 7 -50 16 -32 16 -110 46 -185
69 -25 8 -76 26 -115 41 -38 14 -95 32 -125 39 -30 7 -73 20 -95 28 -81 29
-151 50 -190 58 -22 4 -60 14 -85 22 -25 9 -64 20 -87 26 -24 6 -62 16 -85 22
-24 6 -70 19 -103 29 -33 10 -80 21 -104 24 -24 4 -56 13 -72 21 -15 8 -42 15
-59 15 -17 0 -56 8 -88 19 -31 10 -84 22 -117 26 -33 4 -74 13 -90 20 -17 7
-62 16 -99 20 -38 4 -85 13 -105 20 -20 7 -63 15 -96 19 -33 4 -82 13 -110 21
-27 7 -84 17 -125 21 -41 3 -93 13 -116 20 -22 8 -88 18 -146 23 -58 5 -115
14 -126 20 -11 6 -76 16 -143 21 -67 6 -130 15 -140 21 -10 5 -95 14 -189 19
-93 5 -189 14 -213 20 -116 27 -1038 38 -1542 19z"/>
</g>
</svg>
