<?xml version="1.0" standalone="no"?>
<!DOCTYPE svg PUBLIC "-//W3C//DTD SVG 20010904//EN"
 "http://www.w3.org/TR/2001/REC-SVG-20010904/DTD/svg10.dtd">
<svg version="1.0" xmlns="http://www.w3.org/2000/svg"
 width="3000.000000pt" height="3000.000000pt" viewBox="0 0 3000.000000 3000.000000"
 preserveAspectRatio="xMidYMid meet">
<metadata>
Created by potrace 1.16, written by Peter Selinger 2001-2019
</metadata>
<g transform="translate(0.000000,3000.000000) scale(0.100000,-0.100000)"
fill="#09643d" stroke="none">
<path d="M20360 25184 c-42 -9 -152 -45 -205 -67 -100 -43 -162 -83 -235 -154
-41 -40 -82 -73 -91 -73 -9 0 -27 8 -40 18 -51 37 -154 90 -219 114 -288 103
-646 64 -885 -97 -44 -29 -93 -67 -109 -84 -29 -30 -78 -42 -90 -22 -8 13
-113 71 -128 71 -7 1 -31 9 -53 20 -22 11 -48 19 -58 20 -10 0 -43 9 -74 20
-82 29 -354 29 -462 0 -41 -11 -80 -20 -88 -20 -21 0 -204 -91 -258 -128 -27
-19 -73 -57 -102 -83 -59 -56 -87 -61 -130 -25 -27 23 -131 78 -245 130 -31
14 -72 26 -90 27 -18 0 -67 6 -108 14 -67 12 -91 11 -220 -6 -80 -11 -161 -25
-180 -33 -19 -7 -53 -17 -75 -21 -22 -4 -45 -11 -51 -16 -6 -5 -29 -15 -52
-23 -52 -19 -141 -76 -211 -135 -56 -48 -171 -184 -171 -203 0 -20 -51 -78
-68 -78 -10 0 -52 18 -95 40 -42 22 -83 40 -91 40 -7 0 -33 9 -57 20 -37 16
-66 20 -185 20 -125 0 -155 -3 -255 -29 -146 -38 -179 -51 -291 -108 -74 -39
-111 -67 -188 -143 -53 -52 -113 -121 -134 -153 -50 -77 -74 -88 -123 -55 -67
44 -110 68 -124 68 -8 0 -30 8 -49 19 -19 10 -51 22 -70 25 -19 4 -54 15 -78
23 -77 29 -308 1 -477 -57 -206 -71 -378 -207 -479 -380 -20 -33 -39 -73 -43
-88 -8 -33 -42 -113 -55 -129 -12 -15 -29 -7 -101 48 -29 21 -56 39 -60 39 -5
0 -21 8 -35 18 -54 36 -143 57 -242 57 -105 0 -267 -26 -345 -56 -28 -10 -56
-19 -63 -19 -21 0 -182 -82 -242 -124 -113 -79 -236 -216 -301 -336 -22 -42
-24 -55 -24 -202 0 -202 -14 -223 -66 -98 -65 155 -154 225 -344 269 -95 21
-91 21 -285 -9 -41 -7 -120 -30 -175 -51 -55 -21 -103 -39 -107 -39 -4 0 -59
-34 -121 -74 -181 -119 -300 -258 -341 -398 -15 -53 -15 -64 -1 -125 15 -67
40 -134 75 -203 9 -19 20 -49 24 -66 8 -34 43 -122 69 -171 9 -17 18 -46 19
-64 5 -64 -24 -45 -112 73 -107 144 -248 286 -320 323 -84 43 -172 54 -315 39
-66 -7 -138 -19 -160 -28 -22 -8 -47 -15 -55 -16 -13 0 -183 -82 -250 -121
-88 -50 -204 -153 -271 -240 -80 -105 -108 -159 -130 -248 -23 -94 -24 -130
-2 -198 15 -48 15 -55 2 -69 -14 -14 -22 -13 -80 8 -92 33 -249 31 -369 -5
-169 -51 -246 -86 -357 -163 -143 -99 -237 -199 -306 -324 -46 -82 -87 -225
-87 -303 0 -52 -18 -70 -49 -49 -129 90 -284 129 -406 103 -135 -29 -190 -42
-199 -49 -6 -5 -43 -20 -82 -35 -39 -15 -86 -39 -104 -52 -19 -14 -37 -25 -41
-25 -15 0 -102 -64 -161 -119 -64 -58 -159 -173 -192 -232 -59 -103 -83 -195
-95 -356 -3 -50 -10 -95 -14 -100 -5 -4 -61 -8 -125 -8 -181 -1 -304 -27 -437
-92 -158 -77 -312 -212 -423 -371 -38 -54 -112 -205 -112 -228 0 -12 -7 -38
-15 -57 -8 -20 -18 -68 -21 -106 -4 -39 -12 -76 -19 -81 -7 -6 -37 -15 -66
-20 -214 -38 -298 -74 -473 -202 -114 -84 -307 -315 -331 -398 -4 -14 -14 -34
-21 -45 -8 -11 -14 -28 -14 -37 0 -10 -9 -44 -20 -75 -11 -32 -20 -71 -20 -89
0 -48 -19 -91 -43 -98 -12 -3 -56 -6 -97 -6 -42 -1 -93 -8 -115 -16 -22 -9
-57 -20 -79 -25 -40 -10 -119 -51 -147 -75 -8 -8 -19 -14 -23 -14 -12 0 -120
-85 -186 -147 -73 -67 -186 -214 -235 -307 -20 -38 -48 -105 -61 -150 -22 -71
-25 -100 -24 -232 l0 -152 -34 -26 c-19 -14 -39 -26 -44 -26 -16 0 -206 -146
-248 -191 -46 -49 -120 -148 -145 -194 -76 -137 -105 -219 -124 -349 -26 -170
-26 -171 -99 -206 -35 -16 -67 -30 -70 -30 -12 0 -141 -89 -191 -132 -101 -86
-189 -203 -257 -339 -26 -53 -48 -104 -48 -113 0 -8 -9 -39 -21 -68 -19 -48
-20 -70 -18 -242 l4 -189 -45 -36 c-82 -65 -204 -196 -250 -266 -68 -104 -70
-108 -77 -129 -3 -10 -17 -39 -30 -63 -12 -24 -23 -55 -23 -69 0 -13 -9 -50
-20 -81 -29 -83 -29 -358 0 -451 29 -94 27 -122 -18 -179 -21 -26 -45 -60 -53
-75 -43 -80 -79 -159 -94 -203 -22 -67 -45 -223 -45 -304 0 -103 20 -261 41
-319 10 -30 19 -62 19 -73 0 -10 10 -39 22 -64 l22 -45 -23 -47 c-12 -27 -29
-61 -37 -78 -9 -16 -27 -73 -41 -125 -22 -82 -25 -116 -25 -256 0 -175 2 -189
79 -399 36 -100 111 -223 179 -293 l32 -33 5 -132 c6 -169 30 -264 109 -425
65 -133 118 -207 205 -288 l55 -51 4 -89 c6 -124 52 -284 116 -409 109 -211
299 -398 521 -510 53 -27 61 -36 89 -95 70 -149 195 -301 334 -405 40 -30 76
-55 79 -55 4 0 19 -8 33 -19 15 -10 43 -23 63 -30 49 -16 83 -56 104 -121 10
-30 21 -59 25 -65 4 -5 24 -43 44 -82 68 -133 178 -257 306 -345 64 -44 169
-98 189 -98 6 0 28 -9 48 -20 21 -11 50 -20 65 -20 15 0 51 -10 80 -21 48 -20
71 -22 258 -22 186 1 210 3 259 22 62 25 80 22 136 -24 45 -36 171 -110 207
-120 13 -4 32 -13 43 -19 42 -26 194 -65 300 -77 135 -15 189 -16 283 -5 l74
8 81 -87 c82 -87 189 -170 282 -217 82 -42 144 -68 163 -68 10 0 42 -8 72 -19
122 -42 441 -35 575 13 128 45 140 50 229 108 48 32 97 58 107 58 11 0 45 -14
77 -31 215 -115 457 -149 727 -103 105 18 237 58 281 85 17 10 38 19 45 19 8
0 53 -29 101 -65 83 -62 232 -145 262 -145 7 0 42 -10 77 -22 58 -20 84 -22
269 -22 137 0 218 5 245 13 22 7 67 21 100 31 143 44 205 79 333 188 41 36 68
52 80 49 68 -22 137 -48 146 -56 6 -5 43 -14 83 -20 39 -6 83 -15 98 -21 34
-13 300 -13 345 0 19 6 64 15 100 21 168 27 374 130 504 253 32 31 65 56 73
56 20 0 52 -18 98 -55 73 -59 206 -115 303 -127 97 -12 396 -4 452 11 19 6 67
19 105 30 213 58 373 174 504 363 21 29 45 54 54 56 9 2 36 -12 59 -31 112
-89 190 -122 340 -142 116 -15 134 -15 267 0 79 9 155 21 168 26 14 5 46 14
72 20 25 5 65 19 88 29 24 11 48 20 55 20 19 0 126 58 188 102 71 50 173 149
219 213 50 69 89 155 127 280 12 37 43 44 81 17 16 -11 39 -23 53 -27 14 -4
35 -13 47 -21 11 -7 47 -18 80 -23 32 -6 89 -16 126 -22 160 -28 508 54 685
162 160 97 278 216 342 345 39 79 63 114 79 114 3 0 38 -20 76 -45 39 -25 75
-45 80 -45 6 0 24 -7 40 -16 46 -24 202 -55 280 -55 169 -1 426 70 578 158
248 145 404 364 426 598 8 77 25 81 71 19 47 -62 148 -136 240 -175 75 -33 76
-33 245 -33 159 0 176 1 264 28 202 61 349 140 489 263 60 53 162 183 162 207
0 6 9 28 20 49 41 75 42 277 3 359 -66 136 -82 199 -52 206 10 2 24 -10 36
-30 37 -63 130 -153 185 -180 132 -64 122 -62 298 -62 202 -1 241 9 460 113
144 69 282 169 371 270 66 75 149 200 149 223 0 11 8 35 19 56 11 21 22 72 26
120 5 59 11 85 22 89 13 5 77 -24 113 -51 31 -24 128 -56 214 -71 81 -14 100
-14 205 0 124 17 184 37 326 110 110 55 111 56 205 126 87 65 208 190 255 264
42 66 85 159 85 183 0 11 6 35 14 53 8 19 17 60 21 92 8 66 25 80 58 49 12
-11 51 -34 87 -52 36 -18 73 -36 82 -41 19 -10 133 -35 226 -50 116 -19 306
19 441 89 171 89 289 198 409 378 51 77 77 104 97 104 2 0 48 -35 103 -77 56
-43 128 -97 162 -121 68 -47 80 -69 80 -145 1 -157 113 -410 234 -532 34 -33
101 -85 149 -114 47 -28 89 -57 93 -62 11 -19 -6 -58 -29 -64 -22 -7 -113 -47
-152 -68 -130 -69 -199 -103 -245 -119 -30 -10 -84 -38 -120 -62 -36 -24 -81
-51 -100 -61 -84 -42 -271 -219 -380 -360 -78 -101 -180 -253 -180 -268 0 -5
-17 -46 -39 -90 -57 -120 -112 -301 -139 -457 -6 -36 -16 -87 -22 -115 -7 -27
-12 -144 -12 -260 -1 -191 1 -215 20 -270 27 -74 28 -131 2 -170 -26 -39 -27
-129 -2 -193 11 -26 32 -85 47 -132 16 -47 35 -96 42 -110 7 -14 13 -30 13
-37 0 -10 44 -129 70 -188 69 -160 90 -189 145 -199 42 -8 62 -32 78 -92 11
-41 35 -76 138 -194 154 -179 520 -562 551 -577 13 -7 37 -15 53 -20 21 -6 37
-22 52 -53 12 -24 33 -54 45 -68 19 -21 163 -122 173 -122 2 0 32 -18 66 -40
124 -76 285 -167 384 -214 122 -58 167 -63 214 -23 36 30 37 30 126 -2 70 -26
142 -50 195 -65 25 -8 59 -19 75 -24 69 -25 206 -67 320 -97 28 -7 68 -20 90
-28 59 -21 173 -54 230 -65 28 -6 73 -16 100 -22 180 -42 265 -60 289 -60 14
0 42 -6 60 -14 19 -8 65 -17 103 -21 37 -4 93 -13 124 -21 31 -7 112 -18 180
-24 68 -6 154 -17 191 -25 37 -8 89 -15 115 -15 27 0 145 -9 263 -21 185 -18
280 -21 675 -21 260 0 490 5 530 11 168 24 199 33 264 70 36 21 79 41 94 45
79 19 128 50 164 104 37 56 75 148 97 238 8 28 18 59 24 70 5 10 13 42 17 69
4 28 15 76 26 108 10 31 19 71 19 88 0 18 9 66 19 108 11 42 24 110 30 151 6
41 15 98 20 125 22 116 44 269 56 400 8 77 19 170 24 206 6 37 15 161 21 275
5 115 13 259 16 319 7 116 -11 847 -26 1025 -18 232 -48 449 -92 680 -5 30
-14 78 -19 105 -30 157 -93 430 -140 600 -11 39 -26 93 -33 120 -26 96 -104
320 -140 402 -20 45 -36 86 -36 92 0 13 -106 232 -150 311 -63 112 -78 137
-150 250 -109 173 -210 300 -360 453 -210 216 -429 370 -670 472 -36 15 -83
36 -106 46 -23 10 -51 19 -63 19 -11 0 -47 9 -78 19 -32 11 -83 23 -113 26
-30 4 -84 13 -120 21 -41 9 -132 14 -250 14 -247 0 -400 -25 -618 -101 -30
-11 -61 -19 -69 -19 -15 0 -321 -149 -432 -210 -124 -69 -325 -244 -439 -383
-31 -39 -82 -111 -113 -161 -48 -79 -60 -91 -85 -94 -40 -4 -78 34 -99 98 -12
36 -38 71 -113 147 -165 169 -278 224 -511 249 -52 5 -70 12 -90 33 -67 69
-271 334 -271 350 0 12 31 44 83 84 262 207 407 475 407 755 0 83 -26 230 -56
313 -25 69 -14 87 82 128 160 70 267 181 376 390 15 30 28 60 28 67 0 7 8 33
19 56 10 24 29 86 42 138 23 90 24 112 24 400 0 322 -5 365 -62 560 -27 93
-41 163 -36 176 8 21 28 23 99 12 97 -15 389 -6 434 14 19 8 52 18 74 22 58
11 233 98 302 150 75 56 177 163 225 236 58 87 139 252 139 282 0 15 10 56 21
90 20 55 22 85 23 274 l1 213 79 80 c136 137 220 298 252 486 7 44 18 98 24
120 14 57 12 128 -6 234 -9 51 -13 102 -10 114 3 12 27 47 54 77 49 55 142
184 142 196 0 4 12 32 26 63 15 31 33 70 41 86 8 17 18 58 23 90 4 33 14 74
20 90 7 18 13 86 13 170 1 163 -14 247 -74 401 -38 97 -48 160 -30 180 22 22
70 176 80 255 21 163 4 417 -35 507 -22 53 -20 120 5 167 11 22 21 47 21 57 0
9 10 41 22 70 20 49 22 69 22 278 0 206 -2 230 -22 284 -12 33 -22 67 -22 77
0 36 -93 214 -155 296 l-64 84 0 102 c0 60 -6 125 -15 157 -9 30 -16 66 -16
80 0 43 -50 192 -93 279 -101 203 -261 359 -487 475 -52 27 -100 54 -107 60
-6 6 -35 58 -64 116 -45 89 -67 119 -144 196 -98 98 -215 185 -310 228 -132
62 -127 58 -145 112 -28 86 -147 277 -231 368 -58 64 -164 152 -218 182 -105
58 -135 73 -193 92 -91 31 -245 53 -358 51 -113 -1 -121 2 -208 82 -35 31 -94
78 -131 104 -78 52 -221 125 -248 125 -10 0 -38 10 -63 21 -38 18 -72 22 -225
26 l-180 6 -90 87 c-108 104 -188 164 -275 207 -224 110 -441 139 -656 89 -55
-13 -110 -29 -123 -35 -30 -17 -60 -8 -96 26 -41 39 -123 105 -160 128 -48 30
-219 115 -233 115 -7 0 -38 9 -70 21 -48 17 -87 21 -247 24 -104 2 -201 1
-215 -1z m-394 -1863 c20 -20 184 -101 245 -121 183 -63 372 -79 532 -46 134
28 153 25 227 -42 198 -176 390 -244 755 -268 l100 -7 75 -71 c42 -40 100 -88
130 -108 66 -43 207 -118 223 -118 7 -1 30 -9 52 -20 22 -11 51 -19 65 -20 14
0 50 -7 80 -15 30 -9 113 -20 184 -24 l128 -9 87 -85 c47 -46 111 -102 141
-123 64 -44 234 -134 253 -134 22 0 52 -40 95 -127 22 -45 58 -108 79 -140 81
-122 240 -255 394 -331 79 -38 79 -39 112 -121 33 -82 124 -232 183 -301 57
-67 64 -85 64 -168 0 -75 33 -243 62 -315 l19 -48 -26 -57 c-14 -31 -30 -64
-35 -73 -32 -59 -63 -187 -76 -313 -12 -119 -12 -153 0 -245 14 -106 54 -245
81 -288 21 -32 19 -111 -5 -156 -11 -20 -20 -44 -20 -52 0 -9 -10 -41 -22 -73
-21 -53 -22 -74 -23 -313 -1 -237 -3 -258 -21 -281 -92 -120 -136 -182 -162
-233 -49 -96 -72 -150 -72 -171 0 -10 -9 -48 -20 -82 -17 -54 -20 -92 -20
-249 l0 -185 -78 -82 c-68 -70 -140 -163 -178 -231 -46 -84 -71 -138 -79 -175
-4 -19 -13 -45 -21 -56 -17 -27 -44 -195 -44 -271 0 -100 21 -235 51 -329 16
-50 29 -100 29 -112 0 -27 -36 -52 -75 -52 -38 -1 -169 -33 -216 -53 -19 -9
-40 -13 -46 -9 -9 6 -24 33 -82 150 -9 19 -33 49 -54 68 -35 32 -42 34 -106
34 -59 0 -73 -4 -108 -29 -60 -44 -80 -83 -86 -176 -7 -93 1 -116 69 -195 43
-51 94 -137 94 -160 0 -12 -35 -96 -50 -120 -41 -66 -100 -212 -100 -247 0
-24 24 -78 64 -146 l29 -48 -13 -127 c-7 -70 -16 -135 -21 -144 -5 -10 -23
-25 -40 -33 -16 -9 -34 -27 -39 -41 -14 -37 6 -152 47 -267 53 -148 59 -141
-135 -149 -182 -7 -235 -20 -381 -92 -67 -32 -106 -62 -188 -139 -102 -98
-185 -194 -217 -252 -94 -170 -70 -155 -239 -148 l-142 5 -60 -32 c-81 -43
-117 -80 -155 -157 -32 -65 -32 -65 -28 -197 2 -80 9 -140 17 -154 21 -39 6
-68 -57 -109 -192 -126 -354 -282 -430 -416 -33 -58 -74 -165 -79 -210 -8 -61
-19 -77 -53 -77 -16 0 -32 4 -35 10 -9 15 -124 66 -202 89 -256 76 -646 -44
-892 -274 -72 -67 -153 -169 -195 -247 -36 -65 -81 -195 -91 -261 -3 -21 -12
-40 -20 -43 -7 -3 -42 8 -77 24 -155 74 -157 74 -322 70 -143 -4 -157 -7 -261
-42 -301 -103 -572 -307 -678 -511 -61 -117 -69 -151 -69 -276 0 -144 -5 -152
-75 -116 -92 48 -129 59 -218 67 -83 8 -274 -2 -295 -15 -5 -3 -41 -14 -82
-24 -191 -51 -294 -103 -452 -230 -127 -102 -234 -262 -260 -391 -8 -35 -17
-56 -27 -58 -9 -1 -46 23 -84 54 -85 69 -152 100 -275 126 -70 15 -114 18
-165 14 -118 -11 -226 -33 -300 -61 -38 -15 -93 -35 -121 -45 -103 -37 -214
-109 -312 -204 -88 -85 -167 -204 -186 -281 -13 -52 -62 -86 -81 -55 -13 21
-148 102 -216 130 -106 43 -217 55 -363 40 -67 -7 -143 -21 -169 -31 -26 -11
-55 -19 -64 -19 -37 0 -288 -127 -353 -179 -149 -118 -233 -242 -281 -416 -31
-113 -35 -115 -107 -71 -33 20 -67 36 -76 36 -9 0 -31 7 -49 17 -43 22 -158
43 -232 43 -70 -1 -258 -24 -275 -35 -7 -4 -42 -15 -79 -25 -36 -10 -91 -28
-121 -40 -30 -12 -75 -30 -100 -39 -89 -34 -263 -170 -335 -262 -25 -32 -54
-59 -63 -59 -9 0 -35 11 -57 25 -61 37 -160 85 -176 85 -8 0 -27 7 -44 16 -74
40 -419 40 -530 1 -22 -8 -58 -19 -80 -25 -97 -25 -195 -66 -260 -107 -41 -26
-166 -128 -189 -154 -26 -29 -40 -27 -94 17 -63 50 -72 55 -182 109 -107 52
-209 72 -365 72 -106 0 -264 -21 -320 -43 -22 -8 -48 -15 -58 -16 -17 0 -73
-24 -182 -77 -70 -34 -80 -40 -169 -111 -86 -68 -106 -73 -164 -43 -75 40
-123 61 -138 61 -8 0 -40 9 -71 20 -81 28 -303 28 -418 0 -44 -11 -87 -20 -95
-20 -8 0 -33 -9 -55 -20 -22 -11 -45 -19 -52 -20 -6 0 -35 -11 -65 -25 -76
-36 -99 -33 -158 20 -60 53 -181 135 -201 135 -8 0 -23 7 -34 16 -11 8 -38 19
-60 25 -22 6 -53 16 -70 23 -16 8 -87 19 -158 27 -210 21 -412 -9 -582 -87
-22 -10 -72 -42 -110 -70 -121 -88 -115 -87 -225 -24 -36 21 -76 41 -90 45
-14 3 -40 13 -58 21 -57 26 -285 47 -370 35 -129 -19 -122 -22 -224 84 -79 82
-177 160 -253 201 -91 48 -170 84 -187 84 -9 0 -32 7 -52 15 -40 17 -240 45
-320 45 -77 0 -247 -29 -314 -54 -50 -19 -45 -20 -163 59 -41 27 -105 65 -143
85 -73 37 -70 33 -137 175 -44 93 -153 239 -236 314 -75 70 -170 134 -258 175
-144 67 -149 70 -156 103 -14 72 -117 228 -224 343 -60 64 -62 68 -69 132 -3
37 -12 84 -20 105 -7 21 -16 61 -20 88 -4 28 -14 60 -22 72 -8 12 -14 28 -14
35 -1 15 -86 188 -115 233 -11 17 -46 63 -79 103 l-60 73 -7 102 c-4 56 -14
122 -23 146 -9 24 -16 54 -16 68 0 13 -10 43 -22 66 -29 56 -29 130 -1 188 24
49 52 148 83 289 26 123 26 265 0 380 -31 136 -29 155 38 273 32 56 65 122 74
147 77 220 80 234 81 431 l2 179 82 75 c45 42 108 111 140 153 57 76 153 255
153 287 0 9 7 30 16 48 9 17 27 86 40 152 13 66 26 130 29 143 4 17 22 31 63
49 146 64 283 168 369 281 99 129 164 255 194 377 5 22 16 57 25 79 9 24 17
87 20 170 2 72 7 139 10 149 3 9 22 26 42 37 253 138 492 448 542 705 7 33 19
76 28 95 l17 35 85 6 c47 3 102 13 124 22 21 9 47 17 58 17 32 0 182 85 255
143 83 67 157 143 212 219 49 68 126 219 136 268 4 19 14 48 23 65 8 16 18 60
22 98 12 103 28 120 126 130 194 19 380 115 561 290 93 90 168 190 212 282 13
28 32 67 42 87 11 20 19 47 19 60 0 13 9 55 20 93 11 38 20 82 20 97 0 50 20
58 140 58 68 0 126 5 152 14 24 8 63 20 88 26 142 36 361 176 484 308 119 128
226 348 226 463 0 25 6 53 13 63 16 21 35 14 97 -35 60 -49 166 -79 272 -79
226 0 469 109 670 299 97 91 194 246 213 341 4 19 14 47 22 63 7 15 16 64 20
110 3 45 10 87 15 94 7 9 48 11 156 7 81 -3 174 -1 207 4 106 18 231 67 312
125 30 20 58 37 63 37 12 0 176 137 216 181 47 51 110 141 119 169 4 14 14 32
22 42 20 23 45 137 52 240 8 110 18 122 68 82 81 -64 158 -94 298 -115 199
-29 519 92 747 283 94 78 182 218 213 338 22 84 32 110 44 110 5 0 36 -22 68
-48 69 -58 120 -85 221 -118 142 -46 407 -28 537 38 17 8 43 18 58 22 43 10
195 100 262 154 86 69 157 162 221 290 56 114 57 114 88 108 17 -4 43 -15 57
-26 15 -10 40 -22 55 -26 16 -4 35 -11 41 -17 23 -18 214 -57 278 -57 74 0
237 30 327 61 208 69 400 212 509 376 21 31 44 60 52 64 8 5 51 -11 111 -42
54 -27 108 -49 119 -49 12 0 34 -6 48 -14 45 -23 78 -27 249 -27 144 0 177 3
226 21 32 11 66 20 75 20 23 0 157 54 211 85 24 13 57 31 74 39 40 19 179 150
219 206 80 111 82 112 149 81 23 -11 77 -32 121 -48 78 -27 86 -28 285 -28
170 0 213 3 250 17 25 10 67 22 93 28 102 22 321 151 391 229 27 30 64 26 121
-15 111 -79 249 -126 426 -144 271 -28 525 41 717 196 37 30 72 54 78 54 7 0
34 -15 61 -32 26 -18 75 -46 108 -61 33 -16 72 -35 87 -43 14 -8 35 -14 45
-14 11 0 53 -9 94 -20 55 -15 107 -20 204 -20 253 0 488 78 668 222 71 57 94
67 113 49z m3662 -7404 c39 -40 72 -77 72 -82 0 -6 21 -50 45 -99 25 -49 48
-108 52 -130 3 -23 11 -52 18 -66 7 -14 16 -56 19 -95 4 -38 14 -92 22 -119
21 -74 18 -244 -6 -340 -11 -43 -20 -96 -20 -118 0 -21 -9 -56 -20 -78 -11
-22 -20 -47 -20 -56 0 -30 -54 -126 -78 -137 -37 -17 -46 3 -48 107 -1 93 -2
95 -38 139 -68 83 -139 121 -264 141 -67 10 -74 14 -94 46 -12 19 -27 64 -35
100 -7 35 -21 75 -29 89 -15 21 -21 23 -65 18 -47 -6 -50 -5 -60 20 -11 31 -1
169 15 198 6 11 15 36 21 55 11 35 23 44 117 83 48 21 89 76 95 129 12 104
138 266 208 268 12 0 49 -29 93 -73z m-742 -3266 c71 -32 274 -285 274 -341 0
-35 -23 -50 -49 -32 -9 7 -25 16 -37 21 -34 15 -215 164 -266 219 -54 58 -62
98 -28 132 25 25 53 25 106 1z m1078 -731 c69 -74 80 -105 80 -240 0 -110 -1
-118 -31 -175 -41 -78 -76 -110 -147 -135 -143 -49 -295 0 -384 123 -32 46
-46 118 -26 136 5 4 46 13 92 19 46 7 98 19 117 27 79 38 154 128 170 205 22
104 59 115 129 40z"/>
</g>
</svg>
