<?xml version="1.0" standalone="no"?>
<!DOCTYPE svg PUBLIC "-//W3C//DTD SVG 20010904//EN"
 "http://www.w3.org/TR/2001/REC-SVG-20010904/DTD/svg10.dtd">
<svg version="1.0" xmlns="http://www.w3.org/2000/svg"
 width="3000.000000pt" height="3000.000000pt" viewBox="0 0 3000.000000 3000.000000"
 preserveAspectRatio="xMidYMid meet">
<metadata>
Created by potrace 1.16, written by Peter Selinger 2001-2019
</metadata>
<g transform="translate(0.000000,3000.000000) scale(0.100000,-0.100000)"
fill="#02633c" stroke="none">
<path d="M20390 29500 c-47 -11 -105 -19 -129 -20 -25 0 -70 -6 -100 -14 -31
-8 -94 -19 -141 -24 -47 -6 -105 -15 -130 -21 -25 -5 -72 -10 -105 -11 -33 0
-76 -5 -95 -10 -19 -6 -73 -15 -120 -19 -47 -5 -132 -16 -190 -25 -202 -32
-246 -38 -330 -47 -47 -5 -117 -16 -157 -24 -40 -8 -94 -15 -120 -15 -26 0
-66 -5 -88 -10 -22 -6 -83 -15 -136 -20 -53 -6 -127 -17 -165 -25 -38 -8 -92
-15 -120 -15 -28 0 -71 -7 -94 -15 -23 -8 -73 -15 -109 -15 -37 0 -90 -6 -117
-14 -27 -8 -89 -17 -139 -21 -49 -4 -101 -11 -115 -17 -14 -5 -65 -13 -115
-18 -49 -4 -121 -13 -160 -19 -38 -5 -137 -20 -220 -31 -82 -11 -181 -26 -220
-31 -38 -6 -117 -17 -175 -24 -58 -8 -139 -19 -180 -25 -113 -15 -286 -39
-365 -50 -38 -5 -99 -14 -135 -19 -119 -19 -214 -31 -320 -41 -58 -6 -115 -14
-127 -20 -13 -5 -60 -12 -105 -16 -46 -4 -108 -13 -138 -20 -30 -8 -82 -14
-116 -14 -35 0 -75 -5 -91 -11 -15 -6 -84 -16 -153 -24 -69 -8 -145 -18 -170
-24 -25 -6 -76 -11 -115 -11 -38 0 -88 -7 -110 -15 -22 -8 -61 -15 -87 -15
-25 0 -92 -9 -148 -20 -56 -11 -120 -20 -143 -20 -23 0 -78 -7 -122 -14 -44
-8 -118 -19 -165 -25 -47 -5 -119 -15 -160 -21 -41 -5 -127 -17 -190 -25 -146
-20 -236 -32 -330 -45 -41 -6 -127 -17 -190 -26 -63 -8 -160 -22 -215 -30 -55
-9 -138 -19 -185 -24 -47 -4 -112 -13 -145 -19 -33 -6 -98 -15 -145 -20 -47
-6 -105 -15 -130 -20 -25 -6 -70 -10 -101 -11 -30 0 -75 -6 -100 -14 -24 -8
-87 -17 -141 -19 -53 -3 -105 -10 -115 -15 -10 -6 -68 -13 -128 -17 -61 -4
-129 -13 -153 -21 -23 -8 -73 -14 -111 -14 -37 0 -90 -6 -117 -14 -27 -8 -96
-17 -154 -21 -58 -3 -131 -13 -163 -21 -32 -8 -82 -14 -110 -14 -29 0 -79 -5
-112 -11 -33 -6 -103 -17 -155 -24 -52 -7 -115 -18 -140 -24 -25 -5 -71 -10
-102 -11 -31 0 -69 -5 -85 -11 -15 -6 -68 -14 -118 -18 -49 -5 -137 -16 -195
-25 -148 -24 -280 -44 -385 -56 -49 -7 -135 -18 -190 -25 -55 -8 -143 -19
-195 -25 -52 -6 -141 -18 -197 -26 -55 -8 -177 -19 -270 -25 -92 -5 -193 -13
-223 -18 -30 -5 -94 -10 -141 -10 -84 -1 -86 -2 -150 -46 -35 -24 -80 -53 -99
-64 -50 -27 -140 -101 -140 -114 -1 -7 -9 -30 -20 -52 -11 -22 -20 -47 -20
-55 0 -8 -7 -24 -15 -34 -8 -11 -15 -28 -15 -38 0 -16 -23 -74 -56 -141 -8
-16 -14 -35 -14 -43 0 -8 -9 -31 -20 -51 -11 -21 -20 -44 -20 -52 0 -8 -6 -22
-14 -30 -7 -9 -23 -43 -36 -76 -12 -33 -27 -69 -33 -80 -6 -11 -14 -33 -18
-50 -4 -16 -19 -61 -34 -100 -14 -38 -30 -85 -35 -104 -5 -18 -13 -38 -19 -44
-6 -6 -11 -20 -11 -32 -1 -11 -9 -38 -20 -60 -11 -22 -20 -47 -20 -55 0 -8 -7
-24 -15 -34 -8 -11 -15 -29 -15 -40 -1 -12 -9 -39 -20 -61 -11 -22 -19 -50
-20 -62 0 -12 -4 -24 -9 -27 -5 -3 -12 -18 -15 -33 -10 -40 -56 -156 -67 -167
-5 -6 -9 -19 -9 -29 0 -10 -7 -33 -15 -50 -18 -41 -44 -113 -54 -153 -5 -18
-12 -38 -17 -45 -5 -8 -14 -32 -20 -54 -13 -44 -30 -95 -49 -140 -15 -39 -44
-122 -55 -160 -13 -44 -39 -116 -55 -152 -8 -17 -15 -40 -15 -50 0 -11 -7 -28
-15 -39 -8 -10 -15 -28 -15 -39 0 -11 -9 -38 -20 -60 -11 -22 -20 -47 -20 -55
0 -8 -7 -24 -15 -34 -8 -11 -15 -28 -15 -39 0 -10 -6 -33 -14 -50 -8 -18 -19
-48 -25 -67 -11 -41 -29 -94 -44 -130 -20 -48 -48 -125 -57 -155 -4 -16 -20
-61 -35 -100 -15 -38 -30 -87 -35 -108 -4 -21 -13 -44 -19 -50 -6 -6 -11 -20
-11 -31 0 -12 -7 -34 -15 -50 -9 -16 -20 -46 -25 -65 -5 -20 -27 -88 -50 -151
-23 -63 -46 -131 -52 -150 -5 -19 -14 -40 -19 -45 -4 -6 -12 -29 -18 -50 -12
-51 -29 -99 -52 -151 -11 -23 -19 -50 -19 -61 0 -10 -5 -24 -11 -30 -6 -6 -15
-29 -19 -50 -5 -21 -20 -69 -35 -108 -15 -38 -30 -83 -35 -100 -12 -43 -39
-115 -55 -152 -8 -17 -15 -40 -15 -50 0 -11 -7 -28 -15 -39 -8 -10 -15 -28
-15 -39 0 -11 -7 -33 -15 -49 -9 -16 -20 -46 -24 -65 -10 -40 -25 -82 -53
-153 -10 -26 -18 -53 -18 -62 0 -8 -6 -27 -14 -43 -8 -15 -24 -62 -36 -103
-13 -41 -29 -87 -36 -102 -8 -14 -14 -32 -14 -40 0 -7 -7 -26 -15 -41 -8 -15
-17 -45 -21 -65 -4 -20 -13 -46 -20 -57 -8 -11 -14 -27 -14 -37 0 -9 -6 -32
-14 -50 -14 -32 -39 -104 -56 -163 -13 -46 -71 -216 -85 -250 -19 -46 -75
-215 -86 -260 -6 -21 -14 -44 -18 -50 -5 -5 -12 -26 -16 -45 -4 -19 -14 -44
-21 -55 -8 -11 -14 -30 -14 -43 0 -13 -6 -36 -14 -50 -17 -32 -44 -113 -55
-164 -5 -21 -13 -43 -18 -50 -6 -7 -20 -47 -33 -88 -12 -41 -28 -91 -35 -110
-22 -57 -45 -132 -56 -175 -6 -22 -14 -44 -20 -49 -5 -6 -9 -19 -9 -31 0 -11
-9 -37 -20 -58 -11 -20 -20 -47 -20 -60 0 -13 -7 -32 -15 -43 -8 -10 -15 -27
-15 -37 0 -10 -8 -39 -18 -65 -30 -74 -43 -114 -52 -152 -9 -39 -36 -118 -56
-168 -8 -18 -14 -40 -14 -48 0 -9 -6 -30 -13 -47 -21 -50 -48 -129 -57 -167
-4 -19 -14 -51 -20 -70 -7 -19 -20 -57 -30 -85 -9 -27 -22 -66 -29 -85 -6 -19
-23 -71 -38 -115 -14 -44 -32 -95 -39 -113 -8 -18 -14 -40 -14 -50 -1 -9 -9
-35 -20 -57 -11 -22 -19 -49 -20 -60 0 -11 -6 -29 -14 -40 -7 -11 -16 -33 -19
-50 -5 -29 -29 -101 -52 -160 -18 -44 -35 -94 -49 -145 -7 -25 -18 -56 -25
-67 -6 -12 -11 -32 -11 -45 0 -13 -6 -32 -13 -43 -8 -11 -19 -38 -25 -60 -5
-22 -15 -53 -20 -70 -6 -16 -20 -64 -32 -105 -12 -41 -28 -89 -36 -107 -8 -17
-14 -43 -14 -57 0 -14 -6 -40 -14 -58 -28 -66 -56 -174 -56 -213 0 -54 35
-151 69 -195 65 -83 79 -151 101 -500 6 -91 15 -193 21 -228 5 -35 12 -116 15
-180 2 -64 11 -173 19 -242 8 -69 19 -183 24 -255 15 -196 30 -369 42 -480 5
-55 14 -172 19 -260 5 -88 14 -188 20 -221 5 -34 14 -136 20 -228 5 -92 12
-171 15 -176 3 -5 10 -90 16 -187 5 -98 14 -205 19 -238 6 -33 15 -132 20
-220 6 -88 15 -180 20 -205 5 -25 9 -79 10 -120 0 -41 7 -115 14 -165 8 -49
18 -148 21 -220 4 -71 13 -170 21 -220 8 -49 14 -128 14 -175 0 -47 5 -114 10
-150 6 -36 17 -155 25 -265 8 -110 19 -234 24 -275 6 -41 10 -112 11 -157 0
-45 6 -131 14 -190 8 -59 17 -165 21 -235 3 -70 12 -176 20 -235 8 -60 15
-146 15 -192 0 -46 6 -129 14 -185 8 -55 17 -161 21 -234 3 -73 10 -156 15
-185 6 -28 14 -132 19 -230 6 -97 13 -182 16 -187 3 -5 10 -86 15 -179 5 -94
14 -199 20 -233 5 -35 14 -141 19 -236 6 -95 13 -177 16 -182 3 -5 10 -88 15
-184 5 -97 14 -204 19 -238 6 -35 15 -146 21 -248 6 -102 15 -205 20 -230 5
-25 10 -85 10 -135 1 -49 6 -117 10 -150 5 -33 14 -130 20 -215 6 -85 17 -207
26 -270 8 -63 14 -151 14 -195 1 -44 5 -111 11 -150 5 -38 16 -160 24 -270 8
-110 19 -231 25 -270 5 -38 9 -105 10 -147 0 -43 6 -126 14 -185 8 -59 17
-169 21 -243 4 -74 11 -157 16 -183 5 -27 11 -99 14 -160 3 -62 12 -177 20
-257 16 -156 30 -339 46 -600 5 -91 16 -219 24 -285 8 -66 15 -156 16 -200 0
-44 4 -116 9 -160 5 -44 14 -135 20 -203 12 -130 34 -190 85 -230 28 -22 142
-78 370 -182 39 -18 113 -52 165 -77 52 -24 109 -51 125 -58 17 -7 66 -30 110
-50 44 -20 94 -42 110 -50 75 -34 194 -88 230 -105 22 -10 67 -31 100 -46 33
-14 98 -44 145 -66 47 -22 105 -49 130 -60 52 -22 73 -32 195 -88 50 -23 104
-47 120 -55 17 -7 53 -23 80 -35 28 -12 64 -28 80 -35 17 -7 59 -26 95 -43 74
-35 179 -83 260 -119 30 -13 69 -30 85 -38 17 -8 41 -19 55 -25 14 -5 32 -14
40 -19 13 -8 57 -27 145 -66 137 -60 198 -87 215 -97 8 -4 22 -11 30 -14 21
-7 102 -45 120 -56 8 -4 22 -11 30 -14 8 -3 29 -11 45 -19 17 -7 53 -23 80
-35 28 -12 82 -36 120 -54 39 -18 93 -43 120 -55 28 -13 64 -29 80 -36 17 -8
53 -24 80 -36 28 -12 84 -37 125 -56 41 -19 89 -41 105 -48 17 -7 64 -29 105
-48 41 -20 98 -45 125 -57 53 -23 130 -59 255 -117 41 -19 89 -41 105 -48 17
-7 64 -29 105 -48 41 -19 98 -45 125 -57 28 -12 70 -31 95 -42 25 -11 59 -26
75 -33 17 -7 64 -29 105 -48 41 -20 98 -45 125 -57 28 -12 77 -35 110 -50 33
-15 83 -38 110 -50 28 -12 64 -28 80 -35 17 -8 53 -23 80 -35 28 -12 57 -26
65 -31 8 -5 22 -12 30 -15 8 -3 35 -15 60 -26 71 -31 113 -50 145 -64 30 -12
155 -69 230 -104 80 -37 171 -78 220 -100 28 -11 64 -27 80 -35 17 -8 57 -26
90 -41 33 -14 89 -40 125 -56 59 -27 83 -38 190 -85 19 -9 42 -20 50 -25 8 -4
22 -11 30 -14 8 -3 33 -14 55 -24 22 -10 63 -28 90 -40 28 -12 64 -28 80 -35
17 -8 56 -25 88 -39 150 -67 173 -78 187 -87 8 -5 26 -14 40 -19 14 -6 39 -17
55 -24 48 -22 94 -36 182 -59 81 -20 84 -20 160 -2 43 9 98 23 123 30 73 22
150 43 235 65 79 21 100 26 260 70 136 37 188 52 230 66 22 7 63 17 90 23 28
5 70 15 95 22 90 24 186 50 235 64 28 7 88 24 135 36 47 12 102 28 123 35 20
8 49 14 63 14 14 0 35 5 47 12 12 6 47 17 77 24 87 20 143 35 175 46 17 5 49
14 73 19 24 5 64 15 90 23 55 17 141 41 197 55 22 5 60 15 85 21 61 15 145 39
202 56 26 8 66 18 90 23 24 5 57 14 73 19 17 6 50 15 75 22 134 33 115 28 300
80 102 29 167 46 220 60 25 6 68 17 95 25 28 8 70 19 95 25 79 21 143 39 200
56 30 9 73 20 95 24 22 5 54 13 70 18 17 6 66 20 110 32 44 12 103 28 130 35
59 16 119 32 195 50 30 7 69 18 85 23 31 11 80 24 175 47 30 7 69 18 85 23 29
10 61 19 175 47 127 32 147 38 178 51 18 8 40 14 50 14 16 0 82 18 203 56 26
8 53 14 60 14 8 0 46 9 84 21 39 11 93 26 120 34 28 7 82 23 120 34 39 12 76
21 84 21 7 0 34 6 60 14 123 39 188 56 206 56 11 1 31 7 45 15 14 8 38 14 53
15 15 0 40 6 55 14 15 8 49 17 76 21 27 4 61 14 75 21 14 8 37 14 50 14 22 0
65 12 201 56 25 8 56 14 70 14 14 1 36 7 50 15 14 8 35 14 47 15 13 0 49 8 80
19 58 18 98 29 203 56 112 28 146 38 178 51 18 8 44 14 57 14 14 0 42 7 62 15
21 8 58 19 83 24 25 5 59 14 75 19 34 12 94 27 176 46 30 8 65 18 77 25 11 6
31 11 43 11 12 0 52 9 88 21 36 11 91 27 121 35 30 9 75 22 100 29 25 7 63 17
85 21 22 3 48 11 57 16 10 5 37 13 60 18 74 16 220 55 319 86 26 8 53 14 60
14 13 0 116 29 184 52 30 10 93 26 203 52 32 7 68 18 80 25 11 6 31 11 44 11
13 0 50 9 83 20 33 10 86 26 118 35 31 8 81 22 110 30 28 8 63 17 77 20 26 6
89 23 183 50 28 8 70 19 92 24 22 5 54 14 70 19 17 6 50 15 75 22 25 6 68 17
95 25 28 8 70 19 95 25 105 27 243 66 340 96 25 8 52 14 61 14 9 0 47 9 85 20
38 12 92 27 119 35 28 7 84 23 125 35 41 12 98 27 125 35 28 7 75 20 105 29
30 9 73 20 95 26 57 13 120 29 200 52 104 29 174 48 230 63 28 8 84 24 125 35
41 12 100 29 130 37 30 8 76 21 102 29 26 8 66 18 90 23 24 5 57 14 73 19 30
10 83 24 165 44 101 23 114 59 100 276 -6 92 -15 212 -21 267 -5 55 -14 174
-19 265 -6 91 -15 193 -20 227 -6 34 -13 113 -15 175 -3 62 -12 178 -20 258
-8 80 -19 208 -25 285 -5 77 -14 205 -20 285 -6 80 -15 190 -21 245 -5 55 -14
177 -19 270 -5 94 -14 208 -20 255 -6 47 -15 155 -20 240 -5 85 -14 200 -19
255 -11 103 -23 263 -41 515 -5 80 -17 210 -25 290 -8 80 -17 199 -19 265 -3
66 -10 147 -15 180 -6 33 -15 137 -21 230 -6 94 -15 197 -20 230 -4 33 -9 101
-9 152 -1 51 -7 141 -15 200 -8 59 -17 169 -21 243 -3 74 -11 164 -16 200 -6
36 -14 135 -19 220 -5 85 -13 209 -19 275 -6 66 -15 181 -21 255 -18 264 -31
416 -41 515 -5 55 -14 173 -19 263 -5 90 -14 198 -20 240 -6 42 -15 157 -20
255 -5 98 -12 182 -15 187 -3 5 -10 89 -15 187 -5 98 -14 210 -20 248 -5 39
-14 149 -20 245 -5 96 -14 227 -19 290 -18 197 -31 369 -42 530 -5 85 -16 210
-24 276 -8 67 -15 159 -15 205 -1 46 -5 118 -11 159 -5 41 -16 167 -24 280 -8
113 -19 234 -25 270 -5 36 -10 108 -11 160 0 52 -5 122 -9 155 -5 33 -14 139
-20 235 -6 96 -15 204 -21 240 -6 35 -14 151 -19 257 -5 106 -11 197 -14 202
-3 5 -11 87 -16 183 -6 95 -17 229 -25 298 -8 69 -15 158 -15 199 0 40 -6 119
-14 175 -8 55 -17 164 -21 241 -3 76 -10 161 -15 188 -6 26 -14 133 -20 238
-5 104 -12 194 -15 199 -3 5 -9 84 -14 175 -12 208 -15 214 -137 275 -48 24
-74 30 -122 30 -34 0 -79 6 -99 14 -21 7 -67 19 -103 25 -91 15 -168 30 -215
42 -22 5 -69 14 -105 19 -36 6 -80 15 -99 21 -19 7 -59 15 -90 20 -66 10 -134
23 -252 50 -47 10 -98 19 -113 19 -15 0 -43 7 -63 15 -19 8 -52 15 -73 15 -20
0 -58 7 -85 14 -26 8 -73 18 -104 22 -31 4 -73 13 -95 20 -21 8 -56 14 -77 14
-21 0 -50 5 -66 11 -15 6 -64 17 -108 25 -83 14 -158 28 -235 45 -25 6 -79 17
-120 24 -94 18 -167 32 -250 50 -36 7 -87 17 -115 20 -27 4 -69 13 -93 21 -23
8 -58 14 -76 14 -19 0 -56 6 -82 14 -27 8 -77 19 -111 25 -35 6 -91 16 -125
22 -35 6 -88 17 -118 24 -30 7 -82 18 -115 23 -168 28 -204 35 -245 48 -25 8
-61 14 -81 14 -20 0 -54 6 -75 14 -22 7 -64 16 -94 20 -30 3 -84 13 -120 21
-97 21 -166 34 -255 49 -44 7 -100 18 -125 24 -50 12 -126 27 -240 48 -83 15
-161 30 -230 45 -25 6 -73 14 -108 19 -34 5 -85 16 -114 25 -28 8 -67 15 -86
15 -19 0 -55 7 -81 14 -25 8 -73 19 -106 25 -87 14 -173 31 -225 42 -25 6 -74
14 -109 19 -36 6 -78 14 -95 20 -17 5 -60 14 -96 20 -36 5 -83 14 -105 19 -43
11 -104 23 -230 46 -44 8 -96 19 -115 25 -19 5 -51 10 -72 10 -20 0 -49 5 -65
11 -15 6 -64 17 -108 25 -87 14 -155 27 -255 49 -36 7 -87 17 -115 20 -27 4
-69 13 -93 21 -23 8 -59 14 -79 14 -19 0 -56 7 -82 14 -25 8 -74 20 -108 25
-150 26 -191 33 -243 46 -30 7 -84 18 -120 25 -153 26 -305 55 -380 72 -25 5
-79 15 -120 22 -99 17 -144 40 -136 70 3 13 10 53 15 89 5 37 13 72 18 79 4 7
13 36 19 63 25 115 53 220 83 316 12 36 21 72 21 81 0 9 7 29 15 44 8 16 15
38 15 49 0 11 8 42 19 70 30 80 42 117 52 160 6 21 14 44 19 50 5 6 13 29 19
50 5 22 15 56 21 75 23 67 32 95 45 140 18 62 35 110 51 145 7 17 16 44 20 60
4 17 10 35 14 40 5 6 13 26 18 45 6 19 19 58 30 85 11 28 26 66 32 85 7 19 19
47 26 62 8 14 14 32 14 40 0 7 9 30 20 51 11 20 20 43 20 51 0 8 6 27 14 43
14 28 37 85 71 173 9 25 26 63 36 86 10 23 19 47 19 55 0 8 7 23 15 33 8 11
15 29 15 40 0 12 7 30 15 40 8 11 15 26 15 34 0 14 22 67 56 135 8 16 14 33
14 39 0 6 9 29 19 52 11 23 30 68 42 101 13 33 29 69 36 80 7 11 13 27 13 36
0 10 6 30 14 46 8 15 24 53 36 83 13 30 29 69 36 85 7 17 22 55 34 85 12 30
27 69 35 85 7 17 23 55 35 85 42 103 47 115 63 150 9 19 25 60 37 90 12 30 25
62 30 71 4 8 20 47 35 85 14 38 33 81 41 96 8 14 14 31 14 37 0 5 16 43 35 84
19 41 35 79 35 85 0 7 9 29 20 49 11 21 20 43 20 50 0 6 6 24 14 40 23 48 43
94 86 198 22 55 47 112 55 127 8 14 15 34 15 43 0 9 7 29 14 43 8 15 40 88 72
162 31 74 65 155 76 180 11 25 27 61 35 80 9 19 22 48 29 63 8 16 14 33 14 37
0 5 15 42 34 82 18 40 43 98 55 128 23 57 37 89 64 150 9 19 26 60 38 90 12
30 34 82 49 115 15 33 46 105 70 160 23 55 58 133 76 173 19 40 34 78 34 83 0
6 6 23 13 37 20 39 57 123 107 242 12 30 28 69 35 85 7 17 22 51 34 76 12 25
21 49 21 53 0 5 22 55 81 186 29 64 45 99 65 145 9 22 34 77 55 123 22 46 39
89 39 96 0 8 7 19 15 26 8 7 15 18 15 24 0 12 76 188 135 311 40 85 83 179
121 265 43 100 59 117 113 125 57 8 172 46 226 74 26 13 75 24 137 31 52 5
108 14 122 20 15 5 45 10 66 10 22 0 59 6 82 14 24 8 75 19 113 25 68 11 117
20 228 41 28 6 93 17 142 25 50 8 108 21 130 29 45 16 85 57 85 88 0 11 7 41
14 67 38 119 71 434 60 561 -8 92 -36 150 -113 233 -49 53 -203 185 -265 226
-11 8 -39 29 -61 46 -39 31 -92 69 -185 133 -61 42 -72 43 -170 22z"/>
</g>
</svg>
