<?xml version="1.0" encoding="UTF-8"?>
<svg id="Layer_2" data-name="Layer 2" xmlns="http://www.w3.org/2000/svg" viewBox="0 0 83.9 112.68">
  <defs>
    <style>
      .cls-1 {
        fill: #02633c;
      }
    </style>
  </defs>
  <g id="Layer_1-2" data-name="Layer 1">
    <path class="cls-1" d="M5.55,99.52c-.55-.25-.67-.59-.71-1.12l-.16-2.01-.16-2.17-.16-1.94-.16-1.89-.07-1.03-.16-1.88-.16-1.81-.1-1.33-.09-1.18-.08-1.1-.17-1.89-.16-1.94-.17-2-.16-1.87-.16-1.89-.07-1.03-.16-1.95-.14-1.6-.17-2.1-.08-1.1-.15-1.73-.16-1.73-.2-2.13-.09-1.25-.16-1.8-.16-1.87-.17-1.93-.15-1.71-.17-2.03-.09-1.18c-.02-.29,0-.59-.21-.83-.36-.41-.44-.93-.28-1.45l.48-1.57,1.71-5.13c2.84-8.53,5.73-16.99,8.76-25.45l1.35-3.62.85-2.13c.3-.21.68-.55,1.04-.67.68-.22,2.14-.2,3.33-.37l6.35-.88,2.82-.36,1.18-.15,1.1-.15,9.87-1.34c.4-.05.73-.1,1.12-.15l1.03-.15.83-.11,1.11-.15c.31-.04.57-.09.89-.13l6.46-.89,1.02-.15,1.57-.2,7.89-1.11,1.3-.22,2.05,1.54c.65.49.76,1.16.65,1.93-.09.66-.11,1.36-.4,1.97l-1.76.37-.85.17-1.47.26-1.26.39-2.02,4.49-3.48,8.14-2.24,5.39-2.36,5.88-1.04,2.98c-.47,1.33-.85,2.65-1.12,4.04-.02.08.11.18.22.2l22,4.28,9.36,1.86c.47.09,1.03.08,1.2.64l.08,1.16.17,2.02.17,1.94.08,1.18.3,3.57.05.98.16,1.89.17,1.95.07,1.11.16,1.96.16,2.02.29,3.71.08,1.19.17,2.1.17,2.01.11,1.55.1,1.41.17,1.88.07,1.11.17,2.03.15,1.87.29,3.55.08,1.19.17,2.25.17,2.09.17,1.94.06,1.05.29,3.66c.02.22-.03.53-.3.6l-10.41,2.85-21.72,5.89-5.22,1.41-11.36,3.05c-.67-.14-1.2-.41-1.82-.69l-7.04-3.17-13.34-6.05-7.13-3.25Z"/>
  </g>
</svg>