<?xml version="1.0" standalone="no"?>
<!DOCTYPE svg PUBLIC "-//W3C//DTD SVG 20010904//EN"
 "http://www.w3.org/TR/2001/REC-SVG-20010904/DTD/svg10.dtd">
<svg version="1.0" xmlns="http://www.w3.org/2000/svg"
 width="3000.000000pt" height="3000.000000pt" viewBox="0 0 3000.000000 3000.000000"
 preserveAspectRatio="xMidYMid meet">
<metadata>
Created by potrace 1.16, written by Peter Selinger 2001-2019
</metadata>
<g transform="translate(0.000000,3000.000000) scale(0.100000,-0.100000)"
fill="#ee3a94" stroke="none">
<path d="M12245 27242 c-234 -34 -402 -112 -443 -205 -25 -56 -37 -290 -17
-321 19 -31 29 -487 15 -701 -6 -93 -15 -255 -20 -360 -13 -250 -27 -472 -41
-622 -6 -67 -15 -184 -19 -260 -5 -76 -13 -187 -19 -248 -16 -167 -38 -462
-57 -745 -10 -150 -22 -259 -28 -266 -6 -6 -60 -25 -121 -43 -252 -73 -387
-116 -495 -157 -114 -44 -139 -54 -177 -68 -235 -88 -368 -163 -488 -277 -148
-141 -175 -201 -175 -389 0 -162 9 -186 138 -363 l23 -32 -6 -1305 -6 -1305
-66 -132 -65 -133 5 -122 c4 -115 7 -129 46 -228 23 -58 45 -122 50 -143 5
-22 5 -683 0 -1550 -11 -2101 -15 -2513 -23 -2526 -4 -6 -62 -37 -129 -70
-120 -58 -545 -267 -1142 -561 -165 -81 -349 -171 -410 -200 -60 -29 -276
-135 -480 -235 -203 -100 -406 -199 -450 -220 -44 -21 -181 -87 -305 -148
-124 -60 -243 -115 -265 -122 -22 -7 -134 -59 -250 -115 -115 -56 -253 -123
-305 -148 -52 -24 -203 -98 -335 -162 -308 -151 -540 -263 -635 -307 -41 -19
-165 -79 -275 -133 -110 -53 -240 -117 -290 -140 -238 -112 -357 -173 -402
-204 -27 -19 -74 -46 -104 -61 -155 -79 -373 -265 -451 -385 -109 -169 -185
-341 -232 -525 -27 -106 -66 -403 -91 -695 -8 -102 -20 -237 -25 -300 -6 -63
-15 -173 -20 -245 -5 -71 -19 -227 -30 -345 -12 -118 -28 -300 -36 -405 -8
-104 -17 -215 -20 -245 -5 -44 -3 -59 10 -69 21 -18 20 -34 -4 -56 -11 -10
-20 -23 -20 -30 0 -6 -18 -29 -41 -50 -22 -22 -49 -56 -59 -76 -19 -36 -27
-41 -129 -76 -45 -15 -56 -24 -68 -53 -8 -19 -31 -52 -51 -72 -28 -30 -36 -46
-37 -78 -1 -49 -7 -55 -52 -52 -34 3 -35 2 -31 -27 4 -25 -2 -37 -34 -68 -21
-20 -38 -46 -38 -57 0 -11 -28 -45 -66 -80 -77 -71 -96 -103 -88 -146 5 -21 2
-36 -9 -48 -9 -10 -15 -26 -15 -37 3 -30 -47 -126 -81 -159 -25 -24 -31 -38
-31 -72 0 -31 -11 -65 -40 -120 -23 -42 -38 -84 -35 -93 2 -9 -4 -29 -15 -45
-12 -19 -17 -39 -13 -56 3 -17 -1 -33 -11 -43 -9 -8 -16 -30 -16 -47 0 -21
-11 -46 -32 -72 -30 -38 -31 -42 -18 -72 7 -17 15 -57 18 -89 4 -63 -19 -126
-59 -160 -13 -12 -19 -26 -16 -39 3 -11 1 -31 -4 -45 -8 -21 -4 -29 21 -55 27
-27 41 -68 23 -68 -5 0 -21 -10 -36 -23 l-28 -22 31 -85 c46 -124 45 -118 19
-146 -19 -20 -24 -37 -25 -87 -1 -38 4 -73 13 -90 13 -25 12 -34 -2 -75 -16
-46 -15 -48 12 -104 24 -49 32 -58 58 -60 39 -4 44 -31 14 -71 -24 -33 -27
-83 -8 -130 9 -21 9 -31 0 -40 -15 -15 -14 -52 3 -66 23 -19 31 -88 20 -162
-6 -46 -6 -47 39 -78 64 -43 87 -76 81 -111 -8 -35 20 -78 55 -86 29 -7 61
-32 61 -47 0 -6 -11 -25 -25 -42 -21 -28 -24 -40 -18 -84 5 -43 11 -55 40 -77
32 -24 34 -29 28 -65 -7 -39 -7 -39 27 -39 24 0 46 -11 81 -41 26 -22 47 -48
47 -58 0 -9 4 -21 9 -26 5 -6 11 -28 13 -49 3 -34 9 -44 48 -71 24 -17 47 -41
50 -52 6 -24 15 -35 126 -148 44 -44 87 -92 97 -107 9 -15 38 -36 64 -48 26
-12 57 -29 68 -40 11 -10 42 -30 69 -44 27 -15 64 -38 83 -52 21 -16 40 -23
53 -19 13 4 27 -3 46 -24 15 -17 35 -31 44 -31 10 0 37 -15 61 -33 32 -24 59
-36 98 -41 30 -4 62 -11 71 -16 9 -5 50 -16 91 -24 65 -14 78 -20 109 -55 31
-35 44 -42 110 -55 80 -17 203 -31 390 -46 63 -5 144 -14 180 -19 36 -6 115
-15 175 -21 114 -11 184 -22 295 -46 95 -21 191 -34 306 -44 97 -8 192 -20
319 -41 33 -5 107 -14 165 -19 58 -6 137 -14 175 -20 39 -5 100 -9 137 -10 37
0 78 -4 92 -10 14 -5 94 -14 178 -19 84 -6 171 -15 193 -21 22 -5 56 -10 76
-10 20 0 52 -6 70 -14 45 -18 260 -46 429 -56 74 -4 142 -10 150 -14 14 -5
124 -17 325 -36 50 -4 207 -22 350 -40 143 -18 310 -36 370 -41 61 -5 130 -13
155 -18 25 -5 75 -12 111 -16 37 -3 89 -12 115 -20 27 -9 108 -20 179 -25 72
-5 162 -14 200 -20 123 -19 218 -29 282 -29 35 -1 98 -7 140 -15 235 -43 449
-72 643 -86 74 -6 185 -17 245 -25 61 -8 172 -21 247 -29 76 -9 166 -20 200
-26 87 -14 292 -39 418 -51 58 -5 143 -13 190 -19 47 -5 144 -14 215 -20 72
-6 155 -15 186 -20 30 -6 73 -10 96 -10 22 0 65 -5 94 -11 127 -25 236 -40
424 -59 109 -11 215 -24 235 -29 19 -5 82 -12 140 -16 58 -3 140 -15 182 -26
43 -10 104 -18 135 -17 49 2 247 -20 348 -37 16 -3 82 -10 145 -15 278 -24
443 -41 545 -55 61 -8 178 -24 260 -35 83 -10 218 -28 300 -39 83 -12 213 -28
290 -37 249 -28 279 -32 355 -48 41 -8 137 -20 213 -25 76 -6 143 -14 149 -17
6 -4 68 -11 137 -16 69 -5 153 -13 186 -18 33 -5 132 -14 220 -20 103 -6 187
-17 235 -30 144 -40 215 -51 374 -61 89 -5 193 -14 231 -20 39 -5 86 -12 105
-14 191 -20 249 -27 274 -35 16 -6 42 -10 57 -10 16 0 48 -6 71 -14 59 -20
474 -46 558 -35 36 5 103 13 150 19 458 52 512 65 700 161 167 85 211 102 237
88 18 -9 26 -9 38 1 8 7 15 18 15 24 1 18 94 76 123 76 32 0 40 11 29 42 -13
33 -4 49 23 42 17 -4 27 1 39 18 12 17 26 23 54 23 31 0 37 3 34 20 -11 65 -9
70 28 67 95 -10 94 -10 101 31 3 20 16 48 27 60 13 14 22 36 22 55 0 21 6 35
21 42 11 7 27 27 35 45 7 18 23 36 33 40 11 3 30 21 41 40 12 19 35 44 51 56
20 14 29 29 29 49 0 16 5 32 10 35 6 3 164 10 353 15 188 6 424 13 525 16 151
6 192 4 240 -9 118 -33 225 -48 612 -87 397 -41 1645 -40 2080 0 326 30 456
53 543 97 67 33 76 59 47 131 -13 31 -30 65 -38 74 -33 39 -5 47 283 84 388
49 894 144 1120 210 125 36 154 45 215 65 136 44 284 137 314 198 7 14 18 58
25 96 18 103 -4 210 -56 272 -21 25 -43 53 -49 64 -12 21 -21 360 -29 1059 -3
239 -10 705 -15 1035 -11 618 -23 1523 -40 2945 -5 448 -14 1092 -20 1430 -6
338 -15 1009 -21 1490 -6 481 -13 1076 -16 1322 l-6 448 104 108 c287 297 509
582 689 888 51 86 180 346 212 429 78 196 116 315 168 523 109 435 141 685
140 1117 0 358 -15 535 -76 930 -28 183 -131 638 -179 795 -104 334 -182 579
-280 875 -64 191 -71 293 -30 440 109 394 108 394 109 520 1 120 -15 203 -59
300 -8 17 -32 73 -53 125 -22 52 -49 115 -60 140 -11 25 -53 114 -91 199 -144
313 -225 426 -353 488 -69 34 -194 63 -267 63 -26 0 -52 5 -59 12 -9 9 -12 72
-12 223 l0 212 28 39 c95 133 126 213 125 329 0 132 -49 269 -125 352 -100
108 -279 226 -523 345 -66 33 -128 64 -139 69 -51 29 -558 199 -726 244 -36
10 -85 23 -110 30 -25 7 -81 20 -125 30 -44 10 -123 30 -175 45 -90 26 -152
40 -315 74 -306 63 -479 91 -1107 181 -116 16 -323 41 -413 50 -33 3 -89 10
-125 15 -36 5 -137 16 -225 25 -88 8 -207 20 -265 25 -486 48 -1286 93 -2225
125 -783 28 -2129 16 -3115 -26 -381 -16 -581 -26 -825 -43 -322 -23 -901 -72
-945 -81 -14 -3 -83 -9 -155 -14 -71 -5 -166 -18 -210 -29 -44 -11 -111 -23
-150 -26 -75 -7 -250 -28 -435 -52 -63 -8 -169 -21 -235 -30 -66 -8 -163 -21
-215 -30 -52 -8 -106 -14 -119 -14 l-23 0 7 93 c4 50 9 124 10 162 3 63 16
210 45 535 5 63 17 149 25 191 22 112 20 183 -5 200 -20 14 -20 18 -9 144 6
72 13 157 15 190 4 74 28 288 50 455 9 69 17 136 19 150 8 65 36 243 50 315
32 172 36 185 74 219 26 23 27 43 4 69 -15 16 -17 34 -15 105 l3 87 -43 70
c-63 102 -133 138 -448 235 -123 38 -159 45 -375 75 -134 18 -555 17 -690 -3z
m14279 -5696 c61 -25 106 -83 173 -222 34 -73 63 -136 63 -139 0 -4 6 -21 14
-38 8 -18 40 -92 70 -165 31 -73 65 -152 76 -175 33 -71 51 -128 66 -212 19
-108 18 -133 -10 -223 -13 -42 -34 -111 -46 -152 -12 -41 -26 -86 -31 -99 -15
-36 -39 -245 -39 -336 0 -86 7 -111 85 -330 26 -71 61 -168 77 -215 17 -47 37
-105 44 -130 7 -25 26 -83 43 -130 16 -47 44 -137 61 -200 17 -63 44 -164 61
-225 44 -155 50 -183 123 -530 43 -200 51 -249 72 -415 18 -142 18 -142 35
-305 42 -427 -14 -975 -149 -1445 -13 -47 -27 -98 -32 -115 -14 -59 -99 -301
-128 -370 -113 -259 -285 -546 -453 -753 -149 -183 -161 -197 -176 -206 -10
-5 -18 -4 -24 5 -4 8 -8 206 -9 441 0 235 -2 433 -5 440 -2 7 -9 450 -14 983
-6 534 -16 1335 -22 1782 l-12 812 52 130 c28 72 56 157 62 188 20 106 -3 203
-80 347 -22 39 -42 85 -45 101 -3 17 -11 447 -17 957 -10 759 -10 930 0 942
17 20 71 21 115 2z m-16268 -7523 c-5 -82 -10 -944 -12 -1918 -2 -973 -8
-2078 -13 -2454 -8 -642 -10 -685 -27 -698 -25 -18 -47 -16 -78 8 l-26 21 -36
-22 c-35 -22 -36 -22 -74 -5 -39 18 -54 17 -155 -3 -22 -4 -57 -4 -79 2 -27 6
-44 6 -57 -2 -31 -20 -70 -14 -104 17 -31 27 -35 28 -91 20 -33 -5 -82 -6
-110 -3 -32 4 -66 1 -88 -7 -28 -10 -39 -10 -48 -1 -15 15 -112 16 -154 0 -28
-10 -36 -9 -52 5 -29 26 -117 40 -208 33 -50 -4 -85 -3 -88 3 -4 6 -88 10
-210 10 -170 0 -210 2 -236 16 -28 14 -41 15 -96 5 -36 -6 -69 -8 -75 -5 -11
8 -113 13 -314 18 -77 2 -142 5 -145 6 -3 2 -98 5 -212 7 -143 2 -215 7 -230
16 -27 15 -149 21 -343 17 -127 -3 -296 4 -332 13 -30 7 -61 7 -108 -1 -51 -9
-70 -9 -88 1 -15 8 -92 13 -242 15 -307 5 -316 5 -445 5 -192 -1 -252 4 -333
23 -67 16 -83 17 -110 6 -18 -8 -59 -17 -92 -21 -33 -4 -68 -11 -77 -15 -10
-4 -31 -2 -48 3 -21 8 -39 8 -61 0 -23 -8 -41 -7 -70 2 -30 10 -45 11 -65 2
-18 -9 -31 -9 -45 -2 -16 9 -25 5 -56 -25 -25 -24 -45 -35 -67 -35 -17 0 -40
-7 -50 -15 -28 -21 -54 -18 -88 10 -38 32 -48 31 -82 -4 -16 -17 -47 -34 -74
-40 -26 -7 -61 -16 -78 -21 -17 -6 -40 -10 -52 -10 -12 0 -32 -12 -45 -26 -37
-44 -135 -73 -138 -41 -3 30 3 116 12 162 5 28 14 113 20 190 6 77 17 205 24
285 7 80 20 224 29 320 8 96 18 195 21 220 3 25 12 124 20 220 48 578 69 664
212 900 123 201 120 199 858 555 83 40 166 80 185 88 44 19 209 96 315 147 44
21 114 54 155 73 41 19 143 67 225 107 83 39 191 91 240 115 239 114 331 158
417 199 84 40 191 91 598 289 74 36 173 83 220 105 197 92 341 161 695 332 83
40 186 89 230 110 97 45 324 155 540 260 262 128 484 234 769 368 55 26 163
79 240 118 78 39 152 72 165 73 l24 1 -7 -147z"/>
</g>
</svg>
