<?xml version="1.0" encoding="UTF-8"?>
<svg id="Layer_2" data-name="Layer 2" xmlns="http://www.w3.org/2000/svg" viewBox="0 0 109.08 75.83">
  <defs>
    <style>
      .cls-1 {
        fill: #09643d;
      }
    </style>
  </defs>
  <g id="Layer_1-2" data-name="Layer 1">
    <path class="cls-1" d="M62.38,61.83c-.22,2.04-1.74,2.91-3.59,3.24-.84.15-1.63-.18-2.38-.65-.53,1.49-1.8,2.13-3.23,2.43-.84.18-1.69.05-2.48-.46-.46,2.15-2.59,3.08-4.65,2.94-.63-.04-1.12-.31-1.63-.76-.44.61-.89,1.16-1.56,1.47-.76.35-1.6.47-2.43.44-1.27-.05-1.7-.75-1.98-.75-.13,0-.2.13-.3.23-1.2,1.14-3.47,1.48-5.03.63-.6.55-1.26,1.04-2.1,1.1l-.85.06-.79-.05c-.73-.05-1.36-.45-1.89-.96l-.94.33c-1.24.32-2.5.21-3.59-.49-.54.41-1.09.75-1.75.8l-.72.06c-1.16.1-2.71-.57-3.37-1.6-.26-.1-.5.06-.72.03l-1.41-.19c-.64-.09-1.22-.52-1.73-.86-2.2.5-4.55-.28-5.29-2.46-.11-.32-.25-.44-.54-.58-.92-.45-1.62-1.26-2.03-2.21-1.55-.69-2.82-2.28-2.71-4.03-.76-.64-1.24-1.49-1.46-2.47l-.04-1.12c-.42-.35-.64-.8-.85-1.29-.49-1.14-.44-2.42.18-3.51-.65-1.69-.56-3.09.49-4.51.1-.13-1.03-2.83,1.66-4.77l.04-1.54c.16-.78.56-1.41,1.07-1.99.42-.48.98-.73,1.57-1.01.06-1.64.98-3.01,2.43-3.7l.02-1.25c.15-.87.69-1.54,1.29-2.15.7-.7,1.57-1.11,2.59-1.08.1-1.02.52-1.82,1.21-2.5s1.56-1.19,2.61-1.23c.03-1.16.59-2.06,1.4-2.78.86-.76,1.93-1.05,3.13-.94-.14-1.92,1.23-3.2,2.96-3.73.79-.24,1.53-.16,2.23.41-.12-2.19,2.67-3.9,4.33-3.46.17.04.31.21.5.03-.24-.35-.21-.7-.09-1.07.67-1.94,3.57-3.11,4.79-2.26.62.43.98,1.08,1.53,1.66l-.76-2.21c-.3-.86,1.75-2.99,4.09-2.69.8.1,1.24.62,1.54,1.4.17-.55-.08-1.06.15-1.5.61-1.15,1.7-1.79,2.92-2.05.94-.2,1.75-.08,2.54.67.31-1.26,1.14-2.07,2.28-2.44,1.36-.44,2.03-.38,3.34.4l.65-.81c.9-.9,2.16-1.29,3.44-1.19.48.04.86.3,1.33.5.49-1.01,1.35-1.69,2.43-1.92l1.26-.19c.53-.08,1.66.38,2.28.86,1.35-1.48,3.62-1.63,5.27-.55,1.26-1.41,3.63-1.48,5.08-.31l.6-.57c.63-.6,2.01-.76,3.01-.61.91.13,1.62.64,2.3,1.25,1.58-.63,3.33-.17,4.45,1.09.11.12.23.25.41.23,1.31-.11,2.47.41,3.38,1.32.18.18.58.04.78.07l1.03.17c1.35.36,2.33,1.52,2.81,2.82.78.28,1.48.76,1.97,1.4l.53.97c1.45.54,2.49,1.74,2.73,3.25.07.44.2.82.09,1.29,1.23,1.24,1.32,3.21.68,4.79.29,1.03.47,2.08,0,3.09-.15.33-.12.55.01.89.57,1.43.33,3.14-.68,4.31-.24.27-.38.46-.23.83s.03.78-.03,1.18c-.14.97-.6,1.81-1.37,2.44l-.05,1.82c-.51,2.37-2.63,3.63-4.97,3.16-.06-.01-.14.13-.12.2.63,2.16.75,5.07-.98,6.58l-.96.56.22.8c.41,1.49-.56,3.01-1.89,3.93.38.47.71,1.04,1.17,1.41,1.27.22,1.86.46,2.68,1.5.1.12.12.56.47.53.16-.02.74-1.62,2.89-2.74.95-.5,1.9-.87,2.99-1.01,2.59-.31,4.96.65,6.7,2.58,2.28,2.54,3.12,5.43,3.79,8.7.36,1.77.45,3.51.51,5.31.03.81.08,1.57-.05,2.38l-.09,1.57-.18,1.48-.16,1.02-.16.86-.17.84-.13.58-.4,1.23c-.06.2-.28.47-.48.52-.55.13-.89.58-2.03.58h-3.7c-2.51-.18-4.95-.45-7.33-1.22l-2.84-.91-.54.22c-.82-.34-1.53-.75-2.26-1.22-.27-.17-.67-.3-.79-.6-.11-.27-.24-.3-.48-.43-.4-.21-.67-.64-.98-.96-.62-.66-1.25-1.25-1.76-2.01-.09-.13,0-.41-.3-.43-.15-.01-.32-.14-.38-.31l-.97-2.63c-.08-.23.05-.42.16-.59s-.04-.37-.08-.53c-.21-.86-.09-1.71.05-2.56.27-1.59,1-2.95,2.17-4.03.32-.29.59-.56.98-.76l.8-.39,1.27-.59c.66-.31-.33-.45-.82-1.05-.56-.69-.86-1.51-.88-2.4l-1.32-.98c-.47.71-.92,1.33-1.59,1.76-1.14.72-2.61.73-3.69-.09-.08-.06-.19.03-.12.13-.18,1.86-2.31,3.4-4.06,3.42-.59,0-1.07-.27-1.65-.57-.02,1.79-1.82,3.1-3.47,3.44-.96.2-2.1-.07-2.52-.96-.04-.07-.08-.08-.12-.08-.04,0-.11.14-.08.18.68.99.51,2.16-.38,2.96-1.42,1.29-3.85,1.93-5.15.18ZM42.99,62.59c.09.07.22.11.31.09.12-.02.6-.84,1.62-1.26.72-.29,1.43-.52,2.21-.54.59-.01,1.08.29,1.66.52.3-1.66,1.57-2.53,3.13-2.88,1.03-.23,1.98,0,2.85.71.51-1.65,1.97-2.38,3.57-2.63.67-.11,1.61.18,2.05.69.05.06.17.08.22.06-.08.04.43-2.46,3.79-2.83.61-.07,1.11.1,1.69.43-.36-1.95,1.63-3.39,3.34-3.81.78-.19,1.48-.07,2.23.39.22-1.92,1.91-3.19,3.73-3.39.72-.08,1.29.15,1.89.5.12,0,.23-.31.16-.42.28-.88.86-1.57,1.61-2.09.24-.16.48-.29.66-.53-.05-.35-.17-.71-.14-1.08.1-.91.96-1.45,1.83-1.2.13.04.33.03.39-.11.23-.53.59-.9.97-1.32,1.37-1.5,2.91-.93,3.02-1.11.14-.24-.78-1.58.03-1.83.04-.32.13-.76.09-1.1l-.34-.73c.03-.51.4-.89.57-1.37.15-.45-.74-.75-.64-1.55.04-.35.25-.67.56-.75.39-.09.7.03.89.38l.31.59,1.25-.28c.11-.27-.07-.47-.12-.71-.08-.39-.19-.82-.16-1.23.09-1.1.55-2.15,1.33-2.88.27-.25.31-.42.27-.78-.15-1.18.35-2.31,1.14-3.17v-1.89c.02-.42.24-.79.39-1.2-.68-1.28-.62-2.78.11-4.05-.33-.59-.19-1.31-.43-1.83-.28-.62-.86-1.1-1-1.8-1.16-.43-1.92-1.28-2.35-2.39-.82-.32-1.52-.78-2.09-1.46-1.42.08-2.74-.44-3.64-1.51-1.18.08-2.46-.21-3.27-.98-.18-.18-.4-.34-.69-.27-1.18.27-2.36.02-3.38-.62-.21-.04-.39.24-.53.33-1.38.9-3.05,1.05-4.47.21-.16-.1-.26-.18-.45-.16-.13.02-.18.13-.31.23-1.42,1.03-3.3.95-4.73-.05-1.34,1.3-3.25,1.58-4.92.79-.43.78-1.06,1.26-1.85,1.58l-.88.3-1.42-.02c-.49,0-.91-.29-1.36-.57-.62,1.07-1.61,1.78-2.83,1.96-.25.04-.49.14-.75.11-.62-.08-1.15-.28-1.74-.59-.37,1.19-1.24,1.94-2.34,2.33s-2.33.38-3.26-.55c-.15.62-.32,1.12-.76,1.57-1.12,1.14-3.13,1.95-4.52.77.02,1.18-.52,2.04-1.39,2.72-.91.72-1.98,1.08-3.2.79-.03.86-.24,1.61-.78,2.21-1.09,1.22-3,2.08-4.33.87-.08,1.29-.78,2.25-1.8,2.9-.75.47-1.54.76-2.46.64l-.28,1.15c-.25,1.03-1.72,2.42-3.05,2.63-.15.02-.53-.06-.58.19-.16.9-.49,1.74-1.11,2.41-.7.74-1.56,1.23-2.62,1.24-.24,1.48-1.13,2.67-2.45,3.38.14,1.85-.87,3.63-2.62,4.28-.2,1.41-.67,2.56-1.82,3.45l-.07,1.56c-.28,1.29-.94,1.64-.72,2.37.3.99-.06,2.04-.42,3.04.18.59.36,1.3.42,1.91.72.89,1.21,1.87,1.27,3.03.56.51.96,1.1,1.22,1.78,1.31.45,2.25,1.42,2.72,2.7.47.22.87.47,1.27.76,1.78-.68,3.85-.06,4.94,1.43l.93-.06c.55.05,1.05.11,1.54.35.17.08.38.3.61.26,1.45-1.2,3.6-1.27,5.08-.07.19.16.33.35.63.2,1.22-.62,2.64-.64,3.86.06.76-.74,1.7-1.11,2.72-1.26,1.08-.15,2.08.16,2.92.89,1.18-1.38,3.69-1.82,5.07-.87ZM89.18,41.59c.19.13.34-.03.38-.16l.28-.89c.38-1.21-.04-3.54-.88-4.16-.08-.06-.11-.26-.26-.24-.37.04-.81.67-.93,1.3-.05.28-.45.29-.59.41-.37.34-.36.87-.28,1.29.78-.18.37.47.86.99.58-.05,1.16.23,1.39.8.07.18-.06.54.03.67ZM87.14,50.79c.11.03.13-.25.08-.33-.44-.64-1.06-1.5-1.51-1.25-.07.04-.16.16-.14.27.05.24.26.39.45.54.34.28.64.66,1.12.77ZM90.4,54.03c.45-.52.39-1.35.04-1.89-.1-.15-.46-.33-.5-.16-.17.79-.72,1.34-1.59,1.19-.14.3-.03.55.18.77.49.53,1.35.68,1.86.09Z"/>
  </g>
</svg>