<?xml version="1.0" encoding="UTF-8"?>
<svg id="Layer_2" data-name="Layer 2" xmlns="http://www.w3.org/2000/svg" viewBox="0 0 99.49 99.45">
  <defs>
    <style>
      .cls-1 {
        fill: #ee3a94;
      }
    </style>
  </defs>
  <g id="Layer_1-2" data-name="Layer 1">
    <path class="cls-1" d="M42.88,97.07l-2.41-.29-1.49-.23-4.19-.45-2.66-.32-3.35-.41-2.05-.23-.97-.14-.85-.12-5.1-.55-1.73-.24-2.59-.3-2.83-.33-1.63-.26-3.98-.5c-.43-.55-1.1-.4-1.48-.62l-.75-.43-.95-.54c-.31-.17-1.02-.88-1.15-1.14-.1-.2-.31-.33-.47-.47,0-.44-.28-.85-.74-.86.05-.12.07-.2.07-.25,0-.06-.13-.09-.2-.15-.19-.2-.12-.53.09-.77l-.48-.33c.05-.36-.13-.59-.47-.71l.03-.55c-.19-.49-.24-1.11.07-1.45-.28-.05-.35-.18-.44-.29-.15-.2,0-.39-.02-.58-.03-.34-.18-.67.12-.96l-.27-.78.3-.25c-.23-.22-.3-.51-.14-.77.3-.27.32-.68.09-1.01.29-.42.4-.9.49-1.4.16-.27.31-.53.31-.86.38-.35.46-.85.56-1.34l.45-.48.3-.48c.1-.16.2-.26.38-.27,0-.26.11-.4.26-.6.13-.17.17-.38.45-.42.25-.03.38-.22.53-.41l.43-.54c-.13-.35-.05-.69-.02-1.07l.61-6.87c.21-2.34,1.2-4.06,3.34-5.1l9.81-4.75,2.36-1.12,3.32-1.63,6.74-3.3.04-1.47.05-12.59.06-1.11c.03-.55-.06-1.02-.29-1.52-.3-.64-.26-1.34.15-1.91.19-.27.21-.56.21-.9v-9.85c-.8-.77-.88-2.05-.1-2.82.37-.36.73-.67,1.23-.9,1.19-.55,2.43-.95,3.7-1.3.23-.06.35-.17.36-.43l.06-.87.05-1.14.32-3.83.07-1.36.17-3.41-.06-1.41-.08-.86c-.13-1.35,1.71-1.46,3-1.51,1.43-.05,2.73.15,4.05.67.66.26,1.05.8.9,1.53l.16.28-.24.23c-.38,1.83-.6,3.66-.71,5.54.07.17.29.41.15.63-.14.43-.14.87-.18,1.31l-.22,2.81,4.11-.53c.64-.08,1.22-.19,1.86-.25l1.7-.16,3.81-.26,1.18-.06,2.23-.06,2.29-.08h6.98s1.97.08,1.97.08l2.28.07,1.74.09c3.46.17,6.84.54,10.27,1.1l3.08.61c1.55.31,3.03.78,4.5,1.39.89.37,1.69.81,2.42,1.42.93.78.98,2.14.12,3v1.77c.87,0,1.69.25,2.11,1.01.59,1.06,1.06,2.15,1.5,3.28.24.61.16,1.25,0,1.85l-.4,1.49c-.11.4.05.81.18,1.19l.98,3.03c.64,1.98,1.02,3.98,1.14,6.06v2.48c-.35,3.96-1.66,7.22-4.43,10.07l-.71.73.04,2.76.07,5.27.08,5.58.09,7.05.07,5.2.08,5.03.08,5.72.05,1.6c.52.44.67,1.42.16,1.9-1.02.97-5.38,1.54-7.19,1.77-.52.07.12.55-.01.8-.3.54-3,.69-4.08.69h-4.57c-1.45,0-2.87-.11-4.27-.43-.41-.09-.77-.05-1.2-.04l-2.56.06-.66.04c-.13.53-.65.65-.99,1.52l-.1.26c-.06.16-.37-.07-.47,0-.12.08.03.27,0,.32-.04.09-.62.02-.65.5-.28.07-.49.2-.61.48-.52-.24-1.2.54-1.99.66l-1.85.28c-.67.1-1.3.11-1.96.02l-.98-.13-2.63-.33-1.92-.31-1.86-.17-1.19-.14-1.41-.18-5.09-.65-1.58-.15-1.7-.19-.68-.07ZM97.17,46.02c.76-2.17,1.17-4.33.99-6.57l-.07-.89c-.32-2.89-1.12-5.65-2.13-8.36-.12-.32-.24-.64-.21-.97l.1-.85.46-1.7c.08-.64-.25-1.25-.51-1.82l-.96-2.11c-.14-.3-.52-.44-.89-.39l.04,3.9.03,3.52c0,.29.2.53.32.76.6,1.14-.23,1.96-.23,2.33l.02,3.65.08,6.51.07,6.35c0,.38,0,.73.1,1.13,1.23-1.35,2.18-2.79,2.77-4.49ZM18.86,71.36l1.55.07,1.67.08h.57s1.06.08,1.06.08l1.27.03c.37,0,.63.14.95.14h.8c.17,0,.5.03.66,0,.33-.07.52,0,.76.18.19-.03.54-.02.73-.04.28-.03.5-.2.76.08.13-.09.21-.15.35-.18.1.14.24.18.34.12.09-.05.14-.14.14-.28l.05-7.82.03-9.52-.02-.65.04-2.3-17.53,8.4-4.65,2.26c-.46.22-.7.62-.94,1.04-.37.63-.56,1.24-.63,1.98l-.48,5.15-.2,1.81c.3.12.41-.13.62-.2l.88-.29.2-.17s.4.38.99-.06c.2-.15.51-.18.76-.11.47.13.96-.18,1.4-.12.81.11,1.54.1,2.33.11l1.76.03.71.07,1.56.03c.33,0,.62-.04.96,0l.54.07Z"/>
  </g>
</svg>