<?xml version="1.0" standalone="no"?>
<!DOCTYPE svg PUBLIC "-//W3C//DTD SVG 20010904//EN"
 "http://www.w3.org/TR/2001/REC-SVG-20010904/DTD/svg10.dtd">
<svg version="1.0" xmlns="http://www.w3.org/2000/svg"
 width="3000.000000pt" height="3000.000000pt" viewBox="0 0 3000.000000 3000.000000"
 preserveAspectRatio="xMidYMid meet">
<metadata>
Created by potrace 1.16, written by Peter Selinger 2001-2019
</metadata>
<g transform="translate(0.000000,3000.000000) scale(0.100000,-0.100000)"
fill="#f9f3d7" stroke="none">
<path d="M12227 27084 c-5 -5 -169 -10 -365 -11 -397 -3 -620 -9 -822 -24 -74
-6 -234 -12 -355 -14 -238 -4 -563 -20 -715 -34 -52 -5 -219 -14 -370 -20
-288 -12 -476 -26 -547 -42 -23 -5 -88 -9 -145 -9 -57 0 -141 -6 -188 -15 -83
-14 -170 -23 -455 -46 -77 -6 -176 -15 -220 -20 -44 -5 -125 -14 -180 -19 -55
-5 -127 -14 -160 -20 -33 -5 -103 -14 -155 -19 -52 -4 -133 -18 -180 -29 -88
-21 -222 -44 -275 -47 -16 0 -64 -9 -105 -18 -41 -9 -120 -23 -175 -32 -55 -9
-129 -23 -165 -30 -93 -21 -225 -46 -295 -56 -33 -5 -94 -18 -135 -28 -41 -11
-120 -24 -175 -31 -86 -9 -166 -26 -350 -71 -22 -5 -112 -25 -200 -43 -175
-37 -363 -93 -465 -138 -39 -18 -90 -31 -130 -35 -36 -3 -79 -14 -96 -24 -17
-10 -73 -32 -125 -49 -94 -31 -221 -88 -270 -121 -14 -10 -46 -26 -70 -36 -25
-10 -65 -31 -89 -46 -25 -16 -79 -48 -120 -71 -41 -24 -111 -64 -155 -89 -44
-26 -88 -47 -99 -47 -25 0 -159 -102 -187 -143 -13 -17 -51 -61 -85 -97 -91
-96 -191 -299 -234 -473 -18 -73 -29 -139 -26 -153 4 -13 -1 -40 -10 -61 -12
-30 -15 -68 -13 -178 1 -77 1 -182 0 -233 -1 -65 3 -109 15 -144 9 -27 20 -84
24 -126 4 -42 15 -102 24 -132 10 -30 19 -98 21 -150 3 -52 9 -117 14 -145 18
-97 34 -201 42 -275 4 -41 15 -104 23 -140 9 -36 20 -132 25 -215 5 -82 14
-163 20 -178 6 -16 11 -49 11 -74 0 -25 6 -71 14 -102 8 -31 16 -99 20 -151 3
-52 14 -133 26 -180 11 -47 20 -109 20 -138 0 -29 7 -69 15 -89 11 -26 12 -39
4 -49 -13 -15 -9 -82 16 -309 10 -88 19 -205 20 -260 1 -55 7 -111 12 -125 6
-14 14 -81 18 -150 4 -69 14 -181 22 -250 8 -69 18 -177 23 -240 5 -63 13
-135 18 -160 6 -24 8 -67 5 -95 -3 -31 1 -71 11 -105 9 -30 18 -102 21 -160 3
-58 11 -163 17 -235 13 -160 18 -261 17 -343 0 -34 5 -86 10 -115 18 -85 33
-308 36 -520 2 -109 6 -223 10 -255 15 -115 17 -148 14 -202 -3 -61 -3 -76 4
-275 3 -77 10 -174 17 -215 10 -66 13 -254 9 -554 0 -49 -5 -101 -10 -115 -15
-38 0 -149 27 -209 22 -46 23 -57 13 -90 -6 -21 -9 -63 -6 -93 3 -30 8 -96 11
-146 2 -51 8 -98 12 -105 11 -17 13 -365 3 -416 -8 -35 -5 -50 11 -83 15 -28
19 -49 14 -74 -5 -26 -1 -43 17 -72 18 -29 24 -55 26 -113 2 -41 6 -136 10
-210 3 -74 7 -252 9 -395 4 -367 10 -510 23 -590 17 -97 24 -561 10 -655 -13
-87 -13 -85 1 -215 22 -207 22 -225 5 -294 -11 -46 -13 -75 -7 -91 15 -40 13
-219 -3 -273 -11 -38 -12 -81 -4 -230 5 -100 14 -207 19 -237 6 -36 6 -70 -1
-100 -6 -25 -8 -63 -4 -86 4 -26 0 -53 -11 -79 -12 -30 -14 -52 -8 -94 16
-109 17 -372 3 -441 -5 -25 -13 -70 -18 -101 -5 -31 -15 -66 -22 -77 -11 -18
-11 -24 4 -40 10 -10 17 -35 17 -56 0 -20 9 -54 20 -75 14 -28 17 -46 11 -67
-4 -16 -5 -41 0 -56 4 -14 2 -59 -4 -100 -6 -40 -12 -143 -13 -228 -5 -292
-16 -420 -42 -463 -19 -34 -21 -43 -11 -81 7 -29 7 -65 1 -114 -6 -39 -8 -90
-5 -113 3 -23 1 -98 -6 -168 -8 -84 -9 -164 -3 -241 7 -90 6 -123 -5 -149 -7
-19 -13 -50 -12 -70 0 -20 -5 -92 -11 -161 -7 -69 -13 -220 -15 -336 -2 -156
-7 -224 -19 -266 -9 -30 -16 -68 -16 -84 0 -16 -2 -101 -5 -189 -3 -88 -5
-218 -5 -290 1 -96 -3 -142 -15 -175 -12 -35 -13 -50 -4 -72 6 -15 9 -50 6
-80 -26 -256 -49 -769 -35 -806 4 -13 8 -70 8 -128 0 -58 7 -138 15 -180 9
-41 17 -120 19 -177 2 -56 8 -111 13 -122 13 -25 40 -160 47 -240 3 -33 12
-80 21 -104 8 -24 15 -57 15 -73 0 -16 7 -39 16 -53 8 -13 25 -63 36 -112 11
-48 28 -104 38 -123 10 -19 21 -55 25 -80 10 -58 46 -130 129 -253 36 -55 66
-102 66 -107 0 -4 7 -10 15 -13 8 -4 25 -28 39 -55 13 -26 31 -54 39 -60 8 -7
21 -27 28 -45 6 -18 24 -48 38 -67 14 -19 35 -49 46 -66 109 -175 292 -425
354 -482 25 -23 96 -77 156 -119 61 -43 128 -94 150 -114 38 -35 108 -82 212
-142 26 -15 79 -47 118 -69 38 -23 113 -62 165 -87 80 -38 108 -46 180 -52 89
-7 120 -16 233 -68 37 -17 72 -31 78 -31 5 0 36 -13 68 -30 33 -16 108 -48
168 -70 59 -23 133 -52 163 -64 227 -96 511 -193 755 -261 88 -24 179 -51 203
-59 123 -44 848 -215 1107 -261 83 -15 186 -35 230 -45 44 -10 103 -21 130
-24 28 -4 64 -11 80 -15 17 -5 64 -14 105 -21 41 -6 109 -18 150 -25 81 -14
172 -27 315 -46 50 -6 116 -15 147 -20 32 -6 102 -14 155 -20 54 -5 132 -14
173 -19 41 -6 125 -14 185 -19 273 -24 345 -31 410 -40 39 -6 104 -11 145 -11
41 -1 95 -5 120 -11 199 -42 1679 -74 2365 -49 446 16 847 40 1140 70 55 5
156 14 225 20 133 10 422 44 530 60 59 10 274 36 488 60 46 6 87 12 90 14 4 2
59 11 122 20 262 36 322 46 440 71 36 7 90 18 120 24 115 23 219 44 325 66 61
13 178 37 260 54 162 34 295 67 445 111 52 15 142 40 200 56 168 44 610 193
860 290 52 20 140 51 195 69 179 59 220 76 246 104 14 16 66 48 115 72 49 24
123 62 164 84 41 23 91 48 110 55 118 48 341 192 595 385 134 103 213 172 320
281 70 72 101 95 138 108 74 25 98 40 152 98 67 70 111 129 129 170 8 18 22
51 31 73 10 22 35 76 55 120 21 44 46 104 55 134 10 30 32 79 51 110 20 34 37
82 44 121 6 36 20 83 30 105 36 78 73 238 100 440 6 39 16 90 24 115 8 25 17
108 20 185 3 77 10 176 17 220 8 57 9 225 4 585 -4 278 -8 595 -10 705 -3 238
9 317 63 425 47 94 128 181 235 253 83 56 312 171 578 290 157 71 215 102 359
194 52 33 120 73 150 88 30 15 80 45 110 65 30 21 125 80 210 132 85 52 209
128 275 170 66 41 152 93 190 116 39 23 160 105 270 182 110 77 267 184 349
238 81 53 176 118 210 145 33 26 121 87 193 136 73 49 150 103 170 120 36 29
219 168 337 256 92 69 278 214 341 266 33 27 78 63 100 80 22 17 60 49 85 72
25 24 70 63 100 87 30 25 91 78 135 120 45 41 164 152 265 247 304 283 744
739 851 883 24 31 75 91 173 200 155 173 439 573 598 845 20 33 62 105 96 160
33 55 82 138 109 185 58 102 278 543 329 661 78 182 203 498 222 564 11 39 41
135 66 215 84 273 168 617 200 815 8 50 19 126 26 170 6 44 16 103 21 130 5
28 13 97 18 155 5 58 17 188 26 290 13 146 16 247 11 475 -8 368 -13 428 -67
800 -71 481 -197 957 -353 1340 -178 434 -464 930 -695 1204 -139 166 -158
187 -201 235 -126 138 -305 306 -410 384 -30 22 -77 59 -105 81 -164 132 -424
292 -674 415 -164 80 -279 125 -551 216 -95 31 -363 97 -485 119 -33 6 -87 16
-120 22 -33 7 -87 15 -120 19 -33 4 -125 16 -205 28 -324 46 -343 47 -970 47
-415 0 -642 -4 -722 -12 -65 -7 -169 -17 -230 -23 -62 -5 -149 -17 -193 -26
-44 -8 -141 -19 -215 -24 -74 -4 -158 -11 -186 -15 -34 -5 -77 -2 -135 10
-187 38 -269 93 -332 225 -31 63 -32 69 -31 190 1 127 15 279 34 360 6 25 21
117 34 205 13 88 35 205 48 260 38 154 54 247 88 515 4 36 13 97 19 135 31
203 26 466 -14 630 -40 166 -173 374 -346 541 -70 67 -179 151 -245 188 -16 9
-58 35 -94 57 -80 49 -316 165 -425 209 -44 18 -120 49 -170 70 -49 21 -142
53 -205 70 -63 17 -126 35 -140 40 -14 5 -50 14 -80 20 -30 7 -104 27 -165 45
-108 33 -148 42 -350 85 -55 12 -121 28 -147 36 -25 9 -81 21 -125 28 -110 19
-230 44 -283 61 -40 12 -95 25 -235 55 -22 5 -89 16 -150 25 -60 9 -173 30
-250 45 -77 16 -162 32 -190 35 -27 4 -90 15 -140 25 -49 10 -124 22 -165 25
-41 4 -124 15 -185 25 -60 10 -146 22 -190 25 -44 4 -120 13 -170 20 -49 8
-133 16 -185 20 -52 3 -122 10 -155 15 -102 15 -243 29 -414 41 -91 6 -183 18
-205 26 -26 9 -58 12 -86 8 -48 -6 -214 8 -315 26 -62 11 -239 21 -580 34
-110 4 -225 13 -255 20 -36 9 -124 13 -255 13 -110 0 -224 5 -254 11 -29 6
-153 11 -275 11 -121 0 -238 5 -258 10 -20 6 -184 13 -365 16 -180 3 -422 8
-538 10 -271 6 -290 7 -350 6 -27 -1 -77 -1 -110 0 -33 0 -148 -1 -255 -2
-107 -2 -226 0 -265 4 -38 5 -74 4 -78 0z m12523 -6573 c147 -24 321 -69 410
-105 35 -14 68 -26 74 -26 15 0 263 -127 321 -164 256 -166 247 -159 364 -265
81 -73 220 -229 293 -331 26 -36 61 -84 78 -107 53 -71 223 -421 272 -558 127
-355 180 -589 209 -906 22 -254 -2 -692 -52 -944 -39 -197 -91 -412 -124 -515
-128 -396 -162 -493 -235 -670 -47 -113 -182 -385 -239 -477 -27 -45 -63 -110
-80 -145 -17 -36 -54 -99 -83 -143 -29 -43 -71 -106 -93 -141 -126 -199 -323
-471 -409 -565 -27 -30 -65 -79 -84 -109 -20 -30 -65 -86 -102 -125 -37 -38
-106 -113 -155 -165 -48 -52 -106 -111 -129 -131 -23 -20 -69 -63 -101 -96
-72 -70 -177 -161 -225 -193 -19 -13 -64 -51 -100 -84 -36 -34 -137 -113 -224
-176 -87 -63 -175 -130 -195 -148 -20 -17 -80 -60 -134 -95 -257 -164 -296
-188 -351 -216 -32 -17 -65 -36 -72 -42 -39 -33 -543 -270 -639 -301 -33 -11
-97 -39 -142 -63 -61 -33 -121 -54 -245 -85 -293 -74 -502 -120 -548 -120 -25
0 -90 -7 -146 -17 -88 -15 -113 -15 -205 -4 -153 19 -216 37 -292 83 -66 40
-149 123 -204 202 -13 20 -31 67 -39 104 -8 37 -22 99 -31 137 -19 85 -33 442
-20 535 4 36 8 175 7 310 -1 135 1 306 3 380 8 231 29 918 32 1060 6 209 13
382 19 436 3 27 11 189 16 359 6 171 15 400 21 510 5 110 12 340 14 510 3 171
10 337 16 370 5 33 11 148 13 255 12 627 37 888 97 1040 62 155 217 355 363
469 116 90 199 167 427 392 349 345 373 368 554 505 215 163 397 271 660 391
195 90 384 148 595 183 172 28 165 28 450 25 213 -2 289 -7 390 -24z"/>
</g>
</svg>
