<?xml version="1.0" standalone="no"?>
<!DOCTYPE svg PUBLIC "-//W3C//DTD SVG 20010904//EN"
 "http://www.w3.org/TR/2001/REC-SVG-20010904/DTD/svg10.dtd">
<svg version="1.0" xmlns="http://www.w3.org/2000/svg"
 width="3000.000000pt" height="3000.000000pt" viewBox="0 0 3000.000000 3000.000000"
 preserveAspectRatio="xMidYMid meet">
<metadata>
Created by potrace 1.16, written by Peter Selinger 2001-2019
</metadata>
<g transform="translate(0.000000,3000.000000) scale(0.100000,-0.100000)"
fill="#ffffff" stroke="none">
<path d="M9245 24990 c-22 -5 -89 -16 -150 -24 -219 -30 -271 -37 -350 -52
-44 -7 -100 -14 -125 -14 -25 -1 -74 -7 -110 -15 -36 -8 -82 -14 -102 -15 -21
0 -73 -6 -115 -14 -86 -16 -185 -31 -343 -51 -114 -14 -226 -30 -335 -46 -38
-6 -117 -17 -175 -25 -194 -25 -324 -43 -395 -53 -38 -6 -122 -18 -185 -26
-110 -15 -177 -25 -410 -60 -105 -15 -179 -25 -340 -45 -47 -6 -112 -15 -145
-21 -33 -5 -94 -14 -135 -19 -80 -10 -166 -22 -325 -45 -122 -18 -223 -32
-335 -46 -47 -5 -105 -14 -130 -19 -25 -6 -86 -14 -137 -20 -50 -5 -97 -12
-105 -15 -7 -2 -69 -11 -138 -20 -139 -17 -299 -38 -405 -54 -38 -6 -124 -17
-190 -26 -66 -9 -163 -22 -215 -30 -52 -8 -165 -23 -250 -35 -85 -12 -194 -28
-241 -36 -48 -8 -102 -14 -120 -14 -19 0 -70 -6 -114 -14 -44 -8 -134 -22
-200 -31 -66 -10 -175 -26 -243 -36 -67 -10 -136 -19 -152 -19 -16 0 -65 -6
-107 -14 -43 -8 -121 -20 -173 -27 -52 -6 -138 -18 -190 -25 -52 -8 -144 -20
-205 -28 -125 -16 -230 -31 -360 -51 -91 -14 -181 -27 -355 -50 -164 -22 -262
-35 -360 -50 -164 -24 -313 -44 -370 -50 -54 -5 -81 -9 -270 -40 -149 -25
-140 -6 -140 -305 l0 -251 28 -24 c21 -19 43 -25 102 -30 106 -8 222 -26 243
-36 16 -9 17 -95 17 -1582 1 -865 5 -2173 10 -2907 9 -1296 14 -2745 25 -6490
3 -993 8 -2235 11 -2760 l6 -955 26 -53 c14 -29 35 -58 46 -65 24 -12 240 -46
303 -47 41 0 114 15 226 47 54 15 60 20 85 67 l26 51 1 255 c0 140 -4 1153 -8
2251 -6 1418 -5 1999 2 2004 6 3 21 -1 33 -9 29 -21 46 -20 91 4 33 18 45 19
95 11 31 -5 104 -15 162 -21 91 -10 114 -10 175 5 39 9 95 22 125 29 30 8 73
18 95 24 22 6 69 17 105 26 36 8 106 24 155 36 50 11 122 28 160 37 39 8 91
22 117 29 26 8 55 14 66 14 10 0 38 6 63 14 24 7 116 30 204 51 88 20 185 43
215 50 30 8 96 23 145 35 50 11 119 28 155 36 36 9 94 22 130 31 36 8 90 20
120 28 58 14 126 30 280 65 52 11 120 27 150 35 61 16 162 39 230 54 83 18
145 33 195 45 28 8 82 20 120 29 182 41 264 60 304 73 25 8 54 14 66 14 12 0
41 6 66 14 24 7 80 21 124 31 44 10 105 24 135 31 30 7 96 23 145 34 50 12
115 27 145 35 30 7 84 20 120 29 203 46 249 57 285 67 38 11 74 19 235 55 174
39 337 77 470 109 30 8 96 23 145 35 50 11 119 28 155 36 36 9 94 22 130 31
36 8 90 21 120 28 30 8 96 23 145 35 50 11 117 27 150 35 33 8 92 21 130 30
39 9 95 22 125 30 30 8 98 23 150 35 52 12 118 27 145 34 28 8 82 21 120 29
104 24 241 56 315 73 36 9 94 22 130 31 36 8 90 20 120 28 97 24 184 44 220
50 19 4 47 11 63 17 59 23 55 163 51 -1943 l-4 -1930 30 -64 c28 -59 34 -65
73 -76 108 -30 296 -37 373 -15 27 8 68 20 91 26 39 10 45 16 70 67 l26 57 1
2020 c1 1784 3 2020 16 2026 17 9 99 31 220 59 47 11 123 29 170 41 82 19 90
19 210 4 69 -8 179 -21 245 -29 66 -8 134 -16 150 -20 17 -3 75 -10 130 -15
55 -5 136 -14 180 -19 44 -6 141 -17 215 -26 74 -9 189 -23 255 -30 66 -8 201
-24 300 -35 99 -11 236 -26 305 -35 69 -8 188 -22 265 -30 149 -16 305 -35
525 -61 74 -9 171 -20 215 -24 44 -5 121 -13 170 -20 249 -31 326 -40 390 -45
141 -13 260 -35 273 -52 10 -14 12 -338 12 -1567 0 -1387 1 -1551 15 -1566 16
-18 30 -21 225 -45 63 -8 151 -19 195 -24 123 -17 213 -28 430 -55 110 -14
250 -32 310 -40 242 -33 283 -38 365 -46 47 -5 119 -13 160 -19 267 -38 323
-45 390 -51 98 -10 242 -27 360 -45 116 -17 237 -33 350 -45 47 -5 137 -17
200 -25 63 -8 167 -22 230 -30 63 -8 151 -20 195 -26 93 -12 261 -33 430 -53
66 -8 158 -20 205 -26 418 -56 617 -81 1025 -129 95 -12 238 -31 420 -56 138
-18 290 -37 605 -74 52 -6 120 -16 150 -21 30 -5 107 -14 170 -20 63 -6 123
-13 133 -16 9 -3 70 -12 135 -19 202 -24 276 -37 297 -51 11 -8 39 -14 62 -14
30 0 49 -6 63 -20 20 -20 20 -35 22 -992 3 -1042 3 -1093 -7 -2903 -7 -1283
-8 -1270 44 -1319 37 -34 158 -61 378 -83 50 -5 92 5 180 43 17 8 35 14 41 14
5 0 27 13 50 30 32 23 42 38 47 67 4 21 11 51 16 67 13 42 12 848 -1 1002 -8
91 -10 289 -5 664 9 668 15 1300 21 2475 5 819 7 922 21 938 9 9 22 17 30 17
8 0 56 14 106 30 51 17 119 39 152 49 33 10 107 33 165 51 58 17 123 38 145
45 22 7 74 23 115 35 41 12 91 28 110 35 19 6 58 19 85 27 203 62 294 92 323
104 18 8 39 14 48 14 8 0 63 16 122 35 59 20 132 43 162 52 30 8 71 21 90 28
19 7 69 23 110 35 41 12 118 35 170 51 264 81 327 101 355 110 17 6 59 19 95
30 36 11 117 36 180 56 63 19 138 42 165 51 28 8 66 21 85 27 19 7 69 23 110
35 41 12 86 26 100 30 14 4 59 18 100 30 41 12 91 28 110 35 19 7 69 23 110
35 41 12 113 35 160 50 47 15 119 37 160 49 41 13 93 29 115 36 72 23 228 72
305 95 41 12 113 35 160 50 47 15 110 34 140 43 64 19 178 54 235 72 22 7 87
27 145 45 58 18 121 38 140 45 34 13 119 39 230 72 30 9 93 28 140 43 47 15
119 38 160 50 41 12 93 28 115 35 22 8 94 30 160 50 66 20 138 43 160 50 22 7
94 30 160 50 66 20 131 41 145 45 14 4 59 18 100 30 41 12 91 28 110 35 19 7
69 23 110 35 41 12 93 28 115 35 22 7 67 21 100 30 33 10 101 32 152 48 50 16
98 27 107 24 14 -6 16 -80 16 -759 0 -414 -4 -1050 -9 -1413 -5 -363 -11
-1033 -12 -1490 -2 -769 -1 -833 15 -877 31 -83 24 -80 326 -118 93 -12 98
-12 176 14 103 34 142 58 150 93 4 15 14 39 23 53 20 30 26 458 35 2555 3 787
8 1538 11 1670 3 132 7 1205 10 2385 4 1180 10 2541 15 3025 5 484 12 1825 15
2980 4 1155 8 2110 11 2122 3 15 14 25 32 29 15 3 50 12 77 19 28 7 86 21 130
31 44 9 92 24 108 33 l27 15 0 282 0 281 -32 16 c-41 20 -161 35 -343 42 -77
4 -203 13 -280 21 -77 8 -167 14 -200 14 -33 0 -130 6 -215 14 -85 8 -229 20
-320 26 -91 7 -248 18 -350 25 -102 7 -286 20 -410 29 -124 8 -281 20 -350 26
-232 19 -384 30 -540 40 -85 5 -202 14 -260 20 -58 6 -172 15 -255 20 -82 5
-208 14 -280 20 -71 5 -227 17 -345 25 -118 9 -300 22 -405 30 -389 30 -474
36 -620 45 -82 5 -199 14 -260 20 -60 6 -173 15 -250 20 -135 9 -262 18 -575
41 -368 27 -530 39 -725 53 -301 21 -482 35 -625 48 -69 5 -188 14 -265 18
-212 12 -587 39 -700 51 -55 6 -170 15 -255 19 -176 10 -367 24 -615 46 -93 8
-201 15 -240 15 -38 0 -104 4 -145 9 -69 9 -206 20 -620 49 -85 7 -227 18
-315 26 -88 9 -189 15 -225 15 -36 0 -114 5 -175 10 -60 6 -202 17 -315 25
-113 8 -324 24 -470 35 -146 11 -335 25 -420 30 -85 5 -188 14 -228 20 -40 5
-100 10 -134 10 -33 0 -133 7 -222 15 -88 8 -231 19 -316 25 -192 12 -387 26
-635 45 -406 32 -465 36 -620 45 -88 5 -191 14 -230 19 -38 5 -137 13 -220 16
-82 3 -184 10 -225 16 -41 5 -140 14 -220 19 -80 5 -201 13 -270 19 -69 6
-195 15 -280 21 -85 7 -245 18 -355 26 -281 21 -544 40 -795 58 -249 18 -421
31 -680 52 -102 8 -259 19 -350 24 -163 9 -309 20 -525 41 -61 5 -184 14 -275
19 -91 5 -203 14 -250 20 -47 5 -116 10 -155 10 -38 0 -133 6 -210 15 -77 8
-210 19 -295 25 -203 13 -388 27 -530 40 -186 17 -292 20 -335 10z"/>
</g>
</svg>
