<?xml version="1.0" encoding="UTF-8"?>
<svg id="Layer_2" data-name="Layer 2" xmlns="http://www.w3.org/2000/svg" viewBox="0 0 106.05 68.46">
  <defs>
    <style>
      .cls-1 {
        fill: #164a92;
      }
    </style>
  </defs>
  <g id="Layer_1-2" data-name="Layer 1">
    <path class="cls-1" d="M58.28,68.4c-1.32-.09-2.48-.45-3.73-.78-2.71-.72-5.29-1.62-7.92-2.6-2.84-1.06-5.55-2.23-8.32-3.45l-5.62-2.47-2.54-1.08c-1.36-.58-2.68-1.13-4.1-1.54l-1.95-.57-2.97,1.69c-2.5,1.42-5.03,2.63-7.73,3.64-1.44.54-2.84.93-4.34,1.22l-.92.18c-1.01.03-2.02.12-3-.02-2.94-.43-5.43-2.55-5.1-5.56l.12-.58c.24-1.15.8-2.23,1.58-3.11l1.22-1.07c1.59-1.22,3.32-2.1,5.12-2.96l5.96-2.85c1.72-.82,3.34-1.66,5.06-2.47l3.88-1.84,4.3-2.05,1.88-1.03c.19-.1.3-.36.26-.59-.08-.48.1-.9.12-1.34.02-.58.06-1.09.15-1.65l.27-1.59c.96-5.73,2.56-10.62,5.68-15.59,1.15-1.83,2.44-3.45,3.91-5.05,2.29-2.49,4.94-4.54,7.83-6.29l2.45-1.34c1.42-.78,2.89-1.37,4.43-1.92,3.67-1.32,7.44-2.1,11.31-2.42l1.57-.08,1.22-.09c.52-.04.82-.19,1.12-.56.38-.48.99-.58,1.56-.57,1.09.03,2.36.19,3.08.95l.5.99c.21.42.73.63,1.22.76,6.73,1.68,12.7,4.21,18.02,8.74l1.01.91c5.26,4.99,8.54,11.42,10.03,18.52l.7,4.17.12.8.17,1.8.08,1.64.08.95v4.54s-.08.96-.08.96l-.06,1.88-.14,2.04c-.03.45-.05.86-.13,1.29-.09.52-.44.84-1,.77l-2.02-.24-.88-.07-3.57.02-2.04.07-2,.13-1.88.15-4.33.37c-.33.03-.78.08-1.02.32l-3.61,3.61-1.07,1.06c-1.76,1.74-3.69,3.28-5.74,4.68l-1.78,1.22c-.21.14-.37.29-.61.42l-2.56,1.44c-1.58.88-3.08,1.78-4.77,2.44s-3.31,1-5.08,1.13h-2.4s-1-.06-1-.06Z"/>
  </g>
</svg>