<?xml version="1.0" standalone="no"?>
<!DOCTYPE svg PUBLIC "-//W3C//DTD SVG 20010904//EN"
 "http://www.w3.org/TR/2001/REC-SVG-20010904/DTD/svg10.dtd">
<svg version="1.0" xmlns="http://www.w3.org/2000/svg"
 width="3000.000000pt" height="3000.000000pt" viewBox="0 0 3000.000000 3000.000000"
 preserveAspectRatio="xMidYMid meet">
<metadata>
Created by potrace 1.16, written by Peter Selinger 2001-2019
</metadata>
<g transform="translate(0.000000,3000.000000) scale(0.100000,-0.100000)"
fill="#ee3a94" stroke="none">
<path d="M17265 28894 c-94 -14 -216 -50 -283 -83 -42 -21 -126 -57 -187 -81
-60 -23 -157 -60 -215 -82 -112 -44 -372 -171 -457 -224 -28 -18 -95 -56 -150
-85 -404 -213 -524 -291 -823 -534 -122 -99 -237 -189 -255 -200 -18 -11 -77
-56 -130 -100 -54 -44 -134 -108 -179 -143 -44 -35 -101 -82 -126 -106 -25
-24 -56 -50 -68 -59 -31 -20 -279 -245 -411 -372 -122 -118 -283 -302 -351
-400 -27 -38 -78 -104 -114 -145 -236 -270 -293 -348 -392 -545 -87 -173 -162
-369 -182 -480 -5 -27 -21 -90 -35 -140 -28 -99 -65 -452 -53 -500 4 -15 7
-70 7 -122 0 -53 6 -123 13 -157 16 -74 51 -202 66 -240 6 -15 19 -67 29 -114
11 -48 40 -136 66 -197 26 -60 61 -146 79 -190 59 -144 129 -274 273 -504 107
-170 105 -161 83 -331 -49 -389 -49 -582 1 -835 17 -82 28 -162 25 -177 -9
-44 -95 -190 -140 -238 -24 -25 -52 -58 -63 -75 -26 -37 -115 -250 -139 -328
-14 -47 -32 -74 -92 -140 -41 -45 -87 -105 -103 -132 -15 -28 -47 -68 -70 -90
-43 -42 -139 -163 -174 -221 -36 -57 -55 -72 -102 -79 -75 -11 -253 -71 -388
-131 -61 -26 -112 -46 -193 -75 -46 -17 -186 -81 -312 -144 -125 -63 -231
-115 -234 -115 -5 0 -109 -48 -281 -130 -55 -26 -131 -68 -170 -93 -38 -25
-97 -62 -130 -83 -33 -21 -85 -56 -115 -79 -60 -45 -221 -144 -315 -195 -75
-40 -113 -68 -195 -145 -36 -34 -99 -81 -140 -104 -41 -24 -106 -64 -145 -91
-38 -26 -97 -62 -129 -79 -45 -23 -92 -66 -184 -164 -129 -136 -274 -299 -377
-422 -32 -38 -79 -93 -105 -120 -46 -50 -79 -109 -94 -170 -13 -52 -74 -150
-135 -218 -33 -36 -83 -100 -111 -142 -28 -41 -71 -98 -96 -127 -25 -28 -65
-81 -89 -117 -23 -36 -70 -100 -103 -140 -34 -41 -78 -106 -98 -145 -21 -39
-64 -113 -97 -166 -34 -52 -88 -147 -122 -210 -35 -63 -115 -212 -180 -330
-170 -311 -395 -740 -395 -754 0 -3 -71 -149 -157 -324 -87 -174 -173 -353
-192 -397 -32 -74 -90 -185 -202 -390 -25 -44 -71 -120 -103 -170 -57 -87
-132 -224 -306 -560 -46 -88 -110 -212 -143 -275 -33 -63 -83 -160 -112 -215
-56 -109 -203 -377 -231 -422 -10 -15 -41 -57 -69 -93 -205 -262 -391 -590
-469 -830 -18 -58 -64 -188 -100 -290 -88 -242 -132 -378 -151 -465 -6 -29
-48 -168 -107 -354 -57 -183 -83 -212 -234 -276 -89 -37 -225 -126 -263 -171
-16 -20 -46 -48 -68 -63 -48 -33 -212 -207 -268 -284 -16 -24 -66 -84 -109
-135 -44 -50 -107 -130 -140 -176 -139 -194 -245 -319 -317 -372 -117 -86
-155 -117 -229 -189 -47 -45 -134 -116 -195 -157 -60 -41 -130 -88 -155 -105
-25 -17 -99 -65 -165 -108 -104 -67 -146 -104 -310 -269 -323 -324 -667 -768
-860 -1108 -46 -81 -117 -195 -158 -253 -42 -58 -79 -119 -82 -137 -4 -17 -27
-60 -51 -95 -24 -35 -44 -71 -44 -78 0 -8 16 -62 35 -119 46 -137 45 -161 -8
-266 -42 -81 -77 -133 -242 -355 -40 -55 -119 -165 -175 -245 -129 -186 -161
-227 -240 -315 -36 -40 -82 -107 -104 -148 -35 -68 -38 -81 -34 -135 12 -165
233 -461 586 -784 91 -84 201 -157 367 -243 72 -38 186 -100 255 -140 142 -81
159 -88 254 -121 123 -42 233 -28 380 49 70 37 134 98 287 277 273 318 583
588 744 648 37 14 201 52 223 52 22 0 126 43 197 81 39 21 108 79 195 164 74
72 169 158 210 190 41 33 98 80 126 105 28 25 91 67 140 93 49 26 154 92 234
147 145 99 330 223 425 285 46 30 120 77 255 162 96 61 233 155 310 213 41 31
86 62 99 69 13 7 113 86 223 174 110 89 233 185 273 213 39 28 115 86 168 128
53 43 130 101 172 129 41 29 130 90 197 137 67 47 133 91 146 98 20 12 336
227 492 336 30 22 102 76 160 120 58 45 128 97 155 116 215 147 537 437 650
585 29 39 75 113 101 165 49 97 284 428 360 507 66 69 114 55 114 -35 0 -60
-34 -206 -80 -337 -22 -66 -50 -149 -61 -185 -11 -36 -51 -159 -89 -275 -37
-115 -78 -255 -90 -310 -12 -55 -33 -143 -47 -195 -13 -52 -39 -158 -59 -235
-19 -77 -41 -165 -49 -195 -8 -30 -19 -84 -25 -120 -6 -36 -19 -105 -29 -155
-47 -218 -68 -369 -111 -780 -11 -110 -25 -231 -31 -270 -6 -38 -15 -225 -20
-415 -5 -190 -13 -388 -17 -440 -8 -77 -7 -340 2 -790 0 -25 -6 -134 -13 -242
-22 -297 -14 -332 122 -564 75 -126 94 -212 123 -534 8 -96 19 -220 24 -275 5
-55 13 -127 19 -160 26 -154 42 -294 51 -460 6 -99 16 -198 22 -220 26 -102
93 -138 283 -154 113 -10 716 -30 830 -28 94 2 405 -13 458 -22 32 -6 133 -13
225 -16 92 -3 219 -10 282 -15 248 -21 815 -56 960 -59 62 -2 509 -41 644 -56
191 -22 317 -45 701 -124 105 -21 215 -42 245 -46 30 -4 80 -13 110 -20 30 -7
89 -19 130 -25 41 -6 107 -20 145 -30 39 -10 111 -27 160 -38 50 -11 133 -30
185 -42 52 -11 120 -28 151 -36 31 -8 121 -21 200 -29 213 -22 464 -54 549
-71 41 -8 143 -26 225 -39 148 -25 263 -47 419 -79 44 -9 206 -48 360 -86 155
-38 436 -103 626 -145 190 -41 370 -82 400 -90 30 -8 100 -26 155 -39 55 -14
134 -33 175 -44 141 -38 265 -70 405 -107 77 -20 223 -63 325 -95 621 -198
943 -283 1033 -273 67 8 105 46 144 148 136 346 156 389 318 685 77 140 103
192 173 341 103 220 139 266 365 469 70 63 141 137 158 163 32 53 67 151 94
267 43 180 82 304 102 317 18 12 26 9 73 -29 30 -24 94 -76 144 -116 118 -95
207 -148 309 -183 103 -36 170 -38 214 -6 17 12 68 64 114 116 114 129 697
714 784 787 135 113 164 134 227 162 99 44 153 55 288 56 109 1 132 5 180 26
103 45 214 127 346 257 260 255 456 433 692 626 26 21 92 82 147 136 55 53
139 129 187 169 168 141 819 856 1150 1263 181 224 273 345 408 539 33 47 84
119 114 160 31 41 75 102 99 135 24 33 79 110 123 170 81 112 280 425 346 545
39 72 125 264 168 380 16 41 47 120 70 175 74 179 152 427 189 605 6 25 21 90
35 145 13 56 34 168 46 250 12 83 28 195 37 250 24 153 26 248 9 375 -9 63
-20 183 -26 265 -13 189 -27 294 -101 735 -79 465 -111 615 -239 1105 -24 93
-70 245 -140 466 -165 517 -155 489 -441 1240 -26 69 -59 151 -74 183 -15 32
-46 108 -70 169 -69 179 -169 417 -204 486 -18 36 -59 121 -91 190 -81 177
-275 570 -363 736 -41 77 -94 178 -119 225 -61 116 -171 318 -208 380 -16 28
-30 53 -30 55 0 2 -22 42 -49 87 -26 46 -73 130 -103 188 -253 482 -281 531
-397 699 -10 14 -45 67 -76 116 -32 50 -79 117 -105 150 -25 33 -64 87 -87
120 -85 125 -179 244 -280 352 -118 128 -223 251 -223 263 0 4 -20 30 -45 58
-41 46 -109 94 -212 153 -23 13 -102 69 -175 125 -73 55 -164 122 -203 149
-38 27 -115 85 -170 130 -55 45 -170 133 -255 195 -85 62 -201 151 -257 197
-195 160 -389 298 -523 371 -71 39 -185 112 -386 246 -119 79 -217 131 -300
160 -168 57 -289 117 -429 214 -78 54 -95 73 -125 139 -19 42 -54 89 -103 141
-41 43 -78 89 -82 102 -4 14 -22 57 -40 95 -17 39 -51 116 -74 172 -55 130
-83 172 -197 293 -96 102 -124 143 -124 183 0 30 29 98 76 177 20 32 64 139
99 237 35 98 91 255 124 348 34 94 61 180 61 192 0 13 7 40 15 60 24 63 67
276 85 423 6 47 17 114 25 150 23 102 73 414 85 530 6 58 13 112 15 120 2 8
12 110 21 225 22 274 22 583 0 739 -18 128 -55 346 -60 355 -5 8 -51 317 -70
471 -43 337 -105 553 -258 900 -80 181 -93 208 -164 330 -74 129 -116 208
-148 282 -52 120 -289 504 -456 738 -140 197 -373 447 -587 631 -401 344 -465
393 -725 555 -26 16 -116 72 -200 124 -144 90 -327 186 -412 216 -54 20 -110
17 -158 -6 -51 -24 -85 -25 -110 -3 -19 17 -102 26 -163 17z m5460 -17928 c18
-8 38 -23 43 -33 5 -10 12 -70 16 -133 23 -404 85 -647 308 -1215 134 -341
144 -380 153 -628 4 -87 11 -181 16 -210 5 -29 12 -76 15 -104 8 -60 11 -54
-135 -258 -138 -192 -371 -558 -501 -786 -96 -167 -174 -228 -400 -315 -108
-42 -235 -109 -312 -165 -70 -51 -102 -60 -112 -33 -6 15 12 255 34 459 11
111 20 274 25 465 2 80 8 213 15 295 7 97 9 279 5 515 -6 345 -3 421 24 735 6
61 12 238 15 395 3 158 9 301 12 320 10 47 123 322 164 399 39 73 76 114 126
137 19 9 63 46 98 81 37 39 78 70 102 78 53 19 243 20 289 1z"/>
</g>
</svg>
