<?xml version="1.0" encoding="UTF-8"?>
<svg id="Layer_2" data-name="Layer 2" xmlns="http://www.w3.org/2000/svg" viewBox="0 0 109.53 101.99">
  <defs>
    <style>
      .cls-1 {
        fill: #f7eb6f;
      }
    </style>
  </defs>
  <g id="Layer_1-2" data-name="Layer 1">
    <path class="cls-1" d="M28.08,101.91l-1.22.07h-2.83c-.24,0-.72-.09-.84-.3l-.37-1.02-.5-1.55-.38-1.97c-.08-.39-.01-.85.1-1.22l.41-1.3.29-1.34.21-.83c.11-.93.25-1.83.74-2.65.14-.24-.04-.61-.03-.83l.06-1.5c.02-.59.35-1.1.57-1.62l.44-1.07c.18-.45.46-.96.38-1.45-.05-.31-.3-.56-.43-.82l-.57-1.21c-.35-.99-.79-1.87-1.36-2.74-.2-.31-.22-.91-.61-1.04l-.8-.27c-.49-.16-1.03-.18-1.53-.42s-.94-.39-1.47-.56l-1.71-.55-.62-.17-1.01-.38-.99-.31c-.26-.08-.48-.46-.76-.53l-.82-.21c-.43-.11-.8-.15-1.18-.41l-.7-.16c-.44-.1-.81-.25-1.27-.32l-1.03-.34-.88-.16-1.35-.37-.7-.16-.9-.29c-.63-.21-1.15-.57-1.56-1.12l-.98-.26c-.12-.03-.19-.16-.22-.23-.04-.1.04-.26.07-.33.1-.24-.18-.27-.25-.35l-.68-.82c-.13-.16-.22-.36-.49-.38.15-.28.04-.44-.03-.66s-.09-.43-.24-.64l.11-.67c.02-.12-.2-.31-.13-.46.16-.35.09-.74.18-1.09.21-.8.78-1.4,1.19-2.08.12-.2.05-.5.34-.64l.7-.6c.28-.24.62-.26.84-.61.06-.1.35-.14.47-.21l1.09-.65.89-.59c.37-.31.76-.55,1.26-.64.34-.36.75-.61,1.19-.85l.99-.73,1.01-.5,1.12-.69,1.05-.68c.47-.31.8-.67,1.33-.9l.94-.59c.37-.23.68-.44,1.04-.7l.62-.46.92-.73c.25-.2.46-.37.8-.38.21,0,1.57-1.02,1.8-1.65l.37-1.02.16-.63.57-1.71.49-1.16c.16-.37-.29-.58-.44-.82-.24-.4-.26-.88-.42-1.32-.11-.11-.36-.19-.43-.33l-.23-.48c-.07-.15.01-.35-.18-.46-.54-.32-.71-.85-.89-1.41-.09-.28-.3-.54-.45-.8l-.36-.65c-.2-.38-.4-.72-.72-1.02-.17-.72-.55-1.32-1-1.9l-.69-1.35-.38-.4-.52-.96c-.16-.29-.32-.51-.5-.78l-.59-.9-.31-.61c-.22-.44-.56-.73-.68-1.23l-.43-.64c-.05-.26-.15-.41-.28-.6l-.75-1.11c.13-.7-.49-.84-.42-1.16s-.15-.5-.2-.75c-.05-.23.14-.57,0-.79-.37-.56.27-.83-.06-1.29-.1-.14-.11-.43.02-.53.44-.34.29-1.04.58-1.39.32-.39.78-.98.76-1.22-.03-.31.32-.34.48-.46.65-.48,1.3-.77,2.09-.92l.8-.15c.28-.05.53-.19.86-.16l2,.18.88.37c.39.16.92.06,1.32.25.62.3,1.18.62,1.88.7.3.04.57.25.85.32,1.01.26,1.93.66,2.92,1,.3.1.66.05.98.21.69.34,1.41.47,2.15.6,1.13.2,2.14.8,3.2.94l.98.12c.44.06.82.2,1.25.35l.87.14,1.95.41.69.23c.37.02.63.06.93.27.38.27.93.16,1.29-.14,1.15-.96,2.61-1.24,2.84-3.16.05-.43.39-.93.34-1.36l.15-.43c-.12-.29,0-.46.12-.7.13-.26.06-.62.13-.9.2-.86.33-1.69.43-2.56.03-.23.25-.46.34-.66.13-.27.11-.5.2-.77l.3-.91.25-.86c.15-.99.34-1.92.84-2.8-.05-.56.06-1.09.3-1.58.05-.39.17-.72.33-1.08l.11-.51c.25-.44.39-.89.54-1.37.12-.4.28-.74.33-1.17.01-.13.11-.39.19-.49l.52-.74c.36-.67.85-1.23,1.33-1.81l1.52-.83c.59-.22,1.29-.18,1.92-.03l1.61.06c.63.14,1.52.53,1.92.98.71.78,1.2,1.69,1.72,2.59.39.68,1,1.11,1.41,2.43.21.67.83,1.84,1.25,2.46l.53.79.87,1.43c.59.96,1.04,1.92,1.43,2.97l1.23,1.88.76,1.46.43.75c.23.4.34.93.67,1.28.3.32.53.61.75.99l1.56,2.58c.22.37.39.64.8.8.32.13.62.29.99.34l.58.2c.51,0,.91-.27,1.36-.42l1.61-.55,1.71-.78,1.15-.19c.75-.52,1.77-.72,2.15-.98.29-.2.56-.22.84-.36.81-.4,1.52-.96,2.41-1.18.23-.06.47-.04.68-.19.43-.32.93-.44,1.43-.61l1.19-.69c.42-.24.87-.41,1.25-.7.5-.38,1.04-.4,1.65-.43l1.18-.06c.63.09,1.23.11,1.87-.01.74.5,1.15.16,1.68.52s.83.84,1.13,1.4c.23.44.68.77.81,1.3.1.39.26.84.21,1.26l-.22,1.97c-.06.55-.21,1.11-.41,1.61l-.57,1.38-.47,1.34-.23.78-.15.81-.4,1.5c-.18.67-.37,1.28-.39,1.97s-.33,1.34-.48,2l-.36,1.56-.86,2.92-.61,1.97c-.12.38-.23.81-.01,1.16l.59.98.9,1.69c.55,1.03,1.29,1.82,2.26,2.47l.56.38,1.76,1.15c1.04.55,2.13.98,3.25,1.37l1.22.52c.85.49,1.67.84,2.65,1.05.33.07.68.33.96.5l1.01.65c1.37.51,2.53,1.42,3.2,2.77.12.25.22.61.24.91l.07,1.04c-.01,1.28-.46,2.52-1.22,3.54l-.72.79-.84.55c-.29.34-.61.5-.93.74-.67.5-1.26,1.01-2.04,1.37l-1.34.91-.67.51-1.88,1.27c-.57.08-1,.41-1.37.82-.72.51-1.48.96-2.06,1.62l-.59.67c-.38.43-.46.99-.62,1.51l-.69,2.13c-.13.39.2,1.36.49,1.83.46.73.05,1.4,1.46,2.54.58.46,1.05.98,1.54,1.53l.81.91c.44.5.91.92,1.38,1.38l1.15,1.13.89.53c.52.31.78.95,1,1.5l.55.94c.35.59.23,1.27.3,1.92.08.74.1,1.41-.3,2.07l-.72,1.17c-.15.25-.32.41-.63.48l-1.92.4-1.08.16-1.12.15-2.41.21-1.49.08-2.67.17-2.5.16-2.83.15-1.18.08-1.88.09c-.55.02-1.03,0-1.59,0h-.84c-.38-.02-.64-.03-.95-.29-.13-.11-.44-.04-.6.06-1.44.88-2.96,1.5-4.56,2.03l-.73.16-.92.17-.61.16-1.16.37-.88.24-.69.18c-.28.07-.67-.17-.98-.02l-.63.14c-.74.17-1.4.13-2.12.11l-1.79.16-.85.07c-.43.26-.9.39-1.37.21-.59.2-1.15-.04-1.75-.06-.71-.02-1.45.29-2.16.09-.66-.18-1.29-.34-2-.28l-.77-.15-1.26-.05-.85-.13-.76-.07-1.37-.18c-.22-.03-.41.11-.62-.16-.11-.15-.4-.13-.6-.06l-1.03.37c-.47.36-.92.83-1.72.89s-1.09.65-2.41.94l-.53.12-2.22.46-1.42.33-1.84.36-.96.21-2.48.58-2.73.43-2.47.42-2.12.25Z"/>
  </g>
</svg>