<?xml version="1.0" standalone="no"?>
<!DOCTYPE svg PUBLIC "-//W3C//DTD SVG 20010904//EN"
 "http://www.w3.org/TR/2001/REC-SVG-20010904/DTD/svg10.dtd">
<svg version="1.0" xmlns="http://www.w3.org/2000/svg"
 width="3000.000000pt" height="3000.000000pt" viewBox="0 0 3000.000000 3000.000000"
 preserveAspectRatio="xMidYMid meet">
<metadata>
Created by potrace 1.16, written by Peter Selinger 2001-2019
</metadata>
<g transform="translate(0.000000,3000.000000) scale(0.100000,-0.100000)"
fill="#164a92" stroke="none">
<path d="M12992 28782 c-19 -19 -35 -67 -87 -262 -20 -74 -44 -164 -54 -200
-10 -36 -26 -94 -36 -130 -28 -106 -54 -201 -74 -270 -11 -36 -27 -94 -36
-130 -10 -36 -26 -94 -36 -130 -28 -95 -83 -293 -108 -385 -36 -135 -119 -433
-161 -580 -23 -77 -48 -165 -57 -195 -8 -30 -21 -73 -28 -95 -7 -22 -23 -74
-35 -115 -12 -41 -30 -102 -40 -135 -10 -33 -28 -94 -40 -135 -12 -41 -28 -93
-35 -115 -7 -22 -23 -71 -34 -110 -12 -38 -43 -137 -70 -220 -27 -82 -54 -166
-59 -185 -22 -75 -241 -700 -269 -770 -6 -14 -22 -59 -36 -100 -14 -42 -40
-109 -56 -150 -17 -41 -31 -79 -31 -83 0 -5 -7 -23 -15 -40 -18 -40 -44 -113
-54 -152 -4 -16 -15 -43 -23 -60 -9 -16 -27 -64 -41 -105 -36 -103 -56 -154
-122 -310 -31 -74 -60 -146 -65 -160 -4 -14 -20 -52 -35 -85 -15 -33 -40 -96
-56 -140 -15 -44 -39 -102 -52 -130 -14 -27 -47 -106 -75 -175 -86 -214 -113
-274 -126 -290 -8 -8 -42 -80 -76 -159 -34 -80 -91 -205 -127 -279 -35 -74
-75 -161 -89 -194 -14 -33 -35 -77 -48 -97 -12 -20 -55 -99 -93 -176 -97 -191
-161 -313 -220 -420 -44 -80 -90 -162 -195 -355 -17 -30 -54 -91 -83 -135 -29
-44 -94 -154 -145 -245 -51 -91 -105 -181 -121 -201 -16 -20 -29 -40 -29 -44
0 -13 -92 -164 -106 -176 -8 -7 -24 -44 -36 -83 -32 -106 -51 -147 -122 -255
-36 -55 -74 -117 -86 -138 -11 -21 -43 -65 -71 -98 -31 -38 -55 -79 -65 -111
-8 -28 -26 -62 -41 -75 -23 -22 -103 -136 -160 -227 -11 -19 -33 -49 -48 -66
-15 -17 -39 -49 -53 -71 -14 -22 -40 -58 -58 -80 -17 -22 -43 -63 -57 -90 -14
-28 -45 -73 -69 -100 -25 -28 -81 -106 -126 -175 -45 -69 -109 -159 -142 -200
-60 -75 -86 -113 -296 -425 -63 -93 -127 -188 -143 -210 -59 -81 -179 -271
-186 -294 -4 -13 -24 -42 -45 -65 -39 -43 -114 -156 -150 -226 -12 -23 -41
-69 -66 -102 -24 -33 -44 -66 -44 -73 0 -6 -19 -41 -41 -76 -23 -35 -46 -77
-52 -94 -6 -16 -31 -57 -56 -90 -44 -57 -74 -104 -135 -205 -15 -25 -42 -65
-62 -90 -19 -25 -58 -76 -87 -114 -29 -37 -71 -87 -93 -110 -23 -22 -48 -52
-54 -66 -7 -14 -41 -68 -75 -120 -34 -52 -66 -106 -70 -119 -4 -13 -23 -49
-41 -80 -146 -240 -204 -336 -234 -390 -19 -34 -49 -85 -66 -114 -94 -156
-166 -278 -242 -412 -47 -82 -113 -200 -148 -262 -35 -61 -64 -115 -64 -119 0
-4 -6 -15 -14 -23 -12 -15 -30 -46 -146 -266 -23 -44 -45 -84 -50 -90 -4 -5
-48 -89 -98 -185 -50 -96 -102 -195 -116 -220 -14 -25 -30 -54 -35 -65 -5 -11
-34 -67 -66 -125 -64 -117 -130 -242 -262 -500 -50 -96 -101 -193 -113 -215
-13 -22 -58 -107 -100 -190 -42 -82 -93 -179 -112 -215 -20 -36 -62 -117 -95
-180 -33 -63 -86 -162 -118 -220 -86 -157 -113 -207 -160 -295 -24 -44 -110
-195 -192 -335 -82 -140 -164 -281 -181 -313 -17 -32 -50 -84 -72 -117 -22
-32 -44 -69 -50 -82 -5 -13 -42 -76 -82 -140 -40 -65 -113 -183 -163 -263
-102 -164 -411 -639 -456 -700 -17 -22 -51 -71 -76 -110 -26 -38 -88 -126
-138 -195 -50 -69 -124 -174 -164 -235 -41 -60 -95 -137 -121 -170 -26 -33
-79 -107 -119 -165 -39 -58 -87 -125 -107 -150 -129 -164 -251 -336 -269 -377
-7 -17 -28 -44 -45 -60 -33 -29 -115 -129 -273 -334 -48 -63 -108 -139 -132
-169 -25 -30 -77 -95 -115 -145 -39 -49 -102 -128 -141 -175 -39 -47 -114
-139 -166 -205 -53 -66 -112 -140 -132 -164 -20 -24 -54 -67 -76 -96 -43 -55
-103 -126 -200 -235 -65 -73 -135 -157 -242 -289 -37 -47 -93 -113 -123 -147
-132 -147 -143 -165 -136 -210 7 -53 -8 -68 -58 -59 -28 6 -37 4 -42 -10 -15
-37 5 -45 316 -126 231 -60 389 -103 540 -144 74 -20 221 -58 325 -85 105 -27
231 -61 280 -74 251 -68 374 -99 415 -106 25 -5 88 -20 140 -35 106 -30 293
-79 385 -101 33 -8 85 -22 115 -31 30 -9 69 -19 85 -23 17 -5 86 -22 155 -39
69 -18 148 -38 175 -46 28 -8 73 -19 100 -25 28 -6 88 -21 135 -35 86 -24 107
-30 425 -109 99 -25 234 -59 300 -76 120 -31 157 -41 315 -80 47 -12 106 -28
132 -36 26 -8 66 -18 90 -23 67 -14 357 -90 412 -108 28 -9 84 -24 125 -33 42
-10 175 -43 296 -75 121 -31 263 -67 315 -80 52 -13 138 -35 190 -48 52 -14
185 -49 295 -77 110 -28 238 -61 285 -74 140 -40 243 -66 280 -72 19 -4 64
-14 100 -24 36 -10 92 -23 125 -30 33 -6 105 -23 160 -37 55 -13 129 -31 165
-38 36 -7 99 -22 140 -33 218 -57 261 -64 305 -52 47 13 100 6 265 -38 52 -13
120 -30 150 -37 30 -8 138 -34 240 -60 354 -88 991 -245 1100 -270 14 -3 68
-17 120 -31 52 -14 113 -29 135 -33 46 -10 263 -64 345 -87 30 -8 75 -19 100
-24 42 -8 77 -17 220 -55 30 -8 132 -33 225 -55 94 -22 184 -44 200 -49 17 -5
111 -28 210 -51 99 -23 203 -48 230 -56 28 -7 127 -31 220 -54 94 -22 193 -47
220 -54 28 -8 68 -17 90 -21 22 -3 63 -13 90 -21 28 -7 127 -32 220 -54 94
-22 184 -44 200 -50 77 -23 359 -91 500 -120 48 -10 125 -29 210 -52 22 -6 67
-17 100 -24 33 -7 112 -26 175 -42 63 -17 165 -42 225 -56 61 -15 142 -36 180
-47 39 -10 106 -28 150 -38 44 -11 125 -31 180 -45 55 -14 109 -26 121 -26 11
0 40 -6 65 -14 24 -8 89 -24 144 -36 55 -13 132 -31 170 -40 39 -10 115 -28
170 -40 55 -12 152 -35 215 -50 63 -16 183 -45 265 -65 344 -82 402 -98 451
-120 58 -26 182 -61 499 -139 439 -109 541 -134 615 -146 41 -7 88 -16 104
-21 45 -14 99 -10 123 9 12 9 97 112 190 228 92 115 229 286 304 380 74 93
154 194 177 224 66 86 231 299 302 390 284 363 610 790 826 1085 131 180 179
232 217 239 50 9 227 201 227 246 0 6 20 32 44 58 24 26 68 85 99 132 31 47
69 103 85 125 16 22 45 65 64 95 20 30 87 135 149 232 63 98 137 215 164 260
61 101 138 218 182 276 18 24 33 48 33 53 0 11 112 199 145 244 13 17 35 54
50 84 14 29 61 108 104 175 43 66 124 202 181 301 56 99 140 243 185 320 75
127 178 314 260 470 17 33 45 85 62 115 16 30 61 114 98 185 37 72 71 135 75
140 4 6 36 64 70 130 34 66 73 138 85 160 31 56 204 388 375 720 56 110 110
214 120 230 10 17 68 129 130 250 62 121 125 243 140 270 54 98 93 172 163
305 39 74 106 200 150 280 44 80 115 211 158 292 44 81 97 177 119 212 21 36
51 89 66 118 14 29 50 94 79 143 84 146 169 293 225 395 30 52 80 139 112 192
32 53 75 129 94 169 20 41 47 87 61 104 32 39 123 181 123 192 0 5 11 25 26
46 14 21 65 108 114 195 49 86 104 177 123 202 46 60 162 248 207 336 61 117
255 427 371 594 22 30 53 82 70 115 32 60 82 145 158 265 22 36 59 95 81 131
22 37 46 69 54 72 9 4 28 32 45 64 16 32 42 74 57 94 55 69 243 379 306 504
17 33 47 85 68 115 20 30 62 105 94 165 32 61 77 139 101 175 23 36 53 85 66
109 116 213 185 335 230 404 22 33 39 72 39 86 0 14 40 97 89 186 122 221 173
318 415 800 221 438 450 916 523 1090 14 33 40 92 58 130 18 39 65 147 105
240 39 94 87 206 105 250 90 212 208 506 298 745 14 36 40 103 57 150 18 47
44 114 57 150 13 36 30 81 37 100 8 19 23 62 36 95 12 33 28 76 35 95 7 19 39
107 70 195 30 88 64 183 75 210 18 47 251 746 338 1015 22 69 57 181 77 250
19 69 42 143 49 165 8 22 26 81 41 130 14 50 30 101 35 115 5 14 27 86 50 160
23 74 57 185 76 245 58 188 72 235 129 425 73 245 81 272 105 360 12 41 27 93
35 115 7 22 23 76 35 120 12 44 30 109 40 145 39 138 92 328 111 400 11 41 26
98 34 125 8 28 24 84 35 125 11 41 27 98 35 125 8 28 26 93 41 145 14 52 39
140 55 195 40 136 67 230 84 290 8 28 22 76 31 108 10 34 13 62 8 67 -5 5 -90
25 -189 45 -99 20 -202 43 -230 50 -27 8 -115 29 -195 46 -198 43 -209 46
-260 62 -25 8 -76 22 -115 30 -38 9 -108 25 -155 36 -47 11 -130 29 -185 41
-55 12 -120 28 -144 36 -25 8 -56 14 -71 14 -15 0 -46 6 -71 14 -42 13 -96 26
-319 76 -136 30 -257 59 -315 75 -27 7 -70 16 -95 20 -25 4 -61 11 -80 16 -19
5 -84 20 -145 34 -60 14 -137 32 -170 40 -33 8 -103 24 -155 35 -52 12 -120
27 -150 35 -49 12 -139 32 -315 70 -33 8 -100 23 -150 34 -49 11 -133 29 -185
41 -52 11 -117 27 -145 34 -27 8 -68 17 -90 21 -22 3 -62 13 -90 20 -51 15
-159 39 -300 70 -73 15 -147 32 -310 70 -33 8 -103 24 -155 35 -52 11 -115 26
-140 32 -25 5 -74 16 -110 24 -75 15 -165 35 -265 59 -346 82 -435 103 -610
141 -38 8 -95 22 -125 30 -30 7 -98 23 -150 34 -132 28 -240 53 -510 116 -63
14 -153 34 -200 44 -47 10 -128 28 -180 40 -203 46 -277 62 -320 70 -25 5 -90
20 -145 35 -55 14 -131 32 -170 39 -38 7 -90 18 -115 24 -65 16 -179 43 -220
52 -19 4 -134 30 -255 59 -215 50 -278 64 -420 96 -38 9 -106 24 -150 34 -44
11 -123 29 -175 41 -52 12 -117 27 -145 35 -27 7 -95 23 -150 35 -55 12 -136
30 -180 40 -44 10 -125 28 -180 40 -108 23 -170 37 -310 70 -49 12 -117 28
-150 35 -33 8 -98 23 -145 34 -47 10 -121 27 -165 36 -44 8 -116 24 -160 35
-91 22 -230 53 -355 80 -99 21 -202 45 -280 65 -30 8 -73 17 -95 20 -22 4 -62
12 -90 20 -27 8 -95 24 -150 35 -55 12 -113 26 -130 32 -16 5 -64 15 -105 23
-41 8 -104 21 -140 30 -36 9 -103 24 -150 35 -47 10 -125 28 -175 39 -49 12
-128 30 -175 41 -47 10 -116 26 -155 35 -38 9 -108 25 -155 35 -47 11 -128 29
-180 40 -117 26 -155 34 -250 54 -41 9 -100 22 -130 30 -88 23 -309 75 -385
90 -38 8 -110 24 -160 35 -179 42 -362 83 -468 106 -38 8 -83 19 -100 24 -18
5 -75 18 -127 30 -107 23 -256 56 -345 76 -57 13 -155 35 -310 69 -38 9 -108
24 -155 35 -47 10 -121 27 -165 36 -44 10 -114 25 -155 35 -41 10 -120 28
-175 40 -55 12 -122 28 -150 35 -27 7 -99 22 -160 35 -60 12 -133 28 -161 36
-65 18 -70 18 -92 -4z"/>
</g>
</svg>
