<?xml version="1.0" standalone="no"?>
<!DOCTYPE svg PUBLIC "-//W3C//DTD SVG 20010904//EN"
 "http://www.w3.org/TR/2001/REC-SVG-20010904/DTD/svg10.dtd">
<svg version="1.0" xmlns="http://www.w3.org/2000/svg"
 width="3000.000000pt" height="3000.000000pt" viewBox="0 0 3000.000000 3000.000000"
 preserveAspectRatio="xMidYMid meet">
<metadata>
Created by potrace 1.16, written by Peter Selinger 2001-2019
</metadata>
<g transform="translate(0.000000,3000.000000) scale(0.100000,-0.100000)"
fill="#db2329" stroke="none">
<path d="M18632 29219 c-32 -10 -38 -17 -71 -101 -13 -34 -37 -36 -68 -6 -22
20 -26 21 -56 9 -18 -8 -54 -21 -82 -30 -65 -20 -179 -132 -217 -211 -14 -30
-36 -76 -48 -103 -15 -32 -42 -63 -84 -96 -33 -27 -73 -62 -88 -78 -35 -37
-144 -253 -165 -326 -22 -79 -135 -270 -267 -452 -60 -82 -132 -181 -160 -220
-27 -38 -86 -119 -131 -180 -222 -299 -478 -701 -700 -1095 -54 -96 -125 -220
-157 -275 -88 -151 -120 -218 -265 -560 -62 -146 -117 -278 -143 -345 -82
-213 -130 -346 -165 -465 -24 -77 -74 -237 -113 -355 -82 -250 -102 -319 -132
-455 -13 -55 -33 -138 -46 -185 -38 -142 -62 -250 -78 -345 -8 -49 -23 -124
-35 -165 -11 -41 -24 -97 -29 -125 -6 -27 -23 -113 -40 -190 -17 -77 -44 -205
-62 -285 -17 -80 -39 -179 -50 -220 -10 -41 -28 -124 -40 -185 -64 -317 -163
-640 -257 -832 -46 -95 -62 -103 -167 -92 -43 5 -108 17 -145 25 -42 11 -116
18 -206 19 -111 1 -153 6 -200 22 -122 41 -450 57 -525 25 -14 -5 -56 -20 -95
-32 -73 -23 -247 -111 -326 -165 -143 -97 -338 -288 -426 -415 -166 -244 -337
-708 -359 -981 -3 -41 -12 -106 -20 -144 -13 -60 -13 -110 -4 -335 16 -382 24
-489 42 -545 21 -67 54 -188 68 -253 10 -45 10 -56 -4 -77 -30 -46 -78 -59
-226 -60 -86 0 -162 -7 -210 -17 -45 -10 -115 -17 -175 -16 -82 1 -108 -3
-140 -19 -22 -11 -71 -30 -110 -43 -124 -41 -148 -51 -260 -106 -209 -103
-243 -125 -395 -245 -124 -99 -175 -165 -226 -290 -22 -53 -27 -86 -31 -192
-4 -79 -1 -156 7 -203 l12 -76 -59 -56 c-33 -32 -70 -79 -83 -106 -27 -56 -50
-69 -160 -85 -117 -18 -344 -77 -470 -122 -63 -22 -129 -45 -146 -50 -16 -5
-58 -22 -92 -39 -34 -16 -67 -30 -72 -30 -5 0 -36 -16 -69 -35 -32 -19 -62
-35 -65 -35 -20 0 -197 -128 -290 -209 -170 -149 -226 -250 -226 -411 0 -92
17 -154 71 -263 47 -95 87 -148 217 -286 97 -103 122 -135 117 -151 -7 -22
-113 -120 -130 -120 -20 0 -395 -190 -453 -230 -33 -22 -67 -51 -76 -65 -36
-54 -10 -145 66 -230 64 -72 78 -96 78 -130 0 -52 -60 -92 -170 -114 -58 -12
-232 -59 -385 -103 -170 -50 -322 -127 -511 -260 -103 -73 -113 -81 -158 -138
-65 -82 -112 -175 -135 -264 -37 -142 -26 -228 50 -386 44 -91 63 -117 143
-198 71 -73 107 -102 166 -131 110 -55 180 -102 180 -121 0 -18 -25 -43 -53
-53 -9 -4 -48 -26 -85 -50 -37 -24 -87 -54 -112 -67 -24 -12 -62 -36 -85 -52
-22 -16 -80 -54 -128 -84 -142 -87 -208 -152 -250 -242 -19 -42 -41 -107 -48
-144 -12 -63 -11 -71 9 -115 11 -27 26 -66 33 -88 6 -22 18 -53 27 -70 20 -39
167 -191 212 -217 19 -12 59 -37 87 -56 50 -32 72 -40 227 -82 76 -21 110 -47
126 -96 9 -27 8 -39 -9 -71 -24 -45 -122 -143 -206 -203 -33 -24 -85 -64 -115
-89 -30 -26 -73 -59 -95 -74 -48 -32 -264 -240 -330 -317 -26 -30 -58 -77 -72
-105 -14 -27 -40 -70 -57 -95 -30 -41 -129 -245 -161 -329 -8 -20 -21 -72 -30
-116 -55 -259 -58 -335 -20 -451 15 -45 25 -100 25 -133 0 -61 10 -92 99 -290
75 -168 207 -385 276 -451 20 -19 46 -51 57 -70 12 -19 40 -55 64 -80 37 -39
47 -60 78 -166 20 -66 36 -136 36 -155 0 -19 7 -63 15 -99 44 -194 65 -310 90
-495 8 -60 21 -136 29 -168 8 -32 12 -67 9 -77 -3 -11 2 -38 10 -62 9 -24 19
-79 22 -123 4 -44 15 -125 26 -180 10 -55 23 -140 28 -190 11 -104 41 -226 69
-282 28 -56 49 -130 56 -196 4 -32 12 -71 20 -85 7 -15 17 -54 21 -87 4 -33
13 -75 21 -95 13 -34 50 -201 80 -365 26 -140 84 -428 99 -490 8 -33 21 -100
30 -150 8 -49 28 -157 45 -240 16 -82 30 -170 30 -195 0 -25 7 -67 15 -94 8
-26 18 -85 21 -130 3 -44 12 -103 20 -131 7 -27 18 -79 23 -115 32 -215 57
-347 150 -806 64 -316 91 -434 152 -659 11 -38 26 -119 35 -179 20 -137 73
-316 127 -426 88 -180 167 -276 352 -429 50 -41 258 -151 286 -151 8 0 53 -18
100 -41 46 -22 118 -50 159 -60 41 -11 109 -30 150 -44 41 -13 109 -32 150
-41 166 -36 199 -43 290 -64 52 -12 129 -28 170 -36 41 -8 113 -25 160 -38
130 -36 234 -57 425 -85 39 -6 115 -18 170 -27 150 -25 301 -45 540 -74 50 -6
153 -20 230 -30 133 -18 399 -47 640 -70 61 -5 214 -14 340 -20 127 -5 250
-12 275 -15 143 -17 963 -51 1510 -63 621 -13 1822 18 2280 58 69 6 195 16
280 21 85 5 198 13 250 19 52 6 142 14 200 20 112 10 237 23 390 40 52 6 136
15 185 20 83 8 144 16 310 40 69 10 263 43 380 65 44 9 145 26 225 40 225 38
422 82 725 160 167 43 450 128 555 167 30 11 89 33 130 48 41 15 130 55 198
89 99 50 136 74 190 129 76 75 102 121 102 179 0 22 25 114 55 204 30 90 70
220 89 289 40 144 109 381 125 425 14 40 76 300 95 400 55 288 77 406 82 450
3 28 10 64 15 80 4 17 15 73 23 125 18 110 39 219 90 455 35 163 50 238 76
390 13 76 101 527 124 640 8 39 25 120 36 180 38 192 151 694 188 835 11 41
50 190 86 330 59 227 109 416 150 565 8 28 24 86 36 130 12 44 32 116 45 160
13 44 43 145 66 225 40 142 126 430 155 520 61 194 116 380 133 458 24 107 37
135 97 209 24 29 52 70 63 91 19 38 57 171 86 297 13 58 22 76 54 105 33 30
40 44 50 101 6 36 11 73 11 81 0 8 9 44 21 79 16 49 19 80 16 129 -6 76 -59
281 -92 360 -51 119 -259 517 -290 555 -96 116 -266 275 -353 332 -124 81
-262 206 -262 238 0 13 13 43 29 67 135 204 187 289 240 393 33 66 74 144 90
173 18 31 32 75 36 110 4 31 19 100 32 152 20 75 26 120 26 215 1 137 -7 162
-94 298 -28 43 -53 93 -55 110 -4 19 4 63 20 112 29 93 63 292 76 450 7 85 6
130 -5 200 -9 50 -20 119 -26 155 -6 36 -21 92 -34 125 -67 172 -93 243 -99
267 -3 15 -30 62 -59 105 -29 43 -68 105 -87 137 -46 81 -119 176 -209 271
-42 44 -94 101 -116 125 -91 102 -245 226 -417 335 -91 57 -266 163 -318 192
-25 14 -75 43 -112 65 -64 37 -210 108 -221 108 -3 0 -38 15 -79 34 -40 18
-111 48 -158 66 -47 19 -92 39 -100 47 -11 10 -15 40 -16 116 -1 56 -9 131
-18 167 -9 36 -16 89 -16 118 0 145 -142 539 -262 727 -143 226 -178 268 -421
513 -350 352 -567 491 -1307 836 -135 62 -263 119 -285 126 -22 7 -44 16 -50
20 -5 4 -57 22 -115 40 -58 18 -145 48 -195 66 -98 37 -149 51 -298 83 -112
24 -153 42 -162 71 -3 11 7 80 24 154 41 184 69 376 81 564 23 360 10 518 -75
894 -77 343 -321 765 -530 917 -113 82 -273 166 -385 202 -71 23 -88 24 -315
23 -476 -2 -521 -3 -595 -15 -41 -7 -102 -12 -135 -13 l-60 -1 -20 40 c-17 34
-20 65 -24 220 -3 190 19 544 44 670 7 39 18 115 24 170 6 55 16 125 21 155
13 77 38 245 45 305 4 28 15 91 25 140 10 50 28 137 40 195 44 216 145 652
179 775 15 55 36 134 46 175 18 79 36 139 89 310 19 58 50 159 71 225 61 200
104 326 135 400 16 39 45 113 65 165 21 52 43 109 50 125 8 17 41 95 76 175
181 421 470 927 783 1369 140 197 164 228 338 448 229 288 542 598 673 666 17
8 53 18 80 22 66 10 99 27 166 89 31 28 75 66 99 85 26 21 52 54 66 86 16 35
38 61 69 83 25 18 48 32 52 32 3 0 30 23 59 50 43 40 60 50 88 50 19 0 42 3
51 6 29 11 105 180 105 233 1 25 9 64 20 86 24 49 24 71 4 110 -34 64 -8 133
82 219 46 45 56 72 27 78 -10 2 -62 -1 -116 -5 l-99 -8 -82 40 c-90 44 -135
54 -184 40z"/>
</g>
</svg>
