<?xml version="1.0" encoding="UTF-8"?>
<svg id="Layer_2" data-name="Layer 2" xmlns="http://www.w3.org/2000/svg" viewBox="0 0 130.35 50.19">
  <defs>
    <style>
      .cls-1 {
        fill: #db1f26;
      }
    </style>
  </defs>
  <g id="Layer_1-2" data-name="Layer 1">
    <g>
      <g>
        <path class="cls-1" d="M90.42,42.37c1.37-.72,1.32-1.41,1.29-1.78-.02-.26-.37-.17-.59-.11-.12.04-.34.1-.64.21-.79.27-1.56.55-2.27.83l1.1-1.81c1.86-.73,8.52-3.08,10.43-3.86.5-.2.57-.51.56-.68-.02-.26-.34-.55-.64-.74-.23-.13-.37-.13-.51-.11-.64.09-6.61,2.04-7.83,2.46-4.78,1.66-8.23,3.61-8.23,3.61-.16.11-.19.19-.19.23,0,.04.06.56.16.88.08.27.25.24.52.19.22-.05.72-.18,1.38-.41.73-.25,1.42-.49,2.08-.73l-1.14,1.88c-1.37.57-2.25.98-2.25.98-.39.21-.91.87-.87,1.33.05.29.29.27.66.14.32-.11.73-.24,1.22-.41l-2.9,4.79c-.1.13-.12.25-.11.35.03.33.32.46.83.55.13.03.24.02.31,0,.15-.05.24-.18.37-.33.09-.1,2-3.27,3.71-6.11l.92-.32c1.31-.45,2.48-.96,2.63-1.04Z"/>
        <path class="cls-1" d="M98.88,41.5s-.4.35-.46.4c-.4.34-2.33,2.05-2.73,2.23-.08.03-.09.03-.09.02,0-.01.01-.05.04-.08.05-.12.16-.35.33-.57.17-.23.78-1.01,1.15-1.36.15-.15.2-.31.18-.45-.02-.19-.14-.38-.29-.47-.12-.09-.32-.05-.52.02-.2.07-.36.15-.41.17-.06.02-.08,0-.08-.03,0-.03.01-.06.01-.06,0,0,.21-.3.44-.61.06-.09.08-.14.08-.2-.01-.14-.2-.17-.23-.19-.05-.03-.14-.19-.39-.11-.05.02-.09.05-.15.08-.37.24-1.64,1.35-2.01,1.77-.27.32-.32.56-.31.7,0,.1.06.16.07.25,0,.09-.87.88-1.72,1.63.48-.85.77-1.65.73-2.18-.04-.47-.81-.55-.81-.55-.09.03-.17.07-.26.15-.27.22-.55.59-.61.66-.05-.03-.36-.02-.5.03-1.51.52-3.52,3.68-3.38,5.51.02.3.94.17,1.14.1.85-.29,1.81-1.15,2.61-2.14.04.18.07.33.07.33.05.04.1.05.17.02.06-.02.12-.07.19-.12.77-.85,3.04-2.89,3.47-3.38.06-.06.22-.15.36-.2.06-.02.11-.02.14-.03.06,0,.11.02.1.04-.63.93-1.76,2.11-1.71,2.84.01.15.09.3.19.4.15.16.42.15.63.08.52-.21,1.66-1.03,2.16-1.43.49-.4,2.16-2.04,2.35-2.23.09-.07.45-.43.45-.51,0-.06-.04-.13-.11-.22-.12-.17-.11-.4-.32-.33ZM88.8,46.78c-.12.04-.15.04-.16.01-.06-.76,2.23-3.71,2.39-3.75.06-.02.06.02.07.08.05.66-1.54,3.3-2.3,3.66Z"/>
        <path class="cls-1" d="M108.5,37.49s.6-.31,2.74-1.83c2.11-1.51,3.21-3.12,3.14-4.03-.06-.79-1.34-1.41-1.98-1.64-.44-.15-1.27-.01-2.39.37-2.54.88-6.4,3.62-7.44,4.97-.09.11-.17.43-.15.72.03.33.31.8.71.66.14-.05.29-.14.51-.33.37-.33,1.64-1.35,3.37-2.4-1.69,2.4-4.92,7.7-5.14,8.28-.05.13-.08.24-.07.34.02.29.71.79,1.1.65.21-.07.38-.3.47-.46.12-.24,2.62-4.14,2.82-4.5.71.82,2.35,4.13,3.52,3.73.14-.05.32-.14.51-.25.71-.37.8-.64.78-.89-.05-.65-2.23-3.2-2.5-3.39ZM107.03,36.75c.26-.32,1.74-2.87,2.13-3.47.08-.13.12-.24.12-.32,0-.07-.04-.13-.11-.18.71-.35,1.44-.65,2.19-.91,1.57-.54,1.61-.1,1.61-.1.04,1.23-4.37,4.54-5.73,5.01-.17.06-.21-.03-.21-.03Z"/>
        <path class="cls-1" d="M128.06,32.09c0-.06-.04-.13-.11-.22-.12-.17-.11-.4-.32-.33-.05.02-.4.35-.46.4l-2.42,2.1s-1.16,1.01-1.41,1.1c-.06.02-.08.01-.08-.01-.02-.19.04-.47.17-.8,1.55-1.22,7.06-6.82,6.91-8.72-.1-.32-.46-.48-.78-.47-.46.16-1.37.73-2.51,1.85-1.74,1.7-3.83,4.43-4.86,6.68l-1.38,1.2c-.1.09-1.01.92-1.06.93.03-.15.93-1.79.98-1.9.01-.05.03-.08.02-.12,0-.07-.04-.13-.09-.13-.06,0-.15-.05-.15-.09,0-.1.81-.62.79-.91-.02-.21-.23-.53-.62-.52-.06,0-.14.02-.23.05-.89.31-2.85,1.79-4,3.39-.06.06-.12.11-.13.12l-2.13,1.84s-1.21,1.04-1.91,1.28c-.18.06-.2.05-.2.01-.01-.18,2.35-2.07,2.5-2.13.2-.07.21-.14.2-.28-.02-.21-.14-.55-.37-.48-.24.11-.64.26-.98.38-.31.11-.35.12-.35.09,0-.04.1-.16.2-.24.12-.11,1.41-.97,1.46-.99.14-.02.09.18.26.12,0,0,1.69-.88,1.64-1.52-.03-.44-.73-.44-1.15-.3-.43.15-1.4.6-2.54,1.59-1.29,1.11-1.5,1.52-1.47,1.9.05.59.27.57.79.48.09-.03.12-.01.13.01-.03.07-.19.19-.28.27-.19.18-1.47,1.22-1.42,1.91.06.76.88.8,1.83.47.52-.18,1.56-1.18,2.32-1.86,0,0,.35-.34.75-.74-.01.13-.02.25,0,.37.02.28.47.59.75.49.32-.11,1.13-.75,1.57-1.17.03-.01.05.01.05.04,0,.03,0,.07-.02.12-.01.05-.02.15-.01.25.02.19.24.41.62.28.55-.19,1.94-1.45,2.16-1.67,0,0,.45-.45.92-.91-.06.3-.08.59-.06.84.02.22.23.78.88.56,1.09-.38,2.91-1.91,3.26-2.26l1.91-1.86c.09-.07.45-.43.45-.51ZM128.75,26.87s.09-.06.1-.06c.03-.01.05,0,.05.03,0,.04-.02.09-.07.16-.83,1.46-2.45,3.54-3.74,4.68l-.33.21c1.29-1.99,3.06-4.22,3.98-5.02ZM117.44,36.59s-.05,0-.05-.03c-.04-.51,1.55-2.26,2.09-2.52.05-.02.09,0,.1.04.01.17-1.61,2.29-2.14,2.51Z"/>
        <path class="cls-1" d="M128.34,32.83c-.35.12-1.31,1.09-1.27,1.67,0,.12.53.18.69.13.58-.2,1.33-1.23,1.3-1.67,0-.12-.6-.18-.72-.13Z"/>
      </g>
      <g id="Layer_1-3" data-name="Layer 1">
        <g id="stand">
          <path class="cls-1" d="M21.8,6.42l-.28,6.7c-.02.47-.51.76-.94.56-1.21-.55-2.98-.9-4.94-.9h-.07c-.82,0-.89,1.2-.08,1.3,4.76.58,7.11,2.72,7.11,6.52,0,5.83-3.23,7.82-12.48,7.82-2.7,0-5.82-.26-9.41-.8-.33-.05-.57-.34-.56-.67l.29-7.07c.02-.46.5-.76.92-.57,1.43.64,3.55,1.04,5.77,1.04.24,0,.46,0,.67-.01.82-.03.85-1.23.04-1.3-5.26-.46-7.85-2.51-7.85-6.26,0-5.83,3.23-7.82,12.48-7.82,2.84,0,5.78.25,8.78.79.32.06.55.34.54.67h0Z"/>
          <path class="cls-1" d="M34.02,5.25l3.05-.33c.36-.04.68.22.72.58l.79,7.25c.04.36-.22.68-.58.72l-3.05.33c-.36.04-.62.36-.58.72l.17,1.54c.11,1.02.58,1.37,1.92,1.22.57-.06,1.14-.19,1.74-.42.4-.15.84.11.89.54l.96,8.84c.03.3-.15.59-.44.69-1.88.65-3.12.94-5.01,1.14-7.7.84-10.84-1.36-11.56-8l-1.91-17.43c-.04-.36.22-.68.58-.72l10.51-1.14c.36-.04.68.22.72.58l.37,3.32c.04.36.36.62.72.58h0Z"/>
          <path class="cls-1" d="M64.51,16.02v6.82c0,1.77.07,2.95.24,4.13.06.39-.25.74-.65.74h-9.92c-.3,0-.57-.21-.64-.5l-.34-1.49h-.07c-1.42,1.78-3.77,2.7-6.86,2.7-4.59,0-6.82-2.03-6.82-6.18s2.38-6.33,7.29-6.33c2.24,0,4.41.43,5.79,1.14h.07v-.07c0-1.81-1.6-2.63-5.15-2.63-2.36,0-4.63.37-6.18,1-.42.17-.88-.13-.89-.58l-.3-8.35c-.01-.33.22-.61.54-.67,2.93-.51,6.34-.79,9.68-.79,10.59,0,14.22,2.81,14.22,11.05h0ZM50.22,21.67c0,1.39.36,1.81,1.35,1.81.2,0,.37-.01.53-.05.29-.07.5-.33.5-.64v-2.25c0-.3-.21-.57-.5-.64-.16-.04-.33-.05-.53-.05-1,0-1.35.43-1.35,1.81Z"/>
          <path class="cls-1" d="M91.72,13.85v13.21c0,.36-.29.65-.65.65h-10.57c-.36,0-.65-.29-.65-.65v-11.4c0-1.42-.32-1.92-1.24-1.92-.23,0-.46.04-.67.11-.26.09-.43.34-.43.62v12.59c0,.36-.29.65-.65.65h-10.57c-.36,0-.65-.29-.65-.65V6.32c0-.36.29-.65.65-.65h10.09c.34,0,.62.26.65.6l.2,2.32h.07c1.56-2.52,3.8-3.63,7.29-3.63,5.19,0,7.14,2.45,7.14,8.89h0Z"/>
          <path class="cls-1" d="M119.42,22.84c0,1.77.07,2.95.24,4.13.06.39-.25.74-.65.74h-10.33c-.34,0-.62-.26-.65-.6l-.2-2.32h-.07c-1.46,2.45-3.7,3.63-6.75,3.63-5.62,0-8.42-3.95-8.42-11.55s3.09-11.91,9.35-11.91c2.31,0,4.12.53,5.54,1.64h.07V.65c0-.36.29-.65.65-.65h10.57c.36,0,.65.29.65.65v22.19h0ZM104.99,16.69c0,2.17.39,2.95,1.49,2.95.23,0,.43-.03.62-.09.27-.09.45-.34.45-.62v-4.48c0-.28-.18-.53-.45-.62-.19-.06-.39-.09-.62-.09-1.1,0-1.49.78-1.49,2.95h0Z"/>
        </g>
      </g>
    </g>
  </g>
</svg>