<?xml version="1.0" encoding="UTF-8"?>
<svg id="Layer_2" data-name="Layer 2" xmlns="http://www.w3.org/2000/svg" viewBox="0 0 64.09 111.85">
  <defs>
    <style>
      .cls-1 {
        fill: #db2329;
      }
    </style>
  </defs>
  <g id="Layer_1-2" data-name="Layer 1">
    <path class="cls-1" d="M11.22,109.56l-.98-.37c-1.88-.71-2.78-1.79-3.21-3.77l-.31-1.44-1.1-5.42-.17-1.1-.15-.95-.31-1.65-.43-2.22-.44-1.94-.17-.82c-.28-.72-.43-1.38-.54-2.15l-.16-1.18-.16-.84-.46-2.68c-.08-.44-.08-1.05-.4-1.4-.77-.87-1.37-1.77-1.81-2.84-.16-.4-.23-.76-.31-1.19-.07-.4-.16-.74-.08-1.16.14-.73.29-1.43.69-2.07l.69-1.11,1.18-1.18.71-.55.89-.76c.16-.14.28-.28.22-.53-.04-.16-.17-.32-.4-.36-1.12-.19-2.19-1-2.41-2.14-.08-.42.11-.95.4-1.27.35-.39.8-.62,1.24-.89l1.37-.85c-.21-.32-.52-.37-.8-.54-.76-.47-1.39-1.3-1.42-2.23-.02-.83.47-1.61,1.11-2.06s1.23-.84,1.95-1.04l2.04-.56c.14-.04.26-.16.28-.25.12-.37-.5-.62-.61-1.21-.05-.27.15-.45.36-.56l1.77-.9c.23-.12.44-.31.56-.57-.49-.48-.97-.93-1.29-1.47-.62-1.05-.36-2.12.56-2.84s1.83-1.24,2.93-1.54l1.55-.42c.23-.06.62-.02.77-.24.19-.26.32-.54.64-.73l-.09-.77c-.09-.81.2-1.57.82-2.09.86-.72,1.82-1.26,2.9-1.57.37-.23.8-.3,1.22-.17.81-.36,1.89.02,2.03-.42.14-.46-.26-.97-.31-1.96l-.09-1.56c-.03-.56,0-1.03.08-1.59l.13-.89c.28-1.08.59-2.11,1.22-3.05.79-1.17,1.95-2.08,3.3-2.49.87-.26,1.75-.02,2.6.13.3.05.61-.07.93.03.41.13.82.18,1.27.14.48-.87.79-1.78,1-2.76l1.22-5.54.75-3.02.84-2.62c1-3.11,3.06-6.97,4.97-9.62l1.56-2.14c.42-.58.79-1.15,1.09-1.81l.31-.7c.18-.4.36-.75.76-.98.43-.24.41-1.47,1.79-1.72.06.08.15.14.2.15.19.01.13-.37.38-.49.13-.06.28-.07.44,0l.73.31c.24.1.61-.19.88.02-.21.23-.63.53-.59.84.05.35.1.52-.02.87-.11.31-.12.87-.49,1.05-.2.1-.44.05-.58.32l-.49.33c-.14.39-.43.57-.69.82-.3.29-.54.37-.94.51-.57.19-1.02.67-1.45,1.13-3.35,3.6-5.8,7.92-7.2,12.66-1.04,3.51-1.94,7.58-2.12,11.22-.02.47-.03.98.18,1.38.18.12.5-.02.69-.03l1.32-.04,1.1-.07c.83-.05,1.55.16,2.24.59.36.22.68.44.97.76.82.93,1.34,2.02,1.64,3.23.26,1.08.39,2.14.3,3.24-.08.98-.19,1.91-.45,2.87-.05.17.11.32.27.37l1.84.5c.8.22,1.51.53,2.25.9l2.51,1.25c1.04.52,1.84,1.24,2.67,2.06,1.35,1.33,2.37,2.97,2.63,4.89l.15,1.08c.02.11-.11.41.04.47,1.38.51,2.65,1.19,3.89,1.99.51.33.95.63,1.38,1.07l.39.39c.82.83,1.47,1.75,1.89,2.84.3.8.61,1.82.47,2.62-.12.68-.18,1.36-.43,2.01l.55.97c.24.41.08.98-.02,1.46l-.18.85-.75,1.44-.79,1.27c.63.84,1.48.99,2.08,1.86l.46.48,1.1,2.19.28,1.06c.1.37-.02.74-.13,1.1.02.35-.07.63-.38.81-.15.51-.15,1.19-.51,1.59s-.43.74-.57,1.26l-2.51,8.86-1.26,5.81-.6,3.09-.66,3.52-.45,1.9-.84,2.78-.23.96c-.27,1.1-3.38,1.85-4.73,2.24l-3.24.68-4.19.6-2.86.27-1.03.07-1.17.08-1.49.08-2.63.05h-3.77s-3.06-.07-3.06-.07l-1.3-.06-1.25-.08-1.43-.06c-3.06-.22-6.07-.59-9.07-1.18l-1.67-.39-1.82-.44Z"/>
  </g>
</svg>