<svg width="1506" height="529" viewBox="0 0 1506 529" fill="none" xmlns="http://www.w3.org/2000/svg">
<path d="M202.782 206.978L201.785 230.419C201.715 232.059 200.003 233.082 198.511 232.395C194.28 230.455 188.087 229.251 181.214 229.251C181.134 229.251 181.056 229.251 180.978 229.251C178.124 229.258 177.875 233.452 180.709 233.797C197.379 235.82 205.603 243.306 205.603 256.629C205.603 277.037 194.278 284.005 161.923 284.005C152.473 284.005 141.562 283.109 128.983 281.207C127.83 281.034 126.991 280.018 127.037 278.853L128.048 254.101C128.112 252.484 129.791 251.451 131.268 252.117C136.259 254.368 143.702 255.759 151.47 255.759C152.305 255.759 153.09 255.748 153.825 255.722C156.68 255.629 156.794 251.42 153.95 251.171C135.539 249.549 126.457 242.379 126.457 229.251C126.457 208.843 137.783 201.872 170.137 201.872C180.09 201.872 190.377 202.753 200.886 204.621C202.018 204.823 202.829 205.828 202.782 206.975V206.978Z" fill="#DB1F26"/>
<path d="M245.584 202.9L256.268 201.737C257.521 201.6 258.648 202.507 258.785 203.76L261.552 229.16C261.689 230.414 260.783 231.54 259.529 231.678L248.851 232.841C247.597 232.978 246.691 234.105 246.828 235.359L247.416 240.76C247.807 244.348 249.439 245.547 254.141 245.034C256.122 244.819 258.138 244.355 260.221 243.558C261.625 243.019 263.161 243.938 263.321 245.433L266.692 276.392C266.808 277.451 266.171 278.451 265.163 278.801C258.576 281.073 254.226 282.078 247.61 282.798C220.641 285.735 209.663 278.042 207.132 254.785L200.456 193.751C200.319 192.497 201.225 191.37 202.479 191.233L239.264 187.228C240.515 187.091 241.642 187.995 241.779 189.246L243.069 200.885C243.209 202.136 244.333 203.04 245.584 202.903V202.9Z" fill="#DB1F26"/>
<path d="M352.307 240.579V264.473C352.307 270.654 352.564 274.788 353.144 278.922C353.338 280.295 352.271 281.521 350.885 281.521H316.163C315.101 281.521 314.179 280.788 313.938 279.754L312.73 274.552H312.482C307.503 280.775 299.291 284.01 288.466 284.01C272.413 284.01 264.571 276.917 264.571 262.356C264.571 247.796 272.91 240.206 290.082 240.206C297.921 240.206 305.513 241.698 310.368 244.187H310.617V243.938C310.617 237.592 305.019 234.729 292.572 234.729C284.3 234.729 276.373 236.017 270.931 238.237C269.47 238.833 267.864 237.776 267.807 236.198L266.758 206.967C266.716 205.825 267.522 204.828 268.649 204.633C278.922 202.861 290.833 201.875 302.527 201.875C339.612 201.875 352.305 211.705 352.305 240.579H352.307ZM302.281 260.364C302.281 265.216 303.527 266.711 307.008 266.711C307.697 266.711 308.306 266.659 308.858 266.527C309.889 266.286 310.617 265.359 310.617 264.299V256.427C310.617 255.367 309.889 254.44 308.858 254.199C308.303 254.07 307.695 254.018 307.008 254.018C303.524 254.018 302.281 255.51 302.281 260.364Z" fill="#DB1F26"/>
<path d="M447.568 232.986V279.236C447.568 280.497 446.545 281.518 445.286 281.518H408.289C407.028 281.518 406.007 280.495 406.007 279.236V239.333C406.007 234.354 404.885 232.613 401.652 232.613C400.855 232.613 400.054 232.74 399.306 232.994C398.391 233.305 397.795 234.19 397.795 235.157V279.236C397.795 280.497 396.772 281.518 395.513 281.518H358.514C357.252 281.518 356.231 280.495 356.231 279.236V206.646C356.231 205.385 357.255 204.364 358.514 204.364H393.832C395.018 204.364 396.005 205.271 396.106 206.452L396.801 214.568H397.049C402.526 205.732 410.364 201.875 422.56 201.875C440.73 201.875 447.574 210.462 447.574 232.986H447.568Z" fill="#DB1F26"/>
<path d="M544.585 264.47C544.585 270.651 544.842 274.786 545.422 278.92C545.616 280.293 544.549 281.518 543.163 281.518H506.982C505.796 281.518 504.809 280.612 504.708 279.43L504.014 271.314H503.765C498.662 279.902 490.823 284.008 480.122 284.008C460.46 284.008 450.627 270.195 450.627 243.563C450.627 216.93 461.452 201.872 483.357 201.872C491.447 201.872 497.791 203.74 502.77 207.597H503.019V189.225C503.019 189.225 503.019 187.99 503.019 186.785C503.019 185.526 504.04 184.503 505.301 184.503H542.301C543.56 184.503 544.583 185.524 544.583 186.785C544.583 187.992 544.583 189.225 544.583 189.225V264.468L544.585 264.47ZM494.061 242.941C494.061 250.531 495.431 253.269 499.289 253.269C500.081 253.269 500.801 253.166 501.452 252.956C502.392 252.653 503.022 251.767 503.022 250.78V235.102C503.022 234.115 502.392 233.23 501.452 232.926C500.801 232.717 500.079 232.613 499.289 232.613C495.431 232.613 494.061 235.351 494.061 242.941Z" fill="#DB1F26"/>
<path d="M1468.88 528.483C1458.39 528.483 1449.59 524.918 1442.46 517.788C1435.33 510.657 1431.76 501.849 1431.76 491.364C1431.76 481.297 1435.33 472.699 1442.46 465.569C1449.59 458.019 1458.39 454.244 1468.88 454.244C1478.95 454.244 1487.55 458.019 1494.68 465.569C1502.23 472.699 1506 481.297 1506 491.364C1506 501.849 1502.23 510.657 1494.68 517.788C1487.55 524.918 1478.95 528.483 1468.88 528.483Z" fill="#DB1F26"/>
<path d="M1233.45 528.484C1192.76 528.484 1157.53 516.74 1127.75 493.251C1097.97 469.763 1075.11 438.096 1059.17 398.25C1043.24 357.985 1035.27 313.315 1035.27 264.242C1035.27 215.168 1043.24 170.709 1059.17 130.863C1075.11 90.5972 1097.97 58.7204 1127.75 35.2322C1157.53 11.7441 1192.76 0 1233.45 0C1274.13 0 1309.37 11.7441 1339.14 35.2322C1369.34 58.7204 1392.2 90.5972 1407.72 130.863C1423.66 170.709 1431.63 215.168 1431.63 264.242C1431.63 313.315 1423.66 357.985 1407.72 398.25C1392.2 438.096 1369.34 469.763 1339.14 493.251C1309.37 516.74 1274.13 528.484 1233.45 528.484ZM1246.03 504.576C1280.84 504.576 1307.9 488.218 1327.19 455.503C1346.48 422.368 1356.13 374.762 1356.13 312.686C1356.13 291.715 1355.29 272.001 1353.62 253.546C1347.32 178.888 1332.22 121.845 1308.32 82.4183C1284.83 42.9917 1255.68 23.2785 1220.87 23.2785C1186.47 23.2785 1159.42 39.846 1139.7 72.9811C1119.99 106.116 1110.14 153.931 1110.14 216.427C1110.14 236.979 1110.97 256.482 1112.65 274.937C1119.36 349.596 1134.46 406.639 1157.95 446.065C1181.44 485.073 1210.8 504.576 1246.03 504.576Z" fill="#DB1F26"/>
<path d="M969.373 528.483C958.887 528.483 950.079 524.918 942.948 517.788C935.818 510.657 932.253 501.849 932.253 491.364C932.253 481.297 935.818 472.699 942.948 465.569C950.079 458.019 958.887 454.244 969.373 454.244C979.439 454.244 988.037 458.019 995.168 465.569C1002.72 472.699 1006.49 481.297 1006.49 491.364C1006.49 501.849 1002.72 510.657 995.168 517.788C988.037 524.918 979.439 528.483 969.373 528.483Z" fill="#DB1F26"/>
<path d="M878.539 130.863L863.439 132.751C860.084 105.907 856.099 85.7745 851.486 72.3527C847.291 58.9309 841.419 49.9131 833.869 45.2994C826.32 40.6856 815.834 38.3787 802.412 38.3787H667.774V238.448H750.193C764.034 238.448 774.31 236.77 781.021 233.414C787.732 230.059 792.555 223.348 795.491 213.282C798.427 202.796 799.895 186.648 799.895 164.837H814.995V338.482H799.895C799.895 316.672 798.427 300.733 795.491 290.667C792.555 280.181 787.732 273.26 781.021 269.905C774.31 266.549 764.034 264.872 750.193 264.872H667.774V454.245C667.774 468.925 669.662 478.572 673.437 483.186C677.212 487.8 685.181 490.106 697.344 490.106H810.591C824.013 490.106 834.918 487.17 843.307 481.298C852.115 475.426 860.084 464.521 867.214 448.583C874.764 432.644 882.943 408.737 891.751 376.86L906.221 380.635L872.876 500.173L868.472 515.901H529.991V500.802C549.704 500.802 564.175 499.334 573.402 496.398C583.049 493.462 589.341 488.638 592.277 481.928C595.632 475.217 597.31 464.941 597.31 451.099V77.3859C597.31 63.5447 595.632 53.2686 592.277 46.5577C589.341 39.8468 583.049 35.0233 573.402 32.0873C564.175 29.1513 549.704 27.6833 529.991 27.6833V12.5837H864.698L866.585 29.5707L878.539 130.863Z" fill="#DB1F26"/>
<path d="M448.973 528.483C438.487 528.483 429.679 524.918 422.549 517.788C415.419 510.657 411.854 501.849 411.854 491.364C411.854 481.297 415.419 472.699 422.549 465.569C429.679 458.019 438.487 454.244 448.973 454.244C459.04 454.244 467.638 458.019 474.768 465.569C482.318 472.699 486.093 481.297 486.093 491.364C486.093 501.849 482.318 510.657 474.768 517.788C467.638 524.918 459.04 528.483 448.973 528.483Z" fill="#DB1F26"/>
<path d="M0 264.242C0 213.91 8.59835 168.611 25.795 128.346C43.4112 88.0806 68.1576 56.6233 100.034 33.974C131.911 11.3247 168.611 0 210.135 0C230.268 0 247.045 2.5166 260.467 7.54978C274.308 12.1635 289.198 18.455 305.136 26.4242C316.042 32.2962 323.172 35.2322 326.527 35.2322C331.141 35.2322 334.287 33.3448 335.965 29.5699C337.642 25.795 338.481 18.0356 338.481 6.29147H352.952L362.389 179.307H347.918C342.885 126.878 329.673 88.2903 308.282 63.5439C286.891 38.378 258.789 25.795 223.976 25.795C193.358 25.795 166.934 36.2808 144.704 57.2524C122.893 77.8046 106.116 106.116 94.3721 142.187C83.0474 178.258 77.3851 218.943 77.3851 264.242C77.3851 309.54 83.0474 349.806 94.3721 385.038C105.697 420.27 122.264 447.953 144.075 468.086C165.885 487.799 191.89 497.655 222.089 497.655C261.516 497.655 294.441 481.298 320.865 448.582C347.289 415.447 364.276 370.148 371.826 312.686H386.926C378.118 379.376 358.824 432.014 329.044 470.602C299.264 509.19 258.58 528.484 206.989 528.484C165.466 528.484 128.975 517.159 97.5178 494.51C66.4799 471.86 42.3626 440.613 25.1659 400.767C8.38863 360.501 0 314.993 0 264.242Z" fill="#DB1F26"/>
</svg>
