<?xml version="1.0" encoding="UTF-8"?>
<svg id="Layer_2" data-name="Layer 2" xmlns="http://www.w3.org/2000/svg" viewBox="0 0 66.01 107.08">
  <defs>
    <style>
      .cls-1 {
        fill: #f7eb6f;
      }
    </style>
  </defs>
  <g id="Layer_1-2" data-name="Layer 1">
    <path class="cls-1" d="M51.39,106.81c-.66.21-2.24.35-2.75.21-.61-.17-1.23-.27-1.75-.7-.99,0-1.94-.18-2.91-.35-.79-.14-1.56-.24-2.22-.7l-1.66-.93-2.26-1.34c-.72-.42-.52-1.48-.88-1.88l-.63-.7c-.9-1,.1-1.68-.2-2.63-.14-.44-.51-.74-.8-1.08-.71-.82.33-1.89-.13-2.7s-1.24-.97-.91-2.07c.13-.45.28-1.02.05-1.46l-.91-1.21c-.38-.5.54-1.8-.26-2.49-.32-.28-.5-.6-.71-.96s-1.84-.5-3.33-2.08c-.72-.76-1.23-2.42-1.56-3.55l-.97-3.28c-.4-1.35-1.06-2.56-1.83-3.73l-2.16-2.95c-1.03-1.25-1.98-2.47-3.13-3.63l-8.66-8.74-2.09-2.17c-2.32-2.63-4.48-5.63-5.91-8.85S.2,39.64,0,35.98v-4.35C.67,21.61,5.6,12.02,13.8,6.12c2.11-1.52,4.4-2.74,6.8-3.73C23.75,1.11,26.99.36,30.36.07l1.46-.06c.64-.03,1.26-.01,1.9.01l1.55.06c7.41.54,14.34,3.67,19.77,8.71l2.32,2.32c.69.69,1.25,1.4,1.84,2.18,1.99,2.61,3.64,5.44,4.8,8.53,1.52,4.03,2.19,8.27,1.96,12.56l-.19,2.27c-.22,2.54-.81,4.98-1.53,7.41l-.43,1.87c-.39,2.71-1.2,5.26-2.42,7.72-1.01,3.15-1.8,6.32-2.23,9.6l-.15,1.51c-.19,1.9,0,3.72.38,5.57l.4,1.89c.23,1.08.5,2.17.37,3.29-.17,1.44-.94,2.69-1.96,3.69l.29.76c.33,1.66-.62,2.44-.05,3.2l.71.93c.61.81-.22,1.62.06,2.47.17.53,1.23,1.23,1.12,1.76l-.28,1.42c-.13.66,1.13,1.29,1.16,2.19s-.56,1.34.05,2.08c.29.35.65.7.79,1.16.11.4,0,.86-.22,1.22l-1.5,2.5-1.19,1.86c-.25.4-.42.73-.77,1.06-1.23,1.18-2.85,2.03-3.4,2.71l-.6.74c-.52.64-1.21.98-2,1.23l-.98.31Z"/>
  </g>
</svg>