<?xml version="1.0" standalone="no"?>
<!DOCTYPE svg PUBLIC "-//W3C//DTD SVG 20010904//EN"
 "http://www.w3.org/TR/2001/REC-SVG-20010904/DTD/svg10.dtd">
<svg version="1.0" xmlns="http://www.w3.org/2000/svg"
 width="3000.000000pt" height="3000.000000pt" viewBox="0 0 3000.000000 3000.000000"
 preserveAspectRatio="xMidYMid meet">
<metadata>
Created by potrace 1.16, written by Peter Selinger 2001-2019
</metadata>
<g transform="translate(0.000000,3000.000000) scale(0.100000,-0.100000)"
fill="#f7eb6f" stroke="none">
<path d="M12870 28335 c-575 -29 -1141 -120 -1705 -275 -44 -12 -105 -28 -135
-36 -93 -22 -430 -136 -625 -211 -66 -25 -149 -57 -185 -70 -353 -134 -937
-432 -1335 -681 -325 -203 -534 -351 -775 -549 -375 -308 -669 -589 -955 -913
-200 -226 -421 -502 -538 -670 -9 -14 -40 -56 -68 -95 -49 -68 -85 -122 -234
-350 -77 -117 -164 -265 -209 -355 -16 -30 -34 -62 -42 -71 -8 -8 -14 -18 -14
-21 0 -4 -25 -50 -55 -104 -31 -54 -58 -108 -61 -121 -4 -13 -10 -25 -14 -28
-11 -7 -116 -223 -190 -390 -10 -22 -27 -60 -38 -85 -11 -25 -30 -70 -42 -100
-37 -93 -57 -143 -78 -195 -11 -27 -30 -77 -42 -110 -12 -33 -28 -73 -35 -90
-7 -16 -25 -66 -40 -110 -15 -44 -34 -94 -41 -112 -8 -17 -14 -37 -14 -44 0
-7 -15 -58 -34 -113 -51 -153 -100 -320 -121 -416 -7 -30 -26 -107 -42 -170
-17 -63 -40 -160 -52 -215 -12 -55 -29 -127 -37 -160 -8 -33 -19 -93 -24 -134
-6 -40 -12 -77 -15 -81 -2 -4 -9 -40 -15 -81 -6 -41 -17 -112 -25 -159 -23
-135 -53 -387 -72 -610 -26 -293 -26 -1061 0 -1340 21 -232 53 -488 72 -585 8
-38 19 -101 25 -140 13 -89 17 -109 91 -410 126 -516 272 -948 497 -1469 9
-22 76 -157 148 -300 113 -227 175 -339 341 -621 52 -89 291 -442 395 -585
122 -168 368 -475 557 -695 177 -207 285 -318 1661 -1700 558 -561 1094 -1103
1190 -1205 175 -185 452 -503 610 -700 46 -58 118 -145 160 -195 220 -261 515
-675 677 -950 145 -247 284 -549 345 -755 51 -170 77 -260 82 -285 4 -16 22
-79 41 -140 19 -60 44 -144 55 -185 167 -587 285 -890 414 -1061 149 -199 451
-407 729 -503 130 -45 165 -70 197 -141 19 -43 54 -90 110 -149 134 -142 151
-205 109 -402 -11 -54 -21 -132 -21 -172 1 -89 13 -113 136 -261 48 -57 99
-124 114 -150 25 -43 27 -53 25 -151 -1 -73 -8 -127 -22 -175 -12 -38 -24
-107 -27 -151 -6 -72 -4 -87 16 -128 12 -26 50 -77 84 -114 193 -211 207 -260
144 -503 -41 -161 -42 -225 -4 -302 15 -32 54 -86 85 -120 169 -182 199 -265
157 -432 -9 -38 -24 -96 -32 -127 -37 -151 -12 -223 131 -379 137 -148 157
-187 188 -355 32 -172 92 -237 367 -395 102 -59 223 -127 270 -151 47 -24 103
-56 125 -70 40 -25 103 -60 265 -146 47 -25 98 -56 114 -69 58 -49 182 -101
304 -128 34 -8 66 -16 71 -19 5 -3 56 -13 112 -21 57 -8 127 -19 154 -25 122
-24 231 -41 321 -50 54 -6 128 -15 164 -21 36 -6 91 -10 123 -10 52 0 68 -5
148 -50 86 -49 220 -99 265 -99 12 0 50 -9 85 -20 54 -18 81 -20 203 -15 242
8 342 21 516 65 91 23 170 46 175 51 6 4 49 20 95 35 101 32 264 111 334 164
76 56 226 216 279 296 53 83 149 160 472 383 107 74 279 213 393 318 91 83
172 185 187 232 10 33 65 127 145 246 37 55 89 136 115 180 27 44 61 94 77
111 34 36 144 211 260 414 113 196 149 272 172 366 20 79 20 117 -1 174 -22
58 -96 170 -168 251 -30 35 -68 88 -82 118 -30 60 -32 31 22 307 28 140 28
142 11 195 -25 75 -72 149 -163 255 -118 138 -142 204 -113 304 15 47 60 277
60 301 0 11 -9 44 -19 74 -20 56 -65 119 -170 240 -98 112 -115 146 -114 235
1 44 10 106 21 145 29 102 46 208 39 250 -10 59 -44 119 -143 250 -114 152
-144 206 -144 263 0 24 17 110 37 190 35 137 38 157 38 297 0 157 -6 186 -63
314 -26 58 -19 76 67 166 194 205 324 449 398 745 21 86 23 323 4 445 -6 39
-16 107 -21 152 -6 45 -24 139 -40 208 -17 70 -30 138 -30 153 0 15 -18 103
-40 197 -23 93 -47 208 -55 255 -8 47 -24 128 -35 180 -20 91 -29 140 -51 275
-41 257 -38 822 5 1180 9 66 25 201 37 300 12 99 26 194 31 210 4 17 13 62 18
100 11 81 46 270 62 335 6 25 16 74 23 110 7 36 22 106 33 155 12 50 26 113
32 140 6 28 18 73 25 100 8 28 19 77 24 110 6 33 22 101 36 150 14 50 30 110
35 135 6 25 17 65 25 90 8 25 23 79 35 120 11 41 29 104 39 140 11 36 29 97
39 135 27 94 61 211 77 260 7 22 23 74 35 115 12 41 28 93 35 115 7 22 25 83
40 135 15 52 33 111 40 130 7 19 23 69 35 110 24 81 52 172 80 260 9 30 27 89
40 130 12 41 27 86 32 100 9 22 89 295 138 470 10 36 28 97 40 135 11 39 29
99 39 135 17 59 63 215 111 375 10 33 23 78 30 100 6 22 16 54 22 70 5 17 18
62 28 100 10 39 28 102 40 140 11 39 27 95 35 125 8 30 21 82 30 115 47 183
69 272 105 440 12 55 27 127 35 160 8 33 16 74 19 90 8 51 46 266 61 345 16
88 34 229 70 545 16 141 25 272 46 660 24 454 -29 1168 -121 1635 -11 52 -30
154 -44 225 -31 160 -45 221 -107 450 -76 283 -232 738 -334 975 -20 47 -40
94 -45 105 -262 613 -693 1329 -1133 1885 -179 226 -270 331 -488 566 -369
395 -842 819 -1251 1121 -162 120 -508 353 -653 440 -106 63 -176 103 -180
103 -3 0 -52 26 -108 59 -56 32 -151 84 -212 114 -170 85 -511 247 -521 247
-3 0 -24 8 -47 19 -70 31 -323 131 -331 131 -4 0 -22 7 -39 15 -125 57 -661
220 -902 274 -366 82 -388 86 -530 111 -158 27 -319 49 -430 60 -49 5 -157 15
-240 24 -166 17 -623 37 -810 35 -66 -1 -230 -7 -365 -14z"/>
</g>
</svg>
