<?xml version="1.0" encoding="UTF-8"?>
<svg id="Layer_2" data-name="Layer 2" xmlns="http://www.w3.org/2000/svg" viewBox="0 0 123.15 52.88">
  <defs>
    <style>
      .cls-1 {
        fill: #db1f26;
      }
    </style>
  </defs>
  <g id="Layer_1-2" data-name="Layer 1">
    <g>
      <g>
        <g>
          <path class="cls-1" d="M84.5,5.58c1.06-.28,1.97-.38,2.69-.27.74.13,2.3,1.12,2.3,2.31s-1.99,2.87-2.8,3.41c-.82.57-2.28,1.65-2.6,1.82-.04.03-.06.04-.06.06,0,0,1.97-.2,1.97,1.68,0,2.95-7.93,8.8-11.18,9.67-.17.05-.35.07-.52.1-.26.03-.82-.02-.82-.91,0-.22.04-.42.11-.61l-.95,1.47c-.28.42-.54.8-.87.88,0,0-1.3-.02-1.3-.71,0-.11.02-.22.09-.37.33-.78,3.23-5.35,3.84-6.38.5-.85,3.99-6.05,5.09-7.61-2.54,1.35-4.98,3.11-7.13,4.99-.13.12-.3.28-.52.33-.39.1-.87-.33-.87-.81s.35-1.05.5-1.26c1.89-2.39,8.6-6.62,13.05-7.81ZM74.29,21.88c2.49-1.08,7.52-4.25,9.3-7.02,0,0-.02-.23-.15-.2-3.27.88-5.05,1.98-5.05,1.98-.13.03-.2-.08-.24-.26l-.09-.5c-1.39,2.17-2.9,4.51-3.99,6.18l.22-.19ZM79.58,13.55c2.51-1.5,7.02-4.24,8.3-5.84-.82-.32-1.52-.16-3.21.3-1.15.31-2.28.72-3.4,1.24.22.05.41.13.48.13.06.03.17.19.17.41,0,.13-.04.27-.17.41,0,0-.91,1.41-2.17,3.35Z"/>
          <path class="cls-1" d="M93.56,14.46c.09-.07.61-.53.67-.55.3-.08.24.26.39.55.09.15.13.27.13.36,0,.13-.54.62-.67.72l-2.71,2.57c-.74.7-2.19,1.82-2.84,2-.13.03-.22.01-.28-.05-.22-.22-.46-.42-.46-.74,0-.09,0-.15.04-.25.15-.47.43-1.09.46-1.18,0-.04,0-.07-.04-.05s-.11.07-.17.13c-.54.6-2.77,2.82-3.55,3.03-.33.09-.74-.34-.74-.65,0-1.86,3.29-6.58,4.38-6.87.43-.12,1.08.19,1.08.45,0,.3-2.38,2.85-2.38,3.69,0,.04.02.08.06.07s.09-.04.15-.11c.19-.18,2.62-2.7,3.06-3.16.43-.44,1-1.33,1.17-1.53.13-.16.35-.37.56-.43.33-.09,1.02.23,1.02.53,0,.07-.02.14-.06.19-.26.35-2.54,3.5-2.67,3.79-.06.13-.11.22-.11.27s.02.06.06.05c.02,0,.07-.02.11-.05l3.34-2.76Z"/>
          <path class="cls-1" d="M96.61,16.77s-2.6,2.34-4.4,2.83c-.28.08-.3-.05-.43-.14-.13-.14-.26-.41-.26-.67,0-1.91,2.21-4.6,3.77-6.71.17-.22.35-.33.52-.38.35-.09.69.05.98.22.22.14.3.24.3.35,0,.09-.06.17-.11.22-.13.14-2.1,3.03-2.38,3.48-.15.26-.24.43-.24.52,0,.04.02.06.11.04.63-.43,1.32-.98,1.32-.98l3.16-2.54c.09-.07.61-.53.67-.55.3-.08.26.28.41.56.09.15.13.27.13.36,0,.13-.54.62-.67.72-.22.21-2.88,2.68-2.88,2.68ZM99.02,8.93c0,.69-1.15,2.17-1.97,2.39-.22.06-.46-.2-.46-.4,0-.91,1.43-2.27,1.93-2.4.17-.05.5.21.5.41Z"/>
          <path class="cls-1" d="M103.31,14.91c-.52.49-3.21,2.59-4.75,3.01-.91.24-1.15-.67-1.15-1.01,0-3.53,4.9-10.07,8.58-13.44,1.69-1.56,3.01-2.3,3.66-2.48.43.04.91.34,1.02.85,0,2.99-8.21,10.85-10.49,12.5-.22.49-.33.91-.33,1.21,0,.04.02.06.11.04.35-.09,2.06-1.48,2.06-1.48l3.58-2.89c.09-.07.61-.53.67-.55.3-.08.26.28.41.56.09.15.13.27.13.36,0,.13-.54.62-.67.72l-2.84,2.6ZM102.29,10.74l.48-.28c1.91-1.57,4.38-4.55,5.68-6.7.07-.1.11-.18.11-.25,0-.04-.02-.06-.06-.05-.02,0-.09.02-.15.08-1.37,1.1-4.05,4.29-6.05,7.19Z"/>
          <path class="cls-1" d="M112.19,4.4c-1.41,2.13-3.03,4.56-3.21,4.83-.63.88-2.02,3.4-2.02,3.29,0,.04.02.06.06.05.06-.02.15-.08.3-.21l2.95-2.39c.09-.07.61-.53.67-.55.26-.07.54.77.54.92,0,.28-1.02,1.01-1.67,1.64-.52.51-1.32,1.26-1.84,1.66-.33.3-1.91,1.46-2.69,1.67-.61.16-1.13-.35-1.13-1,0-.56,1.08-2.54,1.8-3.67.26-.42,1.99-2.92,3.68-5.34-2.32.82-.33.15-2.25.8-.11.03-.22.1-.3.12s-.13.01-.13-.07c0-.2.67-1.89,1.39-2.21l-.07.02s.5-.13,2.97-.93C113.28.27,113.28.1,113.62,0c.22-.06,1.02.36,1.02.66,0,.07-.02.16-.06.23l-.3.51-.61.88c.59-.18,1.91-.53,2.51-.7.09-.02.13.03.13.12,0,.93-1.45,1.97-1.95,2.1l-2.17.58Z"/>
        </g>
        <g>
          <path class="cls-1" d="M90.4,26.55l-.9-3.32h-.01l-.91,3.32h-.55l-1.01-3.95h.54l.77,3.28h.01l.88-3.28h.57l.87,3.28h.01l.8-3.28h.53l-1.06,3.95h-.55Z"/>
          <path class="cls-1" d="M92.89,22.6v3.95h-.53v-3.95h.53Z"/>
          <path class="cls-1" d="M93.19,23.04v-.44h3.16v.44h-1.32v3.51h-.53v-3.51h-1.32Z"/>
          <path class="cls-1" d="M97.14,22.6v1.7h2.08v-1.7h.53v3.95h-.53v-1.81h-2.08v1.81h-.53v-3.95h.53Z"/>
        </g>
      </g>
      <g id="Layer_1-3" data-name="Layer 1">
        <g id="stand">
          <path class="cls-1" d="M21.8,30.87l-.28,6.7c-.02.47-.51.76-.94.56-1.21-.55-2.98-.9-4.94-.9h-.07c-.82,0-.89,1.2-.08,1.3,4.76.58,7.11,2.72,7.11,6.52,0,5.83-3.23,7.82-12.48,7.82-2.7,0-5.82-.26-9.41-.8-.33-.05-.57-.34-.56-.67l.29-7.07c.02-.46.5-.76.92-.57,1.43.64,3.55,1.04,5.77,1.04.24,0,.46,0,.67-.01.82-.03.85-1.23.04-1.3-5.26-.46-7.85-2.51-7.85-6.26,0-5.83,3.23-7.82,12.48-7.82,2.84,0,5.78.25,8.78.79.32.06.55.34.54.67h0Z"/>
          <path class="cls-1" d="M34.02,29.71l3.05-.33c.36-.04.68.22.72.58l.79,7.25c.04.36-.22.68-.58.72l-3.05.33c-.36.04-.62.36-.58.72l.17,1.54c.11,1.02.58,1.37,1.92,1.22.57-.06,1.14-.19,1.74-.42.4-.15.84.11.89.54l.96,8.84c.03.3-.15.59-.44.69-1.88.65-3.12.94-5.01,1.14-7.7.84-10.84-1.36-11.56-8l-1.91-17.43c-.04-.36.22-.68.58-.72l10.51-1.14c.36-.04.68.22.72.58l.37,3.32c.04.36.36.62.72.58h0Z"/>
          <path class="cls-1" d="M64.51,40.47v6.82c0,1.77.07,2.95.24,4.13.06.39-.25.74-.65.74h-9.92c-.3,0-.57-.21-.64-.5l-.34-1.49h-.07c-1.42,1.78-3.77,2.7-6.86,2.7-4.59,0-6.82-2.03-6.82-6.18s2.38-6.33,7.29-6.33c2.24,0,4.41.43,5.79,1.14h.07v-.07c0-1.81-1.6-2.63-5.15-2.63-2.36,0-4.63.37-6.18,1-.42.17-.88-.13-.89-.58l-.3-8.35c-.01-.33.22-.61.54-.67,2.93-.51,6.34-.79,9.68-.79,10.59,0,14.22,2.81,14.22,11.05h0ZM50.22,46.12c0,1.39.36,1.81,1.35,1.81.2,0,.37-.01.53-.05.29-.07.5-.33.5-.64v-2.25c0-.3-.21-.57-.5-.64-.16-.04-.33-.05-.53-.05-1,0-1.35.43-1.35,1.81Z"/>
          <path class="cls-1" d="M91.72,38.3v13.21c0,.36-.29.65-.65.65h-10.57c-.36,0-.65-.29-.65-.65v-11.4c0-1.42-.32-1.92-1.24-1.92-.23,0-.46.04-.67.11-.26.09-.43.34-.43.62v12.59c0,.36-.29.65-.65.65h-10.57c-.36,0-.65-.29-.65-.65v-20.73c0-.36.29-.65.65-.65h10.09c.34,0,.62.26.65.6l.2,2.32h.07c1.56-2.52,3.8-3.63,7.29-3.63,5.19,0,7.14,2.45,7.14,8.89h0Z"/>
          <path class="cls-1" d="M119.42,47.3c0,1.77.07,2.95.24,4.13.06.39-.25.74-.65.74h-10.33c-.34,0-.62-.26-.65-.6l-.2-2.32h-.07c-1.46,2.45-3.7,3.63-6.75,3.63-5.62,0-8.42-3.95-8.42-11.55s3.09-11.91,9.35-11.91c2.31,0,4.12.53,5.54,1.64h.07v-5.94c0-.36.29-.65.65-.65h10.57c.36,0,.65.29.65.65v22.19h0ZM104.99,41.15c0,2.17.39,2.95,1.49,2.95.23,0,.43-.03.62-.09.27-.09.45-.34.45-.62v-4.48c0-.28-.18-.53-.45-.62-.19-.06-.39-.09-.62-.09-1.1,0-1.49.78-1.49,2.95h0Z"/>
        </g>
      </g>
      <g>
        <path class="cls-1" d="M122.38,50.89s0-.08-.01-.12c0-.04,0-.08,0-.12,0-.04-.01-.08-.02-.11,0-.04-.02-.07-.04-.1-.02-.03-.04-.05-.07-.07-.03-.02-.07-.04-.11-.04h0c.1-.03.17-.08.21-.15.04-.07.07-.16.07-.25,0-.13-.04-.23-.13-.3-.08-.07-.2-.11-.35-.11h-.74v1.58h.21v-.67h.51c.05,0,.09,0,.12.02.03.02.06.04.08.06.02.03.03.06.04.09,0,.03.02.07.02.11,0,.04.01.08.01.12,0,.04,0,.08,0,.11,0,.03,0,.07,0,.09,0,.03.02.05.03.07h.23s-.04-.06-.05-.09c-.01-.03-.02-.07-.03-.11ZM122.08,50.19s-.07.04-.12.04c-.04,0-.09.01-.14.01h-.44v-.55h.52c.1,0,.17.03.21.08.04.05.07.11.07.19,0,.06,0,.1-.03.14-.02.04-.05.06-.08.09Z"/>
        <path class="cls-1" d="M121.76,48.97c-.77,0-1.39.62-1.39,1.39s.62,1.39,1.39,1.39,1.39-.62,1.39-1.39-.62-1.39-1.39-1.39ZM121.76,51.58c-.67,0-1.22-.55-1.22-1.22s.55-1.22,1.22-1.22,1.22.55,1.22,1.22-.55,1.22-1.22,1.22Z"/>
      </g>
    </g>
  </g>
</svg>