<?xml version="1.0" standalone="no"?>
<!DOCTYPE svg PUBLIC "-//W3C//DTD SVG 20010904//EN"
 "http://www.w3.org/TR/2001/REC-SVG-20010904/DTD/svg10.dtd">
<svg version="1.0" xmlns="http://www.w3.org/2000/svg"
 width="3000.000000pt" height="3000.000000pt" viewBox="0 0 3000.000000 3000.000000"
 preserveAspectRatio="xMidYMid meet">
<metadata>
Created by potrace 1.16, written by Peter Selinger 2001-2019
</metadata>
<g transform="translate(0.000000,3000.000000) scale(0.100000,-0.100000)"
fill="#db2329" stroke="none">
<path d="M21030 21997 c-3 -2 -113 -7 -245 -11 -290 -7 -765 -31 -1045 -52
-113 -8 -261 -19 -330 -24 -69 -5 -168 -14 -220 -19 -52 -6 -185 -20 -295 -31
-328 -34 -780 -93 -1070 -139 -66 -11 -156 -25 -200 -31 -76 -11 -759 -123
-855 -140 -25 -5 -108 -20 -185 -34 -233 -42 -518 -98 -730 -143 -66 -14 -149
-31 -185 -39 -36 -8 -87 -18 -115 -23 -27 -6 -108 -24 -180 -41 -71 -16 -182
-42 -245 -56 -63 -14 -151 -34 -195 -44 -44 -11 -138 -33 -210 -50 -71 -17
-157 -37 -190 -46 -33 -9 -76 -20 -95 -25 -19 -5 -78 -20 -130 -33 -131 -34
-324 -84 -390 -102 -30 -9 -98 -27 -150 -40 -364 -96 -918 -259 -1475 -432
-491 -154 -1327 -444 -1770 -614 -27 -11 -75 -28 -105 -39 -30 -10 -64 -23
-75 -28 -11 -5 -92 -37 -180 -71 -473 -183 -887 -354 -1260 -520 -77 -34 -160
-71 -185 -82 -111 -49 -216 -97 -460 -210 -191 -89 -502 -244 -547 -274 -28
-19 -54 -34 -58 -34 -19 0 -142 -95 -219 -169 -61 -60 -112 -123 -167 -206
-43 -66 -84 -127 -91 -135 -7 -8 -21 -31 -30 -52 -9 -21 -22 -43 -27 -50 -6
-7 -40 -53 -76 -101 -35 -49 -84 -103 -107 -119 -24 -17 -45 -34 -48 -38 -7
-10 -118 -66 -183 -91 -110 -45 -302 -91 -572 -139 -507 -91 -996 -285 -1404
-558 -46 -31 -101 -68 -120 -81 -58 -38 -310 -253 -381 -323 -66 -66 -209
-220 -272 -293 -78 -90 -208 -272 -273 -383 -6 -9 -22 -35 -36 -57 -14 -22
-67 -112 -118 -200 -50 -88 -96 -167 -101 -175 -6 -8 -13 -22 -17 -30 -3 -8
-45 -73 -92 -145 -164 -247 -246 -305 -556 -394 -342 -97 -554 -231 -736 -466
-29 -38 -59 -74 -65 -80 -6 -5 -37 -48 -67 -95 -31 -47 -66 -96 -77 -110 -11
-14 -20 -30 -20 -37 0 -6 -3 -13 -7 -15 -12 -5 -83 -112 -83 -125 0 -6 -4 -13
-8 -15 -8 -3 -45 -64 -121 -198 -17 -30 -56 -104 -87 -165 -30 -60 -59 -117
-64 -125 -52 -89 -220 -511 -220 -553 0 -13 -4 -27 -9 -33 -9 -9 -40 -115 -49
-169 -2 -16 -8 -34 -12 -40 -4 -5 -10 -28 -14 -50 -4 -22 -13 -67 -21 -100
-50 -214 -72 -539 -55 -810 7 -110 17 -211 22 -225 6 -14 14 -52 19 -85 11
-74 34 -180 47 -220 6 -16 23 -68 38 -115 35 -112 115 -304 172 -410 25 -47
55 -103 66 -126 31 -60 188 -291 238 -350 24 -28 63 -76 88 -107 64 -79 319
-330 425 -418 244 -203 545 -402 840 -555 250 -130 584 -281 720 -324 39 -13
75 -26 80 -30 6 -4 62 -24 125 -45 63 -20 133 -44 155 -52 22 -8 67 -23 100
-33 33 -10 98 -29 145 -43 279 -82 668 -175 995 -237 183 -35 270 -50 340 -60
44 -7 103 -16 130 -21 56 -11 86 -15 430 -58 236 -30 346 -42 575 -61 358 -30
366 -30 959 -57 257 -12 1297 -8 1576 6 391 19 599 31 740 41 308 21 798 65
1030 91 50 5 131 14 180 19 50 5 144 16 210 24 369 46 456 57 510 66 33 5 141
21 240 35 161 23 338 49 510 75 70 11 551 97 815 145 73 14 598 120 795 161
39 8 94 19 124 25 30 5 58 12 62 14 4 3 40 12 81 20 225 45 882 204 1303 316
105 28 206 54 225 58 46 11 379 102 555 152 151 43 261 76 480 143 77 24 181
56 230 70 50 15 135 41 190 58 55 16 116 35 135 42 19 7 58 20 85 29 148 46
505 165 685 227 113 40 248 87 300 105 52 18 160 57 240 85 80 29 156 56 170
60 14 5 79 29 145 55 66 26 161 62 210 80 50 18 113 42 140 53 28 12 79 32
115 46 82 30 368 144 395 156 11 5 70 29 130 54 347 139 534 245 671 381 88
87 160 206 187 310 21 82 10 281 -19 340 -6 11 -28 55 -50 99 -21 43 -58 104
-80 135 -41 55 -231 253 -288 299 -42 35 -158 108 -181 115 -11 3 -53 17 -93
32 -215 77 -494 92 -882 46 -176 -21 -271 -32 -465 -51 -110 -11 -236 -24
-280 -30 -247 -30 -322 -33 -426 -21 -328 39 -496 174 -599 481 -26 78 -46
197 -65 390 -8 80 -22 208 -31 285 -9 77 -18 206 -21 287 -4 127 -2 157 17
234 39 156 76 228 160 313 136 139 304 204 605 235 83 9 186 20 230 26 44 5
105 12 135 15 539 50 700 84 930 193 30 14 57 29 60 32 3 3 23 18 45 34 47 34
105 93 105 107 0 5 4 9 9 9 5 0 13 10 17 23 4 12 11 25 16 28 10 7 24 53 39
134 16 88 -35 266 -99 340 -68 80 -196 143 -367 182 -135 30 -425 25 -780 -15
-618 -69 -624 -70 -733 -61 -344 28 -547 198 -637 534 -19 73 -31 161 -60 430
-14 132 -30 281 -35 332 -17 156 -8 281 29 433 20 77 75 175 140 243 111 118
320 205 546 227 55 6 134 14 175 20 76 10 586 64 715 75 107 10 284 33 345 46
215 44 242 52 405 130 150 71 245 174 286 311 29 93 19 199 -27 291 -8 16 -14
33 -14 38 0 34 -151 166 -210 184 -14 4 -29 11 -35 15 -20 15 -133 43 -230 56
-194 26 -436 13 -1000 -56 -44 -5 -152 -17 -240 -25 -88 -9 -191 -20 -230 -25
-38 -6 -122 -15 -185 -21 -63 -7 -128 -13 -145 -15 -43 -5 -301 -31 -430 -43
-321 -30 -608 -119 -800 -246 -225 -150 -328 -464 -309 -945 6 -168 8 -202 18
-370 3 -52 9 -228 12 -390 3 -162 7 -311 9 -330 11 -116 26 -244 44 -370 5
-36 27 -155 49 -265 47 -235 68 -351 77 -420 3 -27 10 -70 15 -95 23 -110 50
-327 100 -790 12 -102 22 -196 24 -210 2 -14 6 -61 10 -105 7 -84 46 -447 71
-670 8 -71 22 -197 30 -280 9 -82 23 -213 31 -290 8 -77 21 -198 29 -270 8
-71 22 -200 30 -285 33 -333 54 -450 111 -638 40 -128 98 -249 162 -337 47
-64 169 -188 242 -245 90 -71 154 -144 173 -198 18 -48 18 -55 3 -97 -8 -26
-27 -60 -42 -78 -34 -41 -154 -137 -171 -137 -7 0 -13 -4 -13 -9 0 -10 -39
-27 -52 -23 -5 1 -8 -2 -8 -7 0 -5 -24 -19 -52 -31 -29 -12 -66 -28 -83 -36
-76 -35 -235 -89 -460 -158 -146 -45 -295 -87 -555 -156 -47 -13 -121 -33
-165 -45 -44 -13 -96 -26 -115 -29 -19 -4 -44 -11 -55 -16 -11 -5 -58 -18
-105 -29 -47 -11 -195 -47 -330 -80 -234 -57 -371 -90 -470 -112 -25 -5 -103
-24 -175 -40 -71 -17 -168 -39 -215 -49 -243 -52 -481 -102 -530 -111 -30 -6
-73 -15 -95 -20 -22 -4 -92 -18 -155 -29 -63 -12 -134 -25 -157 -30 -22 -6
-70 -14 -105 -20 -34 -5 -85 -14 -113 -20 -71 -15 -807 -140 -885 -150 -36 -5
-74 -11 -85 -14 -11 -4 -56 -10 -100 -16 -44 -5 -147 -19 -230 -30 -229 -32
-514 -68 -710 -90 -49 -6 -101 -12 -115 -15 -14 -2 -77 -9 -140 -15 -63 -5
-162 -15 -220 -20 -227 -23 -448 -41 -665 -55 -44 -2 -111 -7 -150 -10 -80 -6
-346 -20 -675 -36 -299 -14 -1358 -14 -1602 1 -402 23 -702 48 -919 75 -68 9
-178 22 -244 30 -66 9 -156 20 -200 26 -44 5 -114 14 -155 19 -41 5 -133 18
-205 29 -71 12 -159 25 -195 30 -99 15 -333 57 -495 91 -448 92 -1037 269
-1297 389 -36 17 -70 31 -74 31 -10 0 -61 24 -269 127 -161 79 -409 223 -485
281 -19 15 -42 32 -51 37 -21 12 -75 54 -151 117 -304 249 -504 502 -646 818
-21 46 -72 200 -93 280 -32 124 -51 325 -45 480 13 344 98 660 282 1046 68
141 202 318 274 360 16 10 30 22 30 26 0 4 5 8 11 8 6 0 24 9 40 21 16 11 29
18 29 14 0 -3 9 -1 20 5 32 17 128 19 141 4 6 -8 17 -14 24 -14 22 0 96 -92
125 -155 15 -33 35 -87 44 -120 10 -33 24 -78 31 -100 7 -22 21 -74 30 -115
26 -109 84 -340 95 -375 5 -16 19 -61 31 -100 20 -66 71 -216 89 -260 40 -101
53 -131 61 -139 5 -6 9 -16 9 -23 0 -7 20 -57 45 -111 48 -102 54 -114 103
-202 16 -30 40 -73 52 -95 24 -44 32 -57 105 -169 84 -129 166 -242 210 -290
6 -6 28 -33 50 -61 151 -187 328 -354 625 -588 8 -7 31 -23 50 -37 19 -13 44
-32 54 -42 11 -10 24 -18 29 -18 5 0 26 -12 46 -27 20 -16 45 -33 56 -40 335
-200 711 -363 1001 -432 49 -12 105 -26 124 -31 227 -58 517 -85 825 -76 116
4 226 8 245 10 655 63 1245 255 1739 566 79 50 158 102 175 116 17 14 65 51
106 82 167 126 394 340 515 487 28 33 52 62 55 65 3 3 23 28 45 55 22 28 44
55 50 62 5 7 15 18 21 26 6 7 15 23 18 35 4 12 11 22 16 22 8 0 109 153 146
220 10 19 24 42 30 50 6 8 34 58 62 111 27 52 55 104 60 115 6 10 22 44 36 74
13 30 39 87 56 125 18 39 36 84 40 100 5 17 25 75 45 130 21 55 41 114 45 130
5 17 18 64 30 105 12 41 26 99 31 129 5 29 14 62 19 72 6 10 10 30 10 45 0 15
6 55 14 88 18 76 41 243 62 451 19 180 15 645 -5 790 -7 44 -19 132 -27 195
-21 156 -21 155 -33 192 -5 18 -17 69 -26 113 -9 44 -23 98 -30 120 -7 22 -20
69 -29 105 -10 36 -24 78 -32 93 -8 16 -14 38 -14 50 0 12 -7 31 -15 41 -8 11
-15 29 -15 40 0 12 -7 34 -15 50 -8 15 -15 33 -15 38 0 6 -6 24 -14 41 -7 18
-28 70 -46 117 -42 108 -171 373 -227 467 -24 39 -43 75 -43 78 0 15 -249 366
-280 395 -3 3 -49 57 -102 120 -52 63 -133 150 -179 194 -46 43 -110 103 -141
133 -89 83 -369 291 -481 357 -17 10 -45 29 -60 42 -16 13 -33 24 -38 24 -31
0 -258 172 -306 232 -70 87 -88 128 -88 203 0 70 15 111 55 155 8 9 25 27 37
41 12 13 34 33 48 44 15 11 41 31 59 45 32 26 51 38 126 78 72 39 338 172 344
172 3 0 42 18 88 39 46 22 166 76 268 121 102 45 199 88 215 95 70 32 268 115
530 221 154 63 300 123 325 134 84 37 442 173 700 268 1141 417 2106 721 3185
1002 39 10 104 28 146 39 95 26 444 113 564 141 171 40 340 80 385 89 25 6
101 24 170 40 69 16 143 33 165 36 22 4 76 16 120 27 44 10 103 23 130 27 28
5 163 31 300 59 207 43 458 91 680 132 410 75 1353 217 1565 235 41 3 98 10
125 16 28 5 91 13 140 18 50 6 178 19 285 31 190 20 289 30 495 50 177 18 644
50 860 60 569 27 717 31 1195 31 902 0 1493 -35 2240 -130 153 -20 194 -26
380 -57 52 -8 120 -19 150 -24 49 -8 188 -35 430 -85 174 -36 460 -111 685
-180 77 -23 167 -51 200 -60 33 -10 74 -23 90 -31 17 -7 93 -36 169 -64 77
-29 167 -66 200 -82 34 -17 93 -47 131 -66 77 -39 137 -71 235 -127 36 -21 79
-45 95 -53 17 -8 49 -28 72 -44 23 -15 44 -28 48 -28 18 0 394 -241 434 -278
10 -9 43 -37 74 -61 71 -55 214 -203 292 -301 32 -41 61 -77 65 -80 13 -11
110 -168 125 -200 8 -19 20 -42 25 -50 8 -13 57 -119 81 -175 31 -74 72 -230
94 -360 18 -103 20 -447 4 -530 -6 -27 -14 -75 -19 -105 -17 -100 -54 -255
-71 -295 -13 -30 -39 -106 -49 -140 -13 -46 -41 -119 -49 -130 -4 -5 -14 -26
-21 -45 -23 -63 -122 -254 -160 -310 -87 -129 -177 -216 -271 -264 -72 -36
-80 -38 -137 -31 -54 6 -65 11 -114 58 -68 65 -98 135 -152 352 -27 109 -77
515 -151 1230 -30 289 -40 367 -61 475 -53 269 -192 539 -314 609 -161 93
-340 92 -528 -4 -84 -43 -188 -196 -221 -325 -42 -166 -51 -397 -26 -660 23
-229 43 -428 60 -580 8 -74 19 -180 25 -235 5 -55 14 -138 20 -185 5 -47 23
-215 40 -375 16 -159 35 -335 41 -390 6 -55 13 -120 15 -145 5 -47 41 -372 50
-450 33 -299 46 -511 41 -680 -4 -159 -14 -223 -41 -275 -9 -16 -16 -35 -16
-41 0 -15 -55 -63 -86 -74 -14 -6 -52 -10 -85 -10 -49 0 -74 7 -132 36 -145
72 -259 180 -493 466 -88 106 -165 200 -172 208 -7 8 -41 49 -75 91 -134 165
-223 273 -242 295 -11 12 -33 39 -50 59 -16 21 -40 49 -53 64 -12 14 -42 51
-65 81 -23 30 -49 61 -57 70 -18 18 -163 196 -202 246 -33 43 -99 122 -154
183 -34 39 -123 149 -203 251 -31 40 -75 93 -91 111 -8 9 -40 46 -70 84 -30
37 -76 90 -102 119 -26 28 -48 54 -48 58 0 4 -26 38 -58 75 -32 38 -64 77 -72
89 -8 12 -34 43 -57 70 -23 27 -66 78 -95 114 -29 36 -58 70 -63 76 -13 13
-45 53 -154 189 -157 197 -193 241 -274 339 -354 429 -549 603 -747 670 -139
46 -336 42 -465 -9 -84 -34 -123 -61 -192 -133 -49 -50 -113 -163 -113 -197 0
-8 -6 -29 -14 -47 -37 -88 -50 -189 -49 -408 0 -118 5 -253 12 -300 7 -47 16
-132 21 -190 5 -58 14 -141 19 -185 11 -80 27 -232 56 -510 9 -82 20 -190 26
-240 5 -49 14 -133 19 -185 5 -52 14 -133 20 -180 15 -127 38 -346 55 -520 8
-85 19 -191 25 -235 5 -44 12 -114 15 -155 3 -41 12 -131 20 -200 20 -170 31
-271 55 -500 11 -107 27 -256 36 -330 20 -185 31 -283 54 -505 11 -104 26
-248 35 -320 13 -111 47 -431 86 -810 31 -309 57 -456 106 -610 38 -117 65
-173 121 -245 53 -68 80 -89 157 -126 101 -48 225 -62 343 -39 48 10 109 29
137 44 117 62 214 202 256 371 19 79 21 101 26 300 5 188 -4 319 -38 580 -5
41 -16 145 -24 230 -28 283 -43 425 -48 460 -4 19 -9 70 -12 113 -3 42 -10
100 -15 128 -6 29 -10 74 -10 101 0 27 -6 97 -14 156 -8 59 -22 179 -31 267
-21 208 -42 408 -56 520 -40 347 -63 703 -55 876 10 240 92 360 233 346 29 -3
67 -13 85 -21 17 -9 36 -16 41 -16 6 0 42 -21 80 -47 107 -73 266 -234 417
-423 19 -25 49 -60 65 -80 17 -19 46 -55 65 -80 19 -25 39 -50 45 -56 14 -15
186 -225 340 -414 134 -165 307 -376 365 -445 19 -22 51 -61 70 -85 58 -73
108 -132 152 -184 24 -27 59 -70 78 -96 19 -26 52 -67 73 -91 21 -24 60 -73
88 -107 27 -35 56 -71 64 -79 9 -8 28 -31 43 -51 15 -21 32 -41 38 -47 6 -5
63 -73 125 -149 101 -124 152 -186 247 -305 15 -19 41 -51 57 -70 17 -20 47
-56 65 -81 19 -24 46 -56 59 -70 13 -14 36 -42 51 -62 26 -35 54 -70 125 -156
17 -20 46 -57 65 -82 19 -25 37 -47 40 -50 3 -3 24 -27 45 -55 22 -27 42 -52
45 -55 3 -3 30 -34 60 -70 208 -248 419 -438 555 -500 85 -39 118 -47 221 -59
138 -17 278 9 401 73 29 14 130 108 161 150 38 48 84 180 118 331 13 56 16
399 5 495 -5 52 -15 145 -21 205 -6 61 -18 166 -26 235 -7 69 -18 175 -24 235
-5 61 -14 139 -19 175 -18 116 -33 329 -32 453 2 345 69 510 288 707 46 41 89
77 96 79 6 2 14 7 17 11 3 4 52 39 110 79 189 131 212 148 290 224 102 97 266
313 334 437 10 19 22 37 25 40 6 4 27 39 130 210 11 19 26 46 32 60 5 13 14
27 18 30 13 9 126 231 166 328 21 51 42 95 47 98 4 3 8 13 8 22 0 9 6 28 13
42 7 14 24 54 37 90 12 36 27 69 32 75 4 5 8 18 8 30 0 12 5 26 11 32 5 5 17
34 25 64 8 30 24 86 34 124 43 153 89 354 99 430 5 44 16 127 23 185 21 170
15 507 -11 670 -33 199 -37 219 -56 285 -9 33 -21 78 -26 100 -13 50 -83 242
-116 315 -229 507 -547 901 -1030 1278 -51 40 -97 72 -101 72 -5 0 -15 6 -21
14 -14 16 -144 106 -154 106 -4 0 -15 7 -24 16 -24 20 -140 97 -178 116 -16 8
-77 42 -135 74 -121 68 -341 177 -450 224 -41 18 -103 45 -138 61 -35 16 -66
29 -69 29 -3 0 -69 25 -147 56 -131 52 -384 140 -536 186 -144 43 -482 131
-640 167 -52 12 -113 26 -135 31 -22 5 -69 15 -105 24 -358 82 -1232 204
-1765 246 -117 10 -521 35 -700 44 -136 8 -1369 19 -1375 13z m-13920 -5562
c74 -8 187 -26 251 -39 117 -25 348 -98 384 -123 11 -7 25 -13 33 -13 17 0
272 -127 293 -146 8 -8 18 -14 22 -14 6 0 158 -100 167 -111 3 -3 30 -24 60
-46 166 -122 369 -334 484 -505 21 -32 42 -58 47 -58 5 0 9 -4 9 -9 0 -6 13
-29 29 -53 63 -95 171 -305 225 -438 15 -36 31 -73 36 -82 6 -10 10 -23 10
-29 0 -6 6 -25 14 -42 23 -54 96 -311 110 -392 3 -16 12 -66 21 -110 80 -422
82 -907 4 -1305 -17 -86 -87 -342 -108 -395 -6 -16 -17 -43 -23 -60 -6 -16
-32 -75 -58 -130 -26 -55 -50 -107 -53 -115 -4 -8 -11 -22 -16 -30 -5 -8 -12
-22 -15 -30 -4 -8 -15 -28 -26 -45 -11 -16 -23 -37 -27 -45 -9 -21 -155 -233
-168 -245 -6 -5 -28 -31 -49 -57 -209 -264 -577 -536 -916 -676 -173 -72 -404
-137 -590 -167 -595 -94 -1157 3 -1670 287 -63 35 -250 162 -280 190 -14 13
-47 40 -75 60 -90 66 -307 299 -417 448 -85 117 -213 337 -267 463 -12 26 -29
66 -40 90 -91 208 -163 466 -207 742 -30 189 -37 300 -37 595 -1 309 6 392 48
590 7 36 16 83 20 105 4 22 13 63 22 90 41 136 76 243 88 270 7 17 25 59 40
94 121 291 299 555 522 778 135 133 222 205 365 302 95 63 319 185 403 218
146 58 310 109 445 138 41 9 93 20 115 25 34 8 128 21 235 33 94 11 422 6 540
-8z m14100 -5155 c0 -16 -4 -30 -10 -30 -5 0 -10 14 -10 30 0 17 5 30 10 30 6
0 10 -13 10 -30z"/>
<path d="M13080 18170 c-451 -36 -1232 -118 -1370 -145 -287 -55 -503 -150
-630 -275 -86 -85 -123 -141 -159 -237 -71 -188 -90 -390 -67 -688 20 -257 42
-496 55 -590 5 -38 14 -115 20 -170 6 -55 16 -140 22 -190 6 -49 14 -144 20
-210 5 -66 11 -130 14 -143 6 -26 17 -136 45 -452 27 -300 48 -526 55 -575 3
-22 10 -92 15 -155 10 -131 32 -337 55 -520 16 -130 52 -418 86 -700 11 -91
24 -213 29 -272 5 -59 11 -112 14 -117 3 -5 10 -62 15 -127 6 -66 15 -162 21
-214 6 -52 17 -153 26 -225 8 -71 19 -170 25 -220 6 -49 14 -142 19 -205 21
-257 70 -525 126 -684 30 -85 103 -221 149 -276 32 -38 138 -131 140 -121 0 2
18 -5 40 -14 24 -11 81 -21 140 -25 108 -7 185 7 283 52 89 42 195 178 230
298 44 147 51 203 51 409 1 113 -3 230 -9 260 -5 31 -14 110 -20 176 -16 171
-28 287 -40 390 -28 234 -40 350 -51 468 -12 130 -7 289 12 362 6 22 15 58 20
80 9 37 31 86 63 143 36 63 183 189 253 218 21 9 52 22 68 30 82 37 231 69
375 79 47 4 101 11 120 15 19 5 91 16 160 25 308 41 718 143 910 228 19 8 64
27 100 42 99 41 297 149 375 204 39 27 95 67 125 88 54 37 287 263 344 333 63
77 114 147 142 195 16 27 34 59 41 70 46 77 173 354 173 378 0 5 11 34 25 64
14 29 30 72 35 96 5 23 25 96 44 162 19 66 41 154 47 195 7 41 16 83 20 92 5
9 9 106 10 215 1 193 -12 309 -42 365 -5 10 -9 26 -9 35 0 10 -19 72 -41 137
-85 241 -299 617 -487 853 -103 129 -302 316 -393 369 -10 6 -27 18 -36 26
-23 20 -207 127 -258 151 -22 10 -58 27 -80 37 -22 11 -58 26 -80 34 -22 8
-65 24 -95 35 -30 12 -61 21 -68 21 -8 0 -28 6 -45 14 -55 24 -314 77 -472 96
-114 14 -568 20 -705 10z m543 -1095 c147 -21 291 -58 356 -91 14 -8 31 -14
37 -14 37 0 267 -164 339 -242 69 -75 135 -159 135 -173 0 -4 11 -21 24 -38
25 -34 62 -115 95 -213 19 -54 28 -96 51 -239 12 -73 12 -264 -1 -326 -6 -30
-13 -67 -15 -84 -6 -31 -32 -120 -59 -193 -8 -23 -26 -60 -40 -82 -14 -22 -25
-42 -25 -44 0 -21 -112 -160 -189 -234 -189 -183 -438 -295 -836 -377 -193
-40 -556 -83 -660 -79 -205 9 -372 79 -487 202 -49 52 -111 143 -121 177 -3
11 -17 52 -30 90 -35 97 -52 211 -93 610 -8 77 -16 160 -19 185 -43 354 -46
501 -15 620 20 77 23 83 60 160 38 79 47 91 102 147 138 140 335 210 652 232
82 6 151 13 154 16 13 12 482 4 585 -10z"/>
</g>
</svg>
