<?xml version="1.0" encoding="UTF-8"?>
<svg id="Layer_2" data-name="Layer 2" xmlns="http://www.w3.org/2000/svg" viewBox="0 0 101.22 52.07">
  <defs>
    <style>
      .cls-1 {
        fill: #db1f26;
      }
    </style>
  </defs>
  <g id="Layer_1-2" data-name="Layer 1">
    <g>
      <path class="cls-1" d="M18.23,35.81c2.85-1.49,2.74-2.92,2.68-3.69-.04-.54-.78-.35-1.23-.22-.25.09-.7.21-1.34.43-1.65.57-3.24,1.15-4.73,1.72l2.28-3.76c3.86-1.51,17.7-6.41,21.69-8.02,1.04-.42,1.19-1.06,1.16-1.4-.04-.54-.71-1.14-1.33-1.54-.48-.28-.77-.26-1.06-.22-1.32.19-13.73,4.24-16.27,5.12-9.94,3.44-17.1,7.51-17.1,7.51-.34.24-.39.4-.39.49,0,.09.13,1.16.34,1.83.17.56.53.49,1.08.39.45-.1,1.5-.37,2.87-.85,1.53-.53,2.95-1.02,4.32-1.52l-2.37,3.91c-2.84,1.19-4.67,2.03-4.67,2.03-.81.43-1.88,1.8-1.8,2.77.11.61.6.56,1.36.29.67-.23,1.53-.5,2.54-.85L.24,50.16c-.21.28-.25.53-.24.73.05.69.66.95,1.72,1.14.27.06.49.04.65-.02.32-.11.49-.38.76-.68.18-.21,4.16-6.8,7.71-12.71l1.91-.66c2.73-.95,5.16-1.99,5.48-2.16Z"/>
      <path class="cls-1" d="M35.81,34c-.1.03-.82.73-.95.83-.83.7-4.85,4.27-5.67,4.64-.16.06-.19.07-.19.04,0-.03.02-.1.08-.18.11-.24.33-.73.69-1.18.35-.48,1.63-2.1,2.39-2.83.3-.31.41-.64.38-.93-.03-.4-.29-.78-.6-.97-.24-.18-.66-.1-1.07.05-.41.14-.76.32-.85.35-.13.04-.16,0-.17-.06,0-.06.02-.13.02-.13,0,0,.44-.62.91-1.26.12-.19.17-.3.16-.41-.02-.29-.42-.36-.49-.39-.1-.05-.29-.4-.8-.22-.1.03-.19.09-.31.17-.78.5-3.4,2.8-4.18,3.68-.57.67-.66,1.17-.64,1.46.02.2.12.34.14.51.02.19-1.8,1.83-3.57,3.38,1-1.77,1.61-3.44,1.52-4.53-.08-.97-1.69-1.15-1.69-1.15-.19.07-.35.15-.53.3-.55.46-1.14,1.22-1.26,1.38-.1-.05-.75-.03-1.04.06-3.15,1.09-7.32,7.66-7.02,11.44.05.63,1.95.35,2.37.21,1.77-.61,3.75-2.38,5.42-4.45.08.37.15.69.15.69.1.08.2.11.36.05.13-.04.25-.15.4-.26,1.59-1.76,6.31-6.01,7.21-7.03.12-.13.47-.31.75-.41.13-.04.22-.05.29-.07.13-.02.23.04.2.08-1.32,1.93-3.67,4.39-3.55,5.91.02.32.18.62.39.84.32.33.87.32,1.32.16,1.08-.43,3.45-2.14,4.5-2.97,1.01-.82,4.5-4.24,4.89-4.64.18-.15.94-.89.93-1.06,0-.11-.09-.26-.23-.45-.26-.35-.23-.83-.67-.68ZM14.88,44.98c-.25.09-.32.08-.32.02-.13-1.58,4.64-7.7,4.96-7.78.13-.04.13.04.14.16.11,1.38-3.21,6.85-4.78,7.6Z"/>
      <path class="cls-1" d="M55.81,25.67s1.25-.64,5.7-3.8c4.39-3.14,6.67-6.49,6.52-8.38-.13-1.63-2.78-2.93-4.12-3.4-.91-.31-2.65-.03-4.97.78-5.27,1.82-13.31,7.52-15.47,10.33-.18.24-.35.89-.31,1.49.05.69.65,1.66,1.48,1.37.29-.1.6-.29,1.06-.69.76-.68,3.4-2.8,7.01-4.99-3.52,4.99-10.22,15.99-10.68,17.21-.11.27-.16.5-.14.7.05.6,1.47,1.64,2.29,1.36.44-.15.8-.63.97-.95.25-.5,5.45-8.6,5.85-9.36,1.47,1.7,4.89,8.59,7.31,7.75.29-.1.66-.29,1.07-.52,1.47-.77,1.66-1.34,1.62-1.85-.11-1.35-4.64-6.64-5.19-7.04ZM52.75,24.13c.54-.66,3.61-5.96,4.42-7.21.17-.27.25-.5.24-.67-.01-.14-.09-.26-.22-.36,1.48-.72,2.99-1.36,4.55-1.9,3.27-1.13,3.35-.21,3.35-.21.07,2.57-9.08,9.44-11.9,10.42-.35.12-.43-.06-.43-.06Z"/>
      <path class="cls-1" d="M96.47,14.45c0-.11-.09-.26-.23-.45-.26-.35-.23-.83-.67-.68-.1.03-.82.73-.95.83l-5.04,4.36s-2.41,2.1-2.92,2.28c-.13.04-.16.03-.17-.03-.03-.4.09-.97.36-1.66,3.23-2.53,14.67-14.18,14.36-18.13-.22-.66-.96-.99-1.61-.97-.95.33-2.85,1.52-5.21,3.84-3.62,3.53-7.96,9.21-10.1,13.89l-2.86,2.49c-.21.19-2.1,1.9-2.2,1.94.07-.32,1.92-3.73,2.04-3.94.02-.1.05-.17.05-.25-.01-.14-.09-.26-.18-.26-.13-.01-.3-.1-.31-.19-.02-.2,1.69-1.29,1.65-1.89-.03-.43-.48-1.1-1.29-1.08-.13.02-.29.04-.48.11-1.85.64-5.93,3.72-8.31,7.05-.13.12-.24.22-.28.25l-4.43,3.83s-2.51,2.16-3.97,2.67c-.38.13-.42.11-.42.03-.03-.37,4.88-4.31,5.2-4.42.41-.14.43-.3.41-.58-.03-.43-.29-1.14-.76-1-.5.23-1.33.55-2.03.79-.64.22-.73.25-.74.2,0-.09.2-.34.42-.5.24-.23,2.94-2.02,3.04-2.05.29-.04.19.38.54.25,0,0,3.51-1.83,3.41-3.15-.07-.92-1.51-.92-2.4-.61-.89.31-2.9,1.24-5.29,3.3-2.69,2.31-3.11,3.17-3.05,3.94.1,1.23.55,1.19,1.65.99.19-.07.26-.03.26.03-.05.14-.39.4-.58.55-.39.37-3.06,2.53-2.95,3.97.13,1.58,1.83,1.66,3.8.98,1.08-.37,3.23-2.44,4.82-3.88,0,0,.72-.72,1.55-1.54-.03.26-.04.52-.02.78.05.57.98,1.22,1.55,1.02.67-.23,2.36-1.55,3.27-2.43.06-.02.1.02.1.08,0,.06-.02.15-.05.25-.02.1-.04.31-.02.51.03.4.49.86,1.29.59,1.14-.4,4.04-3.02,4.49-3.47,0,0,.94-.93,1.92-1.89-.12.63-.17,1.22-.13,1.75.04.46.49,1.63,1.82,1.17,2.26-.78,6.05-3.98,6.78-4.7l3.97-3.88c.18-.15.94-.89.93-1.06ZM97.9,3.6c.09-.09.19-.12.22-.13.06-.02.1,0,.1.05,0,.09-.05.19-.14.34-1.72,3.04-5.1,7.36-7.78,9.73l-.68.44c2.68-4.14,6.36-8.77,8.28-10.43ZM74.4,23.8c-.06.02-.1,0-.1-.05-.08-1.06,3.22-4.71,4.35-5.25.1-.03.2,0,.2.08.03.34-3.34,4.75-4.45,5.22Z"/>
      <path class="cls-1" d="M97.05,15.99c-.73.25-2.73,2.27-2.63,3.47.02.26,1.11.38,1.43.27,1.21-.42,2.77-2.55,2.7-3.47-.02-.26-1.24-.37-1.49-.28Z"/>
    </g>
  </g>
</svg>