<?xml version="1.0" encoding="UTF-8"?>
<svg id="Layer_2" data-name="Layer 2" xmlns="http://www.w3.org/2000/svg" viewBox="0 0 108.19 54.05">
  <defs>
    <style>
      .cls-1 {
        fill: #db2329;
      }
    </style>
  </defs>
  <g id="Layer_1-2" data-name="Layer 1">
    <path class="cls-1" d="M46.15,52.34c-4.28.77-8.53,1.33-12.77,1.54l-1.55.08c-2.45.12-4.9.15-7.36,0l-1.51-.09c-6.57-.38-15.83-2.13-20.35-7.18-2.09-2.33-2.98-5.33-2.45-8.41.6-3.54,2.64-6.87,4.95-9.58l1.62-1.68.99-.98c1.28-1.26,2.66-2.33,3.99-3.54s2.66-2.41,4.39-3.15c3.07-2.09,6.24-3.9,9.55-5.6,2.62-1.34,5.27-2.58,7.99-3.72C47.25,4.34,62.72.52,77.45,0h5.37c3.3.12,6.51.42,9.74,1.07l4.14,1.05c1.99.63,3.86,1.43,5.64,2.51.85.52,1.64,1.06,2.33,1.76l.83.83c2.63,2.88,3.27,6.44,2.16,10.17-1.34,4.24-4.27,7.77-7.47,10.87l.81,7.65c.05.44.12.82.06,1.27-.56.24-1.15.3-1.75.19l-4.07-4.96-5.97,4.06c-4.09,2.51-8.34,4.72-12.75,6.65-9.71,4.25-19.88,7.33-30.39,9.21ZM99.07,34.48l-.47-4.8-2.1,1.76,2.58,3.04Z"/>
  </g>
</svg>