<?xml version="1.0" encoding="UTF-8"?>
<svg id="Layer_2" data-name="Layer 2" xmlns="http://www.w3.org/2000/svg" viewBox="0 0 85.56 111.51">
  <defs>
    <style>
      .cls-1 {
        fill: #ffc50d;
      }
    </style>
  </defs>
  <g id="Layer_1-2" data-name="Layer 1">
    <path class="cls-1" d="M13.73,96.85c.88,2.49,1.71,6.36,1.16,8.83-.16.71-.61,1.21-1.1,1.72l-2.12,2.2-.89.99c-.63.7-1.39,1-2.31.89-.47-.06-.9-.11-1.36-.32-1.49-.68-2.67-1.78-3.68-3.07-2.47-3.15-3.71-7.11-3.38-11.11l.17-2.11.1-.95.91-6.24.83-5.6.52-1.99c.81-2.33,2.02-3.55,4.02-4.85l2.09-1.36,2.14-1.08c1.46-.73,3.05-1.04,4.67-1.22l2.34-.26c2.22-.24,4.39-.12,6.58.33l3.85.79c1.04.21,2.05.29,3.11.19.32-.09.65-.1.93.12,1.17-.05,1.72.07,2.48,1,.53-.65,1.18-1.02,1.96-1.1.45-.04.75-.25.94-.65l1.09-2.37,1.66-3.61,2.68-6.24c.7-1.62.29-2.95-.99-4.09-.44-.39-.57-.88-.22-1.42l-.99-.83c-.2-.17-.45-.5-.35-.78.1-.3.44-.48.66-.67.49-.42.81-.92,1.15-1.45.11-.17.23-.4.08-.59l-.94-1.18c-.24-.4-.59-.66-.97-.91-.75-.48-1.19-1.24-1.2-2.15-3.64-1.83-7.51-2.85-11.54-3.15h-4.33c-1.37,0-2.66.31-4,.61-1.9,1.44-4.75,2.96-7.09,2.84-1.39-.08-2.7-.44-3.89-1.11-1.05-.6-1.78-1.52-2.25-2.62-.54-1.27-.85-2.57-.97-3.96v-3.7c.12-2.09.51-4.06,1.04-6.09.63-2.42,1.49-4.66,2.46-6.96s2.12-4.52,3.43-6.71c2.12-3.56,4.63-6.86,7.61-9.72,1.43-1.37,2.91-2.51,4.61-3.5,1.38-.8,2.81-1.34,4.4-1.56,1.28-.18,2.57.02,3.77.55,2.63,1.15,3.72,4.64,3.97,7.41l.08,1.82c.05,1.04,2.05,4.53,2.88,5.74,2.26,3.27,5.22,6.37,8.64,8.39l4.71,2.77,12.62,6.85,8.09,4.39c.85.46,1.66.85,2.39,1.47.38.16.71.36,1.12.36l2.54,1.71,2.26,1.76c2.15,1.68,3.49,4.18,3.68,6.93v1.81s-.09,1.5-.09,1.5l-.33,1.94c-.13.77-.38,1.44-.93,1.99l-1.06,1.06-1.66,1.41c-1.37,1.16-2.94,2.04-4.66,2.63-1.24.43-5.04-.63-6.65-1.21l-4.27-1.53c-.32-.11-.74.02-1.04.02l-1.08,1.39c-.12.15-.34.25-.42.44-.52.94-1.39,1.42-2.39,1.71-1.28.37-2.53.62-3.89.3l-3.77,6.01-5.08,8.26-.95,1.57c-.6.68-1.57.77-2.43.8-1.38.04-1.95.39-3.32-.53l-3.23-2.18-3.83-2.64c-.38.25-.78.53-1.26.54-1.96.02-2.67,1-4.15-.57-.19-.2-.37-.27-.62-.27l-1.88-.02-1.1-.06c-1.8-.1-3.53-.06-5.33.07l-5.02.36c-1.6.11-5.02,1.4-5.85,2.6-.47.68-.53,1.51-.63,2.31v1.61c-.03,2.08,1.05,5.41,1.92,7.45,1.13,2.65,2.24,5.22,3.2,7.93ZM8.92,107.12c.33.26,1.75.6,2.39.55.23-1.3-.3-3.99-.7-5.33l-2.2-7.23-2.54-7.35c-.42-1.21-.54-2.44-.6-3.72s.17-2.44.7-3.56c.57-1.21,1.44-2.17,2.33-3.16s1.87-1.92,3-2.81c-.54-.15-1.03,0-1.54.11-1.44.3-3.67,1.03-4.35,2.26-1.77,3.22-2.88,6.7-3.36,10.35l-.27,3.16c-.18,2.98.15,5.85.87,8.73.33,1.32.76,2.51,1.48,3.65l.36.57.52.66.74.76.48.46c.67.64,1.32,1.29,2.18,1.66l.52.22Z"/>
  </g>
</svg>