<?xml version="1.0" standalone="no"?>
<!DOCTYPE svg PUBLIC "-//W3C//DTD SVG 20010904//EN"
 "http://www.w3.org/TR/2001/REC-SVG-20010904/DTD/svg10.dtd">
<svg version="1.0" xmlns="http://www.w3.org/2000/svg"
 width="3000.000000pt" height="3000.000000pt" viewBox="0 0 3000.000000 3000.000000"
 preserveAspectRatio="xMidYMid meet">
<metadata>
Created by potrace 1.16, written by Peter Selinger 2001-2019
</metadata>
<g transform="translate(0.000000,3000.000000) scale(0.100000,-0.100000)"
fill="#f7eb6f" stroke="none">
<path d="M13733 28133 c-13 -7 -41 -15 -61 -19 -20 -4 -50 -16 -67 -27 -74
-50 -85 -57 -91 -57 -4 0 -37 -20 -74 -44 -37 -25 -82 -51 -101 -59 -19 -9
-46 -26 -60 -39 -33 -30 -145 -167 -192 -236 -20 -29 -49 -70 -65 -90 -16 -20
-44 -64 -62 -97 -36 -64 -54 -90 -112 -160 -21 -26 -40 -62 -44 -83 -3 -20
-14 -50 -24 -67 -10 -16 -21 -52 -25 -80 -4 -27 -15 -76 -26 -108 -10 -31 -19
-62 -19 -68 0 -6 -9 -22 -20 -36 -12 -16 -20 -41 -20 -64 0 -43 -33 -135 -91
-255 -21 -44 -43 -104 -49 -134 -5 -29 -25 -92 -44 -139 -19 -47 -37 -110 -41
-140 -4 -29 -18 -74 -31 -100 -29 -56 -52 -158 -60 -266 -6 -82 -34 -180 -64
-225 -10 -14 -21 -45 -25 -69 -4 -24 -15 -58 -25 -75 -10 -17 -21 -51 -25 -76
-4 -25 -12 -53 -17 -64 -6 -10 -18 -78 -28 -150 -17 -124 -38 -205 -60 -231
-6 -7 -13 -41 -16 -76 -4 -35 -13 -75 -22 -88 -8 -14 -21 -45 -28 -70 -7 -25
-20 -64 -28 -86 -8 -22 -15 -57 -16 -77 0 -40 -42 -155 -72 -200 -10 -14 -18
-29 -18 -33 0 -4 -9 -19 -19 -34 -20 -27 -32 -85 -50 -231 -25 -199 -44 -311
-67 -390 -14 -48 -24 -123 -39 -279 -2 -26 -14 -58 -27 -75 -19 -26 -23 -43
-23 -106 0 -55 -5 -83 -17 -103 -13 -18 -18 -46 -18 -90 0 -49 -6 -75 -25
-111 -14 -26 -25 -62 -25 -79 0 -18 -9 -49 -20 -70 -11 -20 -20 -52 -20 -70 0
-41 -55 -214 -74 -236 -8 -9 -18 -29 -22 -45 -12 -49 -211 -232 -316 -291 -64
-36 -195 -122 -230 -152 -64 -53 -137 -97 -196 -118 -46 -17 -59 -18 -115 -6
-34 6 -74 21 -90 32 -49 35 -111 56 -201 68 -48 7 -106 20 -129 30 -70 31
-143 51 -183 52 -22 0 -82 9 -134 20 -52 11 -130 27 -174 35 -43 8 -89 22
-102 30 -14 10 -62 19 -121 24 -68 5 -120 16 -168 35 -95 37 -162 55 -205 55
-19 0 -56 7 -82 14 -26 8 -91 18 -145 22 -54 3 -118 13 -143 22 -41 13 -72 22
-252 67 -31 8 -91 33 -133 55 -41 22 -84 40 -95 40 -11 0 -46 9 -77 20 -32 11
-73 20 -93 20 -19 0 -55 9 -79 20 -24 11 -57 20 -75 20 -38 0 -172 25 -209 39
-16 6 -40 11 -55 11 -15 0 -40 9 -57 20 -16 11 -68 31 -115 46 -47 14 -101 32
-120 39 -19 7 -72 18 -117 24 -46 6 -101 20 -122 31 -22 11 -47 20 -56 20 -9
0 -33 9 -53 19 -20 11 -68 30 -107 44 -38 13 -86 30 -105 37 -116 42 -235 80
-252 80 -10 0 -38 9 -61 19 -24 11 -55 23 -70 26 -15 4 -30 11 -32 16 -7 10
-153 55 -242 73 -100 21 -212 65 -293 115 -42 27 -131 60 -175 66 -27 4 -67
11 -87 16 -20 5 -68 13 -107 18 -64 8 -161 38 -201 62 -59 36 -111 53 -170 55
-36 2 -123 8 -195 15 -71 6 -184 11 -250 10 -103 -2 -125 -6 -155 -24 -23 -14
-54 -22 -95 -24 -34 -1 -85 -11 -114 -23 -28 -11 -73 -20 -99 -20 -29 -1 -66
-10 -97 -25 -27 -14 -59 -25 -70 -26 -11 0 -49 -15 -85 -34 -36 -19 -81 -41
-100 -50 -19 -9 -51 -31 -70 -50 -19 -18 -48 -37 -65 -41 -45 -10 -104 -71
-110 -113 -4 -20 -8 -45 -10 -57 -3 -11 -23 -39 -45 -61 -22 -23 -40 -51 -40
-63 0 -12 -23 -46 -54 -78 -61 -65 -76 -90 -76 -126 0 -15 -9 -43 -20 -63 -12
-23 -20 -57 -20 -86 0 -43 -5 -53 -45 -96 -41 -43 -45 -53 -45 -97 0 -30 8
-64 20 -87 24 -45 26 -94 3 -126 -9 -14 -20 -47 -24 -74 -7 -42 -5 -56 18 -98
30 -58 34 -129 10 -174 -16 -29 -15 -31 18 -93 29 -51 35 -73 35 -121 0 -60 2
-64 82 -164 19 -23 23 -41 23 -96 0 -65 2 -70 40 -113 22 -25 62 -81 89 -124
27 -43 64 -102 82 -131 19 -28 34 -62 34 -75 0 -22 28 -70 106 -179 17 -24 35
-60 39 -79 10 -50 65 -142 142 -238 24 -31 43 -65 43 -78 0 -14 18 -49 40 -79
22 -30 40 -57 40 -61 0 -11 108 -170 125 -184 8 -7 15 -22 15 -34 0 -22 31
-71 87 -141 18 -22 57 -89 88 -150 41 -81 72 -126 120 -176 36 -37 65 -74 65
-83 0 -16 31 -90 57 -136 7 -14 27 -54 44 -90 17 -36 46 -83 64 -105 51 -63
141 -205 165 -260 12 -27 30 -66 40 -85 10 -19 21 -51 25 -70 4 -20 35 -69 69
-112 56 -72 112 -162 152 -248 9 -19 29 -54 45 -78 16 -23 41 -68 55 -98 15
-31 39 -70 54 -88 27 -31 39 -60 60 -151 16 -70 66 -152 124 -205 122 -112
117 -105 110 -148 -5 -35 -2 -43 25 -71 17 -17 31 -42 31 -56 0 -23 64 -85 88
-85 19 0 55 -62 54 -92 0 -17 7 -51 17 -77 10 -25 22 -68 26 -96 9 -63 17 -78
65 -121 50 -45 90 -117 90 -161 0 -21 -16 -67 -38 -111 -76 -150 -92 -188 -92
-210 0 -13 -9 -40 -20 -62 -11 -22 -20 -45 -20 -52 0 -7 -9 -29 -19 -49 -11
-20 -23 -54 -26 -75 -10 -56 -56 -207 -69 -223 -5 -7 -13 -42 -17 -77 -3 -36
-17 -86 -29 -112 -47 -98 -59 -128 -64 -164 -9 -72 -174 -264 -296 -346 -30
-20 -76 -53 -103 -74 -32 -25 -62 -39 -95 -44 -60 -8 -115 -36 -172 -86 -127
-110 -161 -138 -170 -138 -6 0 -27 -15 -47 -34 -21 -18 -51 -40 -68 -49 -16
-8 -54 -36 -84 -62 -55 -47 -100 -75 -123 -75 -7 -1 -58 -39 -113 -85 -55 -47
-106 -85 -114 -85 -16 0 -77 -38 -158 -97 -31 -23 -72 -44 -90 -48 -19 -3 -53
-19 -76 -36 -23 -16 -58 -40 -77 -53 -19 -13 -54 -44 -78 -69 -25 -28 -67 -58
-105 -76 -34 -16 -80 -44 -102 -61 -56 -45 -140 -100 -152 -100 -6 0 -41 -20
-77 -45 -37 -25 -71 -45 -76 -45 -4 0 -13 -7 -20 -15 -7 -8 -45 -33 -86 -56
-40 -22 -76 -44 -79 -50 -4 -5 -14 -9 -23 -9 -9 0 -39 -11 -67 -25 -27 -13
-56 -25 -63 -25 -8 0 -41 -20 -73 -45 -33 -25 -63 -45 -67 -45 -4 0 -23 -15
-42 -33 -44 -42 -130 -107 -141 -107 -16 0 -136 -85 -186 -132 -28 -26 -60
-48 -69 -48 -47 0 -196 -73 -262 -129 -28 -22 -55 -41 -62 -41 -6 0 -26 -11
-44 -25 -18 -14 -36 -25 -40 -25 -4 0 -35 -22 -69 -50 -34 -27 -84 -61 -112
-75 -27 -14 -59 -30 -70 -37 -92 -57 -150 -90 -207 -117 -39 -18 -75 -43 -88
-60 -26 -37 -95 -85 -146 -101 -24 -7 -62 -35 -99 -71 -33 -32 -90 -87 -126
-121 -61 -58 -67 -67 -73 -115 -5 -41 -14 -60 -40 -85 -29 -30 -86 -112 -126
-185 -28 -50 -69 -111 -79 -117 -5 -4 -13 -21 -16 -39 -4 -17 -18 -50 -31 -73
-19 -33 -25 -59 -28 -130 -2 -49 -11 -116 -20 -149 -20 -74 -20 -98 0 -137 17
-32 15 -68 -6 -167 -11 -50 -10 -55 14 -90 18 -26 26 -50 26 -80 0 -31 7 -51
25 -73 29 -34 31 -57 10 -99 -17 -32 -13 -49 11 -49 32 0 73 -31 83 -63 7 -20
34 -53 67 -82 31 -26 63 -62 70 -79 19 -43 53 -81 90 -99 40 -20 48 -49 23
-81 -30 -39 -24 -70 20 -105 21 -17 45 -31 52 -31 8 -1 32 -8 54 -16 22 -8 64
-19 94 -24 49 -8 62 -17 120 -75 91 -90 263 -205 308 -205 7 0 24 -6 36 -14
28 -18 159 -62 211 -71 21 -3 48 -13 60 -20 12 -8 48 -17 81 -21 33 -3 112
-23 175 -44 63 -21 138 -41 165 -44 28 -4 75 -15 105 -25 30 -10 91 -22 134
-26 44 -4 89 -13 100 -20 12 -8 39 -17 61 -21 22 -4 60 -18 84 -31 26 -14 61
-23 87 -23 23 0 55 -5 71 -11 15 -6 54 -15 87 -20 32 -6 75 -18 95 -28 20 -10
73 -24 119 -31 61 -9 97 -21 138 -46 31 -19 63 -34 71 -34 8 0 28 -7 44 -16
17 -8 68 -21 112 -29 45 -7 100 -20 122 -28 22 -9 58 -16 80 -17 30 0 54 -10
94 -37 29 -21 62 -43 73 -49 11 -7 34 -25 51 -41 18 -17 54 -36 82 -43 28 -8
68 -22 90 -32 22 -9 56 -18 75 -18 19 0 57 -11 85 -24 122 -57 143 -66 163
-66 12 0 42 -11 68 -25 26 -14 61 -25 78 -25 18 0 70 -14 116 -31 47 -17 103
-34 125 -39 22 -4 68 -19 102 -34 35 -14 71 -26 80 -26 10 0 32 -9 48 -20 17
-11 46 -20 65 -20 19 -1 53 -8 75 -16 22 -9 58 -20 79 -26 22 -6 66 -29 97
-50 38 -25 70 -38 91 -38 18 0 51 -11 73 -25 22 -13 55 -25 72 -25 18 0 50 -6
70 -14 21 -8 65 -16 99 -19 39 -3 78 -14 110 -31 27 -14 64 -26 82 -26 70 0
114 -43 172 -165 18 -38 44 -95 59 -125 14 -30 43 -77 63 -105 21 -27 38 -55
38 -61 0 -6 9 -22 19 -36 11 -13 23 -36 26 -51 4 -14 13 -31 20 -37 8 -7 19
-28 26 -48 6 -20 17 -44 24 -52 7 -8 16 -26 20 -40 6 -25 18 -51 69 -160 14
-30 26 -65 26 -77 0 -21 43 -114 66 -143 6 -8 15 -25 19 -38 9 -32 62 -139 91
-187 13 -22 30 -51 36 -65 7 -14 21 -37 31 -51 9 -14 22 -50 28 -80 10 -50 8
-64 -20 -163 -17 -59 -51 -146 -75 -194 -74 -145 -83 -166 -91 -202 -4 -19
-27 -78 -52 -130 -79 -168 -83 -176 -83 -196 0 -10 -10 -39 -21 -64 -19 -42
-21 -65 -22 -370 -2 -312 -3 -327 -24 -365 -12 -22 -31 -65 -43 -95 -12 -30
-29 -71 -37 -90 -21 -50 -53 -209 -63 -315 -9 -103 -16 -138 -38 -180 -9 -16
-18 -61 -22 -100 -6 -62 -15 -108 -52 -250 -5 -22 -19 -80 -29 -129 -11 -49
-26 -98 -34 -110 -8 -11 -15 -32 -15 -46 0 -14 -7 -38 -15 -54 -9 -16 -27 -63
-41 -104 -24 -68 -26 -88 -27 -260 -2 -166 1 -196 21 -266 12 -44 22 -91 22
-106 0 -14 8 -50 19 -80 10 -30 22 -86 26 -125 4 -38 12 -79 19 -90 15 -24 66
-168 66 -187 1 -7 9 -31 20 -53 11 -22 19 -52 20 -66 0 -14 11 -48 25 -75 14
-27 32 -74 41 -104 27 -95 32 -104 82 -128 82 -41 183 -52 467 -52 239 0 340
4 710 29 182 13 415 39 515 57 47 9 126 20 175 25 86 9 220 33 370 67 39 8
113 21 165 27 52 7 138 20 190 28 52 9 131 21 175 27 146 21 249 38 345 59 52
11 108 21 124 21 16 0 45 4 65 9 20 6 65 17 101 26 36 9 79 22 95 30 17 7 50
16 75 20 25 4 56 13 70 20 14 7 61 17 105 23 44 6 98 18 119 27 22 9 82 20
135 24 53 5 108 13 123 19 15 6 58 14 95 18 38 3 82 14 99 24 17 9 56 20 88
24 31 4 110 21 174 38 112 29 146 36 257 56 129 23 236 45 295 59 36 8 90 19
120 23 30 4 73 15 94 24 21 9 64 19 95 22 31 4 70 12 86 20 17 7 57 21 90 30
87 25 144 51 190 88 83 67 125 82 317 116 100 18 172 46 218 85 8 7 25 16 38
20 12 3 51 35 86 71 58 59 67 64 106 64 30 0 50 7 72 25 19 16 42 25 64 25 19
0 52 9 74 20 66 34 98 27 177 -36 46 -38 70 -41 114 -18 27 14 33 14 53 0 25
-16 176 -38 271 -40 33 -1 71 -7 84 -15 17 -10 44 -12 91 -8 48 4 80 1 111
-10 50 -18 166 -30 384 -39 83 -3 172 -12 199 -20 30 -8 96 -14 164 -14 127 0
248 -19 362 -58 67 -23 91 -26 225 -26 84 0 185 6 230 14 93 16 296 16 335 0
18 -7 77 -10 166 -8 90 3 153 0 179 -8 52 -15 145 2 230 41 67 31 141 42 335
51 69 2 141 9 160 14 19 6 59 10 88 10 29 0 73 5 97 11 32 8 81 8 177 0 130
-10 170 -8 333 19 33 6 90 14 127 18 41 5 74 15 86 26 18 15 31 17 119 10 127
-10 176 -9 243 6 79 18 171 50 200 70 17 12 36 16 58 13 39 -6 114 12 158 38
17 11 42 19 55 19 13 0 44 10 69 21 25 11 70 23 100 26 30 3 69 13 85 23 18
11 63 21 115 25 47 4 96 13 110 20 14 7 61 15 104 19 46 4 95 15 117 27 21 10
43 19 49 19 6 0 29 9 52 20 23 11 57 23 76 26 19 4 72 20 116 36 45 17 99 36
121 44 22 8 56 23 76 34 20 11 45 20 55 20 11 0 30 9 44 20 14 11 29 20 33 20
7 0 67 26 152 65 41 19 255 133 313 168 26 15 58 32 72 37 14 6 37 17 52 25
29 16 123 21 133 6 3 -5 27 -21 53 -36 41 -24 61 -28 157 -31 61 -3 160 -7
220 -10 192 -9 255 -8 500 5 132 7 283 14 335 16 52 3 176 9 275 15 99 5 275
14 390 20 116 5 260 14 320 20 61 6 200 14 310 20 110 5 252 14 315 19 63 5
237 15 386 21 149 6 286 15 304 20 18 5 144 14 279 20 135 6 255 13 266 16 29
8 173 21 375 34 96 6 189 15 206 20 31 10 49 13 199 25 44 4 117 16 163 26 45
10 104 19 130 19 26 0 75 7 107 16 33 9 89 22 125 28 36 7 71 16 78 20 13 8
168 36 217 39 17 1 46 12 66 23 53 32 185 213 253 349 14 28 39 74 56 104 16
30 30 65 30 78 0 14 7 51 15 83 16 61 16 81 -4 462 -11 218 -28 285 -97 385
-48 68 -134 227 -134 246 0 35 -129 235 -194 299 -25 26 -56 50 -67 53 -34 11
-162 86 -199 117 -19 16 -105 98 -191 181 -86 84 -201 193 -256 244 -55 51
-115 113 -134 140 -19 26 -59 73 -90 104 -57 55 -198 219 -254 293 -35 46
-210 207 -365 337 -148 123 -204 211 -246 382 -27 110 -58 197 -84 237 -27 41
-60 115 -60 136 0 10 -9 34 -20 52 -11 17 -27 63 -36 102 -18 82 -8 180 30
295 13 39 35 106 50 150 23 72 37 111 83 225 8 19 20 62 28 95 35 154 87 264
168 353 34 37 80 89 102 115 49 58 183 177 260 232 31 22 80 58 108 80 29 22
72 54 97 70 24 17 69 54 100 83 80 77 200 154 261 167 43 9 98 39 169 90 62
45 80 56 130 85 19 11 53 33 75 49 22 16 67 45 100 64 33 20 91 63 129 96 38
34 77 61 86 61 10 0 23 7 30 15 13 16 97 75 106 75 3 0 32 21 64 48 104 83
160 122 188 133 72 27 135 64 308 180 21 15 72 58 113 97 46 44 86 74 105 78
34 7 156 102 189 146 11 15 30 31 41 34 41 13 188 118 220 156 17 22 60 69 96
106 88 90 112 123 168 228 6 11 23 46 38 79 16 33 36 71 45 85 9 14 20 41 23
60 4 19 15 55 25 80 11 25 29 95 42 155 22 99 24 132 22 324 -2 194 -5 224
-29 320 -18 70 -39 126 -64 166 -20 34 -39 69 -43 78 -10 27 -203 260 -238
287 -18 14 -51 41 -73 61 -46 40 -97 76 -141 101 -75 41 -214 107 -250 118
-22 7 -51 21 -64 31 -13 11 -28 19 -32 19 -10 0 -151 94 -208 138 -84 66 -285
152 -391 168 -25 4 -71 17 -102 30 -32 13 -67 24 -78 24 -11 0 -52 18 -91 40
-39 22 -76 40 -82 40 -7 0 -45 23 -86 50 -40 28 -81 50 -91 50 -9 0 -57 20
-106 45 -49 25 -95 45 -102 45 -7 0 -30 9 -52 20 -22 11 -50 20 -62 20 -13 0
-40 9 -61 20 -20 11 -43 20 -50 20 -7 0 -30 9 -51 19 -21 11 -52 23 -69 26
-18 4 -47 16 -65 26 -18 10 -39 19 -45 19 -7 0 -28 8 -47 19 -19 10 -46 21
-60 25 -14 4 -61 25 -105 45 -175 83 -192 91 -198 91 -4 0 -38 20 -77 45 -39
25 -73 45 -77 45 -3 0 -31 17 -61 38 -73 50 -102 69 -133 86 -14 8 -65 45
-113 81 -48 36 -94 65 -102 65 -9 0 -39 19 -67 43 -29 24 -72 56 -97 72 -64
42 -98 73 -240 216 -119 120 -153 165 -233 312 -16 29 -36 63 -45 77 -21 32
-122 232 -122 241 0 4 -18 37 -41 74 -22 37 -43 74 -47 83 -3 10 -25 41 -49
70 -24 29 -43 58 -43 63 0 6 -8 23 -19 37 -10 15 -22 38 -26 52 -4 14 -13 32
-21 40 -7 9 -16 52 -20 95 -5 65 -2 95 14 155 11 41 24 95 27 120 4 25 16 68
26 95 11 28 19 59 19 70 0 12 9 38 19 59 11 21 23 52 27 69 3 18 10 37 15 43
12 15 55 148 68 209 5 28 19 68 31 90 11 21 20 54 20 72 0 19 7 50 16 71 9 20
22 60 29 87 8 28 20 70 29 95 32 97 92 328 106 410 4 25 15 72 24 105 9 32 16
71 16 85 0 14 9 43 19 65 10 22 21 58 25 80 4 22 16 69 28 105 11 36 26 85 34
110 7 25 18 119 25 210 7 107 18 185 30 222 10 32 19 69 19 84 0 14 9 38 19
53 11 14 22 49 26 76 3 28 14 70 24 95 36 89 44 116 61 210 10 52 25 124 34
160 8 36 16 82 16 104 0 21 9 53 20 71 11 18 23 60 26 96 4 38 15 75 26 91 11
15 22 45 25 65 3 21 12 47 19 58 8 11 14 26 14 35 0 8 12 38 25 65 14 28 25
60 25 72 0 12 10 44 21 70 12 27 29 66 39 88 9 22 29 65 43 95 40 86 68 170
107 320 6 25 18 68 27 95 8 28 21 118 28 200 8 83 19 177 26 210 19 103 16
287 -7 410 -18 92 -29 125 -69 195 -27 47 -72 115 -102 152 -53 66 -113 166
-113 187 0 16 -115 166 -147 190 -15 12 -52 40 -81 62 -61 48 -130 69 -223 69
-55 0 -77 5 -125 31 l-58 30 -366 0 c-542 0 -634 -4 -700 -29 -91 -34 -170
-79 -245 -138 -53 -41 -127 -81 -167 -89 -40 -9 -152 -73 -262 -148 -35 -24
-108 -57 -193 -87 -76 -26 -191 -75 -256 -109 -80 -42 -129 -61 -155 -61 -20
-1 -55 -8 -77 -16 -22 -8 -54 -20 -71 -25 -18 -5 -37 -16 -44 -24 -7 -8 -31
-20 -54 -25 -51 -14 -116 -45 -176 -86 -25 -17 -76 -48 -115 -69 -38 -21 -77
-44 -86 -52 -9 -7 -49 -23 -90 -34 -41 -11 -94 -33 -119 -49 -25 -16 -77 -41
-115 -55 -39 -15 -75 -31 -81 -36 -6 -5 -36 -16 -65 -25 -30 -9 -58 -20 -64
-24 -5 -4 -25 -11 -44 -15 -19 -4 -78 -36 -131 -71 -86 -57 -103 -64 -146 -64
-96 0 -273 -36 -313 -64 -20 -14 -42 -26 -49 -26 -11 0 -215 -103 -237 -120
-5 -4 -28 -10 -50 -13 -54 -9 -171 -44 -220 -66 -56 -26 -144 -59 -180 -67
-16 -4 -41 -13 -55 -20 -65 -33 -147 -65 -184 -71 -23 -3 -53 -12 -68 -19 -41
-21 -79 -17 -157 16 -40 17 -98 35 -129 41 -31 6 -108 35 -171 66 -118 58
-186 113 -198 162 -6 27 -43 102 -91 183 -15 26 -42 73 -61 105 -33 58 -105
170 -145 228 -69 100 -149 220 -154 234 -11 30 -47 76 -110 142 -35 37 -69 75
-75 87 -44 76 -127 247 -127 260 0 9 -29 63 -65 120 -36 57 -65 110 -65 119 0
13 -49 107 -110 213 -5 8 -26 49 -46 90 -21 41 -81 134 -134 205 -91 123 -136
187 -169 245 -42 73 -81 156 -81 172 0 10 -9 36 -20 58 -11 22 -20 45 -20 52
0 24 -130 286 -206 413 -29 50 -58 101 -64 115 -32 73 -61 130 -70 135 -5 3
-26 34 -45 68 -20 34 -50 80 -66 102 -16 22 -36 55 -44 74 -9 19 -30 53 -48
75 -28 36 -59 81 -92 137 -6 9 -32 49 -60 88 -27 40 -53 77 -56 84 -27 53 -59
126 -59 136 0 6 -9 25 -20 41 -11 17 -29 43 -40 60 -11 16 -20 33 -20 37 0 4
-12 31 -25 58 -14 28 -25 60 -25 72 0 24 -50 153 -67 175 -6 7 -14 24 -18 38
-17 60 -101 209 -148 264 -29 32 -63 75 -77 96 -69 103 -82 124 -113 182 -45
85 -90 158 -214 348 -115 178 -255 320 -368 374 -33 15 -78 36 -100 47 -117
55 -179 66 -405 72 -149 4 -233 10 -273 21 -71 20 -327 18 -364 -1z"/>
</g>
</svg>
