<?xml version="1.0" encoding="UTF-8"?>
<svg id="Layer_2" data-name="Layer 2" xmlns="http://www.w3.org/2000/svg" viewBox="0 0 95.34 97.12">
  <defs>
    <style>
      .cls-1 {
        fill: #ffc50c;
      }
    </style>
  </defs>
  <g id="Layer_1-2" data-name="Layer 1">
    <path class="cls-1" d="M42.13,97.07c-3.2.52-10.56-2.55-13.71-4.17l-3.39-1.74c-2.76-1.61-5.4-3.35-7.85-5.4l-.74-.62-1.14-1.06-1.96-1.96-1.35-1.4-.89-1.07-.59-.74-.95-1.26-1.47-2.13-.99-1.54c-.61-.96-1.14-1.9-1.64-2.92l-.95-1.95-1.27-3.13c-.88-2.17-1.47-4.41-2.01-6.69l-.19-1-.14-.82-.17-1.09-.16-.94c-.07-.41-.11-.77-.15-1.19-.03-.28-.19-.56-.12-.88.07-.34-.11-.64-.12-.95l-.05-1.86-.13-.42.02-3.11c0-.31.2-.62.14-.96-.09-.56.1-1.1.12-1.65s.08-.99.15-1.51l.16-1.25c.05-.37.1-.72.16-1.1l.15-.88.16-.86c.06-.32.09-.62.17-.93l.88-3.46c.6-2.37,1.57-4.56,2.54-6.8l.88-1.71,1.22-2.25c1.87-3.2,4.12-6.1,6.63-8.81l1.46-1.46,1.37-1.3c4.27-3.78,9.49-7.03,14.84-9.03,1.19-.44,2.29-.88,3.52-1.19l2.61-.67.76-.17c.26-.06.52-.12.78-.16l.95-.16.94-.16,1.02-.15,1.47-.17c.49-.06.94-.12,1.44-.14l1.66-.07L49.63,0c.5,0,.99.03,1.49.08l1.73.16c.36.03.72.12,1.08.17l1.04.15,1,.17c5.87.99,11.35,3.11,16.46,6.22l2.52,1.66,2.19,1.64.83.66,1.47,1.28c1.36,1.18,2.58,2.43,3.76,3.78l1.11,1.26c1.36,1.55,2.58,3.19,3.65,4.97l1.42,2.36c1.84,3.05,3.99,8.41,4.77,11.86l.65,2.9c.46,2.05.92,6.5.12,8.22-.5,1.07-1.02,2.1-1.86,2.94l-2.43,2.42-2.43,2.36-1.96,1.89-1.96,1.89-2.2,2.12-1.81,1.73-1.96,1.88-2.04,1.96-2.44,2.35-1.73,1.65-1.73,1.65-2.12,2.04-1.73,1.65-1.96,1.88-1.41,1.34-1.89,1.8-1.65,1.57-1.65,1.57-1.88,1.8-1.18,1.1-1.41,1.33-1.18,1.11-1.96,1.87-.71.64-1.72,1.64-.91.83-1.22,1.05c-.76.65-1.63,1.11-2.65,1.28l-.99.16Z"/>
  </g>
</svg>