<?xml version="1.0" encoding="UTF-8"?>
<svg id="Layer_2" data-name="Layer 2" xmlns="http://www.w3.org/2000/svg" viewBox="0 0 120.82 105.14">
  <defs>
    <style>
      .cls-1 {
        fill: #db1f26;
      }
    </style>
  </defs>
  <g id="Layer_1-2" data-name="Layer 1">
    <g>
      <g>
        <g>
          <path class="cls-1" d="M24.45,8.09c-.56-.32-1.21-.5-1.95-.55v-.06c.93-.11,1.68-.47,2.23-1.07.56-.6.84-1.37.84-2.32,0-1.25-.38-2.19-1.14-2.8-.76-.62-1.78-.93-3.05-.93h-4.97v.4c.6,0,1.03.04,1.29.11.26.07.43.2.51.39.09.18.13.48.13.88v11.14c0,.4-.04.7-.13.88-.09.18-.26.31-.51.39-.26.07-.69.11-1.29.11v.4h4.78c1.5,0,2.71-.3,3.64-.91.93-.61,1.4-1.6,1.4-2.97,0-.67-.16-1.28-.47-1.82-.31-.54-.75-.97-1.31-1.29ZM19.65,1.2c.23-.07.47-.12.72-.15.25-.02.51-.04.81-.04.54,0,1.04.11,1.49.32.45.21.82.55,1.1,1,.28.45.42,1.02.42,1.69,0,.72-.14,1.32-.42,1.79-.28.47-.65.82-1.11,1.05-.46.23-.95.34-1.48.34-.6,0-1.11-.03-1.53-.09V1.2ZM23.77,13.69c-.72.5-1.62.74-2.7.74-.47,0-.94-.06-1.42-.18v-6.29c.42-.06.93-.09,1.53-.09.55,0,1.1.1,1.66.3.55.2,1.03.55,1.43,1.05.4.5.6,1.14.6,1.94,0,1.19-.36,2.03-1.08,2.53Z"/>
          <path class="cls-1" d="M32.93,15.45l.77-.37,1.31-.55-.17-.35c-.33.14-.56.2-.69.19-.13,0-.21-.08-.24-.22-.03-.14-.05-.41-.05-.82v-7.89l-.22-.2-.75.2-1.36.5.13.37c.34-.12.59-.18.73-.17.14.01.23.09.27.24.04.15.06.42.06.81v5.87c-.38.47-.75.83-1.1,1.1-.36.27-.71.4-1.07.4s-.64-.13-.82-.4c-.18-.27-.27-.67-.27-1.21v-7.5l-.22-.2-.75.2-1.36.5.13.37c.34-.12.59-.18.73-.17.14.01.23.09.27.24.04.15.06.42.06.81v5.76c0,1.67.61,2.5,1.84,2.5.49,0,.94-.15,1.35-.46.41-.31.8-.74,1.17-1.29h.06v1.53l.22.22Z"/>
          <path class="cls-1" d="M37.69,15.08h1.4v-.4c-.37,0-.63-.04-.8-.11-.17-.07-.28-.2-.33-.39s-.08-.48-.08-.88v-8l-.22-.22-.77.37-1.32.57.15.35c.34-.13.58-.2.71-.19.13,0,.21.08.25.22.04.14.06.41.06.82v6.09c0,.4-.03.7-.08.88-.06.18-.17.31-.34.39-.17.07-.44.11-.81.11v.4h2.21Z"/>
          <path class="cls-1" d="M37.16,1.8c.25,0,.46-.09.63-.28.18-.18.27-.39.27-.63,0-.26-.09-.47-.26-.64-.17-.17-.39-.26-.64-.26s-.46.09-.63.26c-.18.17-.27.39-.27.64,0,.23.09.44.27.63.18.18.39.28.63.28Z"/>
          <path class="cls-1" d="M41.85,15.08h1.4v-.4c-.37,0-.63-.04-.8-.11-.17-.07-.28-.2-.33-.39s-.08-.48-.08-.88V.22l-.22-.22-.77.37-1.32.57.15.35c.34-.13.58-.2.71-.2s.21.07.25.21c.04.14.06.41.06.82v11.18c0,.4-.03.7-.08.88-.06.18-.17.31-.34.39-.17.07-.44.11-.81.11v.4h2.21Z"/>
          <path class="cls-1" d="M49.5,13.66h.07v1.56l.22.22.77-.37,1.31-.55-.17-.35c-.33.14-.56.2-.69.19-.13,0-.21-.08-.24-.22-.03-.14-.05-.41-.05-.82V.22l-.22-.22-.77.37-1.29.55.15.35c.33-.13.56-.2.69-.19.13,0,.21.08.24.22.03.14.05.41.05.82v4.17h-.04c-.25-.34-.55-.63-.9-.86-.36-.23-.74-.35-1.16-.35-.75,0-1.37.25-1.88.75s-.88,1.17-1.13,2.01c-.25.84-.38,1.77-.38,2.8,0,.96.12,1.8.35,2.52.23.72.57,1.28,1.02,1.68.45.4.99.6,1.63.6.49,0,.92-.14,1.28-.43.36-.29.74-.74,1.13-1.35ZM47.46,14.55c-.69,0-1.2-.39-1.54-1.18-.34-.78-.51-1.84-.51-3.16s.17-2.32.52-3.18c.35-.86.92-1.29,1.7-1.29.59,0,1.06.3,1.41.91.35.61.52,1.44.52,2.49v3.73s-.04.05-.04.07c-.22.36-.42.64-.59.86-.17.21-.38.39-.63.53-.25.14-.54.21-.86.21Z"/>
        </g>
        <g>
          <path class="cls-1" d="M1.99,21.07c.11.18.22.46.33.83l2.46,8.04c-.25,1.13-.49,1.95-.74,2.46-.25.51-.55.77-.89.77-.12,0-.22-.03-.29-.08-.07-.06-.15-.16-.25-.3-.09-.16-.19-.28-.3-.37-.12-.09-.27-.13-.45-.13-.23,0-.42.07-.57.22-.15.15-.22.33-.22.55,0,.36.14.64.43.86.29.21.65.32,1.08.32.55,0,1.01-.19,1.37-.58.36-.39.64-.86.84-1.41.2-.55.42-1.29.66-2.23.02-.09.05-.17.07-.27.02-.09.05-.18.07-.27l1.93-7.58c.11-.37.21-.65.31-.84.1-.19.22-.32.38-.39.15-.07.36-.1.62-.1v-.4h-2.89v.4c.4,0,.69.03.85.1.16.07.24.19.23.36,0,.17-.06.46-.16.86l-1.49,5.92-1.69-5.94c-.12-.4-.19-.69-.19-.86,0-.17.06-.28.21-.35.15-.07.43-.1.85-.1v-.4H.94v.4c.27,0,.48.03.64.1.16.07.29.19.4.38Z"/>
          <path class="cls-1" d="M10.96,29.51c.56.45,1.23.68,2,.68s1.42-.23,1.99-.68c.56-.45,1-1.07,1.3-1.86.3-.78.45-1.67.45-2.65s-.15-1.85-.45-2.63c-.3-.78-.73-1.41-1.3-1.87-.56-.46-1.23-.69-1.99-.69s-1.44.23-2,.69c-.56.46-1,1.08-1.3,1.87-.3.78-.45,1.66-.45,2.63s.15,1.86.45,2.65c.3.78.73,1.4,1.3,1.86ZM10.63,22.77c.13-.69.36-1.23.69-1.62.32-.39.74-.6,1.24-.65.5-.05.95.09,1.33.42.39.33.71.82.97,1.47.26.65.42,1.45.5,2.39.09.96.06,1.78-.07,2.46-.14.69-.36,1.23-.69,1.62-.32.39-.74.61-1.24.66-.5.04-.95-.11-1.33-.43-.39-.32-.71-.82-.97-1.47-.26-.66-.42-1.46-.5-2.4-.09-.94-.06-1.76.07-2.46Z"/>
          <path class="cls-1" d="M24.71,29.11c-.13,0-.21-.08-.24-.22-.03-.14-.05-.41-.05-.82v-7.89l-.22-.2-.75.2-1.36.5.13.37c.34-.12.59-.18.73-.17.14.01.23.09.27.24.04.15.06.42.06.81v5.87c-.38.47-.75.83-1.1,1.1-.36.27-.71.4-1.07.4s-.64-.13-.82-.4c-.18-.27-.27-.67-.27-1.21v-7.5l-.22-.2-.75.2-1.36.5.13.37c.34-.12.59-.18.73-.17.14.01.23.09.27.24.04.15.06.42.06.81v5.76c0,1.67.61,2.5,1.84,2.5.49,0,.94-.15,1.35-.46.41-.31.8-.74,1.17-1.29h.06v1.53l.22.22.77-.37,1.31-.55-.17-.35c-.33.14-.56.2-.69.19Z"/>
          <path class="cls-1" d="M31.57,20.06c-.21-.17-.49-.25-.82-.25-.49,0-.92.17-1.29.51-.37.34-.69.77-.97,1.3h-.06v-1.58l-.22-.22-.77.37-1.32.57.15.35c.34-.13.58-.2.71-.19.13,0,.21.08.25.22.04.14.06.41.06.82v6.09c0,.4-.03.7-.08.88-.06.18-.17.31-.34.39-.17.07-.44.11-.81.11v.4h4.23v-.4c-.55,0-.96-.04-1.21-.11-.26-.07-.43-.2-.51-.39-.08-.18-.12-.48-.12-.88v-5.54c.37-.61.67-1.05.91-1.3.24-.25.49-.38.74-.38.09,0,.16.02.21.06.06.04.1.11.14.22.07.14.16.24.27.3.1.07.25.1.43.1.23,0,.42-.07.55-.22.13-.15.2-.34.2-.57,0-.27-.11-.49-.32-.65Z"/>
        </g>
        <g>
          <path class="cls-1" d="M15,44.84c.56.45,1.23.68,2,.68s1.42-.23,1.99-.68c.56-.45,1-1.07,1.3-1.86.3-.78.45-1.67.45-2.65s-.15-1.85-.45-2.63c-.3-.78-.73-1.41-1.3-1.87-.56-.46-1.23-.69-1.99-.69s-1.44.23-2,.69c-.56.46-1,1.08-1.3,1.87-.3.78-.45,1.66-.45,2.63s.15,1.86.45,2.65c.3.78.73,1.4,1.3,1.86ZM14.67,38.1c.13-.69.36-1.23.69-1.62.32-.39.74-.6,1.24-.65.5-.05.95.09,1.33.42.39.33.71.82.97,1.47.26.65.42,1.45.5,2.39.09.96.06,1.78-.07,2.46-.14.69-.36,1.23-.69,1.62-.32.39-.74.61-1.24.66-.5.04-.95-.11-1.33-.43-.39-.32-.71-.82-.97-1.47-.26-.66-.42-1.46-.5-2.4-.09-.94-.06-1.76.07-2.46Z"/>
          <path class="cls-1" d="M31.88,35.51h-1.58v.4c.42,0,.7.03.85.1.15.07.22.18.22.35s-.06.46-.18.87l-1.71,6.01h-.06l-1.73-6.01c-.11-.42-.17-.71-.18-.87-.01-.17.05-.28.18-.35.13-.07.39-.1.77-.1v-.4h-3.46v.4c.27,0,.48.03.63.1.15.07.29.19.4.38s.21.47.31.85l.57,1.95-1.27,4.25h-.06l-2.02-6.22c-.14-.4-.21-.69-.22-.86-.01-.17.06-.28.2-.35.15-.07.43-.1.85-.1v-.4h-3.59v.4c.39,0,.68.08.87.25.19.17.37.52.54,1.06l2.72,8.35h.68l1.61-5.27,1.54,5.27h.68l2.39-8.33c.1-.38.2-.66.3-.85.1-.18.24-.31.4-.38.16-.07.37-.1.64-.1v-.4h-1.31Z"/>
          <path class="cls-1" d="M40.66,44.25c-.06-.18-.08-.48-.08-.88v-5.7c0-1.68-.61-2.52-1.82-2.52-.49,0-.95.16-1.37.47-.42.31-.82.74-1.19,1.3h-.06v-1.54l-.22-.22-.77.37-1.32.57.15.35c.34-.13.58-.2.71-.19.13,0,.21.08.25.22.04.14.06.41.06.82v6.09c0,.4-.03.7-.08.88-.06.18-.17.31-.34.39-.17.07-.44.11-.81.11v.4h3.55v-.4c-.34,0-.6-.04-.76-.11-.17-.07-.27-.2-.32-.39-.05-.18-.07-.48-.07-.88v-5.81c.37-.47.74-.83,1.1-1.1.37-.27.74-.4,1.1-.4s.64.14.81.4c.17.27.26.67.26,1.21v5.7c0,.4-.02.7-.07.88-.05.18-.15.31-.31.39-.16.07-.42.11-.77.11v.4h3.55v-.4c-.37,0-.64-.04-.81-.11-.17-.07-.29-.2-.34-.39Z"/>
        </g>
        <g>
          <path class="cls-1" d="M50.57,50.68c-.09.51-.22.88-.4,1.09-.18.21-.43.32-.74.32-.34,0-.6-.12-.76-.36-.17-.24-.27-.57-.32-.98-.05-.42-.07-1-.07-1.75v-5.35h2.21v-.66h-2.21v-2.63h-.46c-.02.67-.11,1.2-.26,1.56-.15.37-.37.64-.67.81-.3.17-.72.26-1.26.26v.66h1.49v6.01c0,1.19.17,2.04.51,2.56.34.51.85.77,1.51.77.53,0,.93-.16,1.21-.49.28-.32.48-.8.59-1.43.11-.63.17-1.46.17-2.49h-.4c0,.88-.04,1.58-.13,2.1Z"/>
          <path class="cls-1" d="M58.52,51.72c-.06-.18-.08-.48-.08-.88v-5.7c0-1.68-.61-2.52-1.82-2.52-.49,0-.95.16-1.37.47-.42.31-.82.74-1.19,1.3h-.06v-6.62l-.22-.22-.77.37-1.32.57.15.35c.34-.13.58-.2.71-.2s.21.07.25.21c.04.14.06.41.06.82v11.18c0,.4-.03.7-.08.88-.06.18-.17.31-.34.39-.17.07-.44.11-.81.11v.4h3.55v-.4c-.34,0-.6-.04-.76-.11-.17-.07-.27-.2-.32-.39-.05-.18-.07-.48-.07-.88v-5.81c.37-.47.74-.83,1.1-1.1.37-.27.74-.4,1.1-.4s.64.14.81.4c.17.27.26.67.26,1.21v5.7c0,.4-.02.7-.07.88-.05.18-.15.31-.31.39-.16.07-.42.11-.77.11v.4h3.55v-.4c-.37,0-.64-.04-.81-.11-.17-.07-.29-.2-.34-.39Z"/>
          <path class="cls-1" d="M61.68,37.55c-.25,0-.46.09-.63.26-.18.17-.27.39-.27.64,0,.23.09.44.27.63.18.18.39.28.63.28s.46-.09.63-.28c.18-.18.27-.39.27-.63,0-.26-.09-.47-.26-.64-.17-.17-.39-.26-.64-.26Z"/>
          <path class="cls-1" d="M62.48,51.72c-.06-.18-.08-.48-.08-.88v-8l-.22-.22-.77.37-1.32.57.15.35c.34-.13.58-.2.71-.19.13,0,.21.08.25.22.04.14.06.41.06.82v6.09c0,.4-.03.7-.08.88-.06.18-.17.31-.34.39-.17.07-.44.11-.81.11v.4h3.6v-.4c-.37,0-.63-.04-.8-.11-.17-.07-.28-.2-.33-.39Z"/>
          <path class="cls-1" d="M72.18,52.22c-.37,0-.64-.04-.81-.11-.17-.07-.29-.2-.34-.39-.06-.18-.08-.48-.08-.88v-5.7c0-1.68-.61-2.52-1.82-2.52-.49,0-.95.16-1.37.47-.42.31-.82.74-1.19,1.3h-.06v-1.54l-.22-.22-.77.37-1.32.57.15.35c.34-.13.58-.2.71-.19.13,0,.21.08.25.22.04.14.06.41.06.82v6.09c0,.4-.03.7-.08.88-.06.18-.17.31-.34.39-.17.07-.44.11-.81.11v.4h3.55v-.4c-.34,0-.6-.04-.76-.11-.17-.07-.27-.2-.32-.39-.05-.18-.07-.48-.07-.88v-5.81c.37-.47.74-.83,1.1-1.1.37-.27.74-.4,1.1-.4s.64.14.81.4c.17.27.26.67.26,1.21v5.7c0,.4-.02.7-.07.88-.05.18-.15.31-.31.39-.16.07-.42.11-.77.11v.4h3.55v-.4Z"/>
          <path class="cls-1" d="M78.96,43.54c.26-.02.52-.04.79-.04.22,0,.38-.03.48-.09.1-.06.15-.18.15-.35,0-.15-.05-.26-.14-.33-.09-.07-.24-.11-.43-.11-.36,0-.71.05-1.08.15-.35.1-.7.23-1.05.39-.04-.03-.08-.06-.12-.09-.45-.3-.96-.45-1.53-.45s-1.09.15-1.55.45c-.46.3-.82.72-1.08,1.25-.26.53-.39,1.15-.39,1.85s.13,1.3.39,1.83c.19.4.45.74.76,1.01-.36.34-.64.64-.82.89-.21.29-.32.6-.32.95,0,.38.12.69.36.92.14.14.32.25.55.34-.57.44-1,.86-1.29,1.27-.31.42-.46.89-.46,1.41,0,.76.32,1.33.97,1.7.65.37,1.46.56,2.43.56.87,0,1.67-.16,2.4-.47.73-.31,1.31-.73,1.73-1.26.42-.53.63-1.08.63-1.67,0-.83-.33-1.42-1-1.77-.67-.34-1.63-.51-2.88-.51-1.02,0-1.72-.08-2.11-.23-.39-.15-.58-.4-.58-.73,0-.21.07-.41.22-.61.11-.15.28-.33.51-.53.46.29.97.44,1.54.44s1.07-.15,1.53-.45c.45-.3.81-.72,1.08-1.25.26-.53.4-1.14.4-1.83s-.13-1.31-.4-1.85c-.14-.29-.32-.55-.52-.77l.14.12c.22-.06.45-.1.7-.13ZM76.44,52.42c.72,0,1.31.04,1.77.11s.82.21,1.08.42c.26.21.4.5.4.86,0,.69-.33,1.22-1,1.59-.67.37-1.56.56-2.68.56-.96,0-1.69-.15-2.2-.44-.51-.29-.76-.7-.76-1.21,0-.34.1-.67.29-.99.19-.31.53-.67,1.02-1.08.03,0,.07.02.1.02.49.1,1.15.16,1.97.16ZM77.55,48.2c-.27.53-.69.82-1.27.86-.58.05-1.04-.16-1.39-.63-.35-.47-.57-1.17-.65-2.11-.07-.94.02-1.68.28-2.21.26-.53.68-.81,1.27-.85.56-.05,1.02.16,1.37.63.35.47.57,1.18.67,2.12.09.92,0,1.65-.28,2.18Z"/>
          <path class="cls-1" d="M82.2,51.19c-.25,0-.46.09-.63.27s-.27.39-.27.63.09.46.27.63c.18.18.39.27.63.27s.46-.09.63-.27c.18-.18.27-.39.27-.63s-.09-.46-.27-.63c-.18-.18-.39-.27-.63-.27Z"/>
        </g>
      </g>
      <g>
        <path class="cls-1" d="M21.76,85.73c3.4-1.78,3.27-3.49,3.2-4.41-.05-.65-.93-.42-1.46-.27-.3.11-.84.25-1.6.52-1.97.68-3.87,1.37-5.64,2.06l2.72-4.49c4.61-1.81,21.13-7.65,25.89-9.57,1.25-.5,1.42-1.26,1.39-1.67-.05-.65-.85-1.36-1.59-1.84-.57-.33-.92-.31-1.27-.26-1.58.23-16.39,5.06-19.42,6.11-11.87,4.11-20.41,8.96-20.41,8.96-.41.28-.47.48-.46.58,0,.1.15,1.39.41,2.18.21.67.63.59,1.28.47.54-.12,1.8-.45,3.43-1.01,1.82-.63,3.53-1.22,5.15-1.82l-2.82,4.67c-3.39,1.42-5.57,2.42-5.57,2.42-.97.51-2.25,2.15-2.15,3.31.14.73.72.67,1.63.35.8-.28,1.82-.6,3.04-1.02L.29,102.86c-.25.33-.3.63-.28.87.07.82.79,1.13,2.06,1.36.32.07.59.04.78-.02.38-.13.59-.45.91-.81.21-.25,4.97-8.12,9.2-15.17l2.28-.79c3.26-1.13,6.16-2.38,6.54-2.58Z"/>
        <path class="cls-1" d="M42.74,83.57c-.11.04-.98.87-1.13.99-.99.83-5.79,5.1-6.77,5.54-.19.07-.23.08-.23.04,0-.03.03-.12.1-.21.13-.29.4-.88.82-1.41.42-.57,1.94-2.5,2.85-3.38.36-.37.48-.77.46-1.11-.04-.48-.35-.93-.72-1.16-.29-.22-.79-.11-1.28.06-.49.17-.9.38-1.02.42-.15.05-.2,0-.2-.07,0-.07.03-.15.03-.15,0,0,.53-.74,1.09-1.5.14-.22.21-.35.2-.49-.03-.34-.5-.42-.58-.47-.12-.06-.35-.48-.96-.27-.11.04-.22.11-.37.2-.93.6-4.06,3.34-4.99,4.4-.68.8-.79,1.4-.76,1.74.02.24.15.41.17.61.02.23-2.15,2.18-4.26,4.04,1.19-2.11,1.92-4.1,1.81-5.41-.09-1.16-2.02-1.38-2.02-1.38-.23.08-.41.18-.63.36-.66.54-1.37,1.46-1.51,1.65-.12-.06-.9-.04-1.24.08-3.75,1.3-8.74,9.14-8.38,13.66.06.75,2.33.42,2.83.25,2.11-.73,4.48-2.84,6.47-5.31.09.44.18.82.18.82.12.1.24.13.43.06.15-.05.3-.17.48-.31,1.9-2.1,7.54-7.18,8.61-8.39.14-.15.56-.37.9-.49.15-.05.27-.06.34-.08.15-.02.28.05.24.09-1.57,2.3-4.38,5.24-4.23,7.05.03.38.21.73.47,1,.38.39,1.04.38,1.57.19,1.28-.51,4.12-2.55,5.37-3.54,1.21-.98,5.37-5.06,5.83-5.53.22-.18,1.12-1.06,1.11-1.26-.01-.14-.1-.32-.28-.54-.31-.42-.27-.99-.8-.81ZM17.76,96.68c-.3.11-.38.1-.39.03-.15-1.88,5.54-9.2,5.93-9.29.15-.05.16.05.17.19.13,1.64-3.83,8.18-5.71,9.08Z"/>
        <path class="cls-1" d="M66.62,73.62s1.5-.76,6.81-4.54c5.24-3.74,7.96-7.75,7.78-10-.15-1.95-3.32-3.49-4.92-4.06-1.08-.36-3.16-.03-5.93.93-6.3,2.18-15.89,8.98-18.46,12.33-.21.28-.42,1.06-.37,1.78.07.82.78,1.98,1.77,1.64.34-.12.71-.35,1.26-.82.91-.81,4.06-3.34,8.37-5.95-4.2,5.95-12.2,19.09-12.75,20.55-.13.33-.19.59-.17.83.06.72,1.75,1.96,2.74,1.62.53-.18.95-.75,1.16-1.14.3-.6,6.51-10.27,6.98-11.17,1.76,2.03,5.84,10.25,8.72,9.25.34-.12.79-.34,1.28-.62,1.76-.92,1.98-1.6,1.93-2.21-.13-1.61-5.54-7.93-6.2-8.4ZM62.97,71.79c.64-.78,4.31-7.11,5.28-8.61.21-.32.3-.6.29-.8-.01-.17-.1-.32-.27-.43,1.76-.86,3.57-1.62,5.43-2.27,3.91-1.35,3.99-.26,3.99-.26.09,3.06-10.83,11.27-14.21,12.44-.42.14-.51-.07-.51-.07Z"/>
        <path class="cls-1" d="M115.15,60.24c-.01-.14-.1-.32-.28-.54-.31-.42-.27-.99-.8-.81-.11.04-.98.87-1.13.99l-6.02,5.21s-2.88,2.51-3.49,2.72c-.15.05-.19.03-.2-.04-.04-.48.1-1.16.43-1.98,3.85-3.02,17.52-16.92,17.14-21.64-.26-.79-1.15-1.19-1.92-1.16-1.14.39-3.4,1.81-6.22,4.58-4.32,4.21-9.5,10.99-12.06,16.59l-3.42,2.97c-.25.23-2.51,2.27-2.62,2.31.09-.38,2.3-4.45,2.43-4.71.03-.12.06-.2.05-.3-.01-.17-.1-.32-.22-.31-.16-.02-.36-.12-.37-.22-.02-.24,2.02-1.54,1.96-2.26-.04-.51-.57-1.31-1.54-1.29-.15.02-.35.05-.57.13-2.21.77-7.08,4.44-9.92,8.41-.16.14-.29.26-.33.3l-5.29,4.57s-2.99,2.58-4.73,3.19c-.46.16-.5.14-.5.03-.04-.44,5.83-5.14,6.21-5.28.49-.17.52-.35.49-.7-.04-.51-.34-1.36-.91-1.2-.6.28-1.58.65-2.42.94-.76.26-.87.3-.88.23,0-.1.24-.4.5-.59.29-.28,3.51-2.41,3.62-2.45.35-.05.23.45.65.3,0,0,4.19-2.19,4.07-3.76-.09-1.1-1.8-1.1-2.86-.73-1.06.37-3.47,1.48-6.31,3.94-3.21,2.76-3.71,3.78-3.64,4.7.12,1.47.66,1.42,1.96,1.18.23-.08.31-.04.31.03-.07.16-.47.48-.69.66-.47.44-3.66,3.02-3.52,4.73.15,1.88,2.18,1.99,4.53,1.17,1.29-.45,3.86-2.92,5.75-4.63,0,0,.86-.86,1.86-1.84-.03.31-.04.62-.02.93.05.68,1.17,1.46,1.85,1.22.8-.28,2.81-1.85,3.9-2.9.08-.03.12.03.12.1,0,.07-.02.18-.05.3-.03.12-.05.37-.03.61.04.48.59,1.03,1.54.7,1.37-.47,4.82-3.6,5.36-4.14,0,0,1.12-1.11,2.29-2.26-.15.75-.21,1.46-.16,2.08.04.55.58,1.94,2.18,1.39,2.69-.93,7.22-4.75,8.09-5.61l4.74-4.63c.22-.18,1.12-1.06,1.11-1.26ZM116.85,47.28c.11-.11.22-.15.26-.16.08-.03.12,0,.12.06,0,.1-.06.23-.16.41-2.05,3.63-6.08,8.78-9.29,11.61l-.82.53c3.19-4.94,7.59-10.46,9.88-12.45ZM88.8,71.4c-.08.03-.12,0-.12-.06-.1-1.27,3.84-5.62,5.19-6.26.11-.04.23-.01.24.09.03.41-3.99,5.67-5.31,6.23Z"/>
        <path class="cls-1" d="M115.84,62.08c-.87.3-3.25,2.71-3.14,4.14.02.31,1.32.46,1.7.33,1.44-.5,3.3-3.04,3.22-4.14-.02-.31-1.48-.44-1.78-.33Z"/>
      </g>
    </g>
  </g>
</svg>