<?xml version="1.0" encoding="UTF-8"?>
<svg id="Layer_2" data-name="Layer 2" xmlns="http://www.w3.org/2000/svg" viewBox="0 0 130.35 49.09">
  <defs>
    <style>
      .cls-1 {
        stroke: #010101;
        stroke-miterlimit: 10;
        stroke-width: 1.22px;
      }

      .cls-1, .cls-2 {
        fill: #db1f26;
      }
    </style>
  </defs>
  <g id="Layer_1-2" data-name="Layer 1">
    <g>
      <g>
        <path class="cls-2" d="M34.57,4.75h5.09v8.8h-5.09v2.48c0,1.08.44,1.48,1.85,1.48.85,0,1.74-.15,2.71-.52v10.75c-2.34.56-3.71.74-5.86.74-8.08,0-10.2-2.63-10.2-9.6V0h11.49v4.75Z"/>
        <path class="cls-2" d="M91.35,13.27v14.46h-11.49v-12.57c0-1.48-.33-2-1.3-2-.41,0-.82.11-1.15.33v14.24h-11.49V4.75h10.94l.26,3.04h.07c1.63-2.63,3.97-3.78,7.6-3.78,5.41,0,6.56,2.56,6.56,9.27Z"/>
        <path class="cls-2" d="M119.1,22.83c0,2.22.11,3.56.37,5.08h-11.31l-.26-3.04h-.07c-1.52,2.56-3.86,3.78-7.05,3.78-5.86,0-8.79-4.12-8.79-12.05s3.23-12.42,9.75-12.42c2.41,0,4.3.56,5.78,1.71h.07V.18h11.49v22.66ZM104.94,16.42c0,2.26.41,3.08,1.56,3.08.44,0,.82-.11,1.11-.33v-5.49c-.3-.22-.67-.33-1.11-.33-1.15,0-1.56.82-1.56,3.08Z"/>
        <path class="cls-1" d="M3.13,8.96c.08.02.16.05.23.07-.13-.07-.26-.14-.38-.21,0,.03,0,.05,0,.08.05.02.1.04.15.06Z"/>
        <path class="cls-2" d="M21.7,17.05c-.18-.32-.39-.62-.64-.9h.01s-.36-.39-.36-.39c-1.24-1.32-3.16-2.23-5.69-2.7-1.29-.24-2.56-.32-3.53-.36-.66-.03-1.26-.01-1.84.04-.14.01-.28.03-.41.05-.36.06-.71.11-1.07,0-.02,0-.03-.02-.03-.01-.03-.13.29-.25.32-.26,1.16-.43,2.43-.52,3.64-.54,1.35-.03,2.58.1,3.77.39.33.08.64.15.94.21.85.18,1.58.33,2.68.85l2.32,1.09V5.8s-.3-.07-.3-.07c-.28-.06-1.64-.31-1.92-.35-.89-.14-1.73-.22-2.55-.3-.39-.04-.79-.08-1.19-.12-2.06-.23-4.77-.45-7.47-.05-.75.11-1.52.28-2.35.51-1.74.51-3.05,1.23-4,2.22-1.03,1.06-1.73,2.56-1.96,4.23-.22,1.56.02,2.99.67,4.14.18.32.4.62.64.9h-.01s.36.39.36.39c1.24,1.32,3.16,2.23,5.69,2.7,1.29.24,2.56.32,3.53.36.66.03,1.26.01,1.84-.04.14-.01.28-.03.41-.05.36-.06.71-.11,1.07,0,.02,0,.03.02.03.01.03.13-.29.25-.33.26-1.16.43-2.43.52-3.64.54-1.35.03-2.58-.1-3.77-.39-.33-.08-.64-.15-.94-.21-.85-.18-1.58-.33-2.68-.85l-2.32-1.09v8.71s.3.07.3.07c.28.07,1.64.31,1.92.35.89.14,1.73.22,2.55.3.39.04.79.08,1.19.12,1.23.14,2.69.27,4.24.27,1.05,0,2.14-.06,3.23-.22.75-.11,1.52-.28,2.35-.51,1.74-.51,3.05-1.23,4-2.22,1.03-1.06,1.73-2.56,1.96-4.23.22-1.56-.02-2.99-.67-4.14Z"/>
        <g>
          <path class="cls-2" d="M122.37,26.87s0-.08-.01-.12c0-.04,0-.08,0-.12,0-.04-.01-.08-.02-.11,0-.04-.02-.07-.04-.1-.02-.03-.04-.05-.07-.08-.03-.02-.07-.04-.11-.04h0c.1-.03.17-.08.21-.15.04-.07.07-.16.07-.26,0-.13-.04-.23-.13-.31-.09-.07-.21-.11-.36-.11h-.75v1.6h.21v-.68h.52c.05,0,.09,0,.13.02.03.02.06.04.08.06.02.03.03.06.04.09,0,.04.02.07.02.11,0,.04.01.08.01.12,0,.04,0,.08,0,.11,0,.04,0,.07.01.1,0,.03.02.05.03.07h.24s-.04-.06-.05-.09c-.01-.04-.02-.07-.03-.11ZM122.07,26.16s-.07.04-.12.04c-.04,0-.09.01-.14.01h-.44v-.56h.53c.1,0,.17.03.22.08.04.05.07.12.07.2,0,.06-.01.11-.03.14-.02.04-.05.07-.08.09Z"/>
          <path class="cls-2" d="M121.74,24.92c-.78,0-1.41.63-1.41,1.41s.63,1.41,1.41,1.41,1.41-.63,1.41-1.41-.63-1.41-1.41-1.41ZM121.74,27.57c-.68,0-1.24-.56-1.24-1.24s.56-1.24,1.24-1.24,1.24.56,1.24,1.24-.56,1.24-1.24,1.24Z"/>
        </g>
        <path class="cls-2" d="M64.73,22.65v-7.12c0-1.03-.05-2.06-.18-3.09-.11-.88-.29-1.75-.57-2.59-.23-.69-.54-1.36-.94-1.96,0,0,0,0,0,0-.3-.5-.66-.96-1.07-1.36-1.01-.98-2.4-1.71-4.25-2.22-.88-.23-1.7-.4-2.49-.51-2.87-.4-5.75-.18-7.93.05-.43.04-.85.08-1.26.12-.87.08-1.76.16-2.71.3-.3.04-1.74.29-2.04.35l-.31.07v.04s-.04,0-.05,0v8.71l.04-.02,1.01-.48,1.25-.59c1.1-.52,1.83-.67,2.68-.85.3-.06.61-.13.94-.21.67-.17,1.36-.28,2.08-.34,0,0,0,0,.01,0,.54-.05,1.1-.06,1.68-.05.88.02,1.8.07,2.68.26.33.07.65.16.96.28.04.01.35.14.33.26,0,0,0,0,0,0,0,0-.01,0-.03.01-.33.11-.64.07-.97.02-.03,0-.06,0-.1-.01-.13-.02-.27-.04-.41-.05-.1,0-.2-.02-.3-.02-.49-.03-1-.04-1.54-.01-.42.02-.9.04-1.42.08h0c-.66.06-1.38.14-2.1.28-1.91.36-3.81,1.03-5.3,2.31-1.62,1.4-2.55,3.51-2.7,5.62-.05.7-.03,1.41.05,2.11.1.88.29,1.73.56,2.52.17.49.37.96.6,1.39h0s.02.04.02.05c0,0,0,0,0,0,1.11,1.65,3.13,2.47,6.1,2.47,2.06,0,3.8-.39,5.17-1.16.03-.02.07-.04.1-.06.74-.43,1.37-.96,1.88-1.6h.07l.36,1.54h0s.12.54.12.54h10.35c-.26-1.52-.37-2.86-.37-5.08ZM54.17,21.25c-.3.22-.63.3-1.08.3-.89,0-1.29-.33-1.39-1.34,0-.09-.01-.19-.02-.29,0-.08,0-.17,0-.26,0-.12,0-.23,0-.33,0-.02,0-.03,0-.05.03-.47.11-.81.26-1.05.22-.33.58-.46,1.14-.46.44,0,.78.07,1.08.3v3.19Z"/>
      </g>
      <g>
        <path class="cls-2" d="M90.42,41.27c1.37-.72,1.32-1.41,1.29-1.78-.02-.26-.37-.17-.59-.11-.12.04-.34.1-.64.21-.79.27-1.56.55-2.27.83l1.1-1.81c1.86-.73,8.52-3.08,10.43-3.86.5-.2.57-.51.56-.68-.02-.26-.34-.55-.64-.74-.23-.13-.37-.13-.51-.11-.64.09-6.61,2.04-7.83,2.46-4.78,1.66-8.23,3.61-8.23,3.61-.16.11-.19.19-.19.23,0,.04.06.56.16.88.08.27.25.24.52.19.22-.05.72-.18,1.38-.41.73-.25,1.42-.49,2.08-.73l-1.14,1.88c-1.37.57-2.25.98-2.25.98-.39.21-.91.87-.87,1.33.05.29.29.27.66.14.32-.11.73-.24,1.22-.41l-2.9,4.79c-.1.13-.12.25-.11.35.03.33.32.46.83.55.13.03.24.02.31,0,.15-.05.24-.18.37-.33.09-.1,2-3.27,3.71-6.11l.92-.32c1.31-.45,2.48-.96,2.63-1.04Z"/>
        <path class="cls-2" d="M98.88,40.4s-.4.35-.46.4c-.4.34-2.33,2.05-2.73,2.23-.08.03-.09.03-.09.02,0-.01.01-.05.04-.08.05-.12.16-.35.33-.57.17-.23.78-1.01,1.15-1.36.15-.15.2-.31.18-.45-.02-.19-.14-.38-.29-.47-.12-.09-.32-.05-.52.02-.2.07-.36.15-.41.17-.06.02-.08,0-.08-.03,0-.03.01-.06.01-.06,0,0,.21-.3.44-.61.06-.09.08-.14.08-.2-.01-.14-.2-.17-.23-.19-.05-.03-.14-.19-.39-.11-.05.02-.09.05-.15.08-.37.24-1.64,1.35-2.01,1.77-.27.32-.32.56-.31.7,0,.1.06.16.07.25,0,.09-.87.88-1.72,1.63.48-.85.77-1.65.73-2.18-.04-.47-.81-.55-.81-.55-.09.03-.17.07-.26.15-.27.22-.55.59-.61.66-.05-.03-.36-.02-.5.03-1.51.52-3.52,3.68-3.38,5.51.02.3.94.17,1.14.1.85-.29,1.81-1.15,2.61-2.14.04.18.07.33.07.33.05.04.1.05.17.02.06-.02.12-.07.19-.12.77-.85,3.04-2.89,3.47-3.38.06-.06.22-.15.36-.2.06-.02.11-.02.14-.03.06,0,.11.02.1.04-.63.93-1.76,2.11-1.71,2.84.01.15.09.3.19.4.15.16.42.15.63.08.52-.21,1.66-1.03,2.16-1.43.49-.4,2.16-2.04,2.35-2.23.09-.07.45-.43.45-.51,0-.06-.04-.13-.11-.22-.12-.17-.11-.4-.32-.33ZM88.8,45.68c-.12.04-.15.04-.16.01-.06-.76,2.23-3.71,2.39-3.75.06-.02.06.02.07.08.05.66-1.54,3.3-2.3,3.66Z"/>
        <path class="cls-2" d="M108.5,36.39s.6-.31,2.74-1.83c2.11-1.51,3.21-3.12,3.14-4.03-.06-.79-1.34-1.41-1.98-1.64-.44-.15-1.27-.01-2.39.37-2.54.88-6.4,3.62-7.44,4.97-.09.11-.17.43-.15.72.03.33.31.8.71.66.14-.05.29-.14.51-.33.37-.33,1.64-1.35,3.37-2.4-1.69,2.4-4.92,7.7-5.14,8.28-.05.13-.08.24-.07.34.02.29.71.79,1.1.65.21-.07.38-.3.47-.46.12-.24,2.62-4.14,2.82-4.5.71.82,2.35,4.13,3.52,3.73.14-.05.32-.14.51-.25.71-.37.8-.64.78-.89-.05-.65-2.23-3.2-2.5-3.39ZM107.03,35.65c.26-.32,1.74-2.87,2.13-3.47.08-.13.12-.24.12-.32,0-.07-.04-.13-.11-.18.71-.35,1.44-.65,2.19-.91,1.57-.54,1.61-.1,1.61-.1.04,1.23-4.37,4.54-5.73,5.01-.17.06-.21-.03-.21-.03Z"/>
        <path class="cls-2" d="M128.06,31c0-.06-.04-.13-.11-.22-.12-.17-.11-.4-.32-.33-.05.02-.4.35-.46.4l-2.42,2.1s-1.16,1.01-1.41,1.1c-.06.02-.08.01-.08-.01-.02-.19.04-.47.17-.8,1.55-1.22,7.06-6.82,6.91-8.72-.1-.32-.46-.48-.78-.47-.46.16-1.37.73-2.51,1.85-1.74,1.7-3.83,4.43-4.86,6.68l-1.38,1.2c-.1.09-1.01.92-1.06.93.03-.15.93-1.79.98-1.9.01-.05.03-.08.02-.12,0-.07-.04-.13-.09-.13-.06,0-.15-.05-.15-.09,0-.1.81-.62.79-.91-.02-.21-.23-.53-.62-.52-.06,0-.14.02-.23.05-.89.31-2.85,1.79-4,3.39-.06.06-.12.11-.13.12l-2.13,1.84s-1.21,1.04-1.91,1.28c-.18.06-.2.05-.2.01-.01-.18,2.35-2.07,2.5-2.13.2-.07.21-.14.2-.28-.02-.21-.14-.55-.37-.48-.24.11-.64.26-.98.38-.31.11-.35.12-.35.09,0-.04.1-.16.2-.24.12-.11,1.41-.97,1.46-.99.14-.02.09.18.26.12,0,0,1.69-.88,1.64-1.52-.03-.44-.73-.44-1.15-.3-.43.15-1.4.6-2.54,1.59-1.29,1.11-1.5,1.52-1.47,1.9.05.59.27.57.79.48.09-.03.12-.01.13.01-.03.07-.19.19-.28.27-.19.18-1.47,1.22-1.42,1.91.06.76.88.8,1.83.47.52-.18,1.56-1.18,2.32-1.86,0,0,.35-.34.75-.74-.01.13-.02.25,0,.37.02.28.47.59.75.49.32-.11,1.13-.75,1.57-1.17.03-.01.05.01.05.04,0,.03,0,.07-.02.12-.01.05-.02.15-.01.25.02.19.24.41.62.28.55-.19,1.94-1.45,2.16-1.67,0,0,.45-.45.92-.91-.06.3-.08.59-.06.84.02.22.23.78.88.56,1.09-.38,2.91-1.91,3.26-2.26l1.91-1.86c.09-.07.45-.43.45-.51ZM128.75,25.77s.09-.06.1-.06c.03-.01.05,0,.05.03,0,.04-.02.09-.07.16-.83,1.46-2.45,3.54-3.74,4.68l-.33.21c1.29-1.99,3.06-4.22,3.98-5.02ZM117.44,35.49s-.05,0-.05-.03c-.04-.51,1.55-2.26,2.09-2.52.05-.02.09,0,.1.04.01.17-1.61,2.29-2.14,2.51Z"/>
        <path class="cls-2" d="M128.34,31.74c-.35.12-1.31,1.09-1.27,1.67,0,.12.53.18.69.13.58-.2,1.33-1.23,1.3-1.67,0-.12-.6-.18-.72-.13Z"/>
      </g>
    </g>
  </g>
</svg>