<?xml version='1.0' encoding='UTF-8'?>
<svg xmlns="http://www.w3.org/2000/svg" id="Layer_2" data-name="Layer 2" viewBox="0 0 120.82 105.14">
  <defs>
    <style>
      .cls-1 {
        fill: #db1f26;
      }
    </style>
  </defs>
  <g id="Layer_1-2" data-name="Layer 1">
    <g>
      <g>
        <g>
          <path class="cls-1" d="M24.45,8.09c-.56-.32-1.21-.5-1.95-.55v-.06c.93-.11,1.68-.47,2.23-1.07.56-.6.84-1.37.84-2.32,0-1.25-.38-2.19-1.14-2.8-.76-.62-1.78-.93-3.05-.93h-4.97v.4c.6,0,1.03.04,1.29.11.26.07.43.2.51.39.09.18.13.48.13.88v11.14c0,.4-.04.7-.13.88-.09.18-.26.31-.51.39-.26.07-.69.11-1.29.11v.4h4.78c1.5,0,2.71-.3,3.64-.91.93-.61,1.4-1.6,1.4-2.97,0-.67-.16-1.28-.47-1.82-.31-.54-.75-.97-1.31-1.29ZM19.65,1.2c.23-.07.47-.12.72-.15.25-.02.51-.04.81-.04.54,0,1.04.11,1.49.32.45.21.82.55,1.1,1,.28.45.42,1.02.42,1.69,0,.72-.14,1.32-.42,1.79-.28.47-.65.82-1.11,1.05-.46.23-.95.34-1.48.34-.6,0-1.11-.03-1.53-.09V1.2ZM23.77,13.69c-.72.5-1.62.74-2.7.74-.47,0-.94-.06-1.42-.18v-6.29c.42-.06.93-.09,1.53-.09.55,0,1.1.1,1.66.3.55.2,1.03.55,1.43,1.05.4.5.6,1.14.6,1.94,0,1.19-.36,2.03-1.08,2.53Z" />
          <path class="cls-1" d="M32.93,15.45l.77-.37,1.31-.55-.17-.35c-.33.14-.56.2-.69.19-.13,0-.21-.08-.24-.22-.03-.14-.05-.41-.05-.82v-7.89l-.22-.2-.75.2-1.36.5.13.37c.34-.12.59-.18.73-.17.14.01.23.09.27.24.04.15.06.42.06.81v5.87c-.38.47-.75.83-1.1,1.1-.36.27-.71.4-1.07.4s-.64-.13-.82-.4c-.18-.27-.27-.67-.27-1.21v-7.5l-.22-.2-.75.2-1.36.5.13.37c.34-.12.59-.18.73-.17.14.01.23.09.27.24.04.15.06.42.06.81v5.76c0,1.67.61,2.5,1.84,2.5.49,0,.94-.15,1.35-.46.41-.31.8-.74,1.17-1.29h.06v1.53l.22.22Z" />
          <path class="cls-1" d="M37.69,15.08h1.4v-.4c-.37,0-.63-.04-.8-.11-.17-.07-.28-.2-.33-.39s-.08-.48-.08-.88v-8l-.22-.22-.77.37-1.32.57.15.35c.34-.13.58-.2.71-.19.13,0,.21.08.25.22.04.14.06.41.06.82v6.09c0,.4-.03.7-.08.88-.06.18-.17.31-.34.39-.17.07-.44.11-.81.11v.4h2.21Z" />
          <path class="cls-1" d="M37.16,1.8c.25,0,.46-.09.63-.28.18-.18.27-.39.27-.63,0-.26-.09-.47-.26-.64-.17-.17-.39-.26-.64-.26s-.46.09-.63.26c-.18.17-.27.39-.27.64,0,.23.09.44.27.63.18.18.39.28.63.28Z" />
          <path class="cls-1" d="M41.85,15.08h1.4v-.4c-.37,0-.63-.04-.8-.11-.17-.07-.28-.2-.33-.39s-.08-.48-.08-.88V.22l-.22-.22-.77.37-1.32.57.15.35c.34-.13.58-.2.71-.2s.21.07.25.21c.04.14.06.41.06.82v11.18c0,.4-.03.7-.08.88-.06.18-.17.31-.34.39-.17.07-.44.11-.81.11v.4h2.21Z" />
          <path class="cls-1" d="M49.5,13.66h.07v1.56l.22.22.77-.37,1.31-.55-.17-.35c-.33.14-.56.2-.69.19-.13,0-.21-.08-.24-.22-.03-.14-.05-.41-.05-.82V.22l-.22-.22-.77.37-1.29.55.15.35c.33-.13.56-.2.69-.19.13,0,.21.08.24.22.03.14.05.41.05.82v4.17h-.04c-.25-.34-.55-.63-.9-.86-.36-.23-.74-.35-1.16-.35-.75,0-1.37.25-1.88.75s-.88,1.17-1.13,2.01c-.25.84-.38,1.77-.38,2.8,0,.96.12,1.8.35,2.52.23.72.57,1.28,1.02,1.68.45.4.99.6,1.63.6.49,0,.92-.14,1.28-.43.36-.29.74-.74,1.13-1.35ZM47.46,14.55c-.69,0-1.2-.39-1.54-1.18-.34-.78-.51-1.84-.51-3.16s.17-2.32.52-3.18c.35-.86.92-1.29,1.7-1.29.59,0,1.06.3,1.41.91.35.61.52,1.44.52,2.49v3.73s-.04.05-.04.07c-.22.36-.42.64-.59.86-.17.21-.38.39-.63.53-.25.14-.54.21-.86.21Z" />
        </g>
        <g>
          <path class="cls-1" d="M1.99,21.07c.11.18.22.46.33.83l2.46,8.04c-.25,1.13-.49,1.95-.74,2.46-.25.51-.55.77-.89.77-.12,0-.22-.03-.29-.08-.07-.06-.15-.16-.25-.3-.09-.16-.19-.28-.3-.37-.12-.09-.27-.13-.45-.13-.23,0-.42.07-.57.22-.15.15-.22.33-.22.55,0,.36.14.64.43.86.29.21.65.32,1.08.32.55,0,1.01-.19,1.37-.58.36-.39.64-.86.84-1.41.2-.55.42-1.29.66-2.23.02-.09.05-.17.07-.27.02-.09.05-.18.07-.27l1.93-7.58c.11-.37.21-.65.31-.84.1-.19.22-.32.38-.39.15-.07.36-.1.62-.1v-.4h-2.89v.4c.4,0,.69.03.85.1.16.07.24.19.23.36,0,.17-.06.46-.16.86l-1.49,5.92-1.69-5.94c-.12-.4-.19-.69-.19-.86,0-.17.06-.28.21-.35.15-.07.43-.1.85-.1v-.4H.94v.4c.27,0,.48.03.64.1.16.07.29.19.4.38Z" />
          <path class="cls-1" d="M10.96,29.51c.56.45,1.23.68,2,.68s1.42-.23,1.99-.68c.56-.45,1-1.07,1.3-1.86.3-.78.45-1.67.45-2.65s-.15-1.85-.45-2.63c-.3-.78-.73-1.41-1.3-1.87-.56-.46-1.23-.69-1.99-.69s-1.44.23-2,.69c-.56.46-1,1.08-1.3,1.87-.3.78-.45,1.66-.45,2.63s.15,1.86.45,2.65c.3.78.73,1.4,1.3,1.86ZM10.63,22.77c.13-.69.36-1.23.69-1.62.32-.39.74-.6,1.24-.65.5-.05.95.09,1.33.42.39.33.71.82.97,1.47.26.65.42,1.45.5,2.39.09.96.06,1.78-.07,2.46-.14.69-.36,1.23-.69,1.62-.32.39-.74.61-1.24.66-.5.04-.95-.11-1.33-.43-.39-.32-.71-.82-.97-1.47-.26-.66-.42-1.46-.5-2.4-.09-.94-.06-1.76.07-2.46Z" />
          <path class="cls-1" d="M24.71,29.11c-.13,0-.21-.08-.24-.22-.03-.14-.05-.41-.05-.82v-7.89l-.22-.2-.75.2-1.36.5.13.37c.34-.12.59-.18.73-.17.14.01.23.09.27.24.04.15.06.42.06.81v5.87c-.38.47-.75.83-1.1,1.1-.36.27-.71.4-1.07.4s-.64-.13-.82-.4c-.18-.27-.27-.67-.27-1.21v-7.5l-.22-.2-.75.2-1.36.5.13.37c.34-.12.59-.18.73-.17.14.01.23.09.27.24.04.15.06.42.06.81v5.76c0,1.67.61,2.5,1.84,2.5.49,0,.94-.15,1.35-.46.41-.31.8-.74,1.17-1.29h.06v1.53l.22.22.77-.37,1.31-.55-.17-.35c-.33.14-.56.2-.69.19Z" />
          <path class="cls-1" d="M31.57,20.06c-.21-.17-.49-.25-.82-.25-.49,0-.92.17-1.29.51-.37.34-.69.77-.97,1.3h-.06v-1.58l-.22-.22-.77.37-1.32.57.15.35c.34-.13.58-.2.71-.19.13,0,.21.08.25.22.04.14.06.41.06.82v6.09c0,.4-.03.7-.08.88-.06.18-.17.31-.34.39-.17.07-.44.11-.81.11v.4h4.23v-.4c-.55,0-.96-.04-1.21-.11-.26-.07-.43-.2-.51-.39-.08-.18-.12-.48-.12-.88v-5.54c.37-.61.67-1.05.91-1.3.24-.25.49-.38.74-.38.09,0,.16.02.21.06.06.04.1.11.14.22.07.14.16.24.27.3.1.07.25.1.43.1.23,0,.42-.07.55-.22.13-.15.2-.34.2-.57,0-.27-.11-.49-.32-.65Z" />
        </g>
        <g>
          <path class="cls-1" d="M15,44.84c.56.45,1.23.68,2,.68s1.42-.23,1.99-.68c.56-.45,1-1.07,1.3-1.86.3-.78.45-1.67.45-2.65s-.15-1.85-.45-2.63c-.3-.78-.73-1.41-1.3-1.87-.56-.46-1.23-.69-1.99-.69s-1.44.23-2,.69c-.56.46-1,1.08-1.3,1.87-.3.78-.45,1.66-.45,2.63s.15,1.86.45,2.65c.3.78.73,1.4,1.3,1.86ZM14.67,38.1c.13-.69.36-1.23.69-1.62.32-.39.74-.6,1.24-.65.5-.05.95.09,1.33.42.39.33.71.82.97,1.47.26.65.42,1.45.5,2.39.09.96.06,1.78-.07,2.46-.14.69-.36,1.23-.69,1.62-.32.39-.74.61-1.24.66-.5.04-.95-.11-1.33-.43-.39-.32-.71-.82-.97-1.47-.26-.66-.42-1.46-.5-2.4-.09-.94-.06-1.76.07-2.46Z" />
          <path class="cls-1" d="M31.88,35.51h-1.58v.4c.42,0,.7.03.85.1.15.07.22.18.22.35s-.06.46-.18.87l-1.71,6.01h-.06l-1.73-6.01c-.11-.42-.17-.71-.18-.87-.01-.17.05-.28.18-.35.13-.07.39-.1.77-.1v-.4h-3.46v.4c.27,0,.48.03.63.1.15.07.29.19.4.38s.21.47.31.85l.57,1.95-1.27,4.25h-.06l-2.02-6.22c-.14-.4-.21-.69-.22-.86-.01-.17.06-.28.2-.35.15-.07.43-.1.85-.1v-.4h-3.59v.4c.39,0,.68.08.87.25.19.17.37.52.54,1.06l2.72,8.35h.68l1.61-5.27,1.54,5.27h.68l2.39-8.33c.1-.38.2-.66.3-.85.1-.18.24-.31.4-.38.16-.07.37-.1.64-.1v-.4h-1.31Z" />
          <path class="cls-1" d="M40.66,44.25c-.06-.18-.08-.48-.08-.88v-5.7c0-1.68-.61-2.52-1.82-2.52-.49,0-.95.16-1.37.47-.42.31-.82.74-1.19,1.3h-.06v-1.54l-.22-.22-.77.37-1.32.57.15.35c.34-.13.58-.2.71-.19.13,0,.21.08.25.22.04.14.06.41.06.82v6.09c0,.4-.03.7-.08.88-.06.18-.17.31-.34.39-.17.07-.44.11-.81.11v.4h3.55v-.4c-.34,0-.6-.04-.76-.11-.17-.07-.27-.2-.32-.39-.05-.18-.07-.48-.07-.88v-5.81c.37-.47.74-.83,1.1-1.1.37-.27.74-.4,1.1-.4s.64.14.81.4c.17.27.26.67.26,1.21v5.7c0,.4-.02.7-.07.88-.05.18-.15.31-.31.39-.16.07-.42.11-.77.11v.4h3.55v-.4c-.37,0-.64-.04-.81-.11-.17-.07-.29-.2-.34-.39Z" />
        </g>
        <g>
          <path class="cls-1" d="M50.57,50.68c-.09.51-.22.88-.4,1.09-.18.21-.43.32-.74.32-.34,0-.6-.12-.76-.36-.17-.24-.27-.57-.32-.98-.05-.42-.07-1-.07-1.75v-5.35h2.21v-.66h-2.21v-2.63h-.46c-.02.67-.11,1.2-.26,1.56-.15.37-.37.64-.67.81-.3.17-.72.26-1.26.26v.66h1.49v6.01c0,1.19.17,2.04.51,2.56.34.51.85.77,1.51.77.53,0,.93-.16,1.21-.49.28-.32.48-.8.59-1.43.11-.63.17-1.46.17-2.49h-.4c0,.88-.04,1.58-.13,2.1Z" />
          <path class="cls-1" d="M58.52,51.72c-.06-.18-.08-.48-.08-.88v-5.7c0-1.68-.61-2.52-1.82-2.52-.49,0-.95.16-1.37.47-.42.31-.82.74-1.19,1.3h-.06v-6.62l-.22-.22-.77.37-1.32.57.15.35c.34-.13.58-.2.71-.2s.21.07.25.21c.04.14.06.41.06.82v11.18c0,.4-.03.7-.08.88-.06.18-.17.31-.34.39-.17.07-.44.11-.81.11v.4h3.55v-.4c-.34,0-.6-.04-.76-.11-.17-.07-.27-.2-.32-.39-.05-.18-.07-.48-.07-.88v-5.81c.37-.47.74-.83,1.1-1.1.37-.27.74-.4,1.1-.4s.64.14.81.4c.17.27.26.67.26,1.21v5.7c0,.4-.02.7-.07.88-.05.18-.15.31-.31.39-.16.07-.42.11-.77.11v.4h3.55v-.4c-.37,0-.64-.04-.81-.11-.17-.07-.29-.2-.34-.39Z" />
          <path class="cls-1" d="M61.68,37.55c-.25,0-.46.09-.63.26-.18.17-.27.39-.27.64,0,.23.09.44.27.63.18.18.39.28.63.28s.46-.09.63-.28c.18-.18.27-.39.27-.63,0-.26-.09-.47-.26-.64-.17-.17-.39-.26-.64-.26Z" />
          <path class="cls-1" d="M62.48,51.72c-.06-.18-.08-.48-.08-.88v-8l-.22-.22-.77.37-1.32.57.15.35c.34-.13.58-.2.71-.19.13,0,.21.08.25.22.04.14.06.41.06.82v6.09c0,.4-.03.7-.08.88-.06.18-.17.31-.34.39-.17.07-.44.11-.81.11v.4h3.6v-.4c-.37,0-.63-.04-.8-.11-.17-.07-.28-.2-.33-.39Z" />
          <path class="cls-1" d="M72.18,52.22c-.37,0-.64-.04-.81-.11-.17-.07-.29-.2-.34-.39-.06-.18-.08-.48-.08-.88v-5.7c0-1.68-.61-2.52-1.82-2.52-.49,0-.95.16-1.37.47-.42.31-.82.74-1.19,1.3h-.06v-1.54l-.22-.22-.77.37-1.32.57.15.35c.34-.13.58-.2.71-.19.13,0,.21.08.25.22.04.14.06.41.06.82v6.09c0,.4-.03.7-.08.88-.06.18-.17.31-.34.39-.17.07-.44.11-.81.11v.4h3.55v-.4c-.34,0-.6-.04-.76-.11-.17-.07-.27-.2-.32-.39-.05-.18-.07-.48-.07-.88v-5.81c.37-.47.74-.83,1.1-1.1.37-.27.74-.4,1.1-.4s.64.14.81.4c.17.27.26.67.26,1.21v5.7c0,.4-.02.7-.07.88-.05.18-.15.31-.31.39-.16.07-.42.11-.77.11v.4h3.55v-.4Z" />
          <path class="cls-1" d="M78.96,43.54c.26-.02.52-.04.79-.04.22,0,.38-.03.48-.09.1-.06.15-.18.15-.35,0-.15-.05-.26-.14-.33-.09-.07-.24-.11-.43-.11-.36,0-.71.05-1.08.15-.35.1-.7.23-1.05.39-.04-.03-.08-.06-.12-.09-.45-.3-.96-.45-1.53-.45s-1.09.15-1.55.45c-.46.3-.82.72-1.08,1.25-.26.53-.39,1.15-.39,1.85s.13,1.3.39,1.83c.19.4.45.74.76,1.01-.36.34-.64.64-.82.89-.21.29-.32.6-.32.95,0,.38.12.69.36.92.14.14.32.25.55.34-.57.44-1,.86-1.29,1.27-.31.42-.46.89-.46,1.41,0,.76.32,1.33.97,1.7.65.37,1.46.56,2.43.56.87,0,1.67-.16,2.4-.47.73-.31,1.31-.73,1.73-1.26.42-.53.63-1.08.63-1.67,0-.83-.33-1.42-1-1.77-.67-.34-1.63-.51-2.88-.51-1.02,0-1.72-.08-2.11-.23-.39-.15-.58-.4-.58-.73,0-.21.07-.41.22-.61.11-.15.28-.33.51-.53.46.29.97.44,1.54.44s1.07-.15,1.53-.45c.45-.3.81-.72,1.08-1.25.26-.53.4-1.14.4-1.83s-.13-1.31-.4-1.85c-.14-.29-.32-.55-.52-.77l.14.12c.22-.06.45-.1.7-.13ZM76.44,52.42c.72,0,1.31.04,1.77.11s.82.21,1.08.42c.26.21.4.5.4.86,0,.69-.33,1.22-1,1.59-.67.37-1.56.56-2.68.56-.96,0-1.69-.15-2.2-.44-.51-.29-.76-.7-.76-1.21,0-.34.1-.67.29-.99.19-.31.53-.67,1.02-1.08.03,0,.07.02.1.02.49.1,1.15.16,1.97.16ZM77.55,48.2c-.27.53-.69.82-1.27.86-.58.05-1.04-.16-1.39-.63-.35-.47-.57-1.17-.65-2.11-.07-.94.02-1.68.28-2.21.26-.53.68-.81,1.27-.85.56-.05,1.02.16,1.37.63.35.47.57,1.18.67,2.12.09.92,0,1.65-.28,2.18Z" />
          <path class="cls-1" d="M82.2,51.19c-.25,0-.46.09-.63.27s-.27.39-.27.63.09.46.27.63c.18.18.39.27.63.27s.46-.09.63-.27c.18-.18.27-.39.27-.63s-.09-.46-.27-.63c-.18-.18-.39-.27-.63-.27Z" />
        </g>
      </g>
      </g>
  </g>
</svg>