<?xml version="1.0" encoding="UTF-8"?>
<svg id="Layer_2" data-name="Layer 2" xmlns="http://www.w3.org/2000/svg" viewBox="0 0 123.15 55.02">
  <defs>
    <style>
      .cls-1 {
        stroke: #010101;
        stroke-miterlimit: 10;
        stroke-width: 1.22px;
      }

      .cls-1, .cls-2 {
        fill: #db1f26;
      }
    </style>
  </defs>
  <g id="Layer_1-2" data-name="Layer 1">
    <g>
      <g>
        <g>
          <path class="cls-2" d="M84.42,5.58c1.06-.28,1.97-.38,2.69-.27.74.13,2.3,1.12,2.3,2.31s-1.99,2.87-2.8,3.41c-.82.57-2.28,1.65-2.6,1.82-.04.03-.06.04-.06.06,0,0,1.97-.2,1.97,1.68,0,2.95-7.93,8.8-11.18,9.67-.17.05-.35.07-.52.1-.26.03-.82-.02-.82-.91,0-.22.04-.42.11-.61l-.95,1.47c-.28.42-.54.8-.87.88,0,0-1.3-.02-1.3-.71,0-.11.02-.22.09-.37.33-.78,3.23-5.35,3.84-6.38.5-.85,3.99-6.05,5.09-7.61-2.54,1.35-4.98,3.11-7.13,4.99-.13.12-.3.28-.52.33-.39.1-.87-.33-.87-.81s.35-1.05.5-1.26c1.89-2.39,8.6-6.62,13.05-7.81ZM74.21,21.88c2.49-1.08,7.52-4.25,9.3-7.02,0,0-.02-.23-.15-.2-3.27.88-5.05,1.98-5.05,1.98-.13.03-.2-.08-.24-.26l-.09-.5c-1.39,2.17-2.9,4.51-3.99,6.18l.22-.19ZM79.5,13.55c2.51-1.5,7.02-4.24,8.3-5.84-.82-.32-1.52-.16-3.21.3-1.15.31-2.28.72-3.4,1.24.22.05.41.13.48.13.06.03.17.19.17.41,0,.13-.04.27-.17.41,0,0-.91,1.41-2.17,3.35Z"/>
          <path class="cls-2" d="M93.48,14.46c.09-.07.61-.53.67-.55.3-.08.24.26.39.55.09.15.13.27.13.36,0,.13-.54.62-.67.72l-2.71,2.57c-.74.7-2.19,1.82-2.84,2-.13.03-.22.01-.28-.05-.22-.22-.46-.42-.46-.74,0-.09,0-.15.04-.25.15-.47.43-1.09.46-1.18,0-.04,0-.07-.04-.05s-.11.07-.17.13c-.54.6-2.77,2.82-3.55,3.03-.33.09-.74-.34-.74-.65,0-1.86,3.29-6.58,4.38-6.87.43-.12,1.08.19,1.08.45,0,.3-2.38,2.85-2.38,3.69,0,.04.02.08.06.07s.09-.04.15-.11c.19-.18,2.62-2.7,3.06-3.16.43-.44,1-1.33,1.17-1.53.13-.16.35-.37.56-.43.33-.09,1.02.23,1.02.53,0,.07-.02.14-.06.19-.26.35-2.54,3.5-2.67,3.79-.06.13-.11.22-.11.27s.02.06.06.05c.02,0,.07-.02.11-.05l3.34-2.76Z"/>
          <path class="cls-2" d="M96.53,16.77s-2.6,2.34-4.4,2.83c-.28.08-.3-.05-.43-.14-.13-.14-.26-.41-.26-.67,0-1.91,2.21-4.6,3.77-6.71.17-.22.35-.33.52-.38.35-.09.69.05.98.22.22.14.3.24.3.35,0,.09-.06.17-.11.22-.13.14-2.1,3.03-2.38,3.48-.15.26-.24.43-.24.52,0,.04.02.06.11.04.63-.43,1.32-.98,1.32-.98l3.16-2.54c.09-.07.61-.53.67-.55.3-.08.26.28.41.56.09.15.13.27.13.36,0,.13-.54.62-.67.72-.22.21-2.88,2.68-2.88,2.68ZM98.94,8.93c0,.69-1.15,2.17-1.97,2.39-.22.06-.46-.2-.46-.4,0-.91,1.43-2.27,1.93-2.4.17-.05.5.21.5.41Z"/>
          <path class="cls-2" d="M103.23,14.91c-.52.49-3.21,2.59-4.75,3.01-.91.24-1.15-.67-1.15-1.01,0-3.53,4.9-10.07,8.58-13.44,1.69-1.56,3.01-2.3,3.66-2.48.43.04.91.34,1.02.85,0,2.99-8.21,10.85-10.49,12.5-.22.49-.33.91-.33,1.21,0,.04.02.06.11.04.35-.09,2.06-1.48,2.06-1.48l3.58-2.89c.09-.07.61-.53.67-.55.3-.08.26.28.41.56.09.15.13.27.13.36,0,.13-.54.62-.67.72l-2.84,2.6ZM102.21,10.74l.48-.28c1.91-1.57,4.38-4.55,5.68-6.7.07-.1.11-.18.11-.25,0-.04-.02-.06-.06-.05-.02,0-.09.02-.15.08-1.37,1.1-4.05,4.29-6.05,7.19Z"/>
          <path class="cls-2" d="M112.12,4.4c-1.41,2.13-3.03,4.56-3.21,4.83-.63.88-2.02,3.4-2.02,3.29,0,.04.02.06.06.05.06-.02.15-.08.3-.21l2.95-2.39c.09-.07.61-.53.67-.55.26-.07.54.77.54.92,0,.28-1.02,1.01-1.67,1.64-.52.51-1.32,1.26-1.84,1.66-.33.3-1.91,1.46-2.69,1.67-.61.16-1.13-.35-1.13-1,0-.56,1.08-2.54,1.8-3.67.26-.42,1.99-2.92,3.68-5.34-2.32.82-.33.15-2.25.8-.11.03-.22.1-.3.12s-.13.01-.13-.07c0-.2.67-1.89,1.39-2.21l-.07.02s.5-.13,2.97-.93C113.2.27,113.2.1,113.55,0c.22-.06,1.02.36,1.02.66,0,.07-.02.16-.06.23l-.3.51-.61.88c.59-.18,1.91-.53,2.51-.7.09-.02.13.03.13.12,0,.93-1.45,1.97-1.95,2.1l-2.17.58Z"/>
        </g>
        <g>
          <path class="cls-2" d="M90.33,26.55l-.9-3.32h-.01l-.91,3.32h-.55l-1.01-3.95h.54l.77,3.28h.01l.88-3.28h.57l.87,3.28h.01l.8-3.28h.53l-1.06,3.95h-.55Z"/>
          <path class="cls-2" d="M92.81,22.6v3.95h-.53v-3.95h.53Z"/>
          <path class="cls-2" d="M93.11,23.04v-.44h3.16v.44h-1.32v3.51h-.53v-3.51h-1.32Z"/>
          <path class="cls-2" d="M97.06,22.6v1.7h2.08v-1.7h.53v3.95h-.53v-1.81h-2.08v1.81h-.53v-3.95h.53Z"/>
        </g>
      </g>
      <g>
        <path class="cls-2" d="M34.57,31.11h5.09v8.8h-5.09v2.48c0,1.08.44,1.48,1.85,1.48.85,0,1.74-.15,2.71-.52v10.75c-2.34.56-3.71.74-5.86.74-8.08,0-10.2-2.63-10.2-9.6v-18.87h11.49v4.75Z"/>
        <path class="cls-2" d="M91.35,39.64v14.46h-11.49v-12.57c0-1.48-.33-2-1.3-2-.41,0-.82.11-1.15.33v14.24h-11.49v-22.99h10.94l.26,3.04h.07c1.63-2.63,3.97-3.78,7.6-3.78,5.41,0,6.56,2.56,6.56,9.27Z"/>
        <path class="cls-2" d="M119.1,49.2c0,2.22.11,3.56.37,5.08h-11.31l-.26-3.04h-.07c-1.52,2.56-3.86,3.78-7.05,3.78-5.86,0-8.79-4.12-8.79-12.05s3.23-12.42,9.75-12.42c2.41,0,4.3.56,5.78,1.71h.07v-5.71h11.49v22.66ZM104.94,42.78c0,2.26.41,3.08,1.56,3.08.44,0,.82-.11,1.11-.33v-5.49c-.3-.22-.67-.33-1.11-.33-1.15,0-1.56.82-1.56,3.08Z"/>
        <path class="cls-1" d="M3.13,35.33c.08.02.16.05.23.07-.13-.07-.26-.14-.38-.21,0,.03,0,.05,0,.08.05.02.1.04.15.06Z"/>
        <path class="cls-2" d="M21.7,43.41c-.18-.32-.39-.62-.64-.9h.01s-.36-.39-.36-.39c-1.24-1.32-3.16-2.23-5.69-2.7-1.29-.24-2.56-.32-3.53-.36-.66-.03-1.26-.01-1.84.04-.14.01-.28.03-.41.05-.36.06-.71.11-1.07,0-.02,0-.03-.02-.03-.01-.03-.13.29-.25.32-.26,1.16-.43,2.43-.52,3.64-.54,1.35-.03,2.58.1,3.77.39.33.08.64.15.94.21.85.18,1.58.33,2.68.85l2.32,1.09v-8.71s-.3-.07-.3-.07c-.28-.06-1.64-.31-1.92-.35-.89-.14-1.73-.22-2.55-.3-.39-.04-.79-.08-1.19-.12-2.06-.23-4.77-.45-7.47-.05-.75.11-1.52.28-2.35.51-1.74.51-3.05,1.23-4,2.22-1.03,1.06-1.73,2.56-1.96,4.23-.22,1.56.02,2.99.67,4.14.18.32.4.62.64.9h-.01s.36.39.36.39c1.24,1.32,3.16,2.23,5.69,2.7,1.29.24,2.56.32,3.53.36.66.03,1.26.01,1.84-.04.14-.01.28-.03.41-.05.36-.06.71-.11,1.07,0,.02,0,.03.02.03.01.03.13-.29.25-.33.26-1.16.43-2.43.52-3.64.54-1.35.03-2.58-.1-3.77-.39-.33-.08-.64-.15-.94-.21-.85-.18-1.58-.33-2.68-.85l-2.32-1.09v8.71s.3.07.3.07c.28.07,1.64.31,1.92.35.89.14,1.73.22,2.55.3.39.04.79.08,1.19.12,1.23.14,2.69.27,4.24.27,1.05,0,2.14-.06,3.23-.22.75-.11,1.52-.28,2.35-.51,1.74-.51,3.05-1.23,4-2.22,1.03-1.06,1.73-2.56,1.96-4.23.22-1.56-.02-2.99-.67-4.14Z"/>
        <g>
          <path class="cls-2" d="M122.37,53.24s0-.08-.01-.12c0-.04,0-.08,0-.12,0-.04-.01-.08-.02-.11,0-.04-.02-.07-.04-.1-.02-.03-.04-.05-.07-.08-.03-.02-.07-.04-.11-.04h0c.1-.03.17-.08.21-.15.04-.07.07-.16.07-.26,0-.13-.04-.23-.13-.31-.09-.07-.21-.11-.36-.11h-.75v1.6h.21v-.68h.52c.05,0,.09,0,.13.02.03.02.06.04.08.06.02.03.03.06.04.09,0,.04.02.07.02.11,0,.04.01.08.01.12,0,.04,0,.08,0,.11,0,.04,0,.07.01.1,0,.03.02.05.03.07h.24s-.04-.06-.05-.09c-.01-.04-.02-.07-.03-.11ZM122.07,52.52s-.07.04-.12.04c-.04,0-.09.01-.14.01h-.44v-.56h.53c.1,0,.17.03.22.08.04.05.07.12.07.2,0,.06-.01.11-.03.14-.02.04-.05.07-.08.09Z"/>
          <path class="cls-2" d="M121.74,51.28c-.78,0-1.41.63-1.41,1.41s.63,1.41,1.41,1.41,1.41-.63,1.41-1.41-.63-1.41-1.41-1.41ZM121.74,53.93c-.68,0-1.24-.56-1.24-1.24s.56-1.24,1.24-1.24,1.24.56,1.24,1.24-.56,1.24-1.24,1.24Z"/>
        </g>
        <path class="cls-2" d="M64.73,49.02v-7.12c0-1.03-.05-2.06-.18-3.09-.11-.88-.29-1.75-.57-2.59-.23-.69-.54-1.36-.94-1.96,0,0,0,0,0,0-.3-.5-.66-.96-1.07-1.36-1.01-.98-2.4-1.71-4.25-2.22-.88-.23-1.7-.4-2.49-.51-2.87-.4-5.75-.18-7.93.05-.43.04-.85.08-1.26.12-.87.08-1.76.16-2.71.3-.3.04-1.74.29-2.04.35l-.31.07v.04s-.04,0-.05,0v8.71l.04-.02,1.01-.48,1.25-.59c1.1-.52,1.83-.67,2.68-.85.3-.06.61-.13.94-.21.67-.17,1.36-.28,2.08-.34,0,0,0,0,.01,0,.54-.05,1.1-.06,1.68-.05.88.02,1.8.07,2.68.26.33.07.65.16.96.28.04.01.35.14.33.26,0,0,0,0,0,0,0,0-.01,0-.03.01-.33.11-.64.07-.97.02-.03,0-.06,0-.1-.01-.13-.02-.27-.04-.41-.05-.1,0-.2-.02-.3-.02-.49-.03-1-.04-1.54-.01-.42.02-.9.04-1.42.08h0c-.66.06-1.38.14-2.1.28-1.91.36-3.81,1.03-5.3,2.31-1.62,1.4-2.55,3.51-2.7,5.62-.05.7-.03,1.41.05,2.11.1.88.29,1.73.56,2.52.17.49.37.96.6,1.39h0s.02.04.02.05c0,0,0,0,0,0,1.11,1.65,3.13,2.47,6.1,2.47,2.06,0,3.8-.39,5.17-1.16.03-.02.07-.04.1-.06.74-.43,1.37-.96,1.88-1.6h.07l.36,1.54h0s.12.54.12.54h10.35c-.26-1.52-.37-2.86-.37-5.08ZM54.17,47.61c-.3.22-.63.3-1.08.3-.89,0-1.29-.33-1.39-1.34,0-.09-.01-.19-.02-.29,0-.08,0-.17,0-.26,0-.12,0-.23,0-.33,0-.02,0-.03,0-.05.03-.47.11-.81.26-1.05.22-.33.58-.46,1.14-.46.44,0,.78.07,1.08.3v3.19Z"/>
      </g>
    </g>
  </g>
</svg>