<?xml version="1.0" encoding="UTF-8"?>
<svg xmlns="http://www.w3.org/2000/svg" version="1.1" viewBox="0 0 1920 1080">
  <!-- Generator: Adobe Illustrator 28.6.0, SVG Export Plug-In . SVG Version: 1.2.0 Build 709)  -->
  <g>
    <g id="Layer_1">
      <g id="stand">
        <path d="M445.36,431.57l-3.85,90.49c-.27,6.33-6.88,10.28-12.64,7.63-16.33-7.49-40.24-12.14-66.77-12.14-.31,0-.61,0-.91,0-11.02.03-11.98,16.22-1.04,17.55,64.35,7.81,96.1,36.71,96.1,88.14,0,78.78-43.72,105.68-168.62,105.68-36.48,0-78.6-3.46-127.16-10.8-4.45-.67-7.69-4.59-7.51-9.09l3.9-95.55c.25-6.24,6.73-10.23,12.43-7.66,19.27,8.69,48,14.06,77.99,14.06,3.22,0,6.25-.04,9.09-.14,11.02-.36,11.46-16.61.48-17.57-71.07-6.26-106.13-33.94-106.13-84.62,0-78.78,43.72-105.69,168.62-105.69,38.42,0,78.13,3.4,118.7,10.61,4.37.78,7.5,4.66,7.32,9.09Z"/>
        <path d="M610.59,415.83l41.24-4.49c4.84-.53,9.19,2.97,9.72,7.81l10.68,98.05c.53,4.84-2.97,9.19-7.81,9.72l-41.22,4.49c-4.84.53-8.34,4.88-7.81,9.72l2.27,20.85c1.51,13.85,7.81,18.48,25.96,16.5,7.65-.83,15.43-2.62,23.47-5.7,5.42-2.08,11.35,1.47,11.97,7.24l13.01,119.51c.45,4.09-2.01,7.95-5.9,9.3-25.43,8.77-42.22,12.65-67.76,15.43-104.11,11.34-146.49-18.36-156.26-108.14l-25.77-235.61c-.53-4.84,2.97-9.19,7.81-9.72l142-15.46c4.83-.53,9.18,2.96,9.71,7.79l4.98,44.93c.54,4.83,4.88,8.32,9.71,7.79Z"/>
        <path d="M1022.58,561.28v92.24c0,23.86.99,39.82,3.23,55.78.75,5.3-3.37,10.03-8.72,10.03h-134.04c-4.1,0-7.66-2.83-8.59-6.82l-4.66-20.08h-.96c-19.22,24.02-50.92,36.51-92.71,36.51-61.97,0-92.24-27.38-92.24-83.59s32.19-85.51,98.48-85.51c30.26,0,59.57,5.76,78.31,15.37h.96v-.96c0-24.5-21.61-35.55-69.66-35.55-31.93,0-62.53,4.97-83.54,13.54-5.64,2.3-11.84-1.78-12.06-7.87l-4.05-112.84c-.16-4.41,2.95-8.26,7.3-9.01,39.66-6.84,85.64-10.65,130.78-10.65,143.16,0,192.16,37.95,192.16,149.41ZM829.46,637.66c0,18.73,4.81,24.5,18.25,24.5,2.66,0,5.01-.2,7.14-.71,3.98-.93,6.79-4.51,6.79-8.6v-30.39c0-4.09-2.81-7.67-6.79-8.6-2.14-.5-4.49-.7-7.14-.7-13.45,0-18.25,5.76-18.25,24.5Z"/>
        <path d="M1390.32,531.97v178.54c0,4.87-3.95,8.81-8.81,8.81h-142.82c-4.87,0-8.81-3.95-8.81-8.81v-154.04c0-19.22-4.33-25.94-16.81-25.94-3.08,0-6.17.49-9.06,1.47-3.53,1.2-5.83,4.62-5.83,8.35v170.16c0,4.87-3.95,8.81-8.81,8.81h-142.83c-4.87,0-8.81-3.95-8.81-8.81v-280.22c0-4.87,3.95-8.81,8.81-8.81h136.34c4.58,0,8.39,3.5,8.78,8.06l2.68,31.33h.96c21.14-34.11,51.4-49,98.48-49,70.14,0,96.56,33.15,96.56,120.1Z"/>
        <path d="M1764.83,653.51c0,23.86.99,39.82,3.23,55.78.75,5.3-3.37,10.03-8.72,10.03h-139.67c-4.58,0-8.39-3.5-8.78-8.06l-2.68-31.33h-.96c-19.7,33.15-49.96,49-91.27,49-75.9,0-113.86-53.32-113.86-156.13s41.79-160.94,126.35-160.94c31.23,0,55.72,7.21,74.94,22.1h.96v-70.92s0-4.77,0-9.42c0-4.86,3.94-8.81,8.81-8.81h142.83c4.86,0,8.81,3.94,8.81,8.81,0,4.66,0,9.42,0,9.42v290.46ZM1569.79,570.4c0,29.3,5.29,39.87,20.18,39.87,3.06,0,5.84-.4,8.35-1.21,3.63-1.17,6.06-4.59,6.06-8.4v-60.52c0-3.81-2.43-7.23-6.06-8.4-2.51-.81-5.3-1.21-8.35-1.21-14.89,0-20.18,10.57-20.18,39.87Z"/>
      </g>
    </g>
  </g>
</svg>