<svg preserveAspectRatio="none" width="100%" height="100%" overflow="visible" style="display: block;" viewBox="0 0 951.2 272.863" fill="none" xmlns="http://www.w3.org/2000/svg">
<g id="Build?">
<path id="Vector" d="M756.767 223.251C759.686 223.251 773.183 229.817 773.183 233.1C773.183 244.774 753.849 264.472 739.987 264.472C736.339 264.472 724.301 258.271 724.301 254.988C724.301 239.667 748.377 223.251 756.767 223.251ZM951.2 46.3282C951.2 125.123 797.259 151.388 797.259 182.395C797.259 182.395 797.624 191.15 809.662 191.15C818.417 191.15 834.832 176.558 834.832 176.558C835.197 175.099 837.386 174.369 839.574 174.369C846.505 174.369 857.814 179.476 857.814 185.313C857.814 202.093 827.172 217.414 807.838 217.414C767.346 217.414 764.063 193.338 764.063 181.665C764.063 101.776 912.532 105.424 912.532 40.1268L907.79 36.1141C862.191 36.1141 819.876 60.555 800.542 79.1593C798.718 80.9832 792.152 91.1973 788.504 91.1973C781.938 91.1973 773.912 81.7128 773.912 73.6874C773.912 65.2972 779.749 57.6367 782.302 54.7184C788.139 48.1521 830.09 1.45907 905.237 1.45907C914.356 1.45907 922.746 2.91823 927.124 6.20134C941.351 16.4154 949.376 38.6676 951.2 46.3282Z" fill="var(--fill-0, black)"/>
<path id="Vector_2" d="M584.43 225.805C600.481 225.805 647.174 175.464 647.174 175.464C647.174 175.099 646.809 174.734 646.444 174.734C632.582 174.734 583.336 211.943 583.336 224.71C583.336 225.44 583.7 225.805 584.43 225.805ZM721.226 210.848C717.578 213.402 671.615 243.315 671.615 243.315C655.929 253.893 627.84 267.026 619.45 269.215C616.896 269.944 615.437 270.309 613.978 270.309C610.33 270.309 608.871 268.85 607.412 267.026C605.223 264.472 604.858 253.893 604.858 250.975V242.95C603.034 242.95 599.751 246.962 596.833 248.786C579.323 261.189 559.624 265.932 549.775 265.932C541.385 265.932 537.737 255.717 537.737 247.327C537.737 202.093 615.437 141.173 644.62 141.173C657.388 141.173 662.13 145.916 667.967 149.564C667.967 149.564 680.005 131.324 705.54 103.235C727.427 78.7945 755.516 49.2465 766.46 25.1704C767.919 23.7113 769.743 21.8873 773.391 21.8873C776.309 21.8873 779.957 22.6169 783.97 25.1704C790.901 29.1831 796.737 30.6423 796.737 35.7493C796.737 37.938 796.373 40.4916 793.819 44.5043C772.297 80.9832 716.119 135.337 689.854 169.627C689.854 169.627 664.684 206.106 659.941 212.672C658.117 215.226 657.388 217.415 657.388 218.509C657.388 219.603 658.117 219.968 658.847 219.968L712.106 190.055C713.565 189.326 722.32 183.854 723.415 183.854C728.522 183.854 727.792 189.691 730.346 195.162C731.805 198.081 732.534 200.269 732.534 201.729C732.534 203.917 723.415 209.754 721.226 210.848Z" fill="var(--fill-0, black)"/>
<path id="Vector_3" d="M584.341 210.848L536.554 241.855C527.799 247.692 482.565 271.039 456.665 271.039C441.344 271.039 437.331 254.623 437.331 248.786C437.331 189.326 519.774 101.411 581.788 61.2845C610.242 42.6803 632.494 36.114 643.437 36.114C650.733 38.6676 658.759 45.9634 660.583 55.0831C660.583 105.424 522.327 200.634 484.024 218.144C480.376 225.44 478.553 232.006 478.553 237.113C478.553 237.843 478.917 238.207 480.376 238.207C486.213 238.207 515.031 222.522 515.031 222.522L575.222 190.055C576.681 189.326 585.436 183.854 586.53 183.854C591.637 183.854 590.908 189.69 593.461 195.162C594.92 198.081 595.65 200.269 595.65 201.728C595.65 203.917 586.53 209.754 584.341 210.848ZM621.185 73.3226C598.203 85.7254 552.97 127.311 519.409 167.073L527.434 164.52C559.536 146.645 601.122 107.613 623.009 77.3353C624.104 75.8761 624.833 74.7817 624.833 73.6874C624.833 72.9578 624.468 72.593 623.739 72.593C623.374 72.593 622.28 72.593 621.185 73.3226Z" fill="var(--fill-0, black)"/>
<path id="Vector_4" d="M461.467 112.72C464.386 112.72 469.857 118.557 469.857 121.84C469.857 133.513 450.524 153.212 436.662 153.212C433.014 153.212 429.001 147.74 429.001 144.457C429.001 129.135 453.077 112.72 461.467 112.72ZM477.883 210.848C474.235 213.402 429.366 242.95 429.366 242.95C429.366 242.95 385.591 270.674 355.314 270.674C350.571 270.674 350.206 268.485 348.018 266.296C345.829 263.378 343.64 258.271 343.64 253.893C343.64 221.792 380.849 186.407 407.114 157.954C410.032 155.035 412.95 153.941 415.869 153.941C421.705 153.941 427.542 157.954 432.284 161.966C435.932 165.25 437.391 167.438 437.391 169.262C437.391 170.721 436.297 171.816 435.567 172.545C433.378 174.369 400.183 214.131 395.44 220.333C392.887 223.981 391.428 226.534 391.428 227.993C391.428 228.723 391.792 229.088 393.252 229.088C403.831 224.71 415.504 218.509 415.504 218.509L468.763 190.055C470.222 189.326 478.977 183.854 480.072 183.854C485.179 183.854 484.449 189.69 487.003 195.162C488.462 198.081 489.191 200.269 489.191 201.729C489.191 203.917 480.072 209.754 477.883 210.848Z" fill="var(--fill-0, black)"/>
<path id="Vector_5" d="M327.345 221.792L383.522 190.42C384.981 189.691 393.736 184.219 394.831 184.219C399.938 184.219 398.843 189.691 401.397 195.162C402.856 198.081 403.586 200.269 403.586 201.729C403.586 203.917 394.466 209.754 392.277 210.848L346.678 241.855C334.276 250.246 309.835 262.648 298.891 262.648C296.702 262.648 295.243 261.919 294.149 260.46C290.501 255.717 286.488 251.34 286.488 245.868C286.488 244.409 286.488 243.315 287.218 241.855C289.771 234.56 294.513 225.44 294.878 223.981C294.878 223.251 294.878 222.886 294.149 222.886C293.419 222.886 292.325 223.616 291.23 224.346C282.111 232.006 244.537 259.365 231.405 259.365C225.933 259.365 219.002 250.246 219.002 245.139C219.002 213.767 274.45 149.199 292.69 149.199C299.985 149.199 310.929 157.224 310.929 161.602C310.929 166.709 270.802 198.81 270.802 213.037C270.802 213.767 271.167 214.496 271.897 214.496C272.626 214.496 273.356 214.131 274.45 213.402C277.733 211.213 318.59 179.841 325.885 174.005C333.181 168.533 342.666 156.13 345.584 153.576C347.773 151.388 351.421 148.834 355.069 148.834C360.54 148.834 372.214 157.224 372.214 162.331C372.214 163.426 371.849 164.52 371.119 165.25C366.742 169.992 328.439 212.672 326.25 217.05C325.156 218.874 324.426 220.333 324.426 221.062C324.426 221.792 324.791 222.157 325.521 222.157C325.885 222.157 326.615 222.157 327.345 221.792Z" fill="var(--fill-0, black)"/>
<path id="Vector_6" d="M16.7803 72.5931C48.517 40.8564 161.602 0 236.384 0C254.258 0 269.579 2.55351 281.618 7.66057C294.02 13.1324 320.285 36.8437 320.285 56.9072C320.285 76.6058 286.725 96.3044 273.227 101.776C259.365 107.613 234.924 119.286 229.453 120.745C228.723 121.11 228.358 121.11 228.358 121.475C228.358 121.475 261.554 126.947 261.554 158.683C261.554 208.295 128.041 271.039 73.3227 271.039C70.4044 271.039 67.4861 270.674 64.5678 270.309C60.1903 269.579 50.7057 266.296 50.7057 251.34C50.7057 247.692 51.4353 244.409 52.5297 241.491L36.479 261.919C31.7367 267.756 27.3592 272.863 21.8874 272.863C21.8874 272.863 0 266.661 0 254.988C0 253.164 0.364789 251.34 1.45916 249.151C6.931 237.478 55.8128 173.64 66.0269 159.048C74.4171 147.01 133.148 75.1466 151.752 53.9889C109.072 65.2973 67.8509 83.9016 31.7367 105.789C29.548 107.248 26.6296 109.072 22.9817 109.072C16.4155 109.072 8.39016 99.5875 8.39016 91.5622C8.39016 83.172 14.2268 75.5114 16.7803 72.5931ZM60.9199 230.547L64.5678 228.358C106.519 221.427 191.15 190.785 221.062 152.117C221.062 152.117 220.698 148.105 218.509 148.105C163.426 148.105 133.513 158.683 133.513 158.683C131.324 158.683 130.23 156.495 129.5 153.212L128.041 144.457C104.695 174.734 79.1593 207.2 60.9199 230.547ZM190.055 65.2973C190.055 65.2973 174.734 84.996 153.576 111.99C195.892 98.1284 271.768 72.2283 293.291 51.0705C279.429 41.9508 267.756 41.586 239.302 41.586C219.968 41.586 200.999 43.4099 182.03 47.0578C185.678 48.8818 188.961 51.0705 190.055 51.4353C191.15 52.1649 192.974 55.448 192.974 59.0959C192.974 61.2846 192.244 63.4734 190.055 65.2973Z" fill="var(--fill-0, black)"/>
</g>
</svg>
